<?xml version="1.0" encoding="UTF-8"?>
<svg xmlns="http://www.w3.org/2000/svg" xmlns:xlink="http://www.w3.org/1999/xlink" viewBox="0 0 1988.72 817.54">
  <defs>
    <style>
      .cls-1 {
        fill: url(#radial-gradient-10);
      }

      .cls-2 {
        fill: url(#New_swatch_275-12);
      }

      .cls-2, .cls-3, .cls-4, .cls-5, .cls-6, .cls-7, .cls-8, .cls-9, .cls-10, .cls-11, .cls-12, .cls-13, .cls-14, .cls-15, .cls-16, .cls-17, .cls-18, .cls-19, .cls-20, .cls-21, .cls-22, .cls-23, .cls-24, .cls-25, .cls-26, .cls-27, .cls-28, .cls-29, .cls-30 {
        mix-blend-mode: screen;
      }

      .cls-31 {
        fill: url(#New_swatch_277-5);
      }

      .cls-3 {
        fill: url(#New_swatch_399);
      }

      .cls-32 {
        fill: url(#New_swatch_397-3);
      }

      .cls-33 {
        fill: url(#New_swatch_285);
      }

      .cls-34 {
        fill: url(#New_swatch_326-8);
      }

      .cls-34, .cls-35, .cls-36, .cls-37, .cls-38, .cls-39, .cls-40, .cls-41, .cls-42, .cls-43, .cls-44, .cls-45, .cls-46, .cls-47, .cls-48, .cls-49, .cls-50, .cls-51, .cls-52, .cls-53, .cls-54, .cls-55 {
        mix-blend-mode: multiply;
      }

      .cls-4 {
        fill: url(#New_swatch_398-3);
      }

      .cls-56 {
        fill: url(#New_swatch_275-11);
      }

      .cls-57 {
        fill: url(#linear-gradient-2);
      }

      .cls-35 {
        fill: url(#linear-gradient-13);
      }

      .cls-36 {
        fill: url(#New_swatch_281-10);
      }

      .cls-58 {
        fill: url(#radial-gradient-9);
      }

      .cls-5 {
        fill: url(#linear-gradient-10);
      }

      .cls-37 {
        fill: url(#New_swatch_275-9);
      }

      .cls-59 {
        fill: url(#New_swatch_277-9);
      }

      .cls-6 {
        fill: url(#New_swatch_399-4);
      }

      .cls-60 {
        fill: url(#New_swatch_277);
      }

      .cls-7 {
        fill: url(#linear-gradient-18);
      }

      .cls-61 {
        fill: url(#New_swatch_275-14);
      }

      .cls-8 {
        fill: url(#linear-gradient-6);
      }

      .cls-38 {
        fill: url(#New_swatch_281-8);
      }

      .cls-62 {
        fill: url(#New_swatch_279);
      }

      .cls-9 {
        fill: url(#New_swatch_398-4);
      }

      .cls-10 {
        fill: url(#New_swatch_281-7);
      }

      .cls-63 {
        fill: url(#New_swatch_275);
      }

      .cls-64 {
        fill: url(#radial-gradient-5);
      }

      .cls-65 {
        fill: url(#New_swatch_397);
      }

      .cls-39 {
        fill: url(#New_swatch_326-4);
      }

      .cls-66 {
        fill: url(#New_swatch_321-2);
      }

      .cls-40 {
        fill: url(#New_swatch_326-6);
      }

      .cls-41 {
        fill: url(#New_swatch_285-2);
      }

      .cls-42 {
        fill: url(#linear-gradient-12);
      }

      .cls-11 {
        fill: url(#New_swatch_399-2);
      }

      .cls-67 {
        fill: url(#New_swatch_275-3);
      }

      .cls-68 {
        fill: url(#radial-gradient-3);
      }

      .cls-69 {
        fill: url(#New_swatch_275-8);
      }

      .cls-70 {
        fill: url(#New_swatch_328);
      }

      .cls-71 {
        fill: url(#New_swatch_277-6);
      }

      .cls-72 {
        fill: url(#linear-gradient-5);
      }

      .cls-73 {
        fill: url(#New_swatch_277-2);
      }

      .cls-12 {
        fill: url(#radial-gradient);
      }

      .cls-13 {
        fill: url(#New_swatch_398);
      }

      .cls-74 {
        fill: url(#New_swatch_277-7);
      }

      .cls-14 {
        fill: url(#New_swatch_398-2);
      }

      .cls-15 {
        fill: url(#New_swatch_275-13);
      }

      .cls-16 {
        fill: url(#linear-gradient-4);
      }

      .cls-17 {
        fill: url(#New_swatch_275-7);
      }

      .cls-75 {
        isolation: isolate;
      }

      .cls-43 {
        fill: url(#New_swatch_281-3);
      }

      .cls-76 {
        fill: url(#radial-gradient-11);
      }

      .cls-44 {
        fill: url(#linear-gradient-8);
      }

      .cls-45 {
        fill: url(#New_swatch_326-2);
      }

      .cls-18 {
        fill: url(#New_swatch_328-3);
      }

      .cls-77 {
        fill: url(#New_swatch_285-7);
      }

      .cls-19 {
        fill: url(#New_swatch_275-10);
      }

      .cls-78 {
        fill: url(#New_swatch_321);
      }

      .cls-79 {
        fill: url(#New_swatch_275-15);
      }

      .cls-80 {
        fill: url(#New_swatch_275-5);
      }

      .cls-46 {
        fill: url(#New_swatch_285-5);
      }

      .cls-81 {
        fill: url(#New_swatch_277-4);
      }

      .cls-82 {
        fill: url(#radial-gradient-8);
      }

      .cls-83 {
        fill: url(#radial-gradient-2);
      }

      .cls-84 {
        fill: url(#New_swatch_277-8);
      }

      .cls-85 {
        fill: url(#New_swatch_281-9);
      }

      .cls-47 {
        fill: url(#New_swatch_285-3);
      }

      .cls-86 {
        fill: url(#New_swatch_277-10);
      }

      .cls-87 {
        fill: url(#New_swatch_294);
      }

      .cls-48 {
        fill: url(#New_swatch_326-10);
      }

      .cls-88 {
        fill: url(#radial-gradient-4);
      }

      .cls-89 {
        fill: url(#linear-gradient-9);
      }

      .cls-90 {
        fill: url(#New_swatch_281);
      }

      .cls-49 {
        fill: url(#linear-gradient-3);
      }

      .cls-20 {
        fill: url(#linear-gradient-16);
      }

      .cls-91 {
        fill: url(#New_swatch_277-3);
      }

      .cls-21 {
        fill: url(#linear-gradient-11);
      }

      .cls-22 {
        fill: url(#linear-gradient-17);
      }

      .cls-92 {
        fill: url(#New_swatch_397-4);
      }

      .cls-93 {
        fill: url(#New_swatch_397-2);
      }

      .cls-94 {
        fill: url(#New_swatch_327);
      }

      .cls-95 {
        fill: url(#New_swatch_281-5);
      }

      .cls-96 {
        fill: url(#New_swatch_327-2);
      }

      .cls-50 {
        fill: url(#New_swatch_326-3);
      }

      .cls-23 {
        fill: url(#linear-gradient-15);
      }

      .cls-97 {
        fill: url(#New_swatch_277-11);
      }

      .cls-24 {
        fill: url(#linear-gradient-14);
      }

      .cls-25 {
        fill: url(#New_swatch_285-6);
      }

      .cls-98 {
        fill: url(#radial-gradient-6);
      }

      .cls-51 {
        fill: url(#New_swatch_326-7);
      }

      .cls-26 {
        fill: url(#linear-gradient-7);
      }

      .cls-52 {
        fill: url(#linear-gradient);
      }

      .cls-27 {
        fill: url(#New_swatch_399-3);
      }

      .cls-99 {
        fill: url(#radial-gradient-7);
      }

      .cls-53 {
        fill: url(#New_swatch_326);
      }

      .cls-100 {
        fill: url(#New_swatch_275-2);
      }

      .cls-101 {
        fill: url(#New_swatch_277-12);
      }

      .cls-28 {
        fill: url(#New_swatch_294-2);
      }

      .cls-102 {
        fill: url(#New_swatch_285-4);
      }

      .cls-103 {
        fill: url(#New_swatch_281-4);
      }

      .cls-29 {
        fill: url(#New_swatch_281-6);
      }

      .cls-54 {
        fill: url(#New_swatch_326-5);
      }

      .cls-104 {
        fill: url(#New_swatch_275-4);
      }

      .cls-30 {
        fill: url(#New_swatch_281-2);
      }

      .cls-55 {
        fill: url(#New_swatch_326-9);
      }

      .cls-105 {
        fill: url(#New_swatch_328-2);
      }

      .cls-106 {
        fill: url(#New_swatch_275-6);
      }

      .cls-107 {
        fill: url(#New_swatch_281-11);
      }
    </style>
    <linearGradient id="linear-gradient" x1="1004.02" y1="648.23" x2="1004.75" y2="962.97" gradientUnits="userSpaceOnUse">
      <stop offset=".29" stop-color="#e3e3e3"/>
      <stop offset=".35" stop-color="#dededf"/>
      <stop offset=".42" stop-color="#d2d1d3"/>
      <stop offset=".48" stop-color="#bebcc1"/>
      <stop offset=".55" stop-color="#a19ea7"/>
      <stop offset=".61" stop-color="#7d7885"/>
      <stop offset=".66" stop-color="#615b6c"/>
    </linearGradient>
    <linearGradient id="New_swatch_275" data-name="New swatch 275" x1="1032.3" y1="-969.17" x2="940.62" y2="521.18" gradientUnits="userSpaceOnUse">
      <stop offset="0" stop-color="#3f4858"/>
      <stop offset="1" stop-color="#14171b"/>
    </linearGradient>
    <linearGradient id="linear-gradient-2" x1="867.96" y1="-273.08" x2="1205.71" y2="1155.48" gradientUnits="userSpaceOnUse">
      <stop offset="0" stop-color="#d4d4d4"/>
      <stop offset="1" stop-color="#14171b"/>
    </linearGradient>
    <linearGradient id="New_swatch_275-2" data-name="New swatch 275" x1="370.94" y1="639.63" x2="467.9" y2="639.63" xlink:href="#New_swatch_275"/>
    <linearGradient id="New_swatch_275-3" data-name="New swatch 275" x1="1740.35" y1="680.31" x2="1764.67" y2="680.31" xlink:href="#New_swatch_275"/>
    <linearGradient id="New_swatch_275-4" data-name="New swatch 275" x1="565.61" y1="33.87" x2="610.62" y2="33.87" xlink:href="#New_swatch_275"/>
    <linearGradient id="New_swatch_281" data-name="New swatch 281" x1="971.55" y1="-23" x2="1041.82" y2="1486.11" gradientUnits="userSpaceOnUse">
      <stop offset="0" stop-color="#fbf9fb"/>
      <stop offset="1" stop-color="#a19ca6"/>
    </linearGradient>
    <radialGradient id="radial-gradient" cx="931.66" cy="15696.19" fx="931.66" fy="15696.19" r="594.55" gradientTransform="translate(0 -2035.57) scale(1 .14)" gradientUnits="userSpaceOnUse">
      <stop offset="0" stop-color="#fbf9fb"/>
      <stop offset="1" stop-color="#a19ca6" stop-opacity="0"/>
    </radialGradient>
    <linearGradient id="linear-gradient-3" x1="1838.17" y1="167.93" x2="2022.06" y2="187.16" gradientUnits="userSpaceOnUse">
      <stop offset="0" stop-color="#3f4858" stop-opacity="0"/>
      <stop offset=".39" stop-color="#343c49" stop-opacity=".24"/>
      <stop offset=".95" stop-color="#171a1f" stop-opacity=".93"/>
      <stop offset="1" stop-color="#14171b"/>
    </linearGradient>
    <linearGradient id="New_swatch_399" data-name="New swatch 399" x1="1924.52" y1="177.4" x2="1933.25" y2="176.65" gradientUnits="userSpaceOnUse">
      <stop offset="0" stop-color="#f5f6f6"/>
      <stop offset=".09" stop-color="#eaebeb" stop-opacity=".95"/>
      <stop offset=".25" stop-color="#cdcecf" stop-opacity=".82"/>
      <stop offset=".47" stop-color="#9fa0a2" stop-opacity=".62"/>
      <stop offset=".73" stop-color="#5e6063" stop-opacity=".33"/>
      <stop offset="1" stop-color="#14171b" stop-opacity="0"/>
    </linearGradient>
    <linearGradient id="New_swatch_281-2" data-name="New swatch 281" x1="295.31" y1="265.04" x2="400.65" y2="467.58" xlink:href="#New_swatch_281"/>
    <linearGradient id="linear-gradient-4" x1="372.17" y1="398.45" x2="-115.17" y2="855.1" gradientUnits="userSpaceOnUse">
      <stop offset="0" stop-color="#fbf9fb"/>
      <stop offset="1" stop-color="#a19ca6" stop-opacity=".01"/>
    </linearGradient>
    <linearGradient id="New_swatch_326" data-name="New swatch 326" x1="336.9" y1="397.89" x2="471.98" y2="465.97" gradientUnits="userSpaceOnUse">
      <stop offset="0" stop-color="#3f4858" stop-opacity="0"/>
      <stop offset="1" stop-color="#14171b"/>
    </linearGradient>
    <linearGradient id="New_swatch_398" data-name="New swatch 398" x1="381.38" y1="419.55" x2="384.38" y2="419.55" gradientUnits="userSpaceOnUse">
      <stop offset="0" stop-color="#afb2b5"/>
      <stop offset=".11" stop-color="#a4a7ab" stop-opacity=".94"/>
      <stop offset=".32" stop-color="#8a8d90" stop-opacity=".76"/>
      <stop offset=".59" stop-color="#5e6165" stop-opacity=".48"/>
      <stop offset=".92" stop-color="#23262a" stop-opacity=".1"/>
      <stop offset="1" stop-color="#14171b" stop-opacity="0"/>
    </linearGradient>
    <linearGradient id="New_swatch_398-2" data-name="New swatch 398" x1="381.45" y1="419.22" x2="410.89" y2="425.94" xlink:href="#New_swatch_398"/>
    <linearGradient id="New_swatch_326-2" data-name="New swatch 326" x1="2.59" y1="296.04" x2="89.78" y2="482.72" xlink:href="#New_swatch_326"/>
    <linearGradient id="New_swatch_281-3" data-name="New swatch 281" x1="282.27" y1="465.52" x2="305.25" y2="725.5" xlink:href="#New_swatch_281"/>
    <linearGradient id="New_swatch_326-3" data-name="New swatch 326" x1="294.01" y1="278.14" x2="409.17" y2="386.12" xlink:href="#New_swatch_326"/>
    <linearGradient id="New_swatch_275-5" data-name="New swatch 275" x1="624.04" y1="-262.59" x2="523.81" y2="211.06" xlink:href="#New_swatch_275"/>
    <linearGradient id="New_swatch_321" data-name="New swatch 321" x1="580.31" y1="177" x2="318.65" y2="793.36" gradientUnits="userSpaceOnUse">
      <stop offset="0" stop-color="#134c6f"/>
      <stop offset=".76" stop-color="#131d2e"/>
      <stop offset="1" stop-color="#2c3c58"/>
      <stop offset="1" stop-color="#101a2b"/>
    </linearGradient>
    <linearGradient id="New_swatch_281-4" data-name="New swatch 281" x1="1342.66" y1="-370.1" x2="1374.95" y2="430.43" xlink:href="#New_swatch_281"/>
    <linearGradient id="New_swatch_281-5" data-name="New swatch 281" x1="1354.75" y1="19.51" x2="1401.5" y2="895.81" xlink:href="#New_swatch_281"/>
    <linearGradient id="New_swatch_281-6" data-name="New swatch 281" x1="1376.95" y1="269.36" x2="1389.49" y2="504.47" xlink:href="#New_swatch_281"/>
    <linearGradient id="New_swatch_281-7" data-name="New swatch 281" x1="1213.18" y1="383.94" x2="1247.56" y2="920.56" xlink:href="#New_swatch_281"/>
    <linearGradient id="New_swatch_326-4" data-name="New swatch 326" x1="1808.87" y1="27.04" x2="1941.25" y2="404.75" xlink:href="#New_swatch_326"/>
    <linearGradient id="linear-gradient-5" x1="1215.67" y1="335.6" x2="1228.63" y2="531.28" gradientUnits="userSpaceOnUse">
      <stop offset="0" stop-color="#3f4858" stop-opacity="0"/>
      <stop offset=".52" stop-color="#2c323d" stop-opacity=".43"/>
      <stop offset="1" stop-color="#14171b"/>
    </linearGradient>
    <linearGradient id="New_swatch_275-6" data-name="New swatch 275" x1="944.35" y1="541.44" x2="944.35" y2="609.52" xlink:href="#New_swatch_275"/>
    <linearGradient id="New_swatch_275-7" data-name="New swatch 275" x1="387.12" y1="554.8" x2="1503.18" y2="554.8" xlink:href="#New_swatch_275"/>
    <linearGradient id="New_swatch_326-5" data-name="New swatch 326" x1="1083.43" y1="-270.32" x2="1141.86" y2="522.93" xlink:href="#New_swatch_326"/>
    <linearGradient id="New_swatch_399-2" data-name="New swatch 399" x1="306.41" y1="190.38" x2="1916.59" y2="52.99" xlink:href="#New_swatch_399"/>
    <linearGradient id="New_swatch_321-2" data-name="New swatch 321" x1="401.3" y1="185.11" x2="231.68" y2="493.5" xlink:href="#New_swatch_321"/>
    <linearGradient id="New_swatch_281-8" data-name="New swatch 281" x1="695.06" y1="409.55" x2="695.06" y2="353.49" xlink:href="#New_swatch_281"/>
    <radialGradient id="radial-gradient-2" cx="695.21" cy="22148.01" fx="695.21" fy="22148.01" r="84.79" gradientTransform="translate(0 -1895.81) scale(1 .1)" gradientUnits="userSpaceOnUse">
      <stop offset="0" stop-color="#646f81"/>
      <stop offset="1" stop-color="#14171b"/>
    </radialGradient>
    <linearGradient id="New_swatch_326-6" data-name="New swatch 326" x1="697.4" y1="226.1" x2="920.74" y2="257.62" xlink:href="#New_swatch_326"/>
    <linearGradient id="New_swatch_326-7" data-name="New swatch 326" x1="681.56" y1="204.28" x2="1221.35" y2="292.44" xlink:href="#New_swatch_326"/>
    <linearGradient id="New_swatch_398-3" data-name="New swatch 398" x1="795.32" y1="222.49" x2="798.33" y2="222.49" xlink:href="#New_swatch_398"/>
    <linearGradient id="New_swatch_326-8" data-name="New swatch 326" x1="655.03" y1="481.16" x2="1110.2" y2="780.18" xlink:href="#New_swatch_326"/>
    <linearGradient id="New_swatch_275-8" data-name="New swatch 275" x1="328.04" y1="289.35" x2="362.43" y2="350.46" xlink:href="#New_swatch_275"/>
    <linearGradient id="New_swatch_294" data-name="New swatch 294" x1="1938.96" y1="482.29" x2="1982.67" y2="482.29" gradientUnits="userSpaceOnUse">
      <stop offset="0" stop-color="#bc2025"/>
      <stop offset="1" stop-color="#ef3f23"/>
    </linearGradient>
    <linearGradient id="New_swatch_328" data-name="New swatch 328" x1="1944.42" y1="549.1" x2="1949.77" y2="678.9" gradientUnits="userSpaceOnUse">
      <stop offset="0" stop-color="#525c6c"/>
      <stop offset="1" stop-color="#14171b"/>
    </linearGradient>
    <linearGradient id="New_swatch_275-9" data-name="New swatch 275" x1="1810.73" y1="548.5" x2="1808.7" y2="610.84" xlink:href="#New_swatch_275"/>
    <linearGradient id="New_swatch_275-10" data-name="New swatch 275" x1="1905.92" y1="554.8" x2="1988.35" y2="554.8" xlink:href="#New_swatch_275"/>
    <linearGradient id="New_swatch_275-11" data-name="New swatch 275" x1="1806.17" y1="548.5" x2="1804.14" y2="610.84" xlink:href="#New_swatch_275"/>
    <linearGradient id="New_swatch_275-12" data-name="New swatch 275" x1="1689.08" y1="554.8" x2="1930.74" y2="554.8" xlink:href="#New_swatch_275"/>
    <linearGradient id="New_swatch_294-2" data-name="New swatch 294" x1="1958.1" y1="442.09" x2="1975.4" y2="442.09" xlink:href="#New_swatch_294"/>
    <linearGradient id="New_swatch_281-9" data-name="New swatch 281" x1="281.56" y1="470.66" x2="304.06" y2="725.27" xlink:href="#New_swatch_281"/>
    <linearGradient id="linear-gradient-6" x1="305.32" y1="477.56" x2="298.57" y2="649.58" gradientUnits="userSpaceOnUse">
      <stop offset="0" stop-color="#fbf9fb"/>
      <stop offset="1" stop-color="#a19ca6" stop-opacity="0"/>
    </linearGradient>
    <linearGradient id="New_swatch_281-10" data-name="New swatch 281" x1="1572.49" y1="466.16" x2="1593.26" y2="701.2" xlink:href="#New_swatch_281"/>
    <linearGradient id="New_swatch_281-11" data-name="New swatch 281" x1="1572.98" y1="472.03" x2="1593.24" y2="701.32" xlink:href="#New_swatch_281"/>
    <linearGradient id="linear-gradient-7" x1="1592.18" y1="497.17" x2="1592.18" y2="720.19" xlink:href="#linear-gradient-6"/>
    <linearGradient id="New_swatch_326-9" data-name="New swatch 326" x1="683.42" y1="544.46" x2="817.3" y2="585.16" xlink:href="#New_swatch_326"/>
    <linearGradient id="New_swatch_399-3" data-name="New swatch 399" x1="744.77" y1="238.13" x2="797.34" y2="233.64" xlink:href="#New_swatch_399"/>
    <linearGradient id="New_swatch_399-4" data-name="New swatch 399" x1="707.25" y1="564.01" x2="775.19" y2="558.22" xlink:href="#New_swatch_399"/>
    <radialGradient id="New_swatch_397" data-name="New swatch 397" cx="13812.96" cy="250128.67" fx="13812.96" fy="250128.67" r="1028.15" gradientTransform="translate(-1511.66 -1938.9) scale(.24 .01)" gradientUnits="userSpaceOnUse">
      <stop offset="0" stop-color="#717c8d"/>
      <stop offset="1" stop-color="#14171b"/>
    </radialGradient>
    <linearGradient id="linear-gradient-8" x1="1199.8" y1="322.32" x2="1469.88" y2="380.11" xlink:href="#linear-gradient-5"/>
    <linearGradient id="New_swatch_398-4" data-name="New swatch 398" x1="1340.14" y1="349.4" x2="1486.61" y2="349.4" xlink:href="#New_swatch_398"/>
    <linearGradient id="New_swatch_328-2" data-name="New swatch 328" x1="110.12" y1="545.31" x2="112.24" y2="514.16" xlink:href="#New_swatch_328"/>
    <linearGradient id="New_swatch_328-3" data-name="New swatch 328" x1="110.48" y1="569.91" x2="110.48" y2="520.08" xlink:href="#New_swatch_328"/>
    <linearGradient id="New_swatch_285" data-name="New swatch 285" x1="13.66" y1="458.74" x2="136.52" y2="458.74" gradientUnits="userSpaceOnUse">
      <stop offset="0" stop-color="#e3e3e3"/>
      <stop offset="1" stop-color="#4e6895"/>
    </linearGradient>
    <linearGradient id="New_swatch_285-2" data-name="New swatch 285" x1="57.1" y1="425.76" x2="86.44" y2="482.99" xlink:href="#New_swatch_285"/>
    <linearGradient id="New_swatch_285-3" data-name="New swatch 285" x1="41.06" y1="428.08" x2="47.7" y2="481.72" xlink:href="#New_swatch_285"/>
    <linearGradient id="New_swatch_285-4" data-name="New swatch 285" x1="136.52" y1="410.46" x2="136.62" y2="410.46" xlink:href="#New_swatch_285"/>
    <linearGradient id="linear-gradient-9" x1="418.34" y1="282.61" x2="376.05" y2="282.61" gradientUnits="userSpaceOnUse">
      <stop offset="0" stop-color="#3f4858"/>
      <stop offset=".07" stop-color="#3b4352"/>
      <stop offset=".68" stop-color="#1e232a"/>
      <stop offset="1" stop-color="#14171b"/>
    </linearGradient>
    <linearGradient id="New_swatch_275-13" data-name="New swatch 275" x1="377.02" y1="228.27" x2="429.85" y2="322.12" xlink:href="#New_swatch_275"/>
    <linearGradient id="New_swatch_279" data-name="New swatch 279" x1="28" y1="483.89" x2="74.16" y2="492.37" gradientUnits="userSpaceOnUse">
      <stop offset="0" stop-color="#fcb01a"/>
      <stop offset="1" stop-color="#f04d23"/>
    </linearGradient>
    <linearGradient id="New_swatch_285-5" data-name="New swatch 285" x1="136.52" y1="410.46" x2="136.62" y2="410.46" xlink:href="#New_swatch_285"/>
    <linearGradient id="linear-gradient-10" x1="31.66" y1="434.73" x2="90.96" y2="485.23" gradientUnits="userSpaceOnUse">
      <stop offset="0" stop-color="#e3e3e3"/>
      <stop offset="1" stop-color="#4e6895" stop-opacity="0"/>
    </linearGradient>
    <linearGradient id="linear-gradient-11" x1="86.96" y1="411.55" x2="97.51" y2="432.67" xlink:href="#linear-gradient-4"/>
    <linearGradient id="linear-gradient-12" x1="17.51" y1="465.65" x2="49.46" y2="490.53" gradientUnits="userSpaceOnUse">
      <stop offset="0" stop-color="#fcb01a" stop-opacity="0"/>
      <stop offset="1" stop-color="#de2a26"/>
    </linearGradient>
    <radialGradient id="radial-gradient-3" cx="43.78" cy="-1001.95" fx="43.78" fy="-1001.95" r="129.19" gradientTransform="translate(0 3690.01) scale(1 3.08)" gradientUnits="userSpaceOnUse">
      <stop offset="0" stop-color="#525c6c"/>
      <stop offset="1" stop-color="#14171b"/>
    </radialGradient>
    <linearGradient id="New_swatch_326-10" data-name="New swatch 326" x1="737.84" y1="426.11" x2="897.45" y2="454.39" xlink:href="#New_swatch_326"/>
    <linearGradient id="New_swatch_275-14" data-name="New swatch 275" x1="471.52" y1="-145.22" x2="402.9" y2="179.07" xlink:href="#New_swatch_275"/>
    <linearGradient id="linear-gradient-13" x1="263.51" y1="288.35" x2="276.52" y2="484.74" xlink:href="#linear-gradient-5"/>
    <linearGradient id="linear-gradient-14" x1="739.52" y1="144.29" x2="650.66" y2="344.41" gradientUnits="userSpaceOnUse">
      <stop offset="0" stop-color="#134c6f"/>
      <stop offset=".76" stop-color="#131d2e" stop-opacity="0"/>
      <stop offset="1" stop-color="#2c3c58"/>
      <stop offset="1" stop-color="#101a2b"/>
    </linearGradient>
    <linearGradient id="linear-gradient-15" x1="626.78" y1="57.83" x2="449.11" y2="457.96" xlink:href="#linear-gradient-14"/>
    <linearGradient id="linear-gradient-16" x1="694.82" y1="86.22" x2="594.16" y2="431.28" gradientUnits="userSpaceOnUse">
      <stop offset="0" stop-color="#fff"/>
      <stop offset=".76" stop-color="#131d2e" stop-opacity="0"/>
      <stop offset="1" stop-color="#2c3c58"/>
      <stop offset="1" stop-color="#101a2b"/>
    </linearGradient>
    <linearGradient id="New_swatch_285-6" data-name="New swatch 285" x1="1944.13" y1="412" x2="1981.78" y2="485.47" xlink:href="#New_swatch_285"/>
    <linearGradient id="New_swatch_275-15" data-name="New swatch 275" x1="-3.46" y1="-4209.26" x2="13.48" y2="-4204.6" gradientTransform="translate(0 -3602.98) scale(1 -1)" xlink:href="#New_swatch_275"/>
    <linearGradient id="New_swatch_285-7" data-name="New swatch 285" x1="19.07" y1="-4217.91" x2="28.86" y2="-4217.91" gradientTransform="translate(0 -3602.98) scale(1 -1)" xlink:href="#New_swatch_285"/>
    <radialGradient id="New_swatch_397-2" data-name="New swatch 397" cx="904.58" cy="225580.36" fx="904.58" fy="225580.36" r="1028.15" gradientTransform="translate(28.96 -1661.71) scale(1.01 .01)" xlink:href="#New_swatch_397"/>
    <radialGradient id="New_swatch_397-3" data-name="New swatch 397" cx="-3485.69" cy="-1286.64" fx="-3485.69" fy="-1286.64" r="5.73" gradientTransform="translate(45473.59 -20144.25) rotate(-45) scale(13.39)" xlink:href="#New_swatch_397"/>
    <linearGradient id="New_swatch_327" data-name="New swatch 327" x1="-2501.01" y1="2589.93" x2="-2501.01" y2="2909.7" gradientTransform="translate(179.02 -2982.26) rotate(-45)" gradientUnits="userSpaceOnUse">
      <stop offset="0" stop-color="#3f4858"/>
      <stop offset="1" stop-color="#010101"/>
    </linearGradient>
    <linearGradient id="linear-gradient-17" x1="-2501.01" y1="2529.68" x2="-2501.01" y2="2765.71" gradientTransform="translate(179.02 -2982.26) rotate(-45)" gradientUnits="userSpaceOnUse">
      <stop offset="0" stop-color="#3f4858"/>
      <stop offset="1" stop-color="#010101" stop-opacity="0"/>
    </linearGradient>
    <linearGradient id="New_swatch_277" data-name="New swatch 277" x1="-4551.94" y1="-9312.36" x2="-4551.94" y2="-9220.06" gradientTransform="translate(-9445.7 -2632.61) rotate(135)" gradientUnits="userSpaceOnUse">
      <stop offset="0" stop-color="#e3e3e3"/>
      <stop offset="1" stop-color="#615b6c"/>
    </linearGradient>
    <linearGradient id="New_swatch_277-2" data-name="New swatch 277" x1="-9189.53" y1="-5450.74" x2="-9189.53" y2="-5358.44" gradientTransform="translate(-7190.92 -6887.65) rotate(-165)" xlink:href="#New_swatch_277"/>
    <linearGradient id="New_swatch_277-3" data-name="New swatch 277" x1="-8164.07" y1="496.35" x2="-8164.07" y2="588.64" gradientTransform="translate(-2378.56 -7062.48) rotate(-105)" xlink:href="#New_swatch_277"/>
    <linearGradient id="New_swatch_277-4" data-name="New swatch 277" x1="-2501.01" y1="2581.81" x2="-2501.01" y2="2674.11" gradientTransform="translate(179.02 -2982.26) rotate(-45)" xlink:href="#New_swatch_277"/>
    <linearGradient id="New_swatch_277-5" data-name="New swatch 277" x1="2136.59" y1="-1279.81" x2="2136.59" y2="-1187.51" gradientTransform="translate(-2075.76 1272.78) rotate(15)" xlink:href="#New_swatch_277"/>
    <linearGradient id="New_swatch_277-6" data-name="New swatch 277" x1="1111.12" y1="-7226.89" x2="1111.12" y2="-7134.6" gradientTransform="translate(-6888.12 1447.6) rotate(75)" xlink:href="#New_swatch_277"/>
    <radialGradient id="radial-gradient-4" cx="-1274.67" cy="6456.98" fx="-1274.67" fy="6456.98" r="153.09" gradientTransform="translate(-1617.29 -2183.3) rotate(-45) scale(.52)" gradientUnits="userSpaceOnUse">
      <stop offset="0" stop-color="#e3e3e3"/>
      <stop offset="1" stop-color="#615b6c"/>
    </radialGradient>
    <radialGradient id="radial-gradient-5" cx="-1274.67" cy="6456.98" fx="-1274.67" fy="6456.98" r="388.63" xlink:href="#radial-gradient-4"/>
    <radialGradient id="radial-gradient-6" cx="-1274.67" cy="6456.98" fx="-1274.67" fy="6456.98" r="39.51" gradientTransform="translate(-1617.29 -2183.3) rotate(-45) scale(.52)" gradientUnits="userSpaceOnUse">
      <stop offset="0" stop-color="#e3e3e3"/>
      <stop offset="1" stop-color="#453f50"/>
    </radialGradient>
    <radialGradient id="radial-gradient-7" cx="-1274.67" cy="6456.98" fx="-1274.67" fy="6456.98" r="81.76" xlink:href="#radial-gradient-4"/>
    <radialGradient id="New_swatch_397-4" data-name="New swatch 397" cx="-3379.4" cy="-1320.18" fx="-3379.4" fy="-1320.18" r="5.73" gradientTransform="translate(46081.64 -18820.6) rotate(-45) scale(13.39)" xlink:href="#New_swatch_397"/>
    <linearGradient id="New_swatch_327-2" data-name="New swatch 327" x1="-1078.08" y1="2285.26" x2="-1078.08" y2="2605.03" gradientTransform="translate(685.03 -1760.66) rotate(-45)" xlink:href="#New_swatch_327"/>
    <linearGradient id="linear-gradient-18" x1="-1078.08" y1="2225.01" x2="-1078.08" y2="2461.04" gradientTransform="translate(685.03 -1760.66) rotate(-45)" xlink:href="#linear-gradient-17"/>
    <linearGradient id="New_swatch_277-7" data-name="New swatch 277" x1="-5974.87" y1="-9007.69" x2="-5974.87" y2="-8915.39" gradientTransform="translate(-8939.7 -1411.01) rotate(135)" xlink:href="#New_swatch_277"/>
    <linearGradient id="New_swatch_277-8" data-name="New swatch 277" x1="-9637.14" y1="-4066.11" x2="-9637.14" y2="-3973.81" gradientTransform="translate(-6684.92 -5666.05) rotate(-165)" xlink:href="#New_swatch_277"/>
    <linearGradient id="New_swatch_277-9" data-name="New swatch 277" x1="-7188.75" y1="1576.31" x2="-7188.75" y2="1668.6" gradientTransform="translate(-1872.56 -5840.88) rotate(-105)" xlink:href="#New_swatch_277"/>
    <linearGradient id="New_swatch_277-10" data-name="New swatch 277" x1="-1078.08" y1="2277.14" x2="-1078.08" y2="2369.44" gradientTransform="translate(685.03 -1760.66) rotate(-45)" xlink:href="#New_swatch_277"/>
    <linearGradient id="New_swatch_277-11" data-name="New swatch 277" x1="2584.2" y1="-2664.44" x2="2584.2" y2="-2572.14" gradientTransform="translate(-1569.76 2494.38) rotate(15)" xlink:href="#New_swatch_277"/>
    <linearGradient id="New_swatch_277-12" data-name="New swatch 277" x1="135.8" y1="-8306.85" x2="135.8" y2="-8214.55" gradientTransform="translate(-6382.12 2669.2) rotate(75)" xlink:href="#New_swatch_277"/>
    <radialGradient id="radial-gradient-8" cx="1449.2" cy="5873.76" fx="1449.2" fy="5873.76" r="153.09" gradientTransform="translate(-1111.29 -961.7) rotate(-45) scale(.52)" xlink:href="#radial-gradient-4"/>
    <radialGradient id="radial-gradient-9" cx="1449.2" cy="5873.76" fx="1449.2" fy="5873.76" r="388.63" gradientTransform="translate(-1111.29 -961.7) rotate(-45) scale(.52)" xlink:href="#radial-gradient-4"/>
    <radialGradient id="radial-gradient-10" cx="1449.2" cy="5873.76" fx="1449.2" fy="5873.76" r="39.51" gradientTransform="translate(-1111.29 -961.7) rotate(-45) scale(.52)" xlink:href="#radial-gradient-6"/>
    <radialGradient id="radial-gradient-11" cx="1449.2" cy="5873.76" fx="1449.2" fy="5873.76" r="81.76" gradientTransform="translate(-1111.29 -961.7) rotate(-45) scale(.52)" xlink:href="#radial-gradient-4"/>
  </defs>
  <g class="cls-75">
    <g id="Layer_2" data-name="Layer 2">
      <g id="Layer_1-2" data-name="Layer 1">
        <g>
          <ellipse class="cls-52" cx="1004.39" cy="808.47" rx="954.57" ry="9.07"/>
          <rect class="cls-63" x="66.82" y="421.48" width="1743.93" height="259.2"/>
          <path class="cls-57" d="M21.73,441.54c1.61-11.49,6.7-24.6,17.07-35.02,10.36-10.42,23.42-16.71,36.45-23.52,65.02-34,192.06-90.3,196.79-91.52,5.01-1.28,12.96-5.04,17.97-6.32,0,0,218.48-206.4,217.14-207.99-1.65-1.54,19.25-25.7,36.26-32.12,17.01-6.42,35.65-12.54,59.2-17.28C1042.99-9.17,1486.59-2.73,1928.25,9.96c16.23.83,26.16,12.85,28.47,28.94,37.42,261.49,31.02,445.18,27.78,521.78-2.16,51.1,2.67,40.71-10.21,90.21l-139.49,23.45-54.74-280.91-584.27,11.84L21.73,441.54Z"/>
          <path class="cls-100" d="M467.9,746.56l-14.19.32c0-8.74-2.98-148.12-82.77-214.51,5.47,3.4,10.52,7.07,15.21,10.97,20.21,16.81,33.72,42.42,45.1,64.55,4.02,7.79,7.76,15.71,11.45,23.61,9.83,21.05,17.86,43.92,21.71,67.14,1.31,7.93,3.49,47.91,3.49,47.91Z"/>
          <path class="cls-67" d="M1740.35,605.38c8.83,48.65,12.43,98.25,10.72,147.67l13.6,2.91c.15-50.77-4.89-101.54-15-151.29-1.06,2.46-2.12,4.92-9.31.72Z"/>
          <path class="cls-104" d="M565.61,47.98l30.43-26.46c2.27-1.98,5.54-2.32,8.17-.84h0c1.55.87,2.73,2.29,3.29,3.97l3.12,9.36-45.02,13.98Z"/>
          <path class="cls-90" d="M1980.99,544.74c-.08,2.56-.16,5.13-.25,7.69-.58,17.49-1.32,34.95-2.21,52.36-.42,8.28-.88,16.55-1.37,24.81-.58,9.75-1.21,19.49-1.88,29.21-39.75,11.69-117.81,19.91-203.58,25.54-6.88.45-13.8.88-20.75,1.3-5.12-28.83-11.68-58.65-22.56-80.86h-.59c-.65-1.7-1.32-3.39-2.03-5.05,0-.02-.02-.04-.03-.05-12.29-22.26-27.11-40.79-44.09-54.94-21.08-17.6-45.48-28.47-72.46-31.44-.59-.07-1.18-.13-1.77-.18-.59-.06-1.18-.11-1.77-.16-.59-.05-1.19-.1-1.78-.14-.76-.05-1.52-.1-2.29-.14-32.12-1.61-65.93,8.59-92.58,27.55-1.97,1.45-3.92,2.95-5.81,4.5-10.5,8.57-19.76,18.61-27.48,29.79-.05.08-.1.16-.15.23-5.98,9.31-11.17,19.31-15.66,29.76-.04.09-.07.18-.1.26h-.02c-12.11,28.24-19.16,59.82-23.07,90.44-12.59-.04-21.41-.2-25.54-.47-.61-.04-1.12-.08-1.52-.12l-690.81.66h-3.72l-225.95.22h-8.56s-11.1.02-11.1.02c-1.9-5.82-3.93-11.83-6.13-18.03,0,0,0-.02,0-.02-7.85-22.11-17.83-46.54-31.68-72.7h-.88c-.88-2.31-1.82-4.59-2.81-6.85-.01-.04-.04-.08-.06-.11-11.93-21.7-26.13-39.48-42.38-53.09-21.17-17.74-45.8-28.4-73.36-31.44-.59-.07-1.18-.13-1.77-.18-.59-.06-1.18-.11-1.77-.16-.59-.05-1.18-.1-1.77-.14h-.02c-.76-.05-1.52-.1-2.29-.14-29.47-1.48-60.37,6.99-85.85,23.04-2.29,1.44-4.53,2.94-6.73,4.5-1.81,1.33-3.59,2.7-5.34,4.13-10.77,8.7-20.25,18.95-28.11,30.4,0,0,0,.02-.02.02-4.57,7.12-8.74,14.56-12.52,22.24-8.19,16.57-14.66,34.23-19.75,52.11-4.44,15.59-7.84,31.36-10.43,46.72h-8.28s-111.49-26.67-111.49-26.67l-4.04-.97.02-.26,7.8-123.61,3.73-59.19h0s2.6-41.28,2.6-41.28c-.4-5.43.47-10.79,2.28-15.88,2.93-8.23,8.31-15.77,14.76-21.75,10.46-9.68,23.51-16,36.34-22.17,58.46-28.13,121.9-60.01,182.39-85.55,3.25-1.38,6.49-2.73,9.73-4.07,1.08-.45,2.15-.89,3.24-1.33,1.42-.59,2.83-1.16,4.25-1.73,5.31-6.65,165.05-167.73,238.16-225.25.36-.29.71-.56,1.07-.84,3.16-2.44,6.26-4.66,9.32-6.68,21.93-14.55,41.56-19.1,64.55-22.75C943.93-.56,1549.06-3.88,1926.52,16.79c13.05.71,23.7,10.85,25.63,23.79,1.41,9.45,2.78,18.91,4.08,28.37,9.84,71.15,16.81,142.67,21.06,214.14.97,16.22,1.79,32.45,2.48,48.66.05,1.07.1,2.15.14,3.23.81,19.57,1.42,39.13,1.82,58.67.26,12.46.44,24.9.54,37.35.31,38.03-.13,75.96-1.28,113.74Z"/>
          <path class="cls-12" d="M1977.29,283.09H695.05V68.95h1261.17c9.84,71.15,16.81,142.67,21.06,214.14Z"/>
          <polygon class="cls-49" points="1937.82 337.33 1913.94 16.11 1908.69 15.84 1932.58 337.55 1937.82 337.33"/>
          <polygon class="cls-3" points="1943.47 337.77 1919.59 16.55 1914.34 16.28 1938.22 337.98 1943.47 337.77"/>
          <path class="cls-30" d="M543.4,65.98l-231.48,234.28L28.44,428.03c2.93-8.23,8.31-15.77,14.76-21.75,10.46-9.68,23.51-16,36.34-22.17,58.46-28.13,121.9-60.01,182.39-85.55,3.25-1.38,6.49-2.73,9.73-4.07,1.08-.45,2.15-.89,3.24-1.33,1.42-.59,2.83-1.16,4.25-1.73,5.31-6.65,165.05-167.73,238.16-225.25.36-.29.71-.56,1.07-.84,3.16-2.44,6.26-4.66,9.32-6.68l15.71,7.33Z"/>
          <path class="cls-16" d="M757.58,68.95c-5.82,56.41-11.84,103.21-21.32,157.95-4.68,27.07-11.27,66.38-36.6,82.7-15.85,10.22-34.5,14.64-53.15,17.44-202.14,30.35-532.98,98.49-538.14,99.54,11.48-3.65,22.99-7.33,34.56-11.05,76.73-24.64,155.49-50.46,238.01-73.75,97.04-27.4,199.29-51.31,309.61-65.7,18.55-65.26,34.9-131.15,48.54-197.62,6.17-3.17,12.34-6.33,18.5-9.5Z"/>
          <rect class="cls-53" x="378.37" y="335.86" width="3" height="167.38"/>
          <rect class="cls-13" x="381.38" y="335.86" width="3" height="167.38"/>
          <rect class="cls-53" x="378.37" y="335.86" width="3" height="167.38"/>
          <rect class="cls-14" x="381.38" y="335.86" width="3" height="167.38"/>
          <path class="cls-45" d="M25.8,427.32s17.72-2.61,17.71-2.72c28.98-20.24,63.83-26.58,98.89-17.31-19.86,41.9-49.35,75.84-89.82,98.46,0,1.39,0,2.77,0,4.16l-36.98,2.07c10.94-24.41,10.2-84.66,10.2-84.66Z"/>
          <path class="cls-43" d="M492.03,708.98c-3.17.57-32.5-.03-32.5-.03-7.48-35.14-23.22-128.54-72.32-169.35-21.35-17.74-46.2-28.4-74-31.44-.59-.07-1.19-.13-1.79-.18-.6-.06-1.19-.11-1.79-.16-.6-.05-1.19-.1-1.79-.14h-.02c-.76-.05-1.54-.1-2.31-.14-29.73-1.48-60.9,6.99-86.6,23.04-2.31,1.44-4.57,2.94-6.78,4.5-1.82,1.33-3.62,2.7-5.38,4.13-10.87,8.7-20.43,18.95-28.36,30.4,0,0,0,.02-.02.02-4.61,7.12-8.81,14.56-12.63,22.24-8.26,16.57-14.79,34.23-19.92,52.11-2.14-1.36-4.26-2.73-6.38-4.13-11.45-7.55-22.79-15.81-30.7-26.95-7.91-11.15,3.94-27.72,18.13-31.53,25.73-71.64,90.58-116.16,167.28-116.16s120,28.95,146.3,74.37c49.12,84.84,50.89,162.21,51.55,169.38Z"/>
          <path class="cls-50" d="M361.12,296.18l2.97,4.64-98.02-3.99c3.25-1.38,2.37-.99,5.6-2.33,1.08-.45,2.15-.89,3.24-1.33l86.21,3.01Z"/>
          <path class="cls-80" d="M279.15,372.56c63.59-83.64,132.63-162.2,206.92-236.5,25.16-25.16,42.13-47.36,66.31-60.66,17.59-9.68,46.25-7.93,72.51-10.53,32.22-3.19,66.69-4.88,98.91-8.07,16.6-1.64,33.78,1.12,33.78,12.14,0,18.21-17.07,105.62-28.66,166.98-3.01,15.94-6.53,32.88-17.91,44.44-11.44,11.62-28.44,15.37-44.43,18.55-125.51,24.97-254.52,43.57-387.44,73.64Z"/>
          <path class="cls-78" d="M746.67,87.16c-.06.67-.16,1.34-.27,2.02-1.18,7.02-3.08,19.78-5.49,35.52-7.99,52.17-21.54,137.05-32.88,153.96-9.34,13.95-45.22,18.29-45.22,18.29l-18.25,3.17-3.08.53-2.52.44-111.03,19.29-150.94,26.21-3.15-18.51-8.32-48.9c28.8-37.52,110.5-123.62,170.18-180.53,14.02-13.37,32.24-21.45,51.56-22.86l62.61-4.56,79.1-5.75c12.28-1.51,19.1,8.63,17.7,21.67Z"/>
          <path class="cls-103" d="M854.44,305.93l-25.05-212.82c-2.3-19.56,12.98-36.74,32.67-36.74h981.61c16.67,0,30.71,12.47,32.67,29.02l25.23,212.82c2.32,19.57-12.96,36.77-32.67,36.77h-981.78c-16.68,0-30.72-12.48-32.67-29.05Z"/>
          <path class="cls-95" d="M859.01,306.56l-24.77-208.2c-2.28-19.13,12.83-35.95,32.3-35.95h970.58c16.48,0,30.36,12.2,32.3,28.4l24.94,208.2c2.29,19.14-12.82,35.97-32.3,35.97h-970.76c-16.49,0-30.38-12.21-32.3-28.42Z"/>
          <path class="cls-29" d="M1868.94,334.98h-980.37c-16.66,0-30.68-12.22-32.63-28.43l-.37-4.87c1.95,16.21,15.97,28.43,32.63,28.43h980.38c18.38,0,32.92-14.7,32.85-32.25l.14,1.14c2.31,19.14-12.95,35.98-32.63,35.98Z"/>
          <path class="cls-10" d="M1982.27,431.01l-1532.69,20.6c3.83-.36,7.66-.72,11.48-1.07,504.23-47.13,995.96-56.04,1520.68-56.87.08,3.82.15,7.65.22,11.47.15,8.63.26,17.26.32,25.88Z"/>
          <path class="cls-39" d="M1980.99,544.74c-.08,2.56-.16,5.13-.25,7.69h-51.84v-220.68h50.86c.05,1.07.1,2.15.14,3.23.81,19.57,1.42,39.13,1.82,58.67.26,12.46.44,24.9.54,37.35.31,38.03-.13,75.96-1.28,113.74Z"/>
          <path class="cls-72" d="M1981.95,403.62c-493.95-9.74-1029.36,12.46-1520.89,46.9,504.23-47.13,995.96-56.04,1520.68-56.87.08,3.82.15,6.15.22,9.97Z"/>
          <path class="cls-106" d="M1503.18,544.74c-7.37,6.02-14.13,12.76-20.18,20.12-2.57,3.11-5.01,6.34-7.3,9.68-.05.08-.1.16-.15.23-5.98,9.31-11.17,19.31-15.66,29.76-.04.09-.07.18-.1.26H430.79c-.88-2.31-1.82-4.59-2.81-6.85-.01-.04-.04-.08-.06-.11-6.74-12.26-14.2-23.26-22.35-32.97-5.79-6.92-11.95-13.18-18.44-18.76-.53-.46-1.05-.91-1.58-1.35h1117.64Z"/>
          <path class="cls-17" d="M1503.18,544.74c-7.37,6.02-14.13,12.76-20.18,20.12H405.56c-5.79-6.92-11.95-13.18-18.44-18.76v-1.35h1116.06Z"/>
          <path class="cls-54" d="M315.56,294.59s211.24-216.98,237.87-229.25c15.42-7.1,39.7-10.58,68.84-13.3,147.09-13.72,294.8-20.82,438.71-19.08,292.7,1.38,548.08,5.04,854.91,8.74l.54,7.14c-361.84-4.73-755.07-17.34-1076.34-6.69-80.2,2.66-182.05,10.97-221.21,14.22-67.2,5.58-65.62,6-127.33,67.71-45.88,45.88-172.21,170.64-172.21,170.64-.6.15-3.78-.13-3.78-.13Z"/>
          <path class="cls-11" d="M315.56,297.63s211.24-216.98,237.87-229.25c15.42-7.1,39.7-10.58,68.84-13.3,147.09-13.72,294.8-20.82,438.71-19.08,292.7,1.38,548.08,5.04,854.91,8.74l.54,7.14c-361.84-4.73-755.07-17.34-1076.34-6.69-80.2,2.66-182.05,10.97-221.21,14.22-67.2,5.58-65.62,6-127.33,67.71-45.88,45.88-172.21,170.64-172.21,170.64-.6.15-3.78-.13-3.78-.13Z"/>
          <path class="cls-66" d="M532,73.79c-78.65,76.57-157.29,153.14-237.2,228.42-7.72-2.57-15.42-5.15-23.13-7.72,2.5-1.04,4.99-2.06,7.48-3.06.13-.17.34-.41.63-.73,11.3-12.59,141.95-144.44,233.44-221.12,1.37-1.15,2.73-2.28,4.08-3.41,4.9,2.54,9.8,5.07,14.69,7.61Z"/>
          <g>
            <rect class="cls-38" x="663.16" y="345.5" width="63.8" height="47.29" rx="15.82" ry="15.82"/>
            <rect class="cls-83" x="649.27" y="359.76" width="91.57" height="18.76" rx="6.28" ry="6.28"/>
          </g>
          <polygon class="cls-40" points="760.56 426.72 777.91 45.17 774.91 45.05 757.53 426.87 760.56 426.72"/>
          <rect class="cls-51" x="791.57" y="20.27" width="3" height="404.44"/>
          <rect class="cls-4" x="795.32" y="20.27" width="3" height="404.44"/>
          <rect class="cls-34" x="790.07" y="447.01" width="3" height="247.71"/>
          <path class="cls-69" d="M302.52,356.01c22.96-31.73,48.2-61.82,75.45-89.96l9.16,79.26-84.6,10.7Z"/>
          <path class="cls-87" d="M1980.99,544.74c-.62,20.06-1.43,40.08-2.46,60.05-.42,8.28-.88,16.55-1.37,24.81h-43.32v-294.62h46.07c.81,19.57,1.42,39.13,1.82,58.67.26,12.46.44,24.9.54,37.35.31,38.03-.13,75.96-1.28,113.74Z"/>
          <path class="cls-70" d="M1988.49,547.45v119.77c-32.71,13.91-82.57,18.69-82.57,18.69v-141.16h79.86c1.49,0,2.7,1.21,2.7,2.7Z"/>
          <path class="cls-37" d="M1934.63,564.86c-.26,5.19-.62,12.19-1.11,21.58-.53,10.28-9.02,18.35-19.31,18.35h-181.85c-.65-1.7-1.32-3.39-2.03-5.05,0-.02-.02-.04-.03-.05-7.13-12.91-15.1-24.56-23.86-34.83-6.34-7.45-13.1-14.17-20.23-20.12h248.84c-.79,26.23,1.25-12.08-.41,20.12Z"/>
          <path class="cls-19" d="M1988.35,547.54c-.18,5.78-.38,11.55-.6,17.32h-81.82v-20.12h79.72c1.53,0,2.75,1.27,2.71,2.79Z"/>
          <path class="cls-56" d="M1930.07,564.86c-.26,5.19-.62,12.19-1.11,21.58-.53,10.28-9.02,18.35-19.31,18.35h-181.85c-.65-1.7-1.32-3.39-2.03-5.05,0-.02-.02-.04-.03-.05-7.13-12.91-15.1-24.56-23.86-34.83-6.34-7.45-13.1-14.17-20.23-20.12h248.84c-.79,26.23,1.25-12.08-.41,20.12Z"/>
          <path class="cls-2" d="M1930.07,564.86h-220.76c-6.34-7.45-13.1-14.17-20.23-20.12h241.39c-.79,26.23,1.25-12.08-.41,20.12Z"/>
          <rect class="cls-28" x="1958.1" y="339.62" width="17.3" height="204.94" rx="5.79" ry="5.79"/>
          <path class="cls-85" d="M489.41,708.87c-3.14.57-32.22-.03-32.22-.03-7.42-35.14-22.99-123.29-71.67-164.1-21.17-17.74-45.8-28.4-73.36-31.44-.59-.07-1.18-.13-1.77-.18-.59-.06-1.18-.11-1.77-.16-.59-.05-1.18-.1-1.77-.14h-.02c-.76-.05-1.52-.1-2.29-.14-29.47-1.48-60.37,6.99-85.85,23.04-2.29,1.44-4.53,2.94-6.73,4.5-1.81,1.33-3.59,2.7-5.34,4.13-10.77,8.7-20.25,18.95-28.11,30.4,0,0,0,.02-.02.02-4.57,7.12-8.74,14.56-12.52,22.24-8.19,16.57-14.66,34.23-19.75,52.11-2.12-1.36-4.23-2.73-6.32-4.13-11.35-7.55-22.59-15.81-30.44-26.95-3.56-5.06-3.09-11.22-.19-16.81,3.48-6.74,10.47-12.64,18.16-14.73,25.51-71.63,89.79-116.15,165.83-116.15s118.96,28.95,145.04,74.37c36.67,63.89,46.71,120.56,49.71,147.72.98,8.91,1.21,14.64,1.37,16.41Z"/>
          <path class="cls-8" d="M488.05,692.46c-6.6.35-24.84-.15-24.84-.15-4.51-40.75-24.43-184.32-151.03-195.54-.59-.05-1.18-.13-1.77-.18-.59-.06-1.18-.11-1.77-.16-.59-.05-1.18-.1-1.77-.14h-.02c-.76-.05-1.52-.1-2.29-.14-29.47-1.48-60.37,6.99-85.85,23.04-2.29,1.44-4.53,2.94-6.73,4.5-1.81,1.33-3.59,2.7-5.34,4.13-10.77,8.7-20.25,18.95-28.11,30.4,0,0,0,.02-.02.02-4.57,7.12-8.74,14.56-12.52,22.24-8.19,16.57-14.66,34.23-19.75,52.11-2.12-1.36-4.23-2.73-6.32-4.13-11.35-7.55-22.59-15.81-30.44-26.95-.07-.09-.13-.19-.19-.28,3.48-6.74,10.47-12.64,18.16-14.73,25.51-71.63,89.79-116.15,165.83-116.15s118.96,28.95,145.04,74.37c36.67,63.89,46.71,120.56,49.71,147.72Z"/>
          <path class="cls-36" d="M1790.46,683.77l-35.24,1.3c-5.27-28.83-12.01-63.91-23.21-86.12h-.6c-.66-1.7-1.36-3.39-2.09-5.05,0-.02-.02-.04-.03-.05-12.65-22.26-27.88-40.79-45.35-54.94-21.68-17.6-46.78-28.47-74.53-31.44-.6-.07-1.21-.13-1.82-.18-.61-.06-1.21-.11-1.82-.16-.61-.05-1.22-.1-1.83-.14-.78-.05-1.57-.1-2.35-.14-33.03-1.61-67.81,8.59-95.22,27.55-2.03,1.45-4.03,2.95-5.98,4.5-10.8,8.57-20.33,18.61-28.26,29.79-.05.08-.1.16-.15.23-6.15,9.31-11.49,19.31-16.11,29.76-.04.09-.07.18-.1.26h-.02c-12.46,28.24-19.71,59.82-23.72,90.44-12.95-.04-34.38-.2-38.62-.47,4.79-35.74,13.06-70.91,26.23-104.47,51.01-129.95,178.06-132.37,245.17-105.44,107.9,43.3,123.7,175.45,125.66,204.75Z"/>
          <path class="cls-107" d="M1785.2,684.35c-4.16.27-13.27.53-21.36.8-5.29.17-10.15.34-12.9.5-5.12-28.83-11.68-58.65-22.56-80.86h-.59c-.65-1.7-1.32-3.39-2.03-5.05,0-.02-.02-.04-.03-.05-12.29-22.26-27.11-40.79-44.09-54.94-21.08-17.6-45.48-28.47-72.46-31.44-.59-.07-1.18-.13-1.77-.18-.59-.06-1.18-.11-1.77-.16-.59-.05-1.19-.1-1.78-.14-.76-.05-1.52-.1-2.29-.14-32.12-1.61-65.93,8.59-92.58,27.55-1.97,1.45-3.92,2.95-5.81,4.5-10.5,8.57-19.76,18.61-27.48,29.79-.05.08-.1.16-.15.23-5.98,9.31-11.17,19.31-15.66,29.76-.04.09-.07.18-.1.26h-.02c-2.15,5.01-4.14,10.13-5.97,15.33-6.47,18.25-11.1,37.5-14.37,56.71-1.04,6.15-1.94,12.29-2.72,18.4-2.96,0-6.38-.02-9.94-.05-11.54-.08-24.45-.22-27.61-.42.78-6,1.66-11.97,2.63-17.93,3.14-19.18,7.35-38.14,12.83-56.71,2.96-10.06,6.3-20.01,10.04-29.82,49.59-129.95,173.12-132.37,238.37-105.44,104.9,43.3,120.27,170.2,122.17,199.49Z"/>
          <path class="cls-26" d="M1785.2,684.35c-4.16.27-13.27.53-21.36.8-3.09-27.67-16.89-77.03-28.35-99.1h-.62c-.68-1.7-1.4-3.39-2.15-5.05,0-.02-.02-.04-.03-.05-13.03-22.26-28.73-40.79-46.72-54.94-22.34-17.6-48.2-28.47-76.79-31.44-.62-.07-1.25-.13-1.88-.18-.63-.06-1.25-.11-1.88-.16-.63-.05-1.26-.1-1.88-.14-.8-.05-1.61-.1-2.42-.14-34.04-1.61-69.87,8.59-98.1,27.55-2.09,1.45-4.15,2.95-6.15,4.5-11.12,8.57-20.94,18.61-29.12,29.79-.06.08-.11.16-.17.23-6.34,9.31-11.83,19.31-16.6,29.76-.04.09-.08.18-.11.26h-.02c-3.97,8.74-7.83,20.79-11.25,34.07-4.76,18.39-8.69,39.14-10.98,56.71-.88,6.67-1.51,12.89-1.87,18.35-11.54-.08-24.45-.22-27.61-.42.78-6,1.66-11.97,2.63-17.93,3.14-19.18,7.35-38.14,12.83-56.71,2.96-10.06,6.3-20.01,10.04-29.82,49.59-129.95,173.12-132.37,238.37-105.44,104.9,43.3,120.27,170.2,122.17,199.49Z"/>
          <path class="cls-55" d="M760.62,426.71c-.47,1.26-9.69,20.64-10.1,21.73-3.82,39.53-10.99,140.13-12.51,155.85-3.22,30.77-6.77,62.82-19.19,91.01h-3.72c13.17-26.4,15.43-56.43,19.02-90.51-.73-1.13,13.01-156.79,13.01-156.79.65-1,10.4-21.13,10.4-21.13,0,0,2.95-.19,3.09-.16Z"/>
          <polygon class="cls-27" points="763.91 426.72 781.26 45.17 778.26 45.05 760.88 426.87 763.91 426.72"/>
          <path class="cls-6" d="M763.97,426.71c-.47,1.26-9.69,20.64-10.1,21.73-3.82,39.53-10.99,140.13-12.51,155.85-3.22,30.77-6.77,62.82-19.19,91.01h-3.72c13.17-26.4,15.43-56.43,19.02-90.51-.73-1.13,13.01-156.79,13.01-156.79.65-1,10.4-21.13,10.4-21.13,0,0,2.95-.19,3.09-.16Z"/>
          <rect class="cls-65" x="1749.44" y="665.52" width="239.29" height="22.52" rx="7.53" ry="7.53" transform="translate(-42.16 130.28) rotate(-3.95)"/>
          <rect class="cls-44" x="1324.89" y="4.09" width="3" height="690.63"/>
          <rect class="cls-9" x="1328.24" y="4.09" width="3" height="690.63"/>
          <path class="cls-105" d="M218.7,535.74c-2.29,1.44-4.53,2.94-6.73,4.5-1.81,1.33-3.59,2.7-5.34,4.13-10.77,8.7-20.25,18.95-28.11,30.4,0,0,0,.02-.02.02-2.45,3.83-4.79,7.74-7.01,11.74-1.92,3.44-3.76,6.94-5.51,10.5-15.33,31.01-24.63,65.85-30.17,98.84h-8.28s-111.49-26.67-111.49-26.67l-4.04-.97.02-.26-8.02-81.45-1.75-42.16,18.57-15.72.05-.66,2.69-42.81h0s11.14-7.99,11.14-7.99l28.59,32.51c6.84,7.78,15.11,13.95,24.26,18.28,9.8,4.65,20.58,7.17,31.66,7.24l72.3.51h27.19Z"/>
          <path class="cls-18" d="M218.7,535.74c-2.29,1.44-4.53,2.94-6.73,4.5-1.81,1.33-3.59,2.7-5.34,4.13-10.77,8.7-20.25,18.95-28.11,30.4,0,0,0,.02-.02.02-2.45,3.83-4.79,7.74-7.01,11.74H4l-1.75-42.16,18.57-15.72.05-.66h66.68c9.8,4.65,20.58,7.17,31.66,7.24l72.3.51h27.19Z"/>
          <path class="cls-33" d="M136.52,410.45c-1.52,1.46-20.43,54.77-88.38,95.3-1.32-1.2-33.87,6.73-33.87,6.73-1.13-14.37-.71-28.86,1.22-43.14,1.93-14.31,5.37-28.43,10.3-42.01,0,0,12.02-.19,14.91.71.43-.29.86-.59,1.3-.89h0c24.02-16.14,63.21-30.23,94.51-16.69Z"/>
          <path class="cls-41" d="M136.52,410.45c-1.52,1.46-20.43,54.77-88.38,95.3-1.32-1.2-33.87,6.73-33.87,6.73-.08-1.03-.15-2.05-.22-3.08-.79-12.44-.42-24.96,1.1-37.33.11-.92.23-1.83.35-2.74l65.67-6.31,16.86-7.25-27.13,1.98,6.24-24.61,39-7.72c4.56-1.05,10.01-11.78,10.01-11.78,0,0-11.51-3.89-20.84-3.89-24.09,0-40.94,8.47-63.31,17.38,24.02-16.13,63.21-30.22,94.51-16.69Z"/>
          <path class="cls-47" d="M80.75,472.72l-28.49,29.24-35.95,7.45c-.79-12.44-.42-24.96,1.1-37.33l63.26-5.27.08,5.91Z"/>
          <path class="cls-102" d="M136.62,410.49s-.07-.03-.1-.05c.05-.05.08-.04.1.05Z"/>
          <rect class="cls-89" x="379.88" y="214.86" width="39.03" height="135.52" rx="13.05" ry="13.05"/>
          <rect class="cls-15" x="399.39" y="220.69" width="16.97" height="124.81" rx="5.68" ry="5.68"/>
          <path class="cls-62" d="M75.22,473.61c-8.72,8.7-17.45,17.39-26.19,26.08-10.67,2.02-21.42,3.78-32.18,5.52-.09-2.69-.1-5.38-.02-8.07.21-7.42,1.04-14.82,2.48-22.09,0,0,53.89-4.88,55.77-5.89-.02.53-.02.92-.02,1.23.03,1.2.22,1.13.14,3.21Z"/>
          <path class="cls-46" d="M136.62,410.49s-.07-.03-.1-.05c.05-.05.08-.04.1.05Z"/>
          <path class="cls-5" d="M30.06,429.72c-5.44,11.52-8.75,24.04-9.7,36.74,13.93-1.94,27.97-3.06,42.18-3.41,2.93-11.65,6.44-23.15,10.49-34.45l-42.96,1.12Z"/>
          <path class="cls-21" d="M60.47,423.51s53.01-1.4,53.43-1.72c2.25-2.66,4.51-5.32,6.46-8.38-15.98-3.94-44.66,1.04-59.89,10.09Z"/>
          <path class="cls-42" d="M75.22,473.61c-8.72,8.7-17.45,17.39-26.19,26.08-10.67,2.02-21.42,3.78-32.18,5.52-.09-2.69-.1-5.38-.02-8.07l18.01-3.66,11.16-15.06-20.78,1.58,2.87-3.14,46.97-6.46c.03,1.2.22,1.13.14,3.21Z"/>
          <path class="cls-68" d="M206.64,544.37c-10.77,8.7-20.25,18.95-28.11,30.4,0,0,0,.02-.02.02-4.57,7.12-8.74,14.56-12.52,22.24-15.33,31.01-24.63,65.85-30.17,98.84h-8.28s-111.49-26.67-111.49-26.67l-4.02-1.22-12.02-3.66,2.25-119.95h204.39Z"/>
          <polygon class="cls-48" points="790.07 447.01 791.57 424.71 794.75 424.55 793.07 447.01 790.07 447.01"/>
          <path class="cls-61" d="M532,73.79c-78.65,76.57-157.29,153.14-237.2,228.42-7.72-2.57-15.42-5.15-23.13-7.72,2.5-1.04,4.99-2.06,7.48-3.06.13-.17.34-.41.63-.73l14.86,4.01,230.79-219.18-12.21-5.94c1.37-1.15,2.73-2.28,4.08-3.41,4.9,2.54,9.8,5.07,14.69,7.61Z"/>
          <path class="cls-35" d="M396.16,343.26l-253.24,72.27c76.73-24.64,155.49-50.46,238.01-73.75l15.23,1.49Z"/>
          <path class="cls-24" d="M665.71,279.48c25.07-51.59,50.14-103.18,75.21-154.78-7.99,52.17-21.54,137.05-32.88,153.96-9.34,13.95-45.22,18.29-45.22,18.29l-21.32,3.7c8.11-7.01,16.18-14.07,24.21-21.17Z"/>
          <path class="cls-23" d="M746.67,87.16c-75.16,75.59-148.03,153.44-218.72,233.22l-150.94,26.21-3.15-18.51s184.02-171.23,276.02-256.84l79.1-5.75c12.28-1.51,19.1,8.63,17.7,21.67Z"/>
          <polygon class="cls-20" points="706.33 116.03 644.58 300.12 641.5 300.65 638.98 301.09 663.21 226.54 632.22 231.55 683.83 118.35 706.33 116.03"/>
          <rect class="cls-25" x="1942.71" y="403.24" width="38.28" height="86.64"/>
          <g>
            <path class="cls-79" d="M28.82,620.13l-1.41-14.72c-.12-1.24-.52-2.42-1.16-3.48-.23-.38-.49-.74-.78-1.07l-22.5-26.08v54.07l17.6.25c1.57.02,3.03-.4,4.28-1.14,2.63-1.55,4.29-4.53,3.97-7.81Z"/>
            <path class="cls-77" d="M28.82,620.13l-1.41-14.72c-.12-1.24-.52-2.42-1.16-3.48h-7.17v26.02h5.77c2.63-1.55,4.29-4.53,3.97-7.81Z"/>
          </g>
          <rect class="cls-93" x="449.58" y="686.46" width="991.86" height="22.52" rx="7.53" ry="7.53"/>
          <g>
            <circle class="cls-32" cx="297" cy="672.68" r="60.93"/>
            <g>
              <path class="cls-94" d="M200.97,576.66c-53.03,53.03-53.03,139.01,0,192.04,53.03,53.03,139.01,53.03,192.04,0,53.03-53.03,53.03-139.01,0-192.04-53.03-53.03-139.01-53.03-192.04,0ZM346.43,722.11c-27.3,27.3-71.57,27.3-98.87,0-27.3-27.3-27.3-71.57,0-98.87,27.3-27.3,71.57-27.3,98.87,0,27.3,27.3,27.3,71.57,0,98.87Z"/>
              <path class="cls-22" d="M206.07,581.75c-50.22,50.22-50.22,131.63,0,181.85,50.22,50.22,131.63,50.22,181.85,0,50.22-50.22,50.22-131.63,0-181.85-50.22-50.22-131.63-50.22-181.85,0ZM374.45,750.13c-42.74,42.74-112.03,42.74-154.77,0-42.74-42.74-42.74-112.03,0-154.77,42.74-42.74,112.03-42.74,154.77,0,42.74,42.74,42.74,112.03,0,154.77Z"/>
              <g>
                <polygon class="cls-60" points="317.79 671.66 356.53 712.02 336.34 732.21 295.97 693.47 317.79 671.66"/>
                <polygon class="cls-73" points="308.28 690.18 292.69 743.9 265.11 736.51 278.48 682.19 308.28 690.18"/>
                <polygon class="cls-91" points="287.48 691.2 233.16 704.56 225.77 676.98 279.5 661.4 287.48 691.2"/>
                <polygon class="cls-81" points="276.2 673.7 237.46 633.34 257.66 613.14 298.02 651.88 276.2 673.7"/>
                <polygon class="cls-31" points="285.71 655.18 301.3 601.45 328.88 608.84 315.51 663.16 285.71 655.18"/>
                <polygon class="cls-71" points="306.51 654.16 360.83 640.79 368.22 668.37 314.49 683.96 306.51 654.16"/>
              </g>
              <path class="cls-88" d="M240.45,616.13c-31.23,31.23-31.23,81.87,0,113.1,31.23,31.23,81.87,31.23,113.1,0,31.23-31.23,31.23-81.87,0-113.1-31.23-31.23-81.87-31.23-113.1,0ZM346.43,722.11c-27.3,27.3-71.57,27.3-98.87,0-27.3-27.3-27.3-71.57,0-98.87,27.3-27.3,71.57-27.3,98.87,0s27.3,71.57,0,98.87Z"/>
              <path class="cls-64" d="M234.46,610.14c-34.54,34.54-34.54,90.53,0,125.07,34.54,34.54,90.53,34.54,125.07,0,34.54-34.54,34.54-90.53,0-125.07-34.54-34.54-90.53-34.54-125.07,0ZM351.67,727.35c-30.19,30.19-79.14,30.19-109.34,0-30.19-30.19-30.19-79.15,0-109.34,30.19-30.19,79.15-30.19,109.34,0,30.19,30.19,30.19,79.15,0,109.34Z"/>
              <circle class="cls-98" cx="297" cy="672.68" r="26"/>
              <circle class="cls-99" cx="297" cy="672.68" r="16.83"/>
            </g>
          </g>
          <g>
            <circle class="cls-92" cx="1593.73" cy="672.68" r="60.93"/>
            <g>
              <path class="cls-96" d="M1497.7,576.66c-53.03,53.03-53.03,139.01,0,192.04,53.03,53.03,139.01,53.03,192.04,0,53.03-53.03,53.03-139.01,0-192.04-53.03-53.03-139.01-53.03-192.04,0ZM1643.16,722.11c-27.3,27.3-71.57,27.3-98.87,0-27.3-27.3-27.3-71.57,0-98.87,27.3-27.3,71.57-27.3,98.87,0,27.3,27.3,27.3,71.57,0,98.87Z"/>
              <path class="cls-7" d="M1502.8,581.75c-50.22,50.22-50.22,131.63,0,181.85,50.22,50.22,131.63,50.22,181.85,0,50.22-50.22,50.22-131.63,0-181.85-50.22-50.22-131.63-50.22-181.85,0ZM1671.18,750.13c-42.74,42.74-112.03,42.74-154.77,0-42.74-42.74-42.74-112.03,0-154.77,42.74-42.74,112.03-42.74,154.77,0,42.74,42.74,42.74,112.03,0,154.77Z"/>
              <g>
                <polygon class="cls-74" points="1614.52 671.66 1653.26 712.02 1633.07 732.21 1592.71 693.47 1614.52 671.66"/>
                <polygon class="cls-84" points="1605.01 690.18 1589.42 743.9 1561.84 736.51 1575.21 682.19 1605.01 690.18"/>
                <polygon class="cls-59" points="1584.21 691.2 1529.89 704.56 1522.5 676.98 1576.23 661.4 1584.21 691.2"/>
                <polygon class="cls-86" points="1572.93 673.7 1534.19 633.34 1554.39 613.14 1594.75 651.88 1572.93 673.7"/>
                <polygon class="cls-97" points="1582.44 655.18 1598.03 601.45 1625.61 608.84 1612.25 663.16 1582.44 655.18"/>
                <polygon class="cls-101" points="1603.24 654.16 1657.56 640.79 1664.95 668.37 1611.22 683.96 1603.24 654.16"/>
              </g>
              <path class="cls-82" d="M1537.18,616.13c-31.23,31.23-31.23,81.87,0,113.1,31.23,31.23,81.87,31.23,113.1,0,31.23-31.23,31.23-81.87,0-113.1-31.23-31.23-81.87-31.23-113.1,0ZM1643.16,722.11c-27.3,27.3-71.57,27.3-98.87,0-27.3-27.3-27.3-71.57,0-98.87,27.3-27.3,71.57-27.3,98.87,0,27.3,27.3,27.3,71.57,0,98.87Z"/>
              <path class="cls-58" d="M1531.19,610.14c-34.54,34.54-34.54,90.53,0,125.07,34.54,34.54,90.53,34.54,125.07,0,34.54-34.54,34.54-90.53,0-125.07-34.54-34.54-90.53-34.54-125.07,0ZM1648.4,727.35c-30.19,30.19-79.14,30.19-109.34,0-30.19-30.19-30.19-79.15,0-109.34,30.19-30.19,79.15-30.19,109.34,0,30.19,30.19,30.19,79.15,0,109.34Z"/>
              <circle class="cls-1" cx="1593.73" cy="672.68" r="26"/>
              <circle class="cls-76" cx="1593.73" cy="672.68" r="16.83"/>
            </g>
          </g>
        </g>
      </g>
    </g>
  </g>
</svg>