<?xml version="1.0" encoding="UTF-8"?>
<svg xmlns="http://www.w3.org/2000/svg" xmlns:xlink="http://www.w3.org/1999/xlink" viewBox="0 0 1833.19 662.24">
  <defs>
    <style>
      .cls-1 {
        fill: url(#radial-gradient-10);
      }

      .cls-2 {
        fill: url(#New_swatch_275-12);
      }

      .cls-2, .cls-3, .cls-4, .cls-5, .cls-6, .cls-7, .cls-8, .cls-9, .cls-10, .cls-11, .cls-12, .cls-13, .cls-14, .cls-15, .cls-16, .cls-17, .cls-18, .cls-19, .cls-20, .cls-21, .cls-22, .cls-23, .cls-24, .cls-25, .cls-26, .cls-27, .cls-28, .cls-29, .cls-30, .cls-31 {
        mix-blend-mode: screen;
      }

      .cls-32 {
        fill: url(#New_swatch_384-3);
      }

      .cls-32, .cls-33, .cls-34, .cls-35, .cls-36, .cls-37, .cls-38, .cls-39, .cls-40, .cls-41, .cls-42, .cls-43, .cls-44, .cls-45, .cls-46, .cls-47, .cls-48, .cls-49, .cls-50, .cls-51, .cls-52, .cls-53, .cls-54, .cls-55, .cls-56, .cls-57, .cls-58, .cls-59 {
        mix-blend-mode: multiply;
      }

      .cls-3 {
        fill: url(#radial-gradient-9);
      }

      .cls-60 {
        fill: url(#New_swatch_327-11);
      }

      .cls-4 {
        fill: url(#linear-gradient-21);
      }

      .cls-61 {
        fill: url(#New_swatch_314-4);
      }

      .cls-33 {
        fill: url(#linear-gradient-2);
      }

      .cls-5 {
        fill: url(#linear-gradient-24);
      }

      .cls-62 {
        fill: url(#New_swatch_285);
      }

      .cls-6 {
        fill: url(#linear-gradient-26);
      }

      .cls-34 {
        fill: url(#linear-gradient-9);
      }

      .cls-35 {
        fill: url(#linear-gradient-13);
      }

      .cls-63 {
        fill: url(#New_swatch_327-7);
      }

      .cls-64 {
        fill: url(#New_swatch_314-6);
      }

      .cls-65 {
        fill: url(#New_swatch_297-7);
      }

      .cls-36 {
        fill: url(#New_swatch_291);
      }

      .cls-7 {
        fill: url(#linear-gradient-10);
      }

      .cls-8 {
        fill: url(#linear-gradient-25);
      }

      .cls-9 {
        fill: url(#New_swatch_275-11);
      }

      .cls-66 {
        fill: url(#New_swatch_279-2);
      }

      .cls-37 {
        fill: url(#radial-gradient);
      }

      .cls-10 {
        fill: url(#linear-gradient-18);
      }

      .cls-67 {
        fill: url(#New_swatch_314-18);
      }

      .cls-38 {
        fill: url(#linear-gradient-16);
      }

      .cls-68 {
        fill: url(#New_swatch_279);
      }

      .cls-39 {
        fill: url(#New_swatch_384-2);
      }

      .cls-11 {
        fill: url(#radial-gradient-5);
      }

      .cls-69 {
        fill: url(#New_swatch_314-2);
      }

      .cls-12 {
        fill: url(#linear-gradient-19);
      }

      .cls-70 {
        fill: url(#New_swatch_314-11);
      }

      .cls-13 {
        fill: url(#radial-gradient-16);
      }

      .cls-14 {
        fill: url(#linear-gradient-28);
        opacity: .59;
      }

      .cls-71 {
        fill: url(#New_swatch_275);
      }

      .cls-15 {
        fill: url(#linear-gradient-12);
      }

      .cls-40 {
        fill: url(#New_swatch_297-11);
      }

      .cls-72 {
        fill: url(#New_swatch_314-10);
      }

      .cls-73 {
        fill: url(#New_swatch_327-8);
      }

      .cls-41 {
        fill: url(#New_swatch_326-4);
      }

      .cls-16 {
        fill: url(#New_swatch_386-3);
      }

      .cls-16, .cls-20 {
        opacity: .35;
      }

      .cls-74 {
        fill: url(#New_swatch_321-2);
      }

      .cls-42 {
        fill: url(#New_swatch_384-4);
      }

      .cls-75 {
        fill: url(#New_swatch_314-7);
      }

      .cls-76 {
        fill: url(#New_swatch_314-5);
      }

      .cls-77 {
        fill: url(#New_swatch_275-3);
      }

      .cls-78 {
        fill: url(#New_swatch_275-8);
      }

      .cls-79 {
        fill: url(#New_swatch_327-9);
      }

      .cls-17 {
        fill: url(#radial-gradient-14);
      }

      .cls-18 {
        fill: url(#New_swatch_386);
      }

      .cls-80 {
        fill: url(#New_swatch_328);
      }

      .cls-81 {
        fill: url(#linear-gradient-3);
      }

      .cls-19 {
        fill: url(#linear-gradient-23);
      }

      .cls-20 {
        fill: url(#New_swatch_386-2);
      }

      .cls-43 {
        fill: url(#linear-gradient-4);
      }

      .cls-82 {
        fill: url(#New_swatch_314-15);
      }

      .cls-83 {
        isolation: isolate;
      }

      .cls-84 {
        fill: url(#New_swatch_327-16);
      }

      .cls-85 {
        fill: url(#radial-gradient-11);
      }

      .cls-44 {
        fill: url(#linear-gradient-8);
      }

      .cls-45 {
        fill: url(#New_swatch_326-2);
      }

      .cls-86 {
        fill: url(#New_swatch_314-8);
      }

      .cls-87 {
        fill: url(#New_swatch_314-16);
      }

      .cls-88 {
        fill: url(#New_swatch_321);
      }

      .cls-89 {
        fill: url(#New_swatch_297-5);
      }

      .cls-46 {
        fill: url(#New_swatch_285-4);
      }

      .cls-90 {
        fill: url(#New_swatch_327-14);
      }

      .cls-91 {
        fill: url(#New_swatch_275-5);
      }

      .cls-92 {
        fill: url(#New_swatch_327-13);
      }

      .cls-93 {
        fill: url(#New_swatch_297);
      }

      .cls-94 {
        fill: url(#New_swatch_275-9);
      }

      .cls-21 {
        fill: url(#radial-gradient-3);
      }

      .cls-95 {
        fill: url(#New_swatch_327-15);
      }

      .cls-47 {
        fill: url(#New_swatch_285-3);
      }

      .cls-22 {
        fill: url(#linear-gradient-22);
      }

      .cls-96 {
        fill: url(#New_swatch_294);
      }

      .cls-48 {
        fill: url(#radial-gradient-8);
      }

      .cls-97 {
        fill: url(#New_swatch_297-2);
      }

      .cls-98 {
        fill: url(#New_swatch_314);
      }

      .cls-99 {
        fill: url(#New_swatch_327-6);
      }

      .cls-100 {
        fill: url(#New_swatch_314-12);
      }

      .cls-23 {
        fill: url(#radial-gradient-4);
      }

      .cls-49 {
        fill: url(#linear-gradient-5);
      }

      .cls-101 {
        fill: url(#New_swatch_297-6);
      }

      .cls-50 {
        fill: url(#New_swatch_384);
      }

      .cls-24 {
        fill: url(#linear-gradient-20);
      }

      .cls-25 {
        fill: url(#linear-gradient-11);
      }

      .cls-102 {
        fill: url(#New_swatch_314-3);
      }

      .cls-103 {
        fill: url(#New_swatch_314-9);
      }

      .cls-104 {
        fill: url(#radial-gradient-12);
      }

      .cls-105 {
        fill: url(#New_swatch_275-10);
      }

      .cls-106 {
        fill: url(#New_swatch_328-3);
      }

      .cls-107 {
        fill: url(#New_swatch_314-13);
      }

      .cls-51 {
        fill: url(#linear-gradient-17);
      }

      .cls-108 {
        fill: url(#New_swatch_285-2);
      }

      .cls-109 {
        fill: url(#New_swatch_327);
      }

      .cls-110 {
        fill: url(#New_swatch_327-2);
      }

      .cls-52 {
        fill: url(#New_swatch_275-7);
      }

      .cls-53 {
        fill: url(#New_swatch_326-3);
      }

      .cls-111 {
        fill: url(#New_swatch_314-17);
      }

      .cls-112 {
        fill: url(#New_swatch_327-4);
      }

      .cls-26 {
        fill: url(#linear-gradient-14);
      }

      .cls-27 {
        fill: url(#radial-gradient-15);
      }

      .cls-113 {
        fill: url(#radial-gradient-6);
      }

      .cls-114 {
        fill: url(#New_swatch_326);
      }

      .cls-115 {
        fill: url(#New_swatch_297-10);
      }

      .cls-116 {
        fill: url(#New_swatch_314-14);
      }

      .cls-117 {
        fill: url(#New_swatch_327-5);
      }

      .cls-54 {
        fill: url(#linear-gradient);
      }

      .cls-118 {
        fill: url(#New_swatch_327-12);
      }

      .cls-119 {
        fill: url(#New_swatch_327-10);
      }

      .cls-55 {
        fill: url(#linear-gradient-15);
      }

      .cls-28 {
        fill: url(#radial-gradient-2);
      }

      .cls-56 {
        fill: url(#New_swatch_297-9);
      }

      .cls-29 {
        fill: url(#radial-gradient-17);
      }

      .cls-120 {
        fill: url(#radial-gradient-7);
      }

      .cls-121 {
        fill: url(#New_swatch_275-2);
      }

      .cls-30 {
        fill: url(#New_swatch_294-2);
      }

      .cls-122 {
        fill: url(#New_swatch_297-3);
      }

      .cls-123 {
        fill: url(#radial-gradient-13);
      }

      .cls-57 {
        fill: url(#New_swatch_326-5);
      }

      .cls-124 {
        fill: url(#New_swatch_275-4);
      }

      .cls-125 {
        fill: url(#New_swatch_297-8);
      }

      .cls-126 {
        fill: url(#New_swatch_297-4);
      }

      .cls-127 {
        fill: url(#New_swatch_328-2);
      }

      .cls-128 {
        fill: url(#New_swatch_275-6);
      }

      .cls-129 {
        fill: url(#New_swatch_327-3);
      }

      .cls-58 {
        fill: url(#linear-gradient-6);
      }

      .cls-59 {
        fill: url(#linear-gradient-7);
      }

      .cls-31 {
        fill: url(#linear-gradient-27);
        opacity: .5;
      }
    </style>
    <linearGradient id="linear-gradient" x1="914.95" y1="488.51" x2="915.7" y2="811.39" gradientUnits="userSpaceOnUse">
      <stop offset=".29" stop-color="#e3e3e3"/>
      <stop offset=".35" stop-color="#dededf"/>
      <stop offset=".42" stop-color="#d2d1d3"/>
      <stop offset=".48" stop-color="#bebcc1"/>
      <stop offset=".55" stop-color="#a19ea7"/>
      <stop offset=".61" stop-color="#7d7885"/>
      <stop offset=".66" stop-color="#615b6c"/>
    </linearGradient>
    <linearGradient id="New_swatch_297" data-name="New swatch 297" x1="1668.7" y1="-60.46" x2="1782.03" y2="376.19" gradientUnits="userSpaceOnUse">
      <stop offset="0" stop-color="#f26722"/>
      <stop offset="1" stop-color="#df1f26"/>
    </linearGradient>
    <linearGradient id="linear-gradient-2" x1="1787.62" y1="265.93" x2="1802.06" y2="509.59" gradientUnits="userSpaceOnUse">
      <stop offset="0" stop-color="#f26722" stop-opacity="0"/>
      <stop offset="1" stop-color="#df1f26"/>
    </linearGradient>
    <linearGradient id="linear-gradient-3" x1="629.12" y1="-257.35" x2="903.05" y2="378.15" gradientUnits="userSpaceOnUse">
      <stop offset="0" stop-color="#3f4858"/>
      <stop offset="1" stop-color="#010101"/>
    </linearGradient>
    <linearGradient id="New_swatch_297-2" data-name="New swatch 297" x1="1588.16" y1="-35.85" x2="1594.15" y2="51.4" xlink:href="#New_swatch_297"/>
    <radialGradient id="radial-gradient" cx="1610.45" cy="66.8" fx="1610.45" fy="66.8" r="112.36" gradientUnits="userSpaceOnUse">
      <stop offset="0" stop-color="#a11d21"/>
      <stop offset="1" stop-color="#f68b38" stop-opacity="0"/>
    </radialGradient>
    <linearGradient id="New_swatch_297-3" data-name="New swatch 297" x1="1421.76" y1="-1.96" x2="1411.02" y2="17.53" xlink:href="#New_swatch_297"/>
    <linearGradient id="New_swatch_297-4" data-name="New swatch 297" x1="1057.84" y1="-66.05" x2="1105.81" y2="521.15" xlink:href="#New_swatch_297"/>
    <radialGradient id="radial-gradient-2" cx="1392.33" cy="171.19" fx="1392.33" fy="171.19" r="432.13" gradientUnits="userSpaceOnUse">
      <stop offset="0" stop-color="#f26722"/>
      <stop offset="1" stop-color="#df1f26" stop-opacity=".01"/>
    </radialGradient>
    <linearGradient id="New_swatch_326" data-name="New swatch 326" x1="1572.46" y1="126.64" x2="1609.41" y2="323.1" gradientUnits="userSpaceOnUse">
      <stop offset="0" stop-color="#3f4858" stop-opacity="0"/>
      <stop offset="1" stop-color="#14171b"/>
    </linearGradient>
    <linearGradient id="New_swatch_326-2" data-name="New swatch 326" x1="1786.23" y1="39.18" x2="1702.06" y2="240.17" xlink:href="#New_swatch_326"/>
    <linearGradient id="New_swatch_297-5" data-name="New swatch 297" x1="1564.1" y1="191.49" x2="1701.02" y2="265.95" xlink:href="#New_swatch_297"/>
    <linearGradient id="New_swatch_297-6" data-name="New swatch 297" x1="159.13" y1="213.51" x2="521.52" y2="634.91" xlink:href="#New_swatch_297"/>
    <radialGradient id="radial-gradient-3" cx="522.27" cy="9221.19" fx="522.27" fy="9221.19" r="193.91" gradientTransform="translate(0 -3277.87) scale(1 .38)" xlink:href="#radial-gradient-2"/>
    <radialGradient id="radial-gradient-4" cx="431.5" cy="6901.79" fx="431.5" fy="6901.79" r="564.18" gradientTransform="translate(0 -2782.38) scale(1 .45)" xlink:href="#radial-gradient-2"/>
    <linearGradient id="linear-gradient-4" x1="982.92" y1="195.55" x2="982.92" y2="428.78" gradientUnits="userSpaceOnUse">
      <stop offset="0" stop-color="#f26722" stop-opacity=".01"/>
      <stop offset="1" stop-color="#df1f26"/>
    </linearGradient>
    <linearGradient id="linear-gradient-5" x1="1299.98" y1="463.48" x2="1299.98" y2="234.56" gradientUnits="userSpaceOnUse">
      <stop offset="0" stop-color="#25292e"/>
      <stop offset="1" stop-color="#9c9aa1" stop-opacity="0"/>
    </linearGradient>
    <linearGradient id="linear-gradient-6" x1="1292.28" y1="582.42" x2="842.08" y2="63.66" xlink:href="#linear-gradient-5"/>
    <radialGradient id="radial-gradient-5" cx="1543.07" cy="285.37" fx="1543.07" fy="285.37" r="313.14" xlink:href="#radial-gradient-2"/>
    <linearGradient id="New_swatch_297-7" data-name="New swatch 297" x1="270.89" y1="-137.23" x2="354.31" y2="551.56" xlink:href="#New_swatch_297"/>
    <linearGradient id="New_swatch_321" data-name="New swatch 321" x1="9.78" y1="454.02" x2="54.94" y2="454.02" gradientUnits="userSpaceOnUse">
      <stop offset="0" stop-color="#134c6f"/>
      <stop offset=".76" stop-color="#131d2e"/>
      <stop offset="1" stop-color="#2c3c58"/>
      <stop offset="1" stop-color="#101a2b"/>
    </linearGradient>
    <linearGradient id="New_swatch_328" data-name="New swatch 328" x1="7.79" y1="514.75" x2="47.26" y2="514.75" gradientUnits="userSpaceOnUse">
      <stop offset="0" stop-color="#525c6c"/>
      <stop offset="1" stop-color="#14171b"/>
    </linearGradient>
    <linearGradient id="New_swatch_328-2" data-name="New swatch 328" x1="17.05" y1="460.88" x2="52.8" y2="460.88" xlink:href="#New_swatch_328"/>
    <linearGradient id="linear-gradient-7" x1="339.87" y1="26.03" x2="539.3" y2="225.47" xlink:href="#linear-gradient-2"/>
    <linearGradient id="New_swatch_326-3" data-name="New swatch 326" x1="41.23" y1="318.82" x2="258.26" y2="318.82" xlink:href="#New_swatch_326"/>
    <linearGradient id="linear-gradient-8" x1="483.58" y1="471.04" x2="682.67" y2="271.94" xlink:href="#linear-gradient-5"/>
    <linearGradient id="linear-gradient-9" x1="115.95" y1="312.98" x2="330.26" y2="324.45" xlink:href="#linear-gradient-5"/>
    <linearGradient id="New_swatch_275" data-name="New swatch 275" x1="1111.86" y1="-287.24" x2="995.64" y2="171.45" gradientUnits="userSpaceOnUse">
      <stop offset="0" stop-color="#3f4858"/>
      <stop offset="1" stop-color="#14171b"/>
    </linearGradient>
    <linearGradient id="New_swatch_321-2" data-name="New swatch 321" x1="1011.74" y1="73.08" x2="989.71" y2="283.04" xlink:href="#New_swatch_321"/>
    <linearGradient id="New_swatch_386" data-name="New swatch 386" x1="1095.35" y1="-17.65" x2="896.73" y2="429.65" gradientUnits="userSpaceOnUse">
      <stop offset="0" stop-color="#134c6f"/>
      <stop offset=".76" stop-color="#131d2e" stop-opacity="0"/>
      <stop offset="1" stop-color="#2c3c58"/>
      <stop offset="1" stop-color="#101a2b"/>
    </linearGradient>
    <linearGradient id="New_swatch_386-2" data-name="New swatch 386" x1="924.73" y1="9.27" x2="796.39" y2="298.31" xlink:href="#New_swatch_386"/>
    <linearGradient id="New_swatch_386-3" data-name="New swatch 386" x1="1237.13" y1="25.76" x2="1129.56" y2="268.03" xlink:href="#New_swatch_386"/>
    <linearGradient id="New_swatch_275-2" data-name="New swatch 275" x1="1082.19" y1="-6.82" x2="1055.89" y2="209.85" xlink:href="#New_swatch_275"/>
    <linearGradient id="linear-gradient-10" x1="1062.83" y1=".63" x2="1012.7" y2="247.07" gradientUnits="userSpaceOnUse">
      <stop offset="0" stop-color="#3f4858"/>
      <stop offset="1" stop-color="#14171b" stop-opacity="0"/>
    </linearGradient>
    <linearGradient id="New_swatch_275-3" data-name="New swatch 275" x1="1340.22" y1="30.9" x2="1326.48" y2="206.31" xlink:href="#New_swatch_275"/>
    <linearGradient id="New_swatch_275-4" data-name="New swatch 275" x1="533.4" y1="173.74" x2="594.79" y2="173.74" xlink:href="#New_swatch_275"/>
    <linearGradient id="linear-gradient-11" x1="568.37" y1="136.63" x2="553.63" y2="209.07" xlink:href="#linear-gradient-10"/>
    <linearGradient id="New_swatch_275-5" data-name="New swatch 275" x1="572.47" y1="170.11" x2="607.69" y2="170.11" xlink:href="#New_swatch_275"/>
    <linearGradient id="linear-gradient-12" x1="598.55" y1="127.41" x2="580.11" y2="218.03" xlink:href="#linear-gradient-10"/>
    <linearGradient id="New_swatch_275-6" data-name="New swatch 275" x1="635.48" y1="120.57" x2="697.9" y2="182.99" xlink:href="#New_swatch_275"/>
    <linearGradient id="New_swatch_384" data-name="New swatch 384" x1="977.02" y1="179.37" x2="983.49" y2="267.69" gradientUnits="userSpaceOnUse">
      <stop offset="0" stop-color="#f26722"/>
      <stop offset="1" stop-color="#a01d20"/>
    </linearGradient>
    <linearGradient id="New_swatch_384-2" data-name="New swatch 384" x1="982.18" y1="214.72" x2="987.76" y2="263.87" xlink:href="#New_swatch_384"/>
    <linearGradient id="New_swatch_384-3" data-name="New swatch 384" x1="1376.96" y1="197.76" x2="1382.53" y2="246.91" xlink:href="#New_swatch_384"/>
    <radialGradient id="radial-gradient-6" cx="985.93" cy="30968.27" fx="985.93" fy="30968.27" r="74.98" gradientTransform="translate(0 -4389.32) scale(1 .15)" gradientUnits="userSpaceOnUse">
      <stop offset="0" stop-color="#f89a2e"/>
      <stop offset="1" stop-color="#df1f26"/>
    </radialGradient>
    <linearGradient id="New_swatch_384-4" data-name="New swatch 384" x1="1370.61" y1="175.45" x2="1379.37" y2="252.72" xlink:href="#New_swatch_384"/>
    <radialGradient id="radial-gradient-7" cx="1380.81" cy="25439.94" fx="1380.81" fy="25439.94" r="56.33" gradientTransform="translate(0 -4272.39) scale(1 .18)" gradientUnits="userSpaceOnUse">
      <stop offset="0" stop-color="#faa224"/>
      <stop offset="1" stop-color="#df1f26"/>
    </radialGradient>
    <linearGradient id="New_swatch_294" data-name="New swatch 294" x1="1700.54" y1="250.04" x2="1731.94" y2="188.08" gradientUnits="userSpaceOnUse">
      <stop offset="0" stop-color="#bc2025"/>
      <stop offset="1" stop-color="#ef3f23"/>
    </linearGradient>
    <linearGradient id="linear-gradient-13" x1="1074.5" y1="488.44" x2="1548.9" y2="312.07" xlink:href="#linear-gradient-2"/>
    <linearGradient id="New_swatch_275-7" data-name="New swatch 275" x1="1055.12" y1="113.67" x2="1083.95" y2="113.67" xlink:href="#New_swatch_275"/>
    <radialGradient id="radial-gradient-8" cx="1534.98" cy="13087.3" fx="1534.98" fy="13087.3" r="394.97" gradientTransform="translate(0 -3714.88) scale(1 .3)" gradientUnits="userSpaceOnUse">
      <stop offset="0" stop-color="#df1f26"/>
      <stop offset="1" stop-color="#f68b38" stop-opacity="0"/>
    </radialGradient>
    <linearGradient id="New_swatch_297-8" data-name="New swatch 297" x1="1258.73" y1="-166.45" x2="1488.38" y2="391.98" xlink:href="#New_swatch_297"/>
    <radialGradient id="radial-gradient-9" cx="873.42" cy="-4529.86" fx="873.42" fy="-4529.86" r="36.48" gradientTransform="translate(0 85483.49) scale(1 18.77)" gradientUnits="userSpaceOnUse">
      <stop offset="0" stop-color="#f26722"/>
      <stop offset="1" stop-color="#df1f26" stop-opacity="0"/>
    </radialGradient>
    <linearGradient id="New_swatch_275-8" data-name="New swatch 275" x1="608.4" y1="258.18" x2="645.9" y2="220.68" xlink:href="#New_swatch_275"/>
    <linearGradient id="New_swatch_275-9" data-name="New swatch 275" x1="658.32" y1="82.19" x2="663.18" y2="166.58" xlink:href="#New_swatch_275"/>
    <linearGradient id="New_swatch_275-10" data-name="New swatch 275" x1="637.73" y1="157.45" x2="677.94" y2="213.21" xlink:href="#New_swatch_275"/>
    <linearGradient id="linear-gradient-14" x1="654.82" y1="152.66" x2="672.9" y2="179.24" xlink:href="#linear-gradient-10"/>
    <linearGradient id="New_swatch_285" data-name="New swatch 285" x1="650.02" y1="173.2" x2="696.18" y2="173.2" gradientUnits="userSpaceOnUse">
      <stop offset="0" stop-color="#e3e3e3"/>
      <stop offset="1" stop-color="#4e6895"/>
    </linearGradient>
    <linearGradient id="linear-gradient-15" x1="953.56" y1="519.8" x2="948.88" y2="373.03" xlink:href="#linear-gradient-5"/>
    <linearGradient id="linear-gradient-16" x1="1415.89" y1="444.32" x2="1336.33" y2="119.63" xlink:href="#linear-gradient-5"/>
    <linearGradient id="New_swatch_279" data-name="New swatch 279" x1="1652.61" y1="228.43" x2="1731.36" y2="228.43" gradientUnits="userSpaceOnUse">
      <stop offset="0" stop-color="#fcb01a"/>
      <stop offset="1" stop-color="#f04d23"/>
    </linearGradient>
    <linearGradient id="New_swatch_294-2" data-name="New swatch 294" x1="1729.84" y1="242.75" x2="1748.76" y2="205.39" xlink:href="#New_swatch_294"/>
    <linearGradient id="New_swatch_285-2" data-name="New swatch 285" x1="37.08" y1="318.81" x2="237.26" y2="318.81" xlink:href="#New_swatch_285"/>
    <linearGradient id="New_swatch_285-3" data-name="New swatch 285" x1="64.18" y1="320.77" x2="105.9" y2="320.77" xlink:href="#New_swatch_285"/>
    <linearGradient id="New_swatch_285-4" data-name="New swatch 285" x1="94.49" y1="308.76" x2="217.07" y2="308.76" xlink:href="#New_swatch_285"/>
    <linearGradient id="New_swatch_291" data-name="New swatch 291" x1="185.07" y1="271.47" x2="186.68" y2="271.47" gradientUnits="userSpaceOnUse">
      <stop offset="0" stop-color="#25292e"/>
      <stop offset="1" stop-color="#9c9aa1"/>
    </linearGradient>
    <linearGradient id="linear-gradient-17" x1="183.5" y1="333.2" x2="458.37" y2="126.58" xlink:href="#linear-gradient-5"/>
    <linearGradient id="New_swatch_297-9" data-name="New swatch 297" x1="55.99" y1="445.05" x2="113.13" y2="511.49" xlink:href="#New_swatch_297"/>
    <linearGradient id="New_swatch_328-3" data-name="New swatch 328" x1="87.19" y1="485.85" x2="112.42" y2="485.85" xlink:href="#New_swatch_328"/>
    <linearGradient id="New_swatch_297-10" data-name="New swatch 297" x1="37.91" y1="333.92" x2="72.91" y2="374.62" xlink:href="#New_swatch_297"/>
    <linearGradient id="New_swatch_326-4" data-name="New swatch 326" x1="21.27" y1="349.46" x2="106.51" y2="349.46" xlink:href="#New_swatch_326"/>
    <radialGradient id="radial-gradient-10" cx="350.36" cy="508.58" fx="350.36" fy="508.58" r="82.43" gradientUnits="userSpaceOnUse">
      <stop offset="0" stop-color="#3f4858"/>
      <stop offset="1" stop-color="#14171b"/>
    </radialGradient>
    <linearGradient id="New_swatch_327" data-name="New swatch 327" x1="338.57" y1="364.74" x2="362.14" y2="652.42" gradientUnits="userSpaceOnUse">
      <stop offset="0" stop-color="#3f4858"/>
      <stop offset="1" stop-color="#010101"/>
    </linearGradient>
    <linearGradient id="New_swatch_275-11" data-name="New swatch 275" x1="209.82" y1="508.58" x2="490.9" y2="508.58" xlink:href="#New_swatch_275"/>
    <linearGradient id="New_swatch_314" data-name="New swatch 314" x1="350.36" y1="341.5" x2="350.36" y2="1149.34" gradientUnits="userSpaceOnUse">
      <stop offset="0" stop-color="#e3e3e3"/>
      <stop offset="1" stop-color="#46546c"/>
    </linearGradient>
    <linearGradient id="New_swatch_314-2" data-name="New swatch 314" x1="-11552.07" y1="-3282.32" x2="-11561.02" y2="-3144.7" gradientTransform="translate(-11203.04 -2651.09) rotate(-180)" xlink:href="#New_swatch_314"/>
    <linearGradient id="New_swatch_327-2" data-name="New swatch 327" x1="-11559.69" y1="-3267.76" x2="-11552.72" y2="-3182.69" gradientTransform="translate(-11203.04 -2651.09) rotate(-180)" xlink:href="#New_swatch_327"/>
    <linearGradient id="New_swatch_314-3" data-name="New swatch 314" x1="-10164.53" y1="2789.21" x2="-10173.48" y2="2926.84" gradientTransform="translate(-7254.33 -6839.38) rotate(-120)" xlink:href="#New_swatch_314"/>
    <linearGradient id="New_swatch_327-3" data-name="New swatch 327" x1="-10172.15" y1="2803.78" x2="-10165.18" y2="2888.84" gradientTransform="translate(-7254.33 -6839.38) rotate(-120)" xlink:href="#New_swatch_327"/>
    <linearGradient id="New_swatch_314-4" data-name="New swatch 314" x1="-4212.65" y1="4623.34" x2="-4221.6" y2="4760.96" gradientTransform="translate(-1652.81 -5513.83) rotate(-60)" xlink:href="#New_swatch_314"/>
    <linearGradient id="New_swatch_327-4" data-name="New swatch 327" x1="-4220.28" y1="4637.9" x2="-4213.31" y2="4722.97" gradientTransform="translate(-1652.81 -5513.83) rotate(-60)" xlink:href="#New_swatch_327"/>
    <linearGradient id="New_swatch_314-5" data-name="New swatch 314" x1="351.69" y1="385.92" x2="342.74" y2="523.55" xlink:href="#New_swatch_314"/>
    <linearGradient id="New_swatch_327-5" data-name="New swatch 327" x1="344.06" y1="400.48" x2="351.03" y2="485.55" xlink:href="#New_swatch_327"/>
    <linearGradient id="New_swatch_314-6" data-name="New swatch 314" x1="-1035.86" y1="-5685.62" x2="-1044.8" y2="-5547.99" gradientTransform="translate(-3948.72 4188.29) rotate(60)" xlink:href="#New_swatch_314"/>
    <linearGradient id="New_swatch_327-6" data-name="New swatch 327" x1="-1043.48" y1="-5671.05" x2="-1036.51" y2="-5585.99" gradientTransform="translate(-3948.72 4188.29) rotate(60)" xlink:href="#New_swatch_327"/>
    <linearGradient id="New_swatch_314-7" data-name="New swatch 314" x1="-6987.73" y1="-7519.74" x2="-6996.68" y2="-7382.12" gradientTransform="translate(-9550.24 2862.74) rotate(120)" xlink:href="#New_swatch_314"/>
    <linearGradient id="New_swatch_327-7" data-name="New swatch 327" x1="-6995.36" y1="-7505.18" x2="-6988.39" y2="-7420.11" gradientTransform="translate(-9550.24 2862.74) rotate(120)" xlink:href="#New_swatch_327"/>
    <linearGradient id="New_swatch_314-8" data-name="New swatch 314" x1="353.05" y1="467.21" x2="346.63" y2="565.8" xlink:href="#New_swatch_314"/>
    <linearGradient id="New_swatch_327-8" data-name="New swatch 327" x1="348.32" y1="483.7" x2="352.39" y2="533.46" xlink:href="#New_swatch_327"/>
    <linearGradient id="New_swatch_314-9" data-name="New swatch 314" x1="350.36" y1="485.77" x2="350.36" y2="596.06" xlink:href="#New_swatch_314"/>
    <radialGradient id="radial-gradient-11" cx="350.36" cy="508.58" fx="350.36" fy="508.58" r="110.58" gradientUnits="userSpaceOnUse">
      <stop offset="0" stop-color="#fbf9fb"/>
      <stop offset="1" stop-color="#797581"/>
    </radialGradient>
    <radialGradient id="radial-gradient-12" cx="1537.57" fx="1537.57" r="82.43" xlink:href="#radial-gradient-10"/>
    <linearGradient id="New_swatch_327-9" data-name="New swatch 327" x1="1525.79" y1="364.74" x2="1549.36" y2="652.42" xlink:href="#New_swatch_327"/>
    <linearGradient id="New_swatch_275-12" data-name="New swatch 275" x1="1397.04" y1="508.58" x2="1678.11" y2="508.58" xlink:href="#New_swatch_275"/>
    <linearGradient id="New_swatch_314-10" data-name="New swatch 314" x1="1537.57" x2="1537.57" xlink:href="#New_swatch_314"/>
    <linearGradient id="New_swatch_314-11" data-name="New swatch 314" x1="-12739.29" y1="-3282.32" x2="-12748.24" y2="-3144.7" gradientTransform="translate(-11203.04 -2651.09) rotate(-180)" xlink:href="#New_swatch_314"/>
    <linearGradient id="New_swatch_327-10" data-name="New swatch 327" x1="-12746.91" y1="-3267.76" x2="-12739.94" y2="-3182.69" gradientTransform="translate(-11203.04 -2651.09) rotate(-180)" xlink:href="#New_swatch_327"/>
    <linearGradient id="New_swatch_314-12" data-name="New swatch 314" x1="-10758.14" y1="3817.38" x2="-10767.09" y2="3955" gradientTransform="translate(-7254.33 -6839.38) rotate(-120)" xlink:href="#New_swatch_314"/>
    <linearGradient id="New_swatch_327-11" data-name="New swatch 327" x1="-10765.76" y1="3831.94" x2="-10758.79" y2="3917.01" gradientTransform="translate(-7254.33 -6839.38) rotate(-120)" xlink:href="#New_swatch_327"/>
    <linearGradient id="New_swatch_314-13" data-name="New swatch 314" x1="-3619.04" y1="5651.5" x2="-3627.99" y2="5789.12" gradientTransform="translate(-1652.81 -5513.83) rotate(-60)" xlink:href="#New_swatch_314"/>
    <linearGradient id="New_swatch_327-12" data-name="New swatch 327" x1="-3626.67" y1="5666.06" x2="-3619.7" y2="5751.13" gradientTransform="translate(-1652.81 -5513.83) rotate(-60)" xlink:href="#New_swatch_327"/>
    <linearGradient id="New_swatch_314-14" data-name="New swatch 314" x1="1538.9" y1="385.92" x2="1529.96" y2="523.55" xlink:href="#New_swatch_314"/>
    <linearGradient id="New_swatch_327-13" data-name="New swatch 327" x1="1531.28" y1="400.48" x2="1538.25" y2="485.55" xlink:href="#New_swatch_327"/>
    <linearGradient id="New_swatch_314-15" data-name="New swatch 314" x1="-442.25" y1="-6713.78" x2="-451.2" y2="-6576.15" gradientTransform="translate(-3948.72 4188.29) rotate(60)" xlink:href="#New_swatch_314"/>
    <linearGradient id="New_swatch_327-14" data-name="New swatch 327" x1="-449.87" y1="-6699.22" x2="-442.9" y2="-6614.15" gradientTransform="translate(-3948.72 4188.29) rotate(60)" xlink:href="#New_swatch_327"/>
    <linearGradient id="New_swatch_314-16" data-name="New swatch 314" x1="-7581.34" y1="-8547.9" x2="-7590.29" y2="-8410.28" gradientTransform="translate(-9550.24 2862.74) rotate(120)" xlink:href="#New_swatch_314"/>
    <linearGradient id="New_swatch_327-15" data-name="New swatch 327" x1="-7588.97" y1="-8533.34" x2="-7582" y2="-8448.27" gradientTransform="translate(-9550.24 2862.74) rotate(120)" xlink:href="#New_swatch_327"/>
    <linearGradient id="New_swatch_314-17" data-name="New swatch 314" x1="1540.26" y1="467.21" x2="1533.85" y2="565.8" xlink:href="#New_swatch_314"/>
    <linearGradient id="New_swatch_327-16" data-name="New swatch 327" x1="1535.54" y1="483.7" x2="1539.61" y2="533.46" xlink:href="#New_swatch_327"/>
    <linearGradient id="New_swatch_314-18" data-name="New swatch 314" x1="1537.57" y1="485.77" x2="1537.57" y2="596.06" xlink:href="#New_swatch_314"/>
    <radialGradient id="radial-gradient-13" cx="1537.57" fx="1537.57" xlink:href="#radial-gradient-11"/>
    <linearGradient id="New_swatch_279-2" data-name="New swatch 279" x1="110.09" y1="305.8" x2="190.31" y2="305.8" xlink:href="#New_swatch_279"/>
    <radialGradient id="radial-gradient-14" cx="1306.16" cy="-3650.72" fx="1306.16" fy="-3650.72" r="44.71" gradientTransform="translate(0 15863.37) scale(1 4.24)" xlink:href="#radial-gradient-2"/>
    <radialGradient id="radial-gradient-15" cx="220.35" cy="247.03" fx="220.35" fy="247.03" r="169.59" xlink:href="#radial-gradient-2"/>
    <radialGradient id="radial-gradient-16" cx="941.7" cy="45410.26" fx="941.7" fy="45410.26" r="1188.38" gradientTransform="translate(0 -4191.32) scale(1 .1)" gradientUnits="userSpaceOnUse">
      <stop offset="0" stop-color="#f26722"/>
      <stop offset="1" stop-color="#df1f26"/>
    </radialGradient>
    <linearGradient id="New_swatch_297-11" data-name="New swatch 297" x1="948.82" y1="272.7" x2="948.82" y2="538.47" xlink:href="#New_swatch_297"/>
    <linearGradient id="linear-gradient-18" x1="129.96" y1="308.45" x2="204.92" y2="289.33" gradientUnits="userSpaceOnUse">
      <stop offset="0" stop-color="#fcb01a"/>
      <stop offset="1" stop-color="#f04d23" stop-opacity="0"/>
    </linearGradient>
    <linearGradient id="linear-gradient-19" x1="101.68" y1="309.23" x2="10.44" y2="344.32" gradientUnits="userSpaceOnUse">
      <stop offset="0" stop-color="#fbf9fb"/>
      <stop offset="1" stop-color="#a19ca6" stop-opacity="0"/>
    </linearGradient>
    <linearGradient id="linear-gradient-20" x1="57.19" y1="319.17" x2="60.37" y2="343.43" xlink:href="#linear-gradient-19"/>
    <linearGradient id="linear-gradient-21" x1="1683.7" y1="223.33" x2="1740.33" y2="208.89" xlink:href="#linear-gradient-18"/>
    <linearGradient id="linear-gradient-22" x1="1670.82" y1="235.18" x2="1758.09" y2="217.89" gradientUnits="userSpaceOnUse">
      <stop offset="0" stop-color="#bc2025" stop-opacity=".01"/>
      <stop offset="1" stop-color="#f05523"/>
    </linearGradient>
    <linearGradient id="New_swatch_326-5" data-name="New swatch 326" x1="1700.18" y1="236.34" x2="1774.02" y2="236.34" xlink:href="#New_swatch_326"/>
    <linearGradient id="linear-gradient-23" x1="681.78" y1="171.17" x2="638.78" y2="187.71" xlink:href="#linear-gradient-19"/>
    <linearGradient id="linear-gradient-24" x1="1120.19" y1="1.37" x2="1071.57" y2="240.38" xlink:href="#linear-gradient-10"/>
    <linearGradient id="linear-gradient-25" x1="1353.9" y1="23.07" x2="1317.61" y2="201.45" xlink:href="#linear-gradient-10"/>
    <linearGradient id="linear-gradient-26" x1="993.4" y1="4.56" x2="930.68" y2="328.05" gradientUnits="userSpaceOnUse">
      <stop offset="0" stop-color="#fff"/>
      <stop offset=".63" stop-color="#131d2e" stop-opacity="0"/>
      <stop offset="1" stop-color="#2c3c58"/>
      <stop offset="1" stop-color="#101a2b"/>
    </linearGradient>
    <linearGradient id="linear-gradient-27" x1="777.75" y1="76.73" x2="731.38" y2="307.11" gradientUnits="userSpaceOnUse">
      <stop offset="0" stop-color="#134c6f"/>
      <stop offset=".71" stop-color="#131d2e" stop-opacity="0"/>
      <stop offset="1" stop-color="#2c3c58"/>
      <stop offset="1" stop-color="#101a2b"/>
    </linearGradient>
    <linearGradient id="linear-gradient-28" x1="1310.19" y1="45.45" x2="1279.82" y2="202.12" xlink:href="#linear-gradient-26"/>
    <radialGradient id="radial-gradient-17" cx="1441" cy="26551.13" fx="1441" fy="26551.13" r="41.12" gradientTransform="translate(0 -4613.69) scale(1 .17)" xlink:href="#radial-gradient-2"/>
  </defs>
  <g class="cls-83">
    <g id="Layer_2" data-name="Layer 2">
      <g id="Layer_1-2" data-name="Layer 1">
        <g>
          <ellipse class="cls-54" cx="915.33" cy="652.89" rx="894.6" ry="9.35"/>
          <path class="cls-93" d="M1833.19,460.4c-.22,8.12-1.68,20.23-3.48,32.76-2.41,16.73-5.45,34.22-7,43.99l-47.24,6.5,28.92-248.84s2.39,5.01,5.26,11.08c4.35,9.22,9.81,20.89,9.65,21.14,4,42.52,4.71,85.35,3.05,128.04,3.59,1.78,7.18,3.55,10.84,5.33Z"/>
          <path class="cls-33" d="M1829.71,493.15c-2.41,16.73-5.45,34.22-7,43.99l-47.24,6.5,28.92-248.84s2.39,5.01,5.26,11.08l-15.23,213.22,23.41,9.02,11.88-34.98Z"/>
          <rect class="cls-81" x="112.42" y="299.8" width="1618.94" height="244.15"/>
          <path class="cls-97" d="M1667.76,32.42c-.47,1.84-.95,3.68-1.43,5.51-.61,2.35-1.22,4.71-1.83,7.05,0,0-32.63,14.64-49,25.99.91,10.89,15.88,21.73,15.88,21.73-.27,2.27-20.17,5.91-22.13,7.09-2.84,1.71-6.31-.71-8.8-2.9-5.1-4.48-10.5-8.61-16.15-12.38-10.63-7.08-22.15-12.85-34.21-17.09-5.76-2.03-11.71-3.74-16.89-6.97-5.18-3.22-9.61-8.3-10.35-14.36-1.24-10.16,7.71-18.38-5.37-20l150.27,6.32Z"/>
          <path class="cls-37" d="M1664.51,44.99s-32.63,14.64-49,25.99c.91,10.89,15.88,21.73,15.88,21.73-.27,2.27-20.17,5.91-22.13,7.09-2.84,1.71-6.31-.71-8.8-2.9-5.1-4.48-10.5-8.61-16.15-12.38l-43.11-39.04s123.91-2.84,123.3-.5Z"/>
          <path class="cls-122" d="M1447.97,5.42c-1.62,1.9-3.27,3.76-4.94,5.58-6.83,7.43-10.45,10.3-16.77,18.6-15.59-6.37-33.04-8.09-46.6-10.23,4.55-3.7,7.59-4.72,13.38-9.21.64-.5,1.28-.99,1.9-1.47,7.1-5.49,15.8-8.49,24.78-8.55,8.47-.06,18.97-.12,25.74-.13,2.8,0,4.33,3.28,2.52,5.42Z"/>
          <path class="cls-126" d="M1804.38,294.81c-.01.28-.02.56-.03.85,0,.15-.01.3-.02.45-.29,8.5-.72,17.19-1.28,26.05-4.53,71.72-17.2,153.53-27.59,221.5l-49.71.52c-.02-3.83-.16-7.63-.39-11.41-6.23-100.3-84.94-182.86-167.38-194.96-7.03-1.03-14.19-1.57-21.45-1.57-92.92,0-168.83,86.99-173.78,196.52-.17,3.77-.26,7.56-.26,11.38,0,.34,0,.69,0,1.04l-3.29.02-292.28,1.92-6.62.04-440.11,2.88-14.05-17.29-5.4-6.64-75.84-93.34-50.11-61.67-23.1-28.42-3.5-4.3-28.04-34.5-5.07-6.24-49.61-61.06c27.96-15.03,56.37-29.99,85.11-44.68,0,0,0,0,0,0,.57-.29,1.14-.58,1.71-.87,2.27-1.16,4.53-2.31,6.8-3.46C591.17,120.47,729.69,59.39,861.12,22.27c7.55-2.13,15.17-4.02,22.99-4.79C1097.94-3.69,1314.21-.17,1527.45,26.4c-.15.06-.36.22-.67.57,23.64,13.39,46.88,27.47,69.65,42.25,43.1,27.97,84.53,58.46,123.84,91.47h0c12.21,10.25,24.22,20.74,36,31.48.75,1.4,1.54,2.79,2.24,4.22.91,1.87,1.75,4.05,2.51,6.46.48,1.5.93,3.1,1.35,4.77,3.63,14.29,5.41,34.12,6.41,48.91.46,6.82.75,12.56.99,16.19-.43-.05-.09.51.79,1.54.25.29.81.69,1.62,1.2,1.82,1.13,4.9,2.74,8.47,4.6,8.77,4.57,20.48,10.65,23.72,14.74Z"/>
          <path class="cls-28" d="M1780.67,280.07c-187.04-15.07-277.09-17.11-405.73,27.64-4.01-.34-9.15-.67-14.3-1-297.7-24.97-592.85-3.36-876.94,62.34-2.96.68-5.92,1.37-8.88,2.07-9.65,2.27-19.3,4.58-28.93,6.96-11.76-9.27-24.51-16.88-38.03-22.55-18.05-7.57-37.47-11.7-57.69-11.7-15.77,0-31.06,2.51-45.59,7.21-5.32-7.41-10.77-15.21-15.95-23.2,21.73-5.57,43.51-10.96,65.33-16.15,20.34-4.84,40.72-9.52,61.14-14.04,205.64-45.49,414.95-74.4,625.22-86.3-82.64-37.29-165.29-74.58-247.93-111.88,180.11-75.31,379.53-78.57,572.04-65.26,78.16,5.41,156.76,13.48,232,35.01,43.1,27.97,84.53,58.46,123.84,91.47h0c12.21,10.25,24.22,20.74,36,31.48.75,1.4,1.54,2.79,2.24,4.22.91,1.87,1.75,4.05,2.51,6.46.48,1.5.93,3.1,1.35,4.77,3.63,14.29,5.41,34.12,6.41,48.91.46,6.82.75,12.56.99,16.19-.43-.05-.09.51.79,1.54.25.29.81.69,1.62,1.2,1.82,1.13,4.9,2.74,8.47,4.6Z"/>
          <circle class="cls-114" cx="1587" cy="203.95" r="40.53"/>
          <path class="cls-45" d="M1772.98,278.77c-20.22-5.72-37.31-12.12-57.17-16.9l-84.8-53.8c.15-5.55,1.62-11.05,4.28-15.91,44.34-7.05,86.25-.41,125.75,10.69.48,1.5.93,3.1,1.35,4.77,1.94,19.23,4.37,36.3,6.41,48.91,1.41,8.69,2.63,15.25,3.4,18.94.4,1.89.67,3.03.78,3.31Z"/>
          <circle class="cls-89" cx="1587" cy="203.95" r="37.6"/>
          <path class="cls-101" d="M620.21,550.04l-70.48.38-25.53.14c-.41-90.16-48.87-166.73-116.34-195.04-18.05-7.57-37.47-11.7-57.69-11.7-27.12,0-52.78,7.41-75.66,20.62-1.04.6-2.07,1.21-3.1,1.84-56.54,34.33-95.27,104.48-95.27,185.45,0,.24,0,.48,0,.72l-19.37.11-156.78.85,4.16-21.74,5.99-.86,27.38-3.94,9.82-1.41-24.41-124.43-1.92-9.78.23-8.71.28-10.58.66-24.55,21.95-8.02,57.38-20.98-17.79,34.13,5.49-3.31,110.34-66.55,3.28-1.98,28.82-17.38-38.91,9.14-4.98,1.17-135.58,31.83c.26-.17,4.51-2.93,10.28-6.62,9.68-6.2,23.62-15.06,30.02-18.72,48.63-27.89,202.76-56.75,344-85.35,4.49-.91,8.95-1.82,13.41-2.72.23-.05.46-.09.68-.14,0,0,0,0,0,0,.29-.06.58-.12.86-.18l130.01-6.25,4.78-.23c-9.17,18.57-22.63,51.12-24.97,68.48-2.4,17.83-2.1,39.7-1.1,61.58.61,13.23,1.47,26.46,2.14,38.8,2.08,38.11,10.95,91.32,22.79,121.15,4.6,11.59,10.66,23.97,26.83,29.5,1,.11,2.7.18,4.75.2l.27,3.44,3.24,41.63Z"/>
          <path class="cls-21" d="M707.17,86.7c-111.18,37.09-223.75,98.05-320.24,143.74,17.37,6.29,36.56,3.07,54.73-.22,87.79-15.89,175.57-31.78,263.36-47.67-14.06.96-26.61-11.64-28.74-25.57-2.12-13.93,4.32-28.06,13.83-38.45s21.85-17.69,17.06-31.83Z"/>
          <path class="cls-23" d="M44.59,382.29c307.72-95.32,627.67-151.13,949.49-165.62-126.26,14.38-252.6,28.77-377.84,50.28-77.05,13.23-156.65,30.49-218.46,78.36-68.23-10.88-140.57,6.89-195.98,48.15-46.59-11.59-95.19-15.01-157.21-11.17Z"/>
          <path class="cls-43" d="M1557.98,337.8c-7.03-1.03-14.19-1.57-21.45-1.57-92.92,0-168.83,86.99-173.78,196.52-.17,3.77-.26,7.56-.26,11.38,0,.34,0,.69,0,1.04l-3.29.02-292.28,1.92-6.62.04-440.11,2.88-70.48.38-25.53.14c0-.56,0-1.12-.01-1.68-.06-5.43-.3-10.8-.7-16.12-6.24-82.33-52.65-150.81-115.63-177.23,14.56-4.43,29.18-8.71,43.86-12.83.66-.19,1.32-.37,1.98-.55,35.18-9.84,70.71-18.78,106.5-26.82,17.98-4.04,36.02-7.85,54.13-11.43,281.77-55.74,578.44-56.28,860.11,0,15.52,3.1,30.99,6.37,46.41,9.82,11.52,2.58,23.82,5.68,31.26,13.66,2.93,3.15,4.8,6.68,5.88,10.44Z"/>
          <path class="cls-49" d="M1210.8,499.06c30.83-70.08,71.89-133.33,126.76-186.81,16.35-5.12,35.26-11.42,51.62-16.54-17.21,6.68-38.29,13.14-54.16,20.91-41.94,41.94-95.32,113.96-121.95,183.52-1.1-.55-2.2-1.09-2.27-1.07Z"/>
          <path class="cls-58" d="M1060.79,498.34c.12,1.24,1.4,2.48,1.52,3.72l-5.85.09c-.11-1.23-.21-2.47-.32-3.7-8.88-105.44-7.68-211.97,2.63-317.44,1.18-12.01,7.06-39.33,10.18-47.39-15.74,107.27-19.92,237.06-8.16,364.72Z"/>
          <path class="cls-11" d="M1804.34,296.1c-.29,8.5-.72,17.19-1.28,26.05-6.92-1.12-14.59-1.75-23.34-1.75-32.89,0-67.42,52.55-77.57,85.73-29.85-45.17-84.2-67.78-137.21-78.84-31.4-6.56-64.09-9.93-95.49-3.35-31.4,6.59-61.54,24.23-77.66,51.97-17.64-14.31-35.27-28.62-57.99-47.85,171.13-49.68,318.62-57.21,470.54-31.96Z"/>
          <path class="cls-65" d="M549.73,550.42l-25.53.14c-.33-72.1-31.38-135.51-78.31-172.49-11.76-9.27-24.51-16.88-38.03-22.55-18.05-7.57-37.47-11.7-57.69-11.7-15.77,0-31.06,2.51-45.59,7.21-10.45,3.38-20.5,7.88-30.07,13.41-1.04.6-2.07,1.21-3.1,1.84-56.54,34.33-95.27,104.48-95.27,185.45,0,.24,0,.48,0,.72l-19.37.11c3.08-54.57,27.12-229.22,197.19-240.87,53.67-3.68,106.54,31.84,129.73,57.36,15.82,17.42,30.06,38.88,41.23,63.73,15.11,33.6,24.6,73.38,24.81,117.64Z"/>
          <polygon class="cls-88" points="21.55 371.95 9.78 536.1 54.94 534.73 21.55 371.95"/>
          <polygon class="cls-80" points="7.79 536.02 11.11 504.9 34.24 493.48 47.26 524.28 7.79 536.02"/>
          <polygon class="cls-127" points="37.77 528.13 17.05 414.61 20.99 392.59 52.8 529.17 37.77 528.13"/>
          <path class="cls-59" d="M86.6,370.95c285.16-92.34,680.64-144.91,1027.37-169.01-116.13-16.03-201.71-16.1-318.76-7.96-140.16,9.74-418.62,50.01-497.67,70.76-36.65,9.62-163.53,77.23-210.94,106.21Z"/>
          <path class="cls-53" d="M258.26,253.38L57.44,384.27l-16.21-20.26,2.93-24.62,57.38-20.98-17.79,34.13,5.49-3.31,110.34-66.55,3.28-1.98,28.82-17.38-38.91,9.14-4.98,1.17-135.59,31.84s10.76-6.91,16.71-10.73l189.35-41.37Z"/>
          <path class="cls-44" d="M637.56,504.7s-7.46,2.77-9.58,4.16c0,0-5.65-.32-11-.46-2.27-.06-4.49-.09-6.2-.05-14.17-3.4-22.38-17.38-27.83-30.51-30.8-74.32-27.68-208.54-27.68-208.54,1.51-14.05,15.66-40.52,19.61-51.2l6.61-32.63,4.78-.23-8.29,32.97c-6.35,18.7-17.21,40.21-18.04,50.29-.9,11.02.62,52.84,2.41,85.61,2.08,38.11,10.95,91.32,22.79,121.15,4.6,11.59,10.66,23.97,26.83,29.5,1,.11,2.7.18,4.75.2,7.82.12,20.85-.27,20.85-.27Z"/>
          <path class="cls-34" d="M274.51,364.44c-1.04.6-2.07,1.21-3.1,1.84-4.28-10.13-8.08-19.6-12.7-29.85h0c-18.22-18.95-38.24-37.25-59.12-53.75-3.91-3.08-7.84-6.1-11.8-9.05-2.01-1.51.88,1.74-1.15.27,2.21.2,4.43.41,5.61-1.06,1.82,1.44-1.28-1.84.52-.38,3.39,2.72,6.75,5.47,10.09,8.24,20.54,17.04,40.3,34.94,59.74,53.51h0c3.9,10.08,7.95,20.15,11.91,30.23Z"/>
          <path class="cls-71" d="M519.78,184.31c109.37-70.52,223.26-119.59,350.31-152.21,6.29-1.62,12.72-2.66,19.2-3.13,112.81-8.14,288.56-17.9,426.66,1.02,14.54,1.99,28.55,6.88,41.17,14.37,45.31,26.88,85.17,58.12,119.13,89.98,3.28,3.08,2.15,8.54-2.1,10.03-68.85,24.17-154.62,40.67-226.51,55.68-12.71,2.65-25.64,4.08-38.63,4.27l-594.44,8.7-92.46-16.97c-5.74-1.05-7.23-8.58-2.33-11.74Z"/>
          <path class="cls-74" d="M1456.99,139.02c-54.37,13.71-219.99,49.63-219.99,49.63,0,0-18.27.52-42.32,1.1-30.01.73-69.01,1.57-92.75,1.64-.39,0-16.63.32-35.22.68-25.28.49-54.9,1.07-54.9,1.07-9.23.46-21.99,1.03-37.34,1.69-1.68.06-3.38.14-5.12.21-31.32,1.31-72.28,2.9-115.65,4.43-47.21,1.67-97.28,3.28-140.88,4.41-37.73.98-70.61,1.61-92.62,1.61-2.63,0-47.74-8.54-47.74-8.54,0,0-1.52-1.17-3.87-2.9-6.03-4.45-17.53-12.59-22.96-14.17,97.69-55.98,213.67-109.83,315.04-136.16,12.86-3.33,25.87-5.75,39.13-6.38,6.2-.3,12.29-.58,18.29-.87,20.41-.97,39.66-1.86,58.09-2.66,12.2-.53,24.04-1.01,35.61-1.44,9.7-.36,19.22-.68,28.6-.96,2.49-.08,4.98-.15,7.46-.22,21.78-.6,42.93-.97,64.16-1.05,30.33-.11,60.82.4,93.56,1.67,11.69.46,24.82.82,38.26,1.31,15.72.57,31.85,1.32,46.55,2.6,8.56.74,16.64,1.67,23.86,2.84,2.92.47,5.7.99,8.32,1.55,1.16.25,2.29.5,3.38.77.32.08.63.16.94.24,4.05,1.03,7.6,2.19,10.56,3.51.46.2.89.41,1.32.62.21.11.42.21.62.32,3.94,2.05,7.83,4.15,11.69,6.29,9.17,5.09,18.12,10.44,26.82,15.99,27.47,17.53,52.48,37.16,74.24,57.6,2.27,2.13,4.5,4.27,6.7,6.41,2.35,2.29,1.33,6.34-1.86,7.14Z"/>
          <path class="cls-18" d="M1456.99,139.02c-54.37,13.71-219.99,49.63-219.99,49.63,0,0-18.27.52-42.32,1.1-30.01.73-69.01,1.57-92.75,1.64-.39,0-16.63.32-35.22.68-25.28.49-54.9,1.07-54.9,1.07-9.23.46-21.99,1.03-37.34,1.69-1.68.06-3.38.14-5.12.21-31.32,1.31-72.28,2.9-115.65,4.43-47.21,1.67-97.28,3.28-140.88,4.41-37.73.98-70.61,1.61-92.62,1.61-2.63,0-47.74-8.54-47.74-8.54,0,0-1.52-1.17-3.87-2.9l.75-2.11,685.04-30.23c12.86-.57,23.99-9.12,27.85-21.39l32.01-101.73c1.28.27,4.67.79,8.32,1.55,1.12.23,2.27.49,3.38.77.32.08.63.16.94.24,4.04,1.06,7.6,2.2,10.56,3.51.46.2.89.41,1.32.62.21.11.42.21.62.32,3.94,2.05,7.83,4.15,11.69,6.29l4.09,87.65,96.98-14.06c2.27,2.13,4.5,4.27,6.7,6.41,2.35,2.29,1.33,6.34-1.86,7.14Z"/>
          <path class="cls-20" d="M1040.39,31.41l-186.68,168.05c-47.21,1.67-97.28,3.28-140.88,4.41l205.26-167.41c45.22-2.15,84.8-3.94,122.3-5.05Z"/>
          <path class="cls-16" d="M1326.89,41.14l-132.21,148.61c-30.01.73-69.01,1.57-92.75,1.64-.39,0-16.63.32-35.22.68l177.14-158.94c30.68,1.12,62.93,2.9,83.05,8.01Z"/>
          <path class="cls-121" d="M1112.01,30.15l-8.72,158.13-.2,3.67-5.75.23-7.88.32-26.92,1.07-5.4.22-25.32,1.01-11.53.46-7.7.31c.13-.6.26-1.18.38-1.78,11.63-54.18,23.25-108.36,34.88-162.53,1.92-.06,3.84-.11,5.75-.16.29,0,.58-.01.87-.02,14.82-.4,29.36-.67,43.88-.81,3.41-.04,6.82-.06,10.23-.08,1.14,0,2.3-.01,3.44-.02Z"/>
          <path class="cls-7" d="M1054.47,31.06l-26.19,164.5-10.1-.5,35.42-163.97c.29,0,.58-.01.87-.02Z"/>
          <path class="cls-77" d="M1343.53,166.34l-4.05.68h-.02s-15.65,2.62-15.65,2.62c0-20.22,1.79-112.8,1.79-129.6l9.41,2.45,1.72.45c1.28.33,2.42.95,3.37,1.78,1.77,1.54,2.86,3.81,2.85,6.27l.58,115.35Z"/>
          <path class="cls-124" d="M594.79,148.35s-13.68,51.36-14.76,50.77c-2.3-.19-29.57-6.1-43.79-9.2-.06-.01-.11-.02-.16-.04-3.01-.79-3.67-4.82-1-6.52,12.94-8.21,39.86-25.05,55.2-32.83,1.65-.84,3.17-1.57,4.51-2.18Z"/>
          <path class="cls-25" d="M590.34,151.13l-54.27,38.75c-3.01-.79-3.67-4.82-1-6.52,12.94-8.21,39.86-25.05,55.2-32.83l.07.6Z"/>
          <polygon class="cls-91" points="607.69 141.09 606.16 147.14 592.95 199.12 572.47 196.94 585.47 152.3 607.69 141.09"/>
          <polygon class="cls-15" points="607.69 141.09 606.16 147.14 592.21 153.67 580.28 191.44 572.47 196.94 585.47 152.3 607.69 141.09"/>
          <polygon class="cls-128" points="669.01 112.96 653.34 203.82 668.47 204.79 685.71 105.43 669.01 112.96"/>
          <path class="cls-50" d="M960.29,234.22l1.19,27.04s1.04,8.51,19.15,8.53c5.65,0,11.57-.68,16.93-2.29,2.7-.81,4.61-3.22,4.77-6.04.53-9.18.87-27.94-.11-28.2-.52-3.01-2.89-6.22-5.75-7.27-4.15-1.52-26.09-1.29-31.32.78-1.98.78-4.8,4.14-4.86,7.45Z"/>
          <path class="cls-39" d="M963.65,239.34s-30.44,1.5-30.34,1.75c-3,.06-7.2,3.1-7.2,8.67,0,7.33,3.17,11.16,7.51,10.41,0,0,102.68-1.68,102.87-1.74,6.6-.63,9.42-6.65,9.46-11.56s-3.56-10.67-9.27-11.12l-73.03,3.6Z"/>
          <path class="cls-32" d="M1358.43,222.38s-30.44,1.5-30.34,1.75c-3,.06-7.2,3.1-7.2,8.67,0,7.33,3.17,11.16,7.51,10.41,0,0,102.68-1.68,102.87-1.74,6.6-.63,9.42-6.65,9.46-11.56.04-4.91-3.56-10.67-9.27-11.12l-73.03,3.6Z"/>
          <path class="cls-113" d="M935.55,258.49c-3.97-.61-7.23-4.32-7.31-8.33s3.01-7.86,6.95-8.64c0,0,81.47-4.26,98.76-5.22,2.4-.13,4.8.57,6.62,2.13.95.81,1.71,1.77,2.3,3.2,1.19,2.86.93,6.91-.28,9.76-1.21,2.85-4.15,5.03-7.24,4.82l-99.79,2.27Z"/>
          <path class="cls-42" d="M1355.17,217.28l1.19,27.04s1.04,8.51,19.15,8.53c5.65,0,11.57-.68,16.93-2.29,2.7-.81,4.61-3.22,4.77-6.04.53-9.18.87-27.94-.11-28.2-.52-3.01-2.89-6.22-5.75-7.27-4.15-1.52-26.09-1.29-31.32.78-1.98.78-4.8,4.14-4.86,7.45Z"/>
          <path class="cls-120" d="M1330.42,241.55c-3.97-.61-7.23-4.32-7.31-8.33-.09-4.01,3.01-7.86,6.95-8.64,0,0,81.47-4.26,98.76-5.22,2.4-.13,4.8.57,6.62,2.13.95.81,1.71,1.77,2.3,3.2,1.19,2.86.93,6.91-.28,9.76-1.21,2.85-4.15,5.03-7.24,4.82l-99.79,2.27Z"/>
          <path class="cls-96" d="M1774.02,259.35c-.8,5.45-1.94,10.53-3.45,14.91,0,0-17.35-5.16-32.42-9.65-11.21-3.34-21.16-6.32-21.76-6.54-22.75-15.77-49.09-32.6-70.19-50.38-5.19-4.38-2.39-12.86,4.39-13.25,27.07-1.53,56.4-.48,84.2,4.59,10.11,1.85,35.03,8.43,37.35,9.4,3.58,13.83,4.36,34.11,1.88,50.91Z"/>
          <path class="cls-35" d="M1804.38,294.81c-.01.28-.02.56-.03.85-142.43-23.93-287.82-18.27-426.9,15.36-11.13,2.69-22.22,5.56-33.26,8.61-52.8,49.42-94.12,112.37-123.03,174.6-5.08,8.04-10.09,16.11-15.07,24.2,3.35-13.45,7.58-21.99,8.37-22.09,29.24-63.75,67.17-123.49,115.23-174.18,3.73-3.94,7.52-7.83,11.38-11.65,142.46-55.31,315.73-59.49,429.5-36.24,2.16,2.55,28.67,14.06,33.81,20.55Z"/>
          <polygon class="cls-52" points="1083.95 21.74 1060.51 205.48 1055.12 205.69 1079.55 21.66 1083.95 21.74"/>
          <path class="cls-48" d="M1320.89,208.07c49.81-23.48,165.53-52.57,242.41-56.6,52.45-2.75,105.06,1.09,156.99,9.22h0c12.21,10.25,24.22,20.74,36,31.48.75,1.4-248.15-25.74-435.4,15.91Z"/>
          <path class="cls-125" d="M1736.48,544.1l-25.53.14c-.53-114.28-78.24-206.74-174.03-206.74s-174.03,93.08-174.03,207.91c0,.24,0-.1,0,.14l-19.37.11c2.13-37.66,6.98-74.46,19.39-110,18.32-52.49,55.83-98.91,108.8-117.82,39.44-14.08,83.93-14.97,123.98-2.58,71.85,22.22,134.53,100.45,140.79,228.85Z"/>
          <path class="cls-3" d="M600.31,472.39c31.93-10.84,64.35-20.21,97.18-27.89,7.57-1.77,15.3-2.69,23.07-2.79,64.99-.89,387.37-5.35,493.75-7.91,26.68-.64,52.74,8.43,73.04,25.75.12.1.24.21.36.31l-687.41,12.53Z"/>
          <path class="cls-78" d="M618.85,238.99c3.64-15.92,9.41-31.36,17.13-45.75,0,0,29.16-.57,30.3-.05.5,14.84-.27,32.05-2.29,46.76l-45.14-.96Z"/>
          <path class="cls-94" d="M700.98,182.71c-3.78,6.8-8.82,13.08-15.47,17.11-4.05,2.45-8.56,3.98-13.23,4.82-3.07.56-6.2.82-9.3.84l-29.76-1.67-11.42-21.74c2.75-5.15,5.95-10.05,9.53-14.66,5.99-7.7,13.06-14.57,20.98-20.35.38-.28.76-.55,1.14-.83,4.56-.58,9.17-.75,13.76-.51,8.04.42,16.01,2.1,23.52,4.98,5.01,1.92,10.1,4.63,12.77,9.29,3.97,6.92,1.35,15.75-2.53,22.72Z"/>
          <path class="cls-105" d="M672.29,204.64c-3.07.56-6.2.82-9.3.84l-29.76-1.67-11.42-21.74c2.75-5.15,5.95-10.05,9.53-14.66,5.99-7.7,13.06-14.57,20.98-20.35.38-.28.76-.55,1.14-.83,4.56-.58,9.17-.75,13.76-.51-.62,1.06-1.23,2.12-1.82,3.17-2.41,4.25-4.53,8.33-5.93,11.67-.93,2.23-1.55,4.12-1.71,5.51-.64,5.59,6.96,20.31,14.52,38.56Z"/>
          <path class="cls-26" d="M688.2,152.46c-2.98,2.31-5.42,5.31-7.08,8.69-6.92-.23-13.84-.46-20.76-.69-.3.04-.6.07-.89.11-9.61,1.21-19.04,3.54-28.13,6.84,5.99-7.7,13.06-14.57,20.98-20.35,4.38.57,8.74,1.19,13.08,1.83,7.62,1.13,15.21,2.35,22.8,3.56Z"/>
          <path class="cls-62" d="M696.18,163.77c-3.33,6.7-7.18,14.09-11.03,21.49-11.55.83-23.19.36-34.64-1.39-.5-1.08-.57-3.21-.4-5.36.15-1.85.46-3.71.81-4.92.15-.53.31-.94.46-1.17,6.73.29,13.47.57,20.2.86,2.8.12,5.69.23,8.29-.82,4.73-1.89,7.22-6.96,9.3-11.62,1.23-.68,7.02,2.93,7.02,2.93Z"/>
          <polygon class="cls-55" points="1291.44 494.23 1287.18 498.58 1061.77 502.06 1055.62 502.15 614.5 508.38 624.9 504.96 1055.29 498.45 1061.4 498.34 1291.44 494.23"/>
          <path class="cls-38" d="M1286.7,494.29c18.25-11.96,35.7-34.74,49.84-56.55,28.48-43.93,65.07-95.43,96.24-143.51,17.71-23.99,40.03-55.22,48.76-83.74,6.42-20.99,9.33-46.76-3.73-69.77-1.79-3.15-2.71-6.34-4.82-9.42,16.74,16.78,20.25,43.84,14.98,66.58-6.65,37.27-32.16,67.76-53.02,99.34-26.54,40.17-108.3,163.48-122.55,179.98-7.2,8.33-15.54,15.04-25.21,21.38.83-1.86.63-3.41-.48-4.29Z"/>
          <path class="cls-68" d="M1697.23,201.33l34.13,54.2-10.94-1.3-67.1-49.44c-1.33-.98-.65-3.1,1.01-3.11l42.91-.35Z"/>
          <path class="cls-30" d="M1709.49,201.33l23.89,43.21s31.64,10.55,31.72,10.19c4.43-12.43,5.76-26.12,3.6-39.24-13.94-4.69-27.53-9.15-59.22-14.17Z"/>
          <polygon class="cls-108" points="44.79 306.92 37.08 351.5 58.98 376.45 237.26 261.16 44.79 306.92"/>
          <polygon class="cls-47" points="64.18 341.01 78.67 306.54 105.9 300.53 84.75 341.01 64.18 341.01"/>
          <polygon class="cls-46" points="94.49 347.67 125.57 291.71 217.07 269.85 94.49 347.67"/>
          <path class="cls-36" d="M185.07,271.65c.54-.12,1.07-.24,1.61-.36-.51.12-1.05.24-1.61.36Z"/>
          <path class="cls-51" d="M436.52,194.77c4.49-.91,8.95-1.82,13.41-2.72-52.01,21.99-93.3,36.24-142.11,53.62-22.01,7.84-74.52,15.29-120.37,25.45,15.2-3.42,12.69-2.82,27.73-7.04,32.38-9.08,73.89-15.42,91.71-21.45,35.23-11.93,89.46-32.69,129.63-47.86Z"/>
          <polygon class="cls-56" points="91.35 414.64 112.42 512.11 61.41 522.86 65.52 440.94 91.35 414.64"/>
          <polygon class="cls-106" points="99.31 455.39 87.19 470.66 92.43 516.32 112.42 512.11 99.31 455.39"/>
          <polygon class="cls-115" points="106.51 345.72 96.06 353.2 63.61 376.45 21.27 382.54 22.1 351.24 22.12 350.81 22.21 347.41 29.62 347.27 106.51 345.72"/>
          <polygon class="cls-41" points="106.51 345.72 96.06 353.2 22.1 351.24 21.27 351.22 22.12 350.81 29.62 347.27 106.51 345.72"/>
          <g>
            <circle class="cls-1" cx="350.36" cy="508.58" r="82.43"/>
            <g>
              <path class="cls-109" d="M350.36,364.26c-79.7,0-144.32,64.61-144.32,144.32s64.61,144.31,144.32,144.31,144.32-64.61,144.32-144.31-64.61-144.32-144.32-144.32ZM350.36,616.73c-59.73,0-108.15-48.42-108.15-108.15s48.42-108.15,108.15-108.15,108.15,48.42,108.15,108.15-48.42,108.15-108.15,108.15Z"/>
              <path class="cls-9" d="M350.36,368.04c-77.61,0-140.54,62.92-140.54,140.53s62.92,140.54,140.54,140.54,140.54-62.92,140.54-140.54-62.92-140.53-140.54-140.53ZM350.36,631.85c-68.08,0-123.27-55.19-123.27-123.27s55.19-123.27,123.27-123.27,123.27,55.19,123.27,123.27-55.19,123.27-123.27,123.27Z"/>
              <path class="cls-98" d="M350.36,398c-61.07,0-110.58,49.51-110.58,110.58s49.51,110.58,110.58,110.58,110.58-49.51,110.58-110.58-49.51-110.58-110.58-110.58ZM350.36,612.7c-57.51,0-104.12-46.62-104.12-104.12s46.62-104.12,104.12-104.12,104.12,46.62,104.12,104.12-46.62,104.12-104.12,104.12Z"/>
              <g>
                <g>
                  <g>
                    <path class="cls-69" d="M369.45,532.86s12.6,78.04,11.67,79.74c-20.03,6.37-42.36,5.16-61.58-3.32l21.46-32.53,10.77-46.54,17.68,2.64Z"/>
                    <polygon class="cls-110" points="364.5 532.13 369.86 591.6 360.1 616.39 341.4 616.8 354.82 592.21 350.36 531.55 364.5 532.13"/>
                  </g>
                  <g>
                    <path class="cls-102" d="M338.87,537.26s-61.28,49.93-63.22,49.98c-15.53-14.16-25.65-34.1-27.92-54.99l38.9,2.32,45.69-13.94,6.55,16.63Z"/>
                    <polygon class="cls-129" points="337.04 532.6 288.21 566.98 261.86 570.92 252.16 554.94 280.16 554.26 330.46 520.06 337.04 532.6"/>
                  </g>
                  <g>
                    <path class="cls-61" d="M319.78,512.97s-73.88-28.11-74.9-29.76c4.5-20.53,16.71-39.26,33.66-51.68l17.44,34.85,34.92,32.6-11.13,13.99Z"/>
                    <polygon class="cls-112" points="322.89 509.06 268.71 483.96 252.12 463.11 261.11 446.72 275.7 470.63 330.46 497.09 322.89 509.06"/>
                  </g>
                  <g>
                    <path class="cls-76" d="M331.26,484.29s-12.6-78.04-11.67-79.74c20.03-6.37,42.36-5.16,61.58,3.32l-21.46,32.53-10.77,46.54-17.68-2.64Z"/>
                    <polygon class="cls-117" points="336.21 485.03 330.86 425.56 340.61 400.77 359.31 400.36 345.89 424.95 350.36 485.61 336.21 485.03"/>
                  </g>
                  <g>
                    <path class="cls-64" d="M361.84,479.9s61.28-49.93,63.22-49.98c15.53,14.16,25.65,34.1,27.92,54.99l-38.9-2.32-45.69,13.94-6.55-16.63Z"/>
                    <polygon class="cls-99" points="363.67 484.55 412.5 450.18 438.85 446.23 448.55 462.22 420.55 462.9 370.25 497.09 363.67 484.55"/>
                  </g>
                  <g>
                    <path class="cls-75" d="M380.93,504.19s73.88,28.11,74.9,29.76c-4.5,20.53-16.71,39.26-33.66,51.68l-17.44-34.85-34.92-32.6,11.13-13.99Z"/>
                    <polygon class="cls-63" points="377.82 508.1 432 533.2 448.6 554.04 439.6 570.44 425.01 546.53 370.25 520.06 377.82 508.1"/>
                  </g>
                </g>
                <circle class="cls-86" cx="350.36" cy="508.58" r="30.89"/>
                <circle class="cls-73" cx="350.36" cy="508.58" r="24.96"/>
                <circle class="cls-103" cx="350.36" cy="508.58" r="15.1"/>
              </g>
              <path class="cls-85" d="M350.36,398c-61.07,0-110.58,49.51-110.58,110.58s49.51,110.58,110.58,110.58,110.58-49.51,110.58-110.58-49.51-110.58-110.58-110.58ZM350.36,612.7c-57.51,0-104.12-46.62-104.12-104.12s46.62-104.12,104.12-104.12,104.12,46.62,104.12,104.12-46.62,104.12-104.12,104.12Z"/>
            </g>
          </g>
          <g>
            <circle class="cls-104" cx="1537.57" cy="508.58" r="82.43"/>
            <g>
              <path class="cls-79" d="M1537.57,364.26c-79.7,0-144.32,64.61-144.32,144.32s64.61,144.31,144.32,144.31,144.32-64.61,144.32-144.31-64.61-144.32-144.32-144.32ZM1537.57,616.73c-59.73,0-108.15-48.42-108.15-108.15s48.42-108.15,108.15-108.15,108.15,48.42,108.15,108.15-48.42,108.15-108.15,108.15Z"/>
              <path class="cls-2" d="M1537.57,368.04c-77.61,0-140.54,62.92-140.54,140.53s62.92,140.54,140.54,140.54,140.54-62.92,140.54-140.54-62.92-140.53-140.54-140.53ZM1537.57,631.85c-68.08,0-123.27-55.19-123.27-123.27s55.19-123.27,123.27-123.27,123.27,55.19,123.27,123.27-55.19,123.27-123.27,123.27Z"/>
              <path class="cls-72" d="M1537.57,398c-61.07,0-110.58,49.51-110.58,110.58s49.51,110.58,110.58,110.58,110.58-49.51,110.58-110.58-49.51-110.58-110.58-110.58ZM1537.57,612.7c-57.51,0-104.12-46.62-104.12-104.12s46.62-104.12,104.12-104.12,104.12,46.62,104.12,104.12-46.62,104.12-104.12,104.12Z"/>
              <g>
                <g>
                  <g>
                    <path class="cls-70" d="M1556.67,532.86s12.6,78.04,11.67,79.74c-20.03,6.37-42.36,5.16-61.58-3.32l21.46-32.53,10.77-46.54,17.68,2.64Z"/>
                    <polygon class="cls-119" points="1551.72 532.13 1557.08 591.6 1547.32 616.39 1528.62 616.8 1542.04 592.21 1537.57 531.55 1551.72 532.13"/>
                  </g>
                  <g>
                    <path class="cls-100" d="M1526.09,537.26s-61.28,49.93-63.22,49.98c-15.53-14.16-25.65-34.1-27.92-54.99l38.9,2.32,45.69-13.94,6.55,16.63Z"/>
                    <polygon class="cls-60" points="1524.26 532.6 1475.43 566.98 1449.08 570.92 1439.38 554.94 1467.38 554.26 1517.68 520.06 1524.26 532.6"/>
                  </g>
                  <g>
                    <path class="cls-107" d="M1507,512.97s-73.88-28.11-74.9-29.76c4.5-20.53,16.71-39.26,33.66-51.68l17.44,34.85,34.92,32.6-11.13,13.99Z"/>
                    <polygon class="cls-118" points="1510.11 509.06 1455.93 483.96 1439.33 463.11 1448.33 446.72 1462.92 470.63 1517.68 497.09 1510.11 509.06"/>
                  </g>
                  <g>
                    <path class="cls-116" d="M1518.48,484.29s-12.6-78.04-11.67-79.74c20.03-6.37,42.36-5.16,61.58,3.32l-21.46,32.53-10.77,46.54-17.68-2.64Z"/>
                    <polygon class="cls-92" points="1523.43 485.03 1518.07 425.56 1527.83 400.77 1546.53 400.36 1533.11 424.95 1537.57 485.61 1523.43 485.03"/>
                  </g>
                  <g>
                    <path class="cls-82" d="M1549.06,479.9s61.28-49.93,63.22-49.98c15.53,14.16,25.65,34.1,27.92,54.99l-38.9-2.32-45.69,13.94-6.55-16.63Z"/>
                    <polygon class="cls-90" points="1550.89 484.55 1599.72 450.18 1626.07 446.23 1635.77 462.22 1607.77 462.9 1557.47 497.09 1550.89 484.55"/>
                  </g>
                  <g>
                    <path class="cls-87" d="M1568.15,504.19s73.88,28.11,74.9,29.76c-4.5,20.53-16.71,39.26-33.66,51.68l-17.44-34.85-34.92-32.6,11.13-13.99Z"/>
                    <polygon class="cls-95" points="1565.04 508.1 1619.22 533.2 1635.82 554.04 1626.82 570.44 1612.23 546.53 1557.47 520.06 1565.04 508.1"/>
                  </g>
                </g>
                <circle class="cls-111" cx="1537.57" cy="508.58" r="30.89"/>
                <circle class="cls-84" cx="1537.57" cy="508.58" r="24.96"/>
                <circle class="cls-67" cx="1537.57" cy="508.58" r="15.1"/>
              </g>
              <path class="cls-123" d="M1537.57,398c-61.07,0-110.58,49.51-110.58,110.58s49.51,110.58,110.58,110.58,110.58-49.51,110.58-110.58-49.51-110.58-110.58-110.58ZM1537.57,612.7c-57.51,0-104.12-46.62-104.12-104.12s46.62-104.12,104.12-104.12,104.12,46.62,104.12,104.12-46.62,104.12-104.12,104.12Z"/>
            </g>
          </g>
          <path class="cls-66" d="M110.36,329.59l21.07-36.1c.25-.43.67-.74,1.15-.85l55.53-13.32c1.94-.47,3.06,2.14,1.38,3.22l-76.57,49.5c-1.61,1.04-3.53-.79-2.56-2.45Z"/>
          <path class="cls-17" d="M1378.67,310.1c-.4.3-.81.61-1.21.92-11.13,2.69-22.22,5.56-33.26,8.61-52.8,49.42-94.12,112.37-123.03,174.6-5.08,8.04-10.09,16.11-15.07,24.2,3.35-13.45,7.58-21.99,8.37-22.09,29.24-63.75,67.17-123.49,115.23-174.18,15.91-5.39,32.45-8.89,48.97-12.05Z"/>
          <path class="cls-27" d="M99.57,288.74l196.57-43.81c2.14-.48,4.25-1.07,6.32-1.79l93.52-33.03s-224.51,48.27-221.69,48.69c-22.09,5.82-53.5,16.98-74.71,29.94Z"/>
          <path class="cls-13" d="M1359.21,545.2l-292.28,1.92-6.62.04-440.11,2.88-70.48.38-25.53.14c0-.56,0-1.12-.01-1.68,15.25-6.46,30.91-11.84,46.85-16.12,9.81-2.63,19.73-4.85,29.73-6.64,18.63-3.35,37.55-5.23,56.56-5.59l534.27-10.3c43.2-.83,86.21,6.14,126.94,20.56l5.55,1.97,35.12,12.45Z"/>
          <path class="cls-40" d="M1302.85,537.18l-243.03-.48h-5.73s-459.3,3-459.3,3c0-.2,22.04-6.64,35.84-8.19,8.49-.95,17.07-1.75,25.73-2.4,16.12-1.21,32.5-1.89,48.95-2.02l462.4-3.72c37.39-.3,74.61,2.22,109.86,7.43l4.81.71,20.47,5.67Z"/>
          <path class="cls-10" d="M133.63,294.64l-16,27.15c-.97,1.65.92,3.48,2.54,2.47l32.99-20.73,9.28-16.5-27.68,6.76c-.48.12-.89.42-1.14.85Z"/>
          <polygon class="cls-12" points="47.93 308.76 41.81 343.87 55.99 343.27 71 305.99 79.2 303.88 62.19 342.76 68.92 342.97 86.05 304.59 103.83 302.45 100.19 308.82 110.59 308.76 119.94 293.49 47.93 308.76"/>
          <polygon class="cls-24" points="67.91 307.43 54.36 341.32 47.9 341.85 54.04 309.97 67.91 307.43"/>
          <path class="cls-4" d="M1693.32,205.49l-22.49-.24c-2.98-.03-4.28,3.74-1.93,5.56l32.07,24.77,14.79,1.06-22.45-31.14Z"/>
          <path class="cls-22" d="M1718.77,207.42c16.68,2.16,33.12,6.11,49.65,11.79,1.21,4.79,1.56,9.79,1.03,14.69l-21.05-4.31-3.83-14.03-3.74-.08-.18,6.86-13.95-3.23-7.92-11.69Z"/>
          <path class="cls-57" d="M1774.02,259.35c-.8,5.45-1.94,10.53-3.45,14.91,0,0-17.35-5.16-32.42-9.65l-37.98-66.18,7.09.4,31.55,53.35,35.2,7.17Z"/>
          <path class="cls-19" d="M690.98,165.29c-1.77,5.16-4.23,10.09-7.58,14.72-11.11.81-22.31.3-33.29-1.51.15-1.85.46-3.71.81-4.92,9.38,2.01,19.04,2.91,28.98,2.84,2.5-1.53,5.95-6.15,10.03-11.65.12.42.65.68,1.05.51Z"/>
          <path class="cls-5" d="M1108.57,30.17l-11.23,162.01-7.88.32,8.89-162.24c3.41-.04,6.82-.06,10.23-.08Z"/>
          <path class="cls-8" d="M1340.1,44.72l-.62,122.3v.43l-.02-.42-4.44-124.53,1.72.45c1.28.33,2.42.95,3.37,1.78Z"/>
          <path class="cls-6" d="M1011.79,32.37l-37.32,162.45c-1.68.06-3.38.14-5.12.21l8.26-41.37-37.15,1.26,35.72-121.12c12.2-.53,24.04-1.01,35.61-1.44Z"/>
          <polygon class="cls-31" points="764.46 91.53 726.59 183.56 768.29 185 806.16 82.91 764.46 91.53"/>
          <polygon class="cls-14" points="1292.38 58.35 1286.73 135.41 1308.85 131.3 1314.55 58.03 1292.38 58.35"/>
          <path class="cls-29" d="M1447.97,5.42c-1.62,1.9-3.27,3.76-4.94,5.58-16.57-2.01-33.36-2.3-49.99-.84.64-.5,1.28-.99,1.9-1.47,7.1-5.49,15.8-8.49,24.78-8.55,8.47-.06,18.97-.12,25.74-.13,2.8,0,4.33,3.28,2.52,5.42Z"/>
        </g>
      </g>
    </g>
  </g>
</svg>