<?xml version="1.0" encoding="UTF-8"?>
<svg xmlns="http://www.w3.org/2000/svg" xmlns:xlink="http://www.w3.org/1999/xlink" viewBox="0 0 2111.54 618.96">
  <defs>
    <style>
      .cls-1 {
        fill: url(#New_swatch_322-7);
      }

      .cls-2 {
        fill: url(#New_swatch_322);
      }

      .cls-3 {
        fill: url(#New_swatch_285-3);
      }

      .cls-3, .cls-4, .cls-5, .cls-6, .cls-7, .cls-8, .cls-9, .cls-10, .cls-11, .cls-12, .cls-13, .cls-14, .cls-15, .cls-16, .cls-17, .cls-18, .cls-19, .cls-20, .cls-21, .cls-22, .cls-23 {
        mix-blend-mode: screen;
      }

      .cls-24 {
        fill: url(#New_swatch_327-11);
      }

      .cls-25 {
        fill: url(#New_swatch_314-4);
      }

      .cls-26 {
        fill: url(#New_swatch_285);
      }

      .cls-4 {
        fill: url(#New_swatch_322-5);
      }

      .cls-27 {
        fill: url(#linear-gradient-2);
      }

      .cls-28 {
        fill: url(#linear-gradient-13);
      }

      .cls-28, .cls-29, .cls-30, .cls-31, .cls-32, .cls-33, .cls-34, .cls-35, .cls-36, .cls-37, .cls-38, .cls-39, .cls-40, .cls-41 {
        mix-blend-mode: multiply;
      }

      .cls-42 {
        fill: url(#New_swatch_327-7);
      }

      .cls-43 {
        fill: url(#New_swatch_314-6);
      }

      .cls-5 {
        fill: url(#New_swatch_285-4);
      }

      .cls-29 {
        fill: url(#New_swatch_275-4);
      }

      .cls-6 {
        fill: url(#linear-gradient-9);
      }

      .cls-7 {
        fill: url(#radial-gradient-6);
      }

      .cls-30 {
        fill: url(#New_swatch_322-18);
      }

      .cls-44 {
        fill: url(#New_swatch_314-18);
      }

      .cls-45 {
        fill: url(#New_swatch_322-4);
      }

      .cls-8 {
        fill: url(#radial-gradient-5);
      }

      .cls-46 {
        fill: url(#New_swatch_314-2);
      }

      .cls-47 {
        fill: url(#New_swatch_314-11);
      }

      .cls-48 {
        fill: url(#New_swatch_322-21);
      }

      .cls-49 {
        fill: url(#linear-gradient-4);
      }

      .cls-50 {
        fill: url(#New_swatch_322-15);
      }

      .cls-51 {
        fill: url(#New_swatch_314-10);
      }

      .cls-52 {
        fill: url(#New_swatch_327-8);
      }

      .cls-31 {
        fill: url(#New_swatch_285-2);
      }

      .cls-53 {
        fill: url(#New_swatch_314-7);
      }

      .cls-54 {
        fill: url(#New_swatch_314-5);
      }

      .cls-55 {
        fill: url(#New_swatch_322-2);
      }

      .cls-32 {
        fill: url(#linear-gradient-12);
      }

      .cls-56 {
        fill: url(#New_swatch_275-3);
      }

      .cls-57 {
        fill: url(#radial-gradient);
      }

      .cls-58 {
        fill: url(#New_swatch_327-9);
      }

      .cls-59 {
        fill: url(#New_swatch_322-13);
      }

      .cls-9 {
        fill: url(#New_swatch_386);
      }

      .cls-60 {
        fill: url(#New_swatch_322-8);
      }

      .cls-61 {
        fill: url(#linear-gradient-5);
      }

      .cls-10 {
        fill: url(#New_swatch_275-2);
      }

      .cls-62 {
        fill: url(#New_swatch_275-7);
      }

      .cls-63 {
        fill: url(#New_swatch_314-15);
      }

      .cls-64 {
        fill: url(#New_swatch_251);
      }

      .cls-65 {
        isolation: isolate;
      }

      .cls-66 {
        fill: url(#New_swatch_327-16);
      }

      .cls-67 {
        fill: url(#New_swatch_322-19);
      }

      .cls-33 {
        fill: url(#linear-gradient-8);
      }

      .cls-68 {
        fill: url(#New_swatch_314-8);
      }

      .cls-69 {
        fill: url(#New_swatch_322-3);
      }

      .cls-70 {
        fill: url(#New_swatch_314-16);
      }

      .cls-71 {
        fill: url(#New_swatch_321);
      }

      .cls-72 {
        fill: url(#New_swatch_322-12);
      }

      .cls-73 {
        fill: url(#New_swatch_327-14);
      }

      .cls-74 {
        fill: url(#New_swatch_275-5);
      }

      .cls-75 {
        fill: url(#New_swatch_327-13);
      }

      .cls-11 {
        fill: url(#New_swatch_322-20);
      }

      .cls-12 {
        fill: url(#radial-gradient-3);
      }

      .cls-76 {
        fill: url(#radial-gradient-2);
      }

      .cls-77 {
        fill: url(#New_swatch_322-6);
      }

      .cls-78 {
        fill: url(#New_swatch_327-15);
      }

      .cls-79 {
        fill: url(#New_swatch_294);
      }

      .cls-80 {
        fill: url(#New_swatch_314);
      }

      .cls-81 {
        fill: url(#New_swatch_327-6);
      }

      .cls-34 {
        fill: url(#linear-gradient-10);
      }

      .cls-13 {
        fill: url(#New_swatch_275);
      }

      .cls-82 {
        fill: url(#New_swatch_314-12);
      }

      .cls-35 {
        fill: url(#linear-gradient-18);
      }

      .cls-14 {
        fill: url(#radial-gradient-4);
      }

      .cls-83 {
        fill: url(#New_swatch_251-2);
      }

      .cls-84 {
        fill: url(#linear-gradient-7);
      }

      .cls-15 {
        fill: url(#radial-gradient-7);
      }

      .cls-16 {
        fill: url(#linear-gradient-16);
      }

      .cls-17 {
        fill: url(#linear-gradient-11);
      }

      .cls-85 {
        fill: url(#New_swatch_314-3);
      }

      .cls-86 {
        fill: url(#New_swatch_314-9);
      }

      .cls-18 {
        fill: url(#linear-gradient-3);
      }

      .cls-87 {
        fill: url(#linear-gradient-6);
      }

      .cls-19 {
        fill: url(#New_swatch_386-2);
      }

      .cls-88 {
        fill: url(#New_swatch_314-13);
      }

      .cls-36 {
        fill: url(#linear-gradient-17);
      }

      .cls-89 {
        fill: url(#New_swatch_327);
      }

      .cls-90 {
        fill: url(#New_swatch_327-2);
      }

      .cls-91 {
        fill: url(#New_swatch_322-9);
      }

      .cls-92 {
        fill: url(#New_swatch_322-16);
      }

      .cls-93 {
        fill: url(#New_swatch_314-17);
      }

      .cls-94 {
        fill: url(#New_swatch_327-4);
      }

      .cls-20 {
        fill: url(#linear-gradient-14);
      }

      .cls-37 {
        fill: url(#New_swatch_322-11);
      }

      .cls-95 {
        fill: url(#New_swatch_314-14);
      }

      .cls-96 {
        fill: url(#New_swatch_327-5);
      }

      .cls-38 {
        fill: url(#linear-gradient);
      }

      .cls-97 {
        fill: url(#New_swatch_327-12);
      }

      .cls-98 {
        fill: url(#New_swatch_327-10);
      }

      .cls-39 {
        fill: url(#linear-gradient-15);
      }

      .cls-99 {
        fill: url(#New_swatch_322-14);
      }

      .cls-40 {
        fill: url(#New_swatch_326);
      }

      .cls-21 {
        fill: url(#New_swatch_294-2);
      }

      .cls-41 {
        fill: url(#linear-gradient-19);
      }

      .cls-100 {
        fill: url(#New_swatch_322-17);
      }

      .cls-22 {
        fill: url(#radial-gradient-8);
      }

      .cls-101 {
        fill: url(#New_swatch_322-10);
      }

      .cls-102 {
        fill: url(#New_swatch_275-6);
      }

      .cls-103 {
        fill: url(#New_swatch_327-3);
      }

      .cls-23 {
        fill: url(#New_swatch_294-3);
      }
    </style>
    <linearGradient id="linear-gradient" x1="1037.84" y1="466.25" x2="1038.5" y2="750.28" gradientUnits="userSpaceOnUse">
      <stop offset=".29" stop-color="#e3e3e3"/>
      <stop offset=".35" stop-color="#dededf"/>
      <stop offset=".42" stop-color="#d2d1d3"/>
      <stop offset=".48" stop-color="#bebcc1"/>
      <stop offset=".55" stop-color="#a19ea7"/>
      <stop offset=".61" stop-color="#7d7885"/>
      <stop offset=".66" stop-color="#615b6c"/>
    </linearGradient>
    <linearGradient id="linear-gradient-2" x1="765.74" y1="-290.06" x2="1038.39" y2="342.48" gradientTransform="translate(5.06 -1.17)" gradientUnits="userSpaceOnUse">
      <stop offset="0" stop-color="#3f4858"/>
      <stop offset="1" stop-color="#010101"/>
    </linearGradient>
    <radialGradient id="radial-gradient" cx="-2779.59" cy="207.59" fx="-2779.59" fy="207.59" r="12.2" gradientTransform="translate(23010.59 -1204.07) rotate(-.11) scale(8.12 7.76)" gradientUnits="userSpaceOnUse">
      <stop offset="0" stop-color="#3f4858"/>
      <stop offset="1" stop-color="#14171b"/>
    </radialGradient>
    <linearGradient id="New_swatch_327" data-name="New swatch 327" x1="432.73" y1="288.03" x2="459.23" y2="611.47" gradientTransform="translate(4.34 .8) rotate(-.11)" gradientUnits="userSpaceOnUse">
      <stop offset="0" stop-color="#3f4858"/>
      <stop offset="1" stop-color="#010101"/>
    </linearGradient>
    <linearGradient id="New_swatch_275" data-name="New swatch 275" x1="287.97" y1="449.76" x2="603.99" y2="449.76" gradientTransform="translate(4.34 .8) rotate(-.11)" gradientUnits="userSpaceOnUse">
      <stop offset="0" stop-color="#3f4858"/>
      <stop offset="1" stop-color="#14171b"/>
    </linearGradient>
    <linearGradient id="New_swatch_314" data-name="New swatch 314" x1="445.98" y1="254.64" x2="445.98" y2="1198.02" gradientTransform="translate(4.34 .8) rotate(-.11)" gradientUnits="userSpaceOnUse">
      <stop offset="0" stop-color="#e3e3e3"/>
      <stop offset="1" stop-color="#46546c"/>
    </linearGradient>
    <linearGradient id="New_swatch_314-2" data-name="New swatch 314" x1="-11369.11" y1="-3283.67" x2="-11379.56" y2="-3122.96" gradientTransform="translate(-10925.34 -2669.59) rotate(179.89)" xlink:href="#New_swatch_314"/>
    <linearGradient id="New_swatch_327-2" data-name="New swatch 327" x1="-11378.02" y1="-3266.67" x2="-11369.88" y2="-3167.33" gradientTransform="translate(-10925.34 -2669.59) rotate(179.89)" xlink:href="#New_swatch_327"/>
    <linearGradient id="New_swatch_314-3" data-name="New swatch 314" x1="-9969.55" y1="2730.63" x2="-9980" y2="2891.34" gradientTransform="translate(-7036.61 -6734.68) rotate(-120.11)" xlink:href="#New_swatch_314"/>
    <linearGradient id="New_swatch_327-3" data-name="New swatch 327" x1="-9978.45" y1="2747.64" x2="-9970.31" y2="2846.98" gradientTransform="translate(-7036.61 -6734.68) rotate(-120.11)" xlink:href="#New_swatch_327"/>
    <linearGradient id="New_swatch_314-4" data-name="New swatch 314" x1="-4061.23" y1="4525.72" x2="-4071.68" y2="4686.44" gradientTransform="translate(-1571.77 -5399.49) rotate(-60.11)" xlink:href="#New_swatch_314"/>
    <linearGradient id="New_swatch_327-4" data-name="New swatch 327" x1="-4070.13" y1="4542.73" x2="-4061.99" y2="4642.07" gradientTransform="translate(-1571.77 -5399.49) rotate(-60.11)" xlink:href="#New_swatch_327"/>
    <linearGradient id="New_swatch_314-5" data-name="New swatch 314" x1="447.53" y1="306.52" x2="437.08" y2="467.23" xlink:href="#New_swatch_314"/>
    <linearGradient id="New_swatch_327-5" data-name="New swatch 327" x1="438.62" y1="323.52" x2="446.76" y2="422.86" xlink:href="#New_swatch_327"/>
    <linearGradient id="New_swatch_314-6" data-name="New swatch 314" x1="-952.03" y1="-5707.79" x2="-962.48" y2="-5547.07" gradientTransform="translate(-3884.39 4065.89) rotate(59.89)" xlink:href="#New_swatch_314"/>
    <linearGradient id="New_swatch_327-6" data-name="New swatch 327" x1="-960.94" y1="-5690.78" x2="-952.8" y2="-5591.44" gradientTransform="translate(-3884.39 4065.89) rotate(59.89)" xlink:href="#New_swatch_327"/>
    <linearGradient id="New_swatch_314-7" data-name="New swatch 314" x1="-6860.35" y1="-7502.88" x2="-6870.8" y2="-7342.17" gradientTransform="translate(-9349.23 2730.7) rotate(119.89)" xlink:href="#New_swatch_314"/>
    <linearGradient id="New_swatch_327-7" data-name="New swatch 327" x1="-6869.26" y1="-7485.87" x2="-6861.12" y2="-7386.53" gradientTransform="translate(-9349.23 2730.7) rotate(119.89)" xlink:href="#New_swatch_327"/>
    <linearGradient id="New_swatch_314-8" data-name="New swatch 314" x1="449.12" y1="401.45" x2="441.63" y2="516.58" xlink:href="#New_swatch_314"/>
    <linearGradient id="New_swatch_327-8" data-name="New swatch 327" x1="443.6" y1="420.7" x2="448.36" y2="478.81" xlink:href="#New_swatch_327"/>
    <linearGradient id="New_swatch_314-9" data-name="New swatch 314" x1="445.98" y1="423.12" x2="445.98" y2="551.91" xlink:href="#New_swatch_314"/>
    <radialGradient id="radial-gradient-2" cx="-2631.43" cy="207.7" fx="-2631.43" fy="207.7" r="12.2" xlink:href="#radial-gradient"/>
    <linearGradient id="New_swatch_327-9" data-name="New swatch 327" x1="1633.87" y1="286.99" x2="1660.68" y2="614.22" xlink:href="#New_swatch_327"/>
    <linearGradient id="New_swatch_275-2" data-name="New swatch 275" x1="1487.41" y1="450.61" x2="1807.13" y2="450.61" xlink:href="#New_swatch_275"/>
    <linearGradient id="New_swatch_314-10" data-name="New swatch 314" x1="1647.27" y1="253.21" x2="1647.27" y2="1207.62" xlink:href="#New_swatch_314"/>
    <linearGradient id="New_swatch_314-11" data-name="New swatch 314" x1="-12570.39" y1="-3286.2" x2="-12580.96" y2="-3123.61" gradientTransform="translate(-10925.34 -2669.59) rotate(179.89)" xlink:href="#New_swatch_314"/>
    <linearGradient id="New_swatch_327-10" data-name="New swatch 327" x1="-12579.4" y1="-3268.99" x2="-12571.16" y2="-3168.49" gradientTransform="translate(-10925.34 -2669.59) rotate(179.89)" xlink:href="#New_swatch_327"/>
    <linearGradient id="New_swatch_314-12" data-name="New swatch 314" x1="-10570.91" y1="3768.88" x2="-10581.49" y2="3931.47" gradientTransform="translate(-7036.61 -6734.68) rotate(-120.11)" xlink:href="#New_swatch_314"/>
    <linearGradient id="New_swatch_327-11" data-name="New swatch 327" x1="-10579.92" y1="3786.08" x2="-10571.69" y2="3886.59" gradientTransform="translate(-7036.61 -6734.68) rotate(-120.11)" xlink:href="#New_swatch_327"/>
    <linearGradient id="New_swatch_314-13" data-name="New swatch 314" x1="-3461.3" y1="5564.83" x2="-3471.87" y2="5727.42" gradientTransform="translate(-1571.77 -5399.49) rotate(-60.11)" xlink:href="#New_swatch_314"/>
    <linearGradient id="New_swatch_327-12" data-name="New swatch 327" x1="-3470.31" y1="5582.03" x2="-3462.08" y2="5682.53" gradientTransform="translate(-1571.77 -5399.49) rotate(-60.11)" xlink:href="#New_swatch_327"/>
    <linearGradient id="New_swatch_314-14" data-name="New swatch 314" x1="1648.84" y1="305.69" x2="1638.27" y2="468.29" xlink:href="#New_swatch_314"/>
    <linearGradient id="New_swatch_327-13" data-name="New swatch 327" x1="1639.83" y1="322.9" x2="1648.07" y2="423.4" xlink:href="#New_swatch_327"/>
    <linearGradient id="New_swatch_314-15" data-name="New swatch 314" x1="-350.63" y1="-6749.39" x2="-361.2" y2="-6586.79" gradientTransform="translate(-3884.39 4065.89) rotate(59.89)" xlink:href="#New_swatch_314"/>
    <linearGradient id="New_swatch_327-14" data-name="New swatch 327" x1="-359.64" y1="-6732.18" x2="-351.41" y2="-6631.68" gradientTransform="translate(-3884.39 4065.89) rotate(59.89)" xlink:href="#New_swatch_327"/>
    <linearGradient id="New_swatch_314-16" data-name="New swatch 314" x1="-7460.24" y1="-8545.33" x2="-7470.82" y2="-8382.74" gradientTransform="translate(-9349.23 2730.7) rotate(119.89)" xlink:href="#New_swatch_314"/>
    <linearGradient id="New_swatch_327-15" data-name="New swatch 327" x1="-7469.25" y1="-8528.13" x2="-7461.02" y2="-8427.63" gradientTransform="translate(-9349.23 2730.7) rotate(119.89)" xlink:href="#New_swatch_327"/>
    <linearGradient id="New_swatch_314-17" data-name="New swatch 314" x1="1650.45" y1="401.74" x2="1642.87" y2="518.21" xlink:href="#New_swatch_314"/>
    <linearGradient id="New_swatch_327-16" data-name="New swatch 327" x1="1644.86" y1="421.21" x2="1649.68" y2="480" xlink:href="#New_swatch_327"/>
    <linearGradient id="New_swatch_314-18" data-name="New swatch 314" x1="1647.27" y1="423.66" x2="1647.27" y2="553.96" xlink:href="#New_swatch_314"/>
    <linearGradient id="New_swatch_251" data-name="New swatch 251" x1="1199.1" y1="131.85" x2="1286.31" y2="131.85" gradientTransform="translate(4.34 .8) rotate(-.11)" gradientUnits="userSpaceOnUse">
      <stop offset="0" stop-color="#963234"/>
      <stop offset="1" stop-color="#c05334"/>
    </linearGradient>
    <linearGradient id="New_swatch_275-3" data-name="New swatch 275" x1="1256.61" y1="134.08" x2="1288.6" y2="134.08" xlink:href="#New_swatch_275"/>
    <linearGradient id="New_swatch_251-2" data-name="New swatch 251" x1="1505.39" y1="172.09" x2="1500.03" y2="119.57" xlink:href="#New_swatch_251"/>
    <linearGradient id="linear-gradient-3" x1="1613.63" y1="155.64" x2="1611.03" y2="110.57" gradientTransform="translate(4.34 .8) rotate(-.11)" gradientUnits="userSpaceOnUse">
      <stop offset="0" stop-color="#963234" stop-opacity=".01"/>
      <stop offset="1" stop-color="#c05334"/>
    </linearGradient>
    <linearGradient id="New_swatch_275-4" data-name="New swatch 275" x1="1593.53" y1="143.41" x2="1621.03" y2="143.41" xlink:href="#New_swatch_275"/>
    <linearGradient id="linear-gradient-4" x1="1401.76" y1="121.99" x2="1475.71" y2="-169.79" gradientTransform="translate(4.34 .8) rotate(-.11)" gradientUnits="userSpaceOnUse">
      <stop offset="0" stop-color="#66181a"/>
      <stop offset="1" stop-color="#c05334"/>
    </linearGradient>
    <linearGradient id="New_swatch_321" data-name="New swatch 321" x1="867.83" y1="19.36" x2="574.1" y2="385.52" gradientTransform="translate(4.34 .8) rotate(-.11)" gradientUnits="userSpaceOnUse">
      <stop offset="0" stop-color="#134c6f"/>
      <stop offset=".76" stop-color="#131d2e"/>
      <stop offset="1" stop-color="#2c3c58"/>
      <stop offset="1" stop-color="#101a2b"/>
    </linearGradient>
    <linearGradient id="New_swatch_322" data-name="New swatch 322" x1="836.95" y1="49.9" x2="880.77" y2="153.14" gradientTransform="translate(4.34 .8) rotate(-.11)" gradientUnits="userSpaceOnUse">
      <stop offset="0" stop-color="#07b39b"/>
      <stop offset="1" stop-color="#035552"/>
    </linearGradient>
    <radialGradient id="radial-gradient-3" cx="845.37" cy="-420.84" fx="845.37" fy="-420.84" r="69.28" gradientTransform="translate(16.78 6694.49) rotate(-.11) scale(1 15.72)" gradientUnits="userSpaceOnUse">
      <stop offset="0" stop-color="#07b39b"/>
      <stop offset=".4" stop-color="#06b29a" stop-opacity=".99"/>
      <stop offset=".54" stop-color="#06ae97" stop-opacity=".95"/>
      <stop offset=".65" stop-color="#06a892" stop-opacity=".89"/>
      <stop offset=".73" stop-color="#069f8b" stop-opacity=".79"/>
      <stop offset=".8" stop-color="#059382" stop-opacity=".67"/>
      <stop offset=".86" stop-color="#058577" stop-opacity=".52"/>
      <stop offset=".92" stop-color="#04746a" stop-opacity=".34"/>
      <stop offset=".97" stop-color="#03615b" stop-opacity=".13"/>
      <stop offset="1" stop-color="#035552" stop-opacity="0"/>
    </radialGradient>
    <linearGradient id="New_swatch_322-2" data-name="New swatch 322" x1="61.07" y1="418.2" x2="191.37" y2="199.83" xlink:href="#New_swatch_322"/>
    <linearGradient id="New_swatch_322-3" data-name="New swatch 322" x1="341.35" y1="410.33" x2="548.84" y2="62.61" xlink:href="#New_swatch_322"/>
    <linearGradient id="New_swatch_322-4" data-name="New swatch 322" x1="352.78" y1="161.74" x2="352.78" y2="562.69" xlink:href="#New_swatch_322"/>
    <linearGradient id="New_swatch_275-5" data-name="New swatch 275" x1="7.17" y1="418.64" x2="84.15" y2="418.64" xlink:href="#New_swatch_275"/>
    <linearGradient id="linear-gradient-5" x1="35.97" y1="398.18" x2="83.24" y2="405.72" gradientTransform="translate(5.09 .71)" gradientUnits="userSpaceOnUse">
      <stop offset="0" stop-color="#667081"/>
      <stop offset="1" stop-color="#14171b"/>
    </linearGradient>
    <linearGradient id="linear-gradient-6" x1="40.32" y1="426.74" x2="86.32" y2="434.08" gradientTransform="translate(5.14 .7)" xlink:href="#linear-gradient-5"/>
    <linearGradient id="linear-gradient-7" x1="39.77" y1="454.06" x2="74.63" y2="459.62" gradientTransform="translate(5.19 .71)" xlink:href="#linear-gradient-5"/>
    <radialGradient id="radial-gradient-4" cx="138.1" cy="67.68" fx="138.1" fy="67.68" r="56.67" gradientTransform="translate(4.58 128.5) rotate(-.11) scale(1 2.26)" gradientUnits="userSpaceOnUse">
      <stop offset="0" stop-color="#07b39b"/>
      <stop offset=".8" stop-color="#036760" stop-opacity=".2"/>
      <stop offset="1" stop-color="#035552" stop-opacity="0"/>
    </radialGradient>
    <linearGradient id="linear-gradient-8" x1="194.83" y1="455.31" x2="102.81" y2="363.29" gradientTransform="translate(4.34 .8) rotate(-.11)" gradientUnits="userSpaceOnUse">
      <stop offset="0" stop-color="#07b39b" stop-opacity="0"/>
      <stop offset="1" stop-color="#035552"/>
    </linearGradient>
    <linearGradient id="New_swatch_322-5" data-name="New swatch 322" x1="71.82" y1="535.8" x2="133.46" y2="432.5" xlink:href="#New_swatch_322"/>
    <linearGradient id="New_swatch_322-6" data-name="New swatch 322" x1="988.02" y1="17.39" x2="996.13" y2="225.2" xlink:href="#New_swatch_322"/>
    <linearGradient id="New_swatch_322-7" data-name="New swatch 322" x1="1244.85" y1="173.31" x2="1244.99" y2="174.17" xlink:href="#New_swatch_322"/>
    <linearGradient id="New_swatch_322-8" data-name="New swatch 322" x1="1552.34" y1="56.24" x2="1578.67" y2="210.15" xlink:href="#New_swatch_322"/>
    <linearGradient id="New_swatch_322-9" data-name="New swatch 322" x1="1638.07" y1="61.43" x2="1638.07" y2="238.47" xlink:href="#New_swatch_322"/>
    <linearGradient id="New_swatch_322-10" data-name="New swatch 322" x1="1321.85" y1="-23.97" x2="1396.39" y2="694.01" xlink:href="#New_swatch_322"/>
    <radialGradient id="radial-gradient-5" cx="1112.36" cy="-190.15" fx="1112.36" fy="-190.15" r="25.34" gradientTransform="translate(25.41 11342.94) rotate(-.11) scale(1 58.61)" xlink:href="#radial-gradient-4"/>
    <radialGradient id="radial-gradient-6" cx="1756.89" cy="-166.75" fx="1756.89" fy="-166.75" r="39.47" gradientTransform="translate(7.29 1585.26) rotate(-.11) scale(1 8.38)" xlink:href="#radial-gradient-4"/>
    <radialGradient id="radial-gradient-7" cx="1705.37" cy="328.89" fx="1705.37" fy="328.89" r="357.63" gradientTransform="translate(4.34 .8) rotate(-.11)" xlink:href="#radial-gradient-4"/>
    <linearGradient id="New_swatch_322-11" data-name="New swatch 322" x1="1043.44" y1="379.39" x2="1043.44" y2="650.13" xlink:href="#New_swatch_322"/>
    <linearGradient id="New_swatch_322-12" data-name="New swatch 322" x1="1965.36" y1="796.72" x2="1965.36" y2="394.93" xlink:href="#New_swatch_322"/>
    <linearGradient id="New_swatch_322-13" data-name="New swatch 322" x1="1985.61" y1="424.99" x2="1966.21" y2="549.39" xlink:href="#New_swatch_322"/>
    <linearGradient id="New_swatch_322-14" data-name="New swatch 322" x1="877.48" y1="591.31" x2="1137.36" y2="155.79" xlink:href="#New_swatch_322"/>
    <linearGradient id="New_swatch_322-15" data-name="New swatch 322" x1="982.54" y1="-30.65" x2="1001.93" y2="382.54" xlink:href="#New_swatch_322"/>
    <linearGradient id="linear-gradient-9" x1="1057.15" y1="493.6" x2="1057.15" y2="394.62" gradientTransform="translate(4.34 .8) rotate(-.11)" gradientUnits="userSpaceOnUse">
      <stop offset="0" stop-color="#07b39b"/>
      <stop offset=".8" stop-color="#036760" stop-opacity=".2"/>
      <stop offset="1" stop-color="#035552" stop-opacity="0"/>
    </linearGradient>
    <linearGradient id="New_swatch_322-16" data-name="New swatch 322" x1="517.62" y1="-613.06" x2="443" y2="515.43" xlink:href="#New_swatch_322"/>
    <linearGradient id="New_swatch_285" data-name="New swatch 285" x1="178.64" y1="253.97" x2="218" y2="289.68" gradientTransform="translate(4.34 .8) rotate(-.11)" gradientUnits="userSpaceOnUse">
      <stop offset="0" stop-color="#e3e3e3"/>
      <stop offset="1" stop-color="#4e6895"/>
    </linearGradient>
    <linearGradient id="New_swatch_275-6" data-name="New swatch 275" x1="78.96" y1="419.93" x2="180.48" y2="431.28" xlink:href="#New_swatch_275"/>
    <linearGradient id="New_swatch_275-7" data-name="New swatch 275" x1="822.07" y1="206.05" x2="866.38" y2="206.05" xlink:href="#New_swatch_275"/>
    <linearGradient id="New_swatch_322-17" data-name="New swatch 322" x1="844.93" y1="137.63" x2="950.88" y2="243.58" xlink:href="#New_swatch_322"/>
    <linearGradient id="New_swatch_294" data-name="New swatch 294" x1="1955.57" y1="296.9" x2="1999.76" y2="209.67" gradientTransform="translate(4.34 .8) rotate(-.11)" gradientUnits="userSpaceOnUse">
      <stop offset="0" stop-color="#bc2025"/>
      <stop offset="1" stop-color="#ef3f23"/>
    </linearGradient>
    <linearGradient id="linear-gradient-10" x1="869.11" y1="128.67" x2="885.11" y2="213.56" xlink:href="#linear-gradient-8"/>
    <linearGradient id="linear-gradient-11" x1="864.95" y1="130.75" x2="875.47" y2="171.04" xlink:href="#linear-gradient-9"/>
    <linearGradient id="New_swatch_322-18" data-name="New swatch 322" x1="1253.64" y1="433.87" x2="1237.43" y2="276.31" xlink:href="#New_swatch_322"/>
    <linearGradient id="New_swatch_322-19" data-name="New swatch 322" x1="1235.27" y1="261.53" x2="1236.57" y2="296.94" xlink:href="#New_swatch_322"/>
    <linearGradient id="linear-gradient-12" x1="1234.79" y1="263.2" x2="1237.8" y2="293.48" xlink:href="#linear-gradient-8"/>
    <linearGradient id="New_swatch_322-20" data-name="New swatch 322" x1="1238.83" y1="260.99" x2="1287.84" y2="171.51" xlink:href="#New_swatch_322"/>
    <linearGradient id="New_swatch_322-21" data-name="New swatch 322" x1="1690.77" y1="-499.79" x2="1648.78" y2="478.81" xlink:href="#New_swatch_322"/>
    <linearGradient id="linear-gradient-13" x1="89.75" y1="318.22" x2="178.9" y2="499.73" xlink:href="#linear-gradient-8"/>
    <linearGradient id="linear-gradient-14" x1="46.19" y1="364.62" x2="65.44" y2="437.28" gradientTransform="translate(4.34 .8) rotate(-.11)" gradientUnits="userSpaceOnUse">
      <stop offset="0" stop-color="#667081"/>
      <stop offset="1" stop-color="#14171b" stop-opacity="0"/>
    </linearGradient>
    <linearGradient id="New_swatch_285-2" data-name="New swatch 285" x1="107.29" y1="268.76" x2="282.06" y2="268.76" xlink:href="#New_swatch_285"/>
    <linearGradient id="New_swatch_285-3" data-name="New swatch 285" x1="156.7" y1="273.85" x2="178.89" y2="293.98" xlink:href="#New_swatch_285"/>
    <linearGradient id="New_swatch_285-4" data-name="New swatch 285" x1="205.35" y1="235.24" x2="225.14" y2="253.19" xlink:href="#New_swatch_285"/>
    <linearGradient id="linear-gradient-15" x1="1966.66" y1="277.09" x2="2011.97" y2="169.79" gradientTransform="translate(4.34 .8) rotate(-.11)" gradientUnits="userSpaceOnUse">
      <stop offset="0" stop-color="#991b1e"/>
      <stop offset="1" stop-color="#ef3f23"/>
    </linearGradient>
    <linearGradient id="New_swatch_386" data-name="New swatch 386" x1="820.12" y1="13.7" x2="712.96" y2="255.04" gradientTransform="translate(4.34 .8) rotate(-.11)" gradientUnits="userSpaceOnUse">
      <stop offset="0" stop-color="#134c6f"/>
      <stop offset=".76" stop-color="#131d2e" stop-opacity="0"/>
      <stop offset="1" stop-color="#2c3c58"/>
      <stop offset="1" stop-color="#101a2b"/>
    </linearGradient>
    <linearGradient id="New_swatch_386-2" data-name="New swatch 386" x1="848.51" y1="44.64" x2="757.88" y2="248.75" xlink:href="#New_swatch_386"/>
    <linearGradient id="linear-gradient-16" x1="1242.06" y1="181.91" x2="1263.13" y2="66.32" gradientTransform="translate(4.34 .8) rotate(-.11)" gradientUnits="userSpaceOnUse">
      <stop offset="0" stop-color="#963234" stop-opacity="0"/>
      <stop offset="1" stop-color="#c05334"/>
    </linearGradient>
    <linearGradient id="New_swatch_294-2" data-name="New swatch 294" x1="1960.17" y1="267.2" x2="1973.13" y2="241.62" xlink:href="#New_swatch_294"/>
    <linearGradient id="New_swatch_294-3" data-name="New swatch 294" x1="2016.39" y1="269.6" x2="2033.22" y2="236.38" xlink:href="#New_swatch_294"/>
    <linearGradient id="linear-gradient-17" x1="1989.67" y1="264.03" x2="2006.47" y2="224.24" xlink:href="#linear-gradient-15"/>
    <linearGradient id="linear-gradient-18" x1="1909.89" y1="273.83" x2="1987.42" y2="189.21" gradientTransform="translate(4.34 .8) rotate(-.11)" gradientUnits="userSpaceOnUse">
      <stop offset="0" stop-color="#851618"/>
      <stop offset="1" stop-color="#ef3f23"/>
    </linearGradient>
    <radialGradient id="radial-gradient-8" cx="1715.77" cy="-225.21" fx="1715.77" fy="-225.21" r="61.33" gradientTransform="translate(5.86 817.45) rotate(-.11) scale(1 3.12)" xlink:href="#radial-gradient-4"/>
    <linearGradient id="linear-gradient-19" x1="1018.94" y1="173.35" x2="1018.94" y2="658.73" xlink:href="#linear-gradient-8"/>
    <linearGradient id="New_swatch_326" data-name="New swatch 326" x1="964.82" y1="-96.26" x2="1090.68" y2="590.75" gradientTransform="translate(4.34 .8) rotate(-.11)" gradientUnits="userSpaceOnUse">
      <stop offset="0" stop-color="#3f4858" stop-opacity="0"/>
      <stop offset="1" stop-color="#14171b"/>
    </linearGradient>
  </defs>
  <g class="cls-65">
    <g id="Layer_2" data-name="Layer 2">
      <g id="Layer_1-2" data-name="Layer 1">
        <g>
          <ellipse class="cls-38" cx="1038.17" cy="610.86" rx="997.96" ry="8.1"/>
          <rect class="cls-27" x="230.99" y="256.02" width="1662.44" height="257.63" rx="53.55" ry="53.55" transform="translate(-.71 1.97) rotate(-.11)"/>
          <g>
            <circle class="cls-57" cx="449.71" cy="449.73" r="96.78"/>
            <g>
              <path class="cls-89" d="M450.85,287.47c-89.61.17-162.12,72.94-161.96,162.56.17,89.61,72.95,162.12,162.56,161.95,89.61-.17,162.12-72.94,161.96-162.55-.17-89.62-72.95-162.12-162.56-161.96ZM451.38,571.32c-67.15.12-121.69-54.21-121.82-121.36-.12-67.15,54.21-121.69,121.37-121.82,67.15-.12,121.69,54.21,121.82,121.37.12,67.15-54.21,121.69-121.37,121.81Z"/>
              <path class="cls-13" d="M450.86,291.72c-87.26.16-157.88,71.03-157.72,158.3s71.04,157.88,158.3,157.72c87.26-.16,157.88-71.04,157.72-158.3-.16-87.26-71.04-157.87-158.3-157.71ZM451.41,588.32c-76.54.14-138.7-61.8-138.85-138.34s61.79-138.7,138.33-138.85c76.54-.14,138.71,61.79,138.85,138.33.14,76.54-61.8,138.71-138.34,138.85Z"/>
              <path class="cls-80" d="M450.92,320.59c-71.32.13-129.03,58.06-128.9,129.38.13,71.32,58.06,129.03,129.38,128.89,71.32-.13,129.03-58.06,128.9-129.37-.13-71.32-58.06-129.03-129.38-128.9ZM451.38,571.32c-67.15.12-121.69-54.21-121.82-121.36-.12-67.15,54.21-121.69,121.37-121.82,67.15-.12,121.69,54.21,121.82,121.37.12,67.15-54.21,121.69-121.37,121.81Z"/>
              <g>
                <g>
                  <g>
                    <path class="cls-46" d="M473.51,478.04s14.88,91.1,13.81,93.1c-23.37,7.48-49.45,6.12-71.92-3.74l24.99-38.04,12.48-54.37,20.65,3.05Z"/>
                    <polygon class="cls-90" points="467.73 477.19 474.11 546.63 462.77 575.6 440.94 576.12 456.55 547.37 451.21 476.55 467.73 477.19"/>
                  </g>
                  <g>
                    <path class="cls-85" d="M437.81,483.24s-71.46,58.44-73.72,58.5c-18.16-16.5-30.03-39.77-32.72-64.16l45.43,2.62,53.32-16.38,7.69,19.41Z"/>
                    <polygon class="cls-103" points="435.65 477.81 378.71 518.05 347.95 522.72 336.59 504.07 369.28 503.22 427.95 463.18 435.65 477.81"/>
                  </g>
                  <g>
                    <path class="cls-25" d="M415.46,454.92s-86.34-32.66-87.53-34.59c5.21-23.98,19.43-45.89,39.2-60.42l20.45,40.66,40.85,37.99-12.97,16.36Z"/>
                    <polygon class="cls-94" points="419.08 450.34 355.76 421.15 336.33 396.84 346.8 377.68 363.89 405.57 427.9 436.35 419.08 450.34"/>
                  </g>
                  <g>
                    <path class="cls-54" d="M428.81,421.41s-14.88-91.1-13.81-93.1c23.37-7.48,49.45-6.12,71.92,3.74l-24.99,38.04-12.48,54.37-20.65-3.05Z"/>
                    <polygon class="cls-96" points="434.58 422.26 428.2 352.82 439.54 323.84 461.37 323.33 445.76 352.07 451.11 422.9 434.58 422.26"/>
                  </g>
                  <g>
                    <path class="cls-43" d="M464.51,416.21s71.46-58.44,73.72-58.5c18.16,16.5,30.03,39.77,32.72,64.16l-45.43-2.62-53.32,16.38-7.69-19.41Z"/>
                    <polygon class="cls-81" points="466.66 421.64 523.6 381.39 554.36 376.73 565.73 395.38 533.03 396.23 474.36 436.27 466.66 421.64"/>
                  </g>
                  <g>
                    <path class="cls-53" d="M486.86,444.53s86.34,32.66,87.53,34.59c-5.21,23.98-19.43,45.89-39.2,60.42l-20.45-40.66-40.85-37.99,12.97-16.36Z"/>
                    <polygon class="cls-42" points="483.23 449.11 546.55 478.3 565.98 502.61 555.51 521.77 538.42 493.88 474.41 463.09 483.23 449.11"/>
                  </g>
                </g>
                <circle class="cls-68" cx="451.16" cy="449.72" r="36.07"/>
                <circle class="cls-52" cx="451.16" cy="449.72" r="29.15"/>
                <circle class="cls-86" cx="451.16" cy="449.72" r="17.63"/>
              </g>
            </g>
          </g>
          <g>
            <circle class="cls-76" cx="1652.45" cy="448.34" r="96.78"/>
            <g>
              <path class="cls-58" d="M1652.15,284.19c-90.66.17-164.02,73.8-163.85,164.46.17,90.66,73.8,164.01,164.46,163.84,90.66-.17,164.02-73.8,163.85-164.45-.17-90.66-73.8-164.02-164.46-163.85ZM1652.68,571.36c-67.94.13-123.12-54.85-123.24-122.78-.13-67.94,54.85-123.12,122.79-123.24,67.94-.13,123.12,54.85,123.24,122.79.13,67.93-54.85,123.11-122.79,123.24Z"/>
              <path class="cls-10" d="M1652.15,288.49c-88.28.16-159.72,71.86-159.56,160.15.16,88.28,71.87,159.72,160.15,159.56,88.28-.16,159.72-71.87,159.56-160.15-.16-88.28-71.87-159.72-160.15-159.55ZM1652.71,588.56c-77.44.14-140.33-62.52-140.47-139.96-.14-77.44,62.51-140.33,139.95-140.47,77.44-.14,140.33,62.51,140.48,139.95.14,77.44-62.52,140.33-139.96,140.48Z"/>
              <path class="cls-51" d="M1652.21,317.7c-72.16.13-130.54,58.73-130.4,130.89.13,72.15,58.73,130.53,130.89,130.4,72.15-.13,130.54-58.73,130.4-130.89-.13-72.16-58.74-130.54-130.89-130.4ZM1652.68,571.36c-67.94.13-123.12-54.85-123.24-122.78-.13-67.94,54.85-123.12,122.79-123.24,67.94-.13,123.12,54.85,123.24,122.79.13,67.93-54.85,123.11-122.79,123.24Z"/>
              <g>
                <g>
                  <g>
                    <path class="cls-47" d="M1675.06,476.99s15.06,92.17,13.97,94.19c-23.64,7.56-50.03,6.19-72.77-3.78l25.28-38.48,12.62-55.01,20.89,3.08Z"/>
                    <polygon class="cls-98" points="1669.22 476.13 1675.67 546.38 1664.2 575.69 1642.11 576.22 1657.91 547.13 1652.5 475.48 1669.22 476.13"/>
                  </g>
                  <g>
                    <path class="cls-82" d="M1638.95,482.25s-72.29,59.13-74.58,59.19c-18.37-16.69-30.38-40.23-33.11-64.91l45.96,2.65,53.95-16.57,7.78,19.64Z"/>
                    <polygon class="cls-24" points="1636.77 476.76 1579.16 517.47 1548.04 522.2 1536.54 503.33 1569.62 502.46 1628.97 461.96 1636.77 476.76"/>
                  </g>
                  <g>
                    <path class="cls-88" d="M1616.33,453.6s-87.35-33.05-88.55-35c5.27-24.26,19.65-46.43,39.66-61.12l20.68,41.13,41.33,38.44-13.12,16.55Z"/>
                    <polygon class="cls-97" points="1620 448.97 1555.94 419.43 1536.29 394.84 1546.88 375.45 1564.17 403.67 1628.92 434.82 1620 448.97"/>
                  </g>
                  <g>
                    <path class="cls-95" d="M1629.84,419.69s-15.06-92.17-13.97-94.19c23.64-7.56,50.03-6.19,72.77,3.78l-25.28,38.48-12.62,55.01-20.89-3.08Z"/>
                    <polygon class="cls-75" points="1635.69 420.56 1629.23 350.31 1640.7 320.99 1662.79 320.47 1647 349.55 1652.4 421.2 1635.69 420.56"/>
                  </g>
                  <g>
                    <path class="cls-63" d="M1665.96,414.44s72.29-59.13,74.58-59.19c18.37,16.69,30.38,40.23,33.11,64.91l-45.96-2.65-53.95,16.57-7.78-19.64Z"/>
                    <polygon class="cls-73" points="1668.13 419.93 1725.74 379.22 1756.87 374.49 1768.36 393.36 1735.28 394.22 1675.93 434.73 1668.13 419.93"/>
                  </g>
                  <g>
                    <path class="cls-70" d="M1688.57,443.09s87.35,33.05,88.55,35c-5.27,24.26-19.65,46.43-39.66,61.12l-20.68-41.13-41.33-38.44,13.12-16.55Z"/>
                    <polygon class="cls-78" points="1684.9 447.72 1748.97 477.25 1768.62 501.84 1758.02 521.23 1740.73 493.02 1675.98 461.87 1684.9 447.72"/>
                  </g>
                </g>
                <circle class="cls-93" cx="1652.45" cy="448.34" r="36.49"/>
                <circle class="cls-66" cx="1652.45" cy="448.34" r="29.49"/>
                <circle class="cls-44" cx="1652.45" cy="448.34" r="17.84"/>
              </g>
            </g>
          </g>
          <path class="cls-64" d="M1289.75,106.97c-2.82,26.77-5.63,53.54-8.45,80.3-.31,2.92-.69,6.03-2.59,8.28-2.51,2.98-6.83,3.49-10.71,3.67-2.05.09-4.1.14-6.16.16-15.74.12-61.53,10.81-57.81-3.18,8.07-30.39,18.65-37.29,19.83-41.75,7.54-28.42,6.94-63.4,11.48-75.24,2.83-7.38,8.82-13.41,15.55-17.56,1.45-.89,2.97-1.67,4.56-2.3,5.81-2.33,12.36-2.83,18.15-.58,2.79,1.09,5.25,2.74,7.38,4.79.2.19.39.38.58.58,4.06,4.16,6.8,9.78,8.1,15.52,2.01,8.92,1.06,18.21.11,27.3Z"/>
          <path class="cls-56" d="M1291.93,107.22c-3.09,26.7-6.18,53.39-9.27,80.08-.34,2.91-.76,6.02-2.84,8.26-2.75,2.97-7.48,3.49-11.74,3.66-2.25.1-4.5.14-6.75.16l21.29-132.82c.14-.87,1.22-1.18,1.82-.53,3.63,3.95,6.13,8.92,7.37,13.97,2.2,8.9,1.16,18.16.11,27.23Z"/>
          <path class="cls-83" d="M1747.45,130.76c-40.08,14.54-81,26.79-122.03,36.38-1.14.27-2.28.54-3.41.8-123.17,28.36-247.27,32.74-353.29,3.61,31.35-4.99,62.7-9.98,94.05-15,40.24-6.44,80.48-12.91,120.72-19.47,5.77-.94,11.53-1.88,17.29-2.83.56-.09,1.11-.18,1.67-.27.38-.09.76-.19,1.14-.3,8.21-2.41,14.65-9.99,16.58-17.27.27-.96.44-1.92.54-2.86.69-.13,1.38-.27,2.07-.4,24.81-4.73,50.04-7.2,75.3-7.46,1.48-.01,2.96-.02,4.43-.02,49.28,0,98.56,8.44,144.94,25.09Z"/>
          <path class="cls-18" d="M1730.31,128.96c-9.01,5.56-20.53,3.65-30.97,1.87-64.69-11.06-131.41-10.06-195.75,2.85,8.21-2.41,14.65-9.99,16.58-17.27,30.22-3.99,60.52-7.25,90.98-7.5,40.54-.34,81.59,4.8,119.16,20.05Z"/>
          <path class="cls-29" d="M1625.69,176.76c-1.07-.14-2.15-.29-3.22-.43-.06-2.79-.21-5.59-.47-8.39-2.02-22.4-10.24-44.58-23.93-62.24,1.48-.01,2.96-.02,4.43-.02,13.16,17.83,21.33,39.4,22.91,61.47.23,3.2.33,6.41.28,9.62Z"/>
          <path class="cls-49" d="M1522.78,113.16c-2.91,15.86-11.83,31.27-28.31,32.07-45.67,2.22-172.68,20.57-215.83,26.11,46.56-7.44,177.25-29.72,223.8-37.35,9.85-2.28,17.42-12.06,18.26-20.43.69-.13,1.38-.27,2.07-.4Z"/>
          <path class="cls-71" d="M985.32,34.3c-66.91,43.61-132.9,88.65-197.9,135.06-8.16,5.82-16.58,11.79-25.66,15.9-5.08,2.3-10.36,4.01-15.91,4.8-8.37,1.18-16.86.17-25.25-1.09-.14-.02-.28-.04-.43-.06-.84-.13-1.69-.25-2.53-.38-19.13-2.92-38.27-5.84-57.38-7.25-14.66-1.07-29.3-1.25-43.92.15,53.57-35.87,106.97-68.26,162.22-96.89,42.02-21.78,85.09-41.4,130.11-58.73,15.16-5.84,30.54-11.42,46.16-16.74,8.75,6.5,25.96,15.3,30.47,25.23Z"/>
          <path class="cls-2" d="M1014.9,66.16c-66.29,46.67-132.58,93.35-198.87,140.02-5.82,4.1-11.73,8.24-18.38,10.76-11.52,4.35-24.5,3.47-36.29-.09-6.62-2-12.94-4.78-21.38-8.06-5.2-2.01-11.21-4.21-18.58-6.53-1.98-.62-4.07-1.25-6.26-1.89,81.33-64.56,168.47-121.82,258.93-169.56-.95-1.49-1.97-2.94-3.06-4.33-5.29-6.78-12.17-12.31-19.94-15.99,8.68-3.23,17.35-6.47,26.4-9.45,1.07-.35,2.14-.7,3.22-1.04,16.21,8.61,31.31,19.32,44.48,32.68,1,12.25-2.34,24.8-10.25,33.48Z"/>
          <path class="cls-12" d="M1000.51,37.61c-.01.06-.02.13-.04.19-1.04,5.77-18.48,7.51-23.55,10.47-120.24,70.26-210.8,134.84-210.8,134.84-9.23,3.98-18.18,23.41-26.16,25.66-12.31,3.48-23.49,5.39-34.67,7.31,4.93-4.43,10.32-9.05,16.09-13.84,65.73-54.42,181.79-129.06,248.64-165.71,3.73-2.05,4.28-7.19,1.06-9.98l-.1-.09c-7.68-6.66-19.94-15.99-19.94-15.99,8.68-3.23,17.35-6.47,26.4-9.45,7.27,6.29,13.87,13.56,18.37,18.89,4.14,4.89,5.82,11.38,4.69,17.69Z"/>
          <path class="cls-55" d="M264.72,241.22c-60.01,33.13-119.38,74.5-167.55,123.73-3.38,3.45-6.7,6.94-9.97,10.47l-30.15,5.48-41.49,7.53h0s-8.06-3.39-7.95-5.85c.25-5.62.48-11.25.65-16.95.06-1.98.11-3.98.16-5.98,56.84-54.4,128.94-92.68,205.83-109.34,0,0,3.28-.89,8.17-2.14,0,0,0,0,0,0,13.97-3.56,41.05-10.03,42.29-6.94Z"/>
          <path class="cls-69" d="M759.73,185.06c-8.8,4.56-17.18,9.93-25.06,16.19-7.29,5.78-14.16,12.32-20.55,19.69-2.02,2.32-3.99,4.73-5.91,7.22-.07.09-.14.17-.2.26-.24.44-58.91-3.02-117.11-3.66-28.52-.32-56.94.04-78.3,1.86-59.18,5.04-176.33,13.5-226.94,14.56-9.39.2-16.5.14-20.51-.24-1.68-.16-2.82-.38-3.36-.66l-71.14,27.79-50.63,19.78c4.07-5.27,8.38-10.35,12.9-15.24,14.16-15.3,30.43-28.66,48.18-39.7,11.36-7.07,23.32-13.19,35.71-18.26,4.58-1.88,9.22-3.61,13.91-5.19,126.57-21.6,254.62-34.55,382.97-38.3,43.43,5.41,74.59,10.07,126.04,13.9Z"/>
          <path class="cls-45" d="M704.92,485.9c1,16.83,2.12,33.85,3.36,51.24l-50.91,1.24-20.26.49s1.56-39.18,1.54-52.25c-.21-112.8-50.49-225.35-194.34-219.62-113.71,4.53-201.42,89.37-179,286.7-.24.03-5.62-.82-14.65-2.29-53.24-8.65-233.25-38.84-233.25-38.84,0,0-7.42-11.06-13.46-19.62-1.43-2.02-2.78-3.9-3.93-5.47.57-3.83,1.15-7.66,1.72-11.49.55-3.69,1.1-7.38,1.66-11.06,3.63,1.52,8.17.41,10.06-2.65.71-24.62,1.42-49.24,2.13-73.86.06-2.04.11-4.08.18-6.13.03-1.01.06-2.02.09-3.03,7.26-4.62,14.53-9.24,21.8-13.87,53.33-33.92,106.65-67.84,159.98-101.77,8.2-5.22,16.45-10.46,24.82-15.47,19.53-11.69,39.73-22.16,61.58-28.26,26.23-7.32,53.79-8.04,81.01-8.72,116.09-2.87,232.17-5.75,350.52-6.61-7.39,20.8-12.51,42.4-15.3,64.22-2.96,23.16-3.29,46.56-.93,69.5.68,43.41,2.16,84.39,4.39,125.99.11,2.1.23,4.21.35,6.31.28,5.09.57,10.19.87,15.31Z"/>
          <path class="cls-74" d="M12.22,380.43l20.18,90.63s38.26-.78,39.82-.4c17.28-31,21.68-68.91,11.98-103.05l-71.97,12.81Z"/>
          <rect class="cls-61" x="15.4" y="394.61" width="73.84" height="12.15" transform="translate(-.74 .1) rotate(-.11)"/>
          <rect class="cls-87" x="20.51" y="423.12" width="71.82" height="12.15" transform="translate(-.8 .11) rotate(-.11)"/>
          <rect class="cls-84" x="26.3" y="450.02" width="53.94" height="12.15" transform="translate(-.85 .1) rotate(-.11)"/>
          <path class="cls-14" d="M180.74,255.82c-31.18,15.4-63.06,31.31-87.03,56.52-2.3,2.42-4.66,5.27-4.63,8.61.09,8.12,9.25,14.19,66.41-14.06,33.48-16.55,14.81-26.39,40.63-53.37-5.15.43-10.65-.04-15.39,2.3Z"/>
          <path class="cls-33" d="M226.83,363.95l-13.22,11.61-156.55,5.34-41.32,1.41-8.13.28c.25-5.62.48-11.25.65-16.95l29.36-.23h0s59.55-.45,59.55-.45l129.66-1Z"/>
          <path class="cls-4" d="M220.91,481.95h0c-7.25,11.09-19.77,17.6-33.02,17.15l-183.97-6.15c-1.43-2.02-2.78-3.9-3.93-5.47.57-3.83,1.15-7.66,1.72-11.49l219.19,5.95Z"/>
          <path class="cls-77" d="M745.5,183.59l552.81-12.72,29.6,37.21s3.89,35.45,7.35,34.86c-19.52,98.19-81.5,187.17-166.83,239.52l-480.76-.93-21.25-278.38,79.08-19.55Z"/>
          <path class="cls-1" d="M1248.44,172.35c.79.08,1.58.17,2.37.25-1.2-.05-2.02-.14-2.37-.25Z"/>
          <path class="cls-60" d="M1903.57,171.71c-28.9,13.44-61.11,17.42-92.73,21.46-44.9,5.73-372.74-.48-560.03-20.56,8.9.43,38.64-.6,51.23-1.73,113.85-10.19,179.81-7.47,251.58-13.14,32.97-2.61,67.16-6.98,107.77-15.2,24.84-5.02,49.89-10.73,72.79-21.08,7.41-3.34,14.6-7.18,21.49-11.63.42-.27.84-.54,1.26-.82.47-.69.94-1.38,3.27-4.83,37.25,2.22,73.87,14.05,104.79,34.71.47.31.94.63,1.41.95,5.89,15.33,20.07,27.18,37.16,31.87Z"/>
          <path class="cls-91" d="M2045.27,229.47c-50.14,2.3-100.34,3.45-150.53,3.45-21.34,0-42.68-.21-64.01-.63l-550.07-15.99-17.2-18.8-13.57-14.83-9.57-10.46,599.69-22.93c18.5,2.18,37,4.37,55.49,8.93,49.11,18.1,98.87,36.54,142.08,65.87,2.59,1.76,5.15,3.55,7.69,5.39Z"/>
          <path class="cls-101" d="M2111.54,432.31c0,.23,0,.47-.02.7l-1.76,31.2c-.09,1.56-.48,3.09-1.15,4.51l-13.32,28.16s-90.93,6.34-163.04,11.31c-25.26,1.74-48.21,3.31-64.13,4.38-1.59.11-3.12.21-4.57.31-9.85.66-16.22,1.07-17.64,1.13-.1,0-.17,0-.22,0h-.08c.09-6.27.09-12.66-.03-19.11-.01-.5-.02-1.01-.03-1.51,0-.13,0-.25,0-.37-.03-1.27-.06-2.53-.1-3.8-.03-.84-.05-1.69-.08-2.53-.03-.82-.06-1.64-.09-2.46-.02-.62-.05-1.23-.07-1.84-.02-.36-.03-.72-.05-1.09-.03-.74-.07-1.49-.11-2.23-.03-.6-.06-1.2-.09-1.8-.02-.43-.04-.87-.07-1.3-.04-.67-.07-1.35-.11-2.02-.04-.6-.07-1.21-.11-1.82-.1-1.53-.2-3.06-.32-4.58-.04-.62-.09-1.24-.14-1.86-.11-1.52-.24-3.04-.38-4.56-.07-.78-.14-1.55-.21-2.33-.1-1.1-.21-2.2-.32-3.29-.07-.69-.14-1.39-.22-2.08-.05-.45-.09-.89-.14-1.33-.05-.44-.09-.87-.14-1.31-.07-.62-.14-1.24-.22-1.87-.05-.45-.1-.89-.16-1.34-.07-.62-.15-1.24-.23-1.87-.1-.79-.2-1.58-.3-2.38-.24-1.78-.48-3.55-.74-5.31-.23-1.6-.48-3.2-.73-4.79-.15-.96-.31-1.92-.47-2.88-.14-.84-.29-1.69-.44-2.53-.15-.85-.3-1.7-.46-2.54-.14-.76-.28-1.53-.43-2.29-.12-.65-.25-1.3-.38-1.95-.11-.58-.23-1.15-.35-1.72-.12-.61-.25-1.22-.38-1.83-.13-.61-.26-1.22-.39-1.83-.13-.61-.26-1.21-.4-1.82-.13-.59-.26-1.18-.4-1.77,0-.02,0-.03-.01-.05-.28-1.21-.56-2.42-.85-3.62-.17-.72-.35-1.44-.53-2.15-.12-.49-.24-.97-.37-1.45-.18-.71-.36-1.41-.55-2.11-.19-.75-.39-1.49-.6-2.24-.41-1.53-.84-3.05-1.28-4.56-.17-.59-.35-1.18-.52-1.77-.17-.59-.35-1.17-.53-1.76-.37-1.2-.74-2.4-1.13-3.59-.15-.48-.31-.95-.47-1.43-.06-.21-.13-.41-.2-.62-.17-.51-.34-1.01-.51-1.52-.16-.5-.33-.99-.51-1.48-.11-.33-.23-.67-.35-1-.16-.46-.33-.92-.49-1.38-.15-.41-.3-.83-.45-1.24-.14-.41-.29-.81-.45-1.22-.27-.73-.54-1.47-.83-2.19-.22-.58-.44-1.15-.68-1.72-1.05-2.68-2.16-5.33-3.32-7.94-.21-.48-.42-.95-.64-1.42-.18-.41-.37-.82-.56-1.23-.19-.42-.39-.83-.58-1.25-.15-.32-.29-.64-.45-.96-.16-.34-.32-.68-.49-1.01-.25-.54-.51-1.06-.77-1.59-.12-.24-.24-.49-.36-.73-.31-.62-.62-1.24-.95-1.86-.06-.13-.13-.26-.2-.39-.29-.57-.59-1.14-.89-1.71-.12-.24-.24-.47-.37-.7-.36-.67-.72-1.34-1.09-2-.04-.08-.08-.15-.12-.22-.34-.62-.69-1.24-1.05-1.86-.52-.93-1.06-1.85-1.6-2.76-28.27-47.55-80.17-81.96-152.43-81.83-74.43-.44-127.6,29.16-162.5,78.83-4.76,6.78-9.03,14.32-12.81,22.41-.69,1.47-1.36,2.96-2.02,4.46-2.64,6.02-5.02,12.3-7.17,18.77-.72,2.18-1.42,4.38-2.09,6.6-.9,2.94-1.74,5.91-2.53,8.91-.33,1.24-.66,2.48-.97,3.73-.11.43-.22.85-.32,1.28-.32,1.28-.63,2.56-.93,3.84-.3,1.24-.58,2.48-.85,3.73-.27,1.22-.54,2.43-.79,3.65-.28,1.33-.55,2.65-.81,3.98-.28,1.38-.54,2.77-.8,4.16-.23,1.2-.44,2.4-.65,3.61-.24,1.37-.47,2.73-.69,4.1-.06.31-.11.62-.15.93-.24,1.45-.46,2.9-.67,4.35-.3,2.05-.59,4.09-.85,6.13-.19,1.41-.36,2.8-.53,4.21-1.9,15.87-2.73,31.35-2.65,45.37,0,.39,0,.77,0,1.16,0,1.1.02,2.2.05,3.29,0,.44.02.87.03,1.3,0,.37.02.75.03,1.13.04,1.23.08,2.45.13,3.66.13,3.33.32,6.56.57,9.65.03.47.07.94.11,1.4.03.42.07.83.11,1.25.08.92.17,1.83.26,2.72.06.57.12,1.14.18,1.69.2,1.74.41,3.43.64,5.06l-9.67.09-94.9.93-718.78,7.01,2.43-48,14.48-286.19s753.11-33.6,1018.69-34.09c302.46-.56,350.56,61.32,350.56,61.32,21.57,10.54,41.61,24.21,59.47,40.73,9.55,8.82,18.47,18.46,26.68,28.86h0c.27,11.36.13,22.72-.41,34.06-1.29,26.86-4.85,53.61-10.66,79.86l.09.07,8.87,7.61c2.69,2.31,4.23,5.67,4.23,9.2Z"/>
          <path class="cls-8" d="M2045.27,229.47c-50.14,2.3-100.34,3.45-150.53,3.45-97.36-29.6-232.73-18.6-386.53-18.32,0,0-591.47,16.94-794.05,22.01-1.32.04-2.63.07-3.92.1-38.93.97-62.49,1.47-63.19,1.29-18.72.94-37.42,1.59-56.12,2.43-37.68,1.69-75.39,4.14-113.35,11.18-63.65,7.29-127.96-6.66-191.92-10.45-6.35-.37-12.7-.81-19.04-1.29-8.53-.65-17.06-1.41-25.57-2.26-9.91-.99-19.8-2.11-29.67-3.36-3.43-.44-6.85-.89-10.27-1.36,11.36-7.07,23.32-13.19,35.71-18.26,6.88.46,13.81.87,20.8,1.23,9.48.49,19.05.91,28.68,1.24,2.67.1,5.33.18,8.01.26,106.8,3.2,220.16-2.94,300.95-11.29,4.15-.43,8.21-.87,12.18-1.3,0,0,50.35-1.38,127.23-3.54,248.4-6.94,773.79-21.92,773.46-24.26,184.79-5.29,357.8,30.4,529.45,47.1,2.59,1.76,5.15,3.55,7.69,5.39Z"/>
          <path class="cls-7" d="M1604.63,176.8c143.53-5.03,282.8,18.31,418.74,72.21-45.73-5.97-91.46-11.94-137.19-17.9-13.67-1.78-27.35-3.57-41.02-5.35-45.22-5.9-90.45-11.8-135.79-16.77-87.1-9.54-161.99-26.98-249.57-29.56,59.21-10.05,111.83-1.47,144.83-2.63Z"/>
          <path class="cls-15" d="M2109.01,335.57c-67.38,40.81-170.5,86.91-167,109.39,4.88,31.35-2.08,34.44-9.76,63.23-25.26,1.74-48.21,3.31-64.13,4.38,0,.1,0,.2-.01.3-10.1.68-20.34,1.1-22.19,1.14-.1,0-.17,0-.22,0h-.08c.09-6.27.09-12.66-.03-19.11-.01-.5-.02-1.01-.03-1.51,0-.13,0-.25,0-.37-.03-1.27-.06-2.53-.1-3.8-.03-.84-.05-1.69-.08-2.53-.03-.82-.06-1.64-.09-2.46-.02-.62-.05-1.23-.07-1.84-.02-.36-.03-.72-.05-1.09-.03-.74-.07-1.49-.11-2.23-.03-.6-.06-1.2-.09-1.8-.02-.43-.04-.87-.07-1.3-.04-.67-.07-1.35-.11-2.02-.04-.6-.07-1.21-.11-1.82-.1-1.53-.2-3.06-.32-4.58-.04-.62-.09-1.24-.14-1.86-.11-1.52-.24-3.04-.38-4.56-.07-.78-.14-1.55-.21-2.33-.1-1.1-.21-2.2-.32-3.29-.07-.69-.14-1.39-.22-2.08-.05-.45-.09-.89-.14-1.33-.05-.44-.09-.87-.14-1.31-.07-.62-.14-1.24-.22-1.87-.05-.45-.1-.89-.16-1.34-.07-.62-.15-1.24-.23-1.87-.1-.79-.2-1.58-.3-2.38-.24-1.78-.48-3.55-.74-5.31-.23-1.6-.48-3.2-.73-4.79-.15-.96-.31-1.92-.47-2.88-.14-.84-.29-1.69-.44-2.53-.15-.85-.3-1.7-.46-2.54-.14-.76-.28-1.53-.43-2.29-.12-.65-.25-1.3-.38-1.95-.11-.58-.23-1.15-.35-1.72-.12-.61-.25-1.22-.38-1.83-.13-.61-.26-1.22-.39-1.83-.13-.61-.26-1.21-.4-1.82-.13-.59-.26-1.18-.4-1.77,0-.02,0-.03-.01-.05-.28-1.21-.56-2.42-.85-3.62-.17-.72-.35-1.44-.53-2.15-.12-.49-.24-.97-.37-1.45-.18-.71-.36-1.41-.55-2.11-.19-.75-.39-1.49-.6-2.24-.41-1.53-.84-3.05-1.28-4.56-.17-.59-.35-1.18-.52-1.77-.17-.59-.35-1.17-.53-1.76-.37-1.2-.74-2.4-1.13-3.59-.15-.48-.31-.95-.47-1.43-.06-.21-.13-.41-.2-.62-.17-.51-.34-1.01-.51-1.52-.16-.5-.33-.99-.51-1.48-.11-.33-.23-.67-.35-1-.16-.46-.33-.92-.49-1.38-.15-.41-.3-.83-.45-1.24-.14-.41-.29-.81-.45-1.22-.27-.73-.54-1.47-.83-2.19-.22-.58-.44-1.15-.68-1.72-1.05-2.68-2.16-5.33-3.32-7.94-.21-.48-.42-.95-.64-1.42-.18-.41-.37-.82-.56-1.23-.19-.42-.39-.83-.58-1.25-.15-.32-.29-.64-.45-.96-.16-.34-.32-.68-.49-1.01-.25-.54-.51-1.06-.77-1.59-.12-.24-.24-.49-.36-.73-.31-.62-.62-1.24-.95-1.86-.06-.13-.13-.26-.2-.39-.29-.57-.59-1.14-.89-1.71-.12-.24-.24-.47-.37-.7-.36-.67-.72-1.34-1.09-2-.04-.08-.08-.15-.12-.22-.34-.62-.69-1.24-1.05-1.86-.52-.93-1.06-1.85-1.6-2.76-28.27-47.55-80.17-81.96-152.43-81.83-74.43-.44-127.6,29.16-162.5,78.83-4.76,6.78-9.03,14.32-12.81,22.41-.69,1.47-1.36,2.96-2.02,4.46-2.64,6.02-5.02,12.3-7.17,18.77-.72,2.18-1.42,4.38-2.09,6.6-.9,2.94-1.74,5.91-2.53,8.91-.33,1.24-.66,2.48-.97,3.73-.11.43-.22.85-.32,1.28-.32,1.28-.63,2.56-.93,3.84-.3,1.24-.58,2.48-.85,3.73-.27,1.22-.54,2.43-.79,3.65-.28,1.33-.55,2.65-.81,3.98-.28,1.38-.54,2.77-.8,4.16-.23,1.2-.44,2.4-.65,3.61-.24,1.37-.47,2.73-.69,4.1-.06.31-.11.62-.15.93-.24,1.45-.46,2.9-.67,4.35-.3,2.05-.59,4.09-.85,6.13-.19,1.41-.36,2.8-.53,4.21-1.9,15.87-2.73,31.35-2.65,45.37,0,.39,0,.77,0,1.16,0,1.1.02,2.2.05,3.29,0,.44.02.87.03,1.3,0,.37.02.75.03,1.13.04,1.23.08,2.45.13,3.66.13,3.33.32,6.56.57,9.65.03.47.07.94.11,1.4.03.42.07.83.11,1.25.08.92.17,1.83.26,2.72.06.57.12,1.14.18,1.69.2,1.74.41,3.43.64,5.06l-9.67.09-94.9.93c-19.13-106.3,35.05-212.01,125.72-272.17,202.57-134.4,390.47,22.2,386.74,15.19-.95-1.79,126.51-3.62,214.39-2.24,9.55,8.82,18.47,18.46,26.68,28.86h0c.27,11.36.13,22.72-.41,34.06Z"/>
          <path class="cls-37" d="M1460.45,530.86l-9.67.09-813.68,7.94,2.43-48,801.49-14.02,17.32,24.05c.14,11.14.87,21.31,2.1,29.95Z"/>
          <path class="cls-72" d="M2111.54,432.31c0,.23,0,.47-.02.7l-1.76,31.2c-.09,1.56-.47,3.09-1.15,4.51l-13.32,28.16s-174.51,12.18-231.74,16c-11.07.74-17.75,1.17-17.93,1.14.6-41-2.87-86.67-16.23-126.92,18.89-24.05,40.97-45.53,65.83-63.42,7.26-5.22,15.85-8.27,24.78-8.8,34.29-1.99,128.78-7.66,189.47-11.14.72,37.5-3.02,75.09-11.12,111.71l.09.07,8.87,7.61c2.69,2.31,4.23,5.67,4.23,9.2Z"/>
          <path class="cls-59" d="M2111.54,432.31l-247.58,18.48,2.2-2.91c4.84-6.38,12.12-10.46,20.09-11.26l212.18-21.12,8.87,7.61c2.69,2.31,4.23,5.67,4.23,9.2Z"/>
          <path class="cls-99" d="M660.32,314.14s746.15-.78,749.88-.3c-31.32,40.62-51.99,89.39-59.37,140.15l-672.86,14.69-17.64-154.55Z"/>
          <path class="cls-50" d="M1469.14,269.1c-18.85,14.6-35.67,32.56-50.05,52.63-24.96,34.84-42.56,76.07-50.72,117.23-1.12,5.63-2.06,11.27-2.82,16.89l-661.51,14.75-61.92,2.04c0-.72.03-1.94.03-3.61.03-11.39-.85-43.72-13.36-80.47-13.14-38.62-39.14-82.12-90.42-111.35-1.65-.94-3.31-1.85-4.99-2.72l166.85-5.69,747.17-25.47s27.09,25.1,21.74,25.78Z"/>
          <path class="cls-6" d="M1431.31,477.66l-737.84,8.87c.03-.64,2.18-2.29,5.39-4.4,16.71-11.02,36.17-17.17,56.17-17.96l539.69-21.24c47.93-1.89,95.38,10.18,136.59,34.73h0Z"/>
          <path class="cls-92" d="M657.37,538.39l-20.26.49s1.56-39.18,1.54-52.25c-.21-112.8-50.49-225.35-194.34-219.62-113.71,4.53-201.42,89.37-179,286.7-.24.03-5.62-.82-14.65-2.29-12.66-68.56-20.68-168.41,40.43-236.59,35.09-39.15,75.23-66.84,147.61-69.86,138.28-5.77,203.94,83.58,215.46,171.96,5.51,42.31,4.65,89.55,3.22,121.47Z"/>
          <path class="cls-26" d="M280.7,229.4c-10.02,7.75-21.48,15.88-33.63,23.97-23.47,15.64-49.48,31.14-72.41,43.54-23.3,12.6-43.44,21.98-54.54,25.03-.93.25-1.77.43-2.52.54-12.45,1.79-2.31-15.64,20.93-37.32,29.09-27.14,78.7-60.93,130.25-72.04,8.24-1.78,14.09-.33,16.66,2.68.74.86,1.21,1.84,1.39,2.92.54,3.12-1.33,6.99-6.11,10.68Z"/>
          <path class="cls-102" d="M77.21,472.36l-51.39,3.1,6.3-8.14s39.5-6.46,40.29-7.37c.81-1.84,1.58-3.71,2.29-5.6,0,0,0,0,0,0,1.51-3.96,2.79-8,3.86-12.1,5.45-20.88,5.26-43.23-.76-63.96l-65.59,2.14,4.26-4.6,7.17-7.74,2.09-2.26s70.06-6.41,71.07-5.06c4.86,38.03-2.07,77.48-19.59,111.58Z"/>
          <path class="cls-62" d="M834.66,184.45s-8.63,36.99-7.77,37.2c13.88,6.44,30.78,5.94,44.26-1.31l-2.33-35.58-34.15-.31Z"/>
          <path class="cls-100" d="M944.03,172.56c-.88,3.78-2.08,7.29-3.67,10.53-3.68,7.5-11.49,12.06-19.84,11.89-26.19-.54-52.98-1.84-82.07-2.25l-16.34-9.51c-.1-.38-.18-.74-.28-1.09-.75-3.01-1.25-4.97-2.08-8.27.91-1.51,1.87-3,2.87-4.45,17.85-26.04,48.66-42.56,80-42.55,8.74,0,16.89,4.4,21.79,11.63,2.43,3.58,5.2,7.74,7.9,11.9,3.21,4.97,6.31,9.94,8.54,13.92,2.53,4.51,3.96,7.75,3.18,8.26Z"/>
          <path class="cls-79" d="M2069.62,273.44l-50.94.48-11.97.11-79.21.74c-3.61.04-7.17-.84-10.34-2.56l-31.48-16.96c-3.06-1.65-2.74-6.14.53-7.34l30.5-11.16c2.14-.78,4.39-1.26,6.66-1.41,8.34-.54,30.7-2.01,53.93-3.6,4.62-.32,9.28-.64,13.87-.96,27.17-1.89,51.9-3.74,52.65-4.21,1.87,1.07,3.66,2.27,5.36,3.58,11.28,8.65,18.78,22.14,20.23,36.28.24,2.32.31,4.67.21,7Z"/>
          <path class="cls-34" d="M944.03,172.56c-.88,3.78-2.08,7.29-3.67,10.53-3.68,7.5-11.49,12.06-19.83,11.89-26.19-.54-52.98-1.84-82.07-2.25l-16.34-9.51c-.1-.38-.18-.74-.28-1.09,9.12-.41,17.85-2.55,25.52-7.67,5.46-3.64,9.97-8.58,15.48-12.15,9.21-5.97,20.59-7.67,31.57-7.55,16.05.18,31.49,3.88,46.45,9.55,2.53,4.51,3.96,7.75,3.18,8.26Z"/>
          <path class="cls-17" d="M924.41,138.48c2.43,3.58,5.2,7.74,7.9,11.9-11.38-1.08-22.77-1.98-34.19-1.58-19.64.69-39.94,5.71-54.68,18.7-3.37,2.97-6.63,6.45-10.99,7.57-4.2,1.07-9.62-1.48-9.82-5.68,17.85-26.04,48.66-42.56,80-42.55,8.74,0,16.89,4.4,21.79,11.63Z"/>
          <path class="cls-30" d="M1204.27,270.53l.98,7.84c.95,7.66,7.62,13.31,15.33,13l43.82-1.77c7.85-.32,14.1-6.7,14.25-14.56l.17-8.98c.16-8.69-7.13-15.66-15.8-15.1l-44.96,2.9c-8.53.55-14.84,8.17-13.78,16.65Z"/>
          <path class="cls-67" d="M1297.68,271.1l-.03.11c-1.22,5.68-6.12,9.8-11.92,10.05l-89.44,3.76c-6.12.26-11.55-3.87-12.95-9.83-.73-3.13-.24-6.22,1.13-8.82,1.87-3.55,5.37-6.17,9.65-6.72.35-.05.72-.08,1.08-.09l85.29-3.7,4.17-.18c4.09-.17,7.73,1.57,10.15,4.36,2.53,2.89,3.75,6.91,2.86,11.06Z"/>
          <path class="cls-32" d="M1297.68,271.1l-.03.11c-1.22,5.68-6.12,9.8-11.92,10.05l-89.44,3.76c-6.12.26-11.55-3.87-12.95-9.83-.73-3.13-.24-6.22,1.13-8.82,1.44,2.18,3.61,3.99,6.01,5,5.02,2.12,9.42,2.28,16.63,2.2,22.17-.24,86.41-3.93,88.57-4.88,1.68-.74.18-5.42-.87-8.65,2.53,2.89,3.75,6.91,2.86,11.06Z"/>
          <path class="cls-11" d="M1291.81,264.08c-.37,1.45-1.66,2.52-3.07,3.03-1.41.5-2.94.47-4.43.55-25.65,1.38-59.44,4.06-85.98,3.06-3.01-.12-6.69-.31-7.93-3.05-1.16-2.56.69-5.49,2.83-7.31.29-.25.59-.49.89-.71.35-.05.72-.08,1.08-.09l85.29-3.7c3.77.43,7.23,1.4,9.09,3.06,1.47,1.31,2.7,3.24,2.22,5.15Z"/>
          <path class="cls-48" d="M1868.13,512.57c0,.1,0,.2-.01.3-10.63.71-21.41,1.14-22.41,1.14h-.08c.09-6.27.09-12.66-.03-19.11-.01-.5-.02-1-.03-1.51,0-.13,0-.25,0-.37-.03-1.27-.06-2.53-.1-3.8-.03-.84-.05-1.69-.08-2.53-.03-.82-.06-1.64-.09-2.46-.02-.62-.05-1.23-.07-1.84-.02-.36-.03-.72-.05-1.09-.03-.74-.07-1.49-.11-2.23-.03-.6-.06-1.2-.09-1.8-.02-.43-.04-.87-.07-1.3-.04-.67-.07-1.35-.11-2.02-.04-.6-.07-1.21-.11-1.82-.1-1.53-.2-3.06-.32-4.58-.04-.62-.09-1.24-.14-1.86-.11-1.52-.24-3.04-.38-4.56-.07-.78-.14-1.55-.21-2.33-.1-1.1-.21-2.2-.32-3.29-.07-.69-.14-1.39-.22-2.08-.05-.45-.09-.89-.14-1.33-.05-.44-.09-.87-.14-1.31-.07-.62-.14-1.24-.22-1.87-.05-.45-.1-.9-.16-1.34-.07-.62-.15-1.24-.23-1.87-.1-.79-.2-1.58-.3-2.38-.24-1.78-.48-3.55-.74-5.31-.23-1.6-.48-3.2-.73-4.79-.15-.96-.31-1.92-.47-2.88-.14-.84-.29-1.69-.44-2.53-.15-.85-.3-1.7-.46-2.54-.14-.76-.28-1.53-.43-2.29-.12-.65-.25-1.3-.38-1.95-.11-.58-.23-1.15-.35-1.72-.12-.61-.25-1.22-.38-1.83-.13-.61-.26-1.22-.39-1.83-.13-.61-.26-1.21-.4-1.82-.13-.59-.26-1.18-.4-1.77,0-.02,0-.03-.01-.05-.28-1.21-.56-2.42-.85-3.62-.17-.72-.35-1.44-.53-2.15-.12-.49-.24-.97-.37-1.45-.18-.71-.36-1.41-.55-2.11-.19-.75-.39-1.49-.6-2.24-.41-1.53-.84-3.05-1.28-4.56-.17-.59-.35-1.18-.52-1.77-.17-.59-.35-1.18-.53-1.76-.37-1.2-.74-2.4-1.13-3.59-.15-.48-.31-.96-.47-1.43-.06-.21-.13-.41-.2-.62-.17-.51-.34-1.02-.51-1.52-.16-.5-.33-.99-.51-1.48-.11-.33-.23-.67-.35-1-.16-.46-.33-.92-.49-1.38-.15-.41-.3-.83-.45-1.24-.14-.41-.29-.81-.45-1.22-.27-.73-.54-1.47-.83-2.19-.22-.58-.44-1.15-.68-1.72-1.05-2.68-2.16-5.33-3.32-7.94-.21-.48-.42-.95-.64-1.42-.18-.41-.37-.82-.56-1.23-.19-.42-.39-.83-.58-1.25-.15-.32-.29-.64-.45-.96-.16-.34-.32-.68-.49-1.01-.25-.54-.51-1.07-.77-1.59-.12-.24-.24-.49-.36-.73-.31-.62-.62-1.24-.95-1.86-.06-.13-.13-.26-.2-.39-.29-.57-.59-1.14-.89-1.71-.12-.24-.24-.47-.37-.7-.36-.67-.72-1.34-1.09-2-.04-.08-.08-.15-.12-.22-.35-.63-.69-1.24-1.05-1.86-.52-.93-1.06-1.85-1.6-2.76-28.27-47.55-80.17-81.96-152.43-81.83-74.43-.44-127.6,29.16-162.5,78.83-4.76,6.78-9.03,14.32-12.81,22.41-.69,1.47-1.36,2.96-2.02,4.46-2.64,6.02-5.02,12.3-7.17,18.77-.72,2.18-1.42,4.38-2.09,6.6-.9,2.94-1.74,5.91-2.53,8.91-.34,1.24-.66,2.48-.97,3.73-.11.43-.22.85-.32,1.28-.32,1.28-.63,2.56-.93,3.84-.3,1.24-.58,2.48-.85,3.73-.28,1.22-.54,2.43-.79,3.65-.28,1.33-.55,2.65-.81,3.98-.28,1.39-.54,2.77-.8,4.16-.23,1.2-.44,2.4-.65,3.61-.24,1.37-.47,2.73-.69,4.1-.06.31-.11.62-.15.93-.24,1.45-.46,2.9-.67,4.35-.3,2.05-.59,4.09-.85,6.13-.19,1.4-.36,2.81-.53,4.21-1.9,15.87-2.73,31.35-2.65,45.37,0,.39,0,.77,0,1.16,0,1.1.02,2.2.05,3.29,0,.44.02.87.03,1.3,0,.37.02.75.03,1.13.04,1.23.08,2.45.13,3.66.13,3.33.32,6.56.57,9.65.03.47.07.93.11,1.4.03.42.07.83.11,1.25.08.92.17,1.83.26,2.72.06.57.12,1.14.18,1.69.2,1.74.41,3.43.64,5.06l-19.28.11c-6.87-56.82-1.53-120.35,21.64-171.82,30.63-67.99,109.49-117.53,183.09-117.66,89.5-.17,149.81,37.92,188.75,101.39,39.09,63.72,34.31,150.77,33.47,169.69Z"/>
          <path class="cls-28" d="M241.61,382.14c-10.83,28.01-20.73,80.42-20.7,99.81,0,0-167.13-5.62-165.48-8.28,16.78-25.86,25.8-56.69,23.98-87.79l162.2-3.74Z"/>
          <path class="cls-20" d="M76.73,454.34s7.92-29.97,7.92-31.27c-.03-13.66,3.03-38.9-3.64-50.7l-64.53,3.46,7.17-7.74,64.12-2.59s5.37,17.02,6.39,20.04c.57,23.44-3.9,49.24-17.43,68.8Z"/>
          <path class="cls-31" d="M286.81,218.71c-12.3,12.7-25.64,24.18-39.75,34.65-22.5,16.73-46.98,30.93-72.41,43.54-18.64,9.26-37.8,17.65-57.07,25.57-12.45,1.79-2.31-15.64,20.93-37.32-2.59,6.49-5.19,12.99-7.79,19.48,37.12-13.97,70.84-35.51,104.24-56.9-8.17-5.36-19.27-5.9-27.91-1.34,22.56-17.26,50.07-27.98,78.36-30.6.74.86,1.21,1.84,1.39,2.92Z"/>
          <path class="cls-3" d="M182.1,253.72c-22.59,10.35-41.55,28.47-52.91,50.57,7.26,3.6,15.79-.6,22.77-4.72,20.78-12.24,41.56-24.48,62.33-36.72-13.33-3.95-27.62-4.63-32.19-9.14Z"/>
          <path class="cls-5" d="M189.07,248.78c10.61-.57,28.38,4.87,28.38,4.87,0,0,17.09-9.37,29.48-16.9-11.01-.77-22.84-4.32-30.7-1.89-6.45,1.99-16.54,7.78-27.15,13.92Z"/>
          <path class="cls-39" d="M2069.62,273.44l-142.12,1.33c-3.61.04-7.17-.84-10.34-2.56l-31.48-16.96c-3.06-1.65-2.74-6.14.53-7.34l30.5-11.16c2.14-.78,4.39-1.26,6.66-1.41,19.83-1.29,118.94-7.8,120.45-8.77,1.87,1.07,3.66,2.27,5.36,3.58l-2.11,3.83-114.72,9.79,26.93,21.93,110.13.72c.24,2.32.31,4.67.21,7Z"/>
          <path class="cls-9" d="M908.68,25.81l-146.92,159.45c-5.08,2.3-10.36,4.01-15.91,4.8-9.35,1.32-18.86-.1-28.2-1.53-19.13-2.92-38.27-5.84-57.38-7.25l118.3-96.74c42.02-21.78,85.09-41.4,130.11-58.73Z"/>
          <path class="cls-19" d="M916.05,56.46c-54.29,27.82-137.92,81.71-195.45,132.51-.14-.02-.28-.04-.43-.06,19.86-18.45,40.57-35.97,62.14-52.34l-9.68-4.22c42.53-29.6,90.27-59.89,137.21-83.95,2.06,2.69,4.13,5.38,6.2,8.06Z"/>
          <path class="cls-16" d="M1280.96,63.56l-15.29,76.58-21.18,4.28,10.95-85.08c5.81-2.33,12.36-2.83,18.15-.58,2.79,1.09,5.25,2.74,7.38,4.79Z"/>
          <polygon class="cls-21" points="1941.57 245.79 1963.49 263.59 1998.93 262.15 1983.44 241.54 1941.57 245.79"/>
          <path class="cls-23" d="M1997.52,240.67l13.59,20.87s51.22-.29,49.55-.13c-2.46-9.4-10.4-20.25-15.37-24.35l-47.77,3.6Z"/>
          <path class="cls-36" d="M2018.68,273.92l-11.97.11-29.42-42.28c4.62-.32,9.28-.64,13.87-.96l27.51,43.13Z"/>
          <path class="cls-35" d="M1923.86,245.4l-21.34,7.81c-2.6.95-2.96,4.48-.61,5.94l19.27,9.92c.69.43,1.51.59,2.3.45l23.4-2.89c2.93-.49,3.79-4.3,1.34-6l-21.33-14.84c-.89-.62-2.02-.76-3.04-.39Z"/>
          <path class="cls-22" d="M1865,138.89c-24.48-6.72-48.96-13.44-73.44-20.16-104.89,33.48-148.79,42.4-237.93,38.99,32.97-2.61,67.16-6.98,107.77-15.2,24.84-5.02,49.89-10.73,72.79-21.08,7.41-3.34,14.6-7.18,21.49-11.63.42-.27.84-.54,1.26-.82.47-.69.94-1.38,3.27-4.83,37.25,2.22,73.87,14.05,104.79,34.71Z"/>
          <path class="cls-41" d="M1419.09,321.73c-24.96,34.84-42.56,76.07-50.72,117.23l-726.22,30.07c.03-11.39-.85-43.72-13.36-80.47l76.72-54.83,713.58-11.99Z"/>
          <path class="cls-40" d="M787.81,185.15c-9.36,7.46-30.07,24.08-43.61,39.36-2.12,39.22-2.43,78.54-.64,117.76,10.8,49.67,30.38,95.24,48.23,135.81l376.76-15.63c10.31-6.69,19.7-12.67,28.76-19.5,42.13-42.29,142.33-124.32,142.2-195.94-5.56-25.97-26.51-60.47-60.86-75.67,0,0-3.94-1.34-8.65.02,37.48,16.58,60.96,48,66.8,75.8-.07,64.91-94.89,148.16-141.82,195.26-13.19,9.18-26.31,15.88-26.31,15.88l-374.74,17.53s-38.3-79.12-46.51-133.39c-1.02-12.79-4.58-79.15,2.08-116.1,14.53-20.78,33.56-32.91,55.97-44.78-5.06.32-11.33-1.45-17.66,3.6Z"/>
        </g>
      </g>
    </g>
  </g>
</svg>