<svg xmlns="http://www.w3.org/2000/svg" width="110" height="40" viewBox="0 0 3215 692" fill="none">
    <g clip-path="url(#clip0_2002_46)">
        <path d="M1156.49 0L599 680H1438.38L1342.44 564.677H831.622L1085.16 255.413L1154.18 171.228L1156.51 168.41L1474.17 555.889L1577.43 680H1714L1156.49 0Z" fill="#C93C56"/>
        <path d="M1021.28 3.17773L925.498 118.44H0.681885V3.17773H1021.28Z" fill="#183441"/>
        <path d="M787.636 284.293L691.85 399.555H-0.219727V284.293H787.636Z" fill="#183441"/>
        <path d="M554.855 564.376L459.07 679.638H-0.219727V564.376H554.855Z" fill="#183441"/>
        <path d="M2181.67 342H2137.98L1997 687.255H2037.92L2063.58 624.102L2064.78 621.136L2083.22 575.185L2087.56 564.466L2159.57 386.044L2229.5 559.402L2235.89 575.185H2235.87L2254.29 620.966L2255.56 624.123L2281.22 687.276H2322.16L2181.69 342.021L2181.67 342Z" fill="#C93C56"/>
        <path d="M2606.87 414.051V562.665C2606.87 595.015 2598.21 619.547 2580.88 636.22C2563.56 652.893 2540.34 661.219 2511.21 661.219C2482.09 661.219 2460.43 653.38 2444.02 637.703C2427.61 622.026 2419.41 599.358 2419.41 569.656V414.03H2381.25V573.66C2381.25 612.005 2392.68 641.283 2415.53 661.473C2438.38 681.641 2467.88 691.725 2504 691.725C2526.85 691.725 2547.5 687.255 2565.92 678.23C2584.35 669.226 2598.02 656.198 2606.85 639.207V687.255H2645.55V414.051H2606.85H2606.87Z" fill="#C93C56"/>
        <path d="M2867.32 443.562V414.051H2784.38V345.496H2745.12V613.192C2745.12 639.525 2751.76 658.464 2765.01 669.947C2778.29 681.472 2798.59 687.234 2825.86 687.234H2867.32V657.193H2831.95C2814.25 657.193 2801.91 654.037 2794.86 647.702C2787.86 641.368 2784.38 629.843 2784.38 613.171V443.52H2867.32V443.562Z" fill="#C93C56"/>
        <path d="M3195.5 476.356C3182.41 455.171 3164.34 438.837 3141.3 427.313C3118.27 415.83 3092.54 410.047 3064.19 410.047C3035.84 410.047 3010.15 415.83 2987.33 427.313C2964.45 438.837 2946.38 455.171 2933.13 476.356C2919.86 497.542 2913.21 522.307 2913.21 550.653C2913.21 578.999 2919.74 603.785 2932.83 624.97C2945.91 646.156 2963.82 662.489 2986.46 673.993C3009.12 685.518 3034.64 691.259 3063.06 691.259C3091.49 691.259 3117.24 685.518 3140.46 673.993C3163.66 662.511 3181.92 646.071 3195.17 624.716C3208.45 603.383 3215.1 578.702 3215.1 550.653C3215.1 522.604 3208.57 497.542 3195.48 476.356H3195.5ZM3159.57 611.454C3149.05 627.979 3135.31 640.33 3118.36 648.486C3101.41 656.685 3082.99 660.731 3063.09 660.731C3043.19 660.731 3024.83 656.664 3008.07 648.486C2991.28 640.33 2977.82 627.979 2967.66 611.454C2957.55 594.951 2952.47 574.698 2952.47 550.653C2952.47 526.608 2957.55 506.376 2967.66 489.851C2977.82 473.348 2991.35 461.018 3008.33 452.862C3025.28 444.663 3043.7 440.575 3063.63 440.575C3083.55 440.575 3101.95 444.663 3118.9 452.862C3135.85 461.018 3149.5 473.369 3159.82 489.851C3170.15 506.376 3175.32 526.65 3175.32 550.653C3175.32 574.656 3170.05 594.951 3159.57 611.454Z" fill="#C93C56"/>
        <path d="M2031.55 70.0186V280.589H1966.98V253.988C1958.74 263.112 1947.97 270.273 1934.69 275.455C1921.41 280.637 1906.98 283.244 1891.41 283.244C1871.55 283.244 1854 279.768 1838.74 272.8C1823.48 265.832 1811.5 255.565 1802.79 242.015C1794.09 228.465 1789.74 212.308 1789.74 193.56V70.0347H1853.87V185.965C1853.87 202.685 1858.91 215.559 1868.97 224.538C1879.06 233.534 1892.79 238.024 1910.2 238.024C1927.61 238.024 1941.81 233.534 1951.87 224.538C1961.96 215.543 1966.98 202.685 1966.98 185.965V70.0347H2031.55V70.0186Z" fill="#183441"/>
        <path d="M2191.16 76.4877C2204.44 70.1633 2219.62 66.9932 2236.73 66.9932V122.866H2219.78C2199.63 122.866 2184.43 126.793 2174.21 134.646C2163.97 142.499 2158.87 156.194 2158.87 175.698V280.605H2094.75V70.0347H2158.87V102.718C2167.11 91.5664 2177.88 82.8281 2191.16 76.4877Z" fill="#183441"/>
        <path d="M2278.63 117.91C2288.85 101.447 2302.76 88.7662 2320.31 79.8992C2337.86 71.0323 2357.48 66.5908 2379.16 66.5908C2398.08 66.5908 2414.66 69.761 2428.86 76.0853C2443.05 82.4258 2454.42 90.4076 2462.99 100.031V70.0024H2527.56V280.572H2462.99V249.788C2454.75 259.668 2443.36 267.843 2428.86 274.296C2414.35 280.766 2397.64 283.984 2378.71 283.984C2357.34 283.984 2337.87 279.43 2320.33 270.305C2302.76 261.181 2288.87 248.323 2278.65 231.732C2268.42 215.14 2263.32 196.071 2263.32 174.523C2263.32 152.975 2268.42 134.372 2278.65 117.894L2278.63 117.91ZM2453.81 142.048C2447.71 132.795 2439.47 125.698 2429.09 120.758C2418.7 115.818 2407.57 113.339 2395.66 113.339C2383.75 113.339 2372.76 115.753 2362.7 120.565C2352.61 125.377 2344.45 132.409 2338.18 141.662C2331.92 150.915 2328.8 161.874 2328.8 174.539C2328.8 187.204 2331.92 198.292 2338.18 207.802C2344.43 217.297 2352.69 224.587 2362.91 229.656C2373.13 234.725 2384.05 237.252 2395.66 237.252C2407.28 237.252 2418.72 234.773 2429.09 229.833C2439.47 224.893 2447.71 217.796 2453.81 208.542C2459.92 199.289 2462.97 188.202 2462.97 175.279C2462.97 162.357 2459.9 151.269 2453.81 142.016V142.048Z" fill="#183441"/>
        <path d="M2631.5 274.699C2615.01 268.487 2601.96 260.071 2592.35 249.417C2582.73 238.78 2577.45 226.984 2576.54 214.078H2641.12C2642.34 222.189 2647.15 228.9 2655.54 234.226C2663.94 239.553 2674.39 242.208 2686.92 242.208C2699.44 242.208 2708.67 240.18 2715.54 236.125C2722.4 232.07 2725.84 226.872 2725.84 220.548C2725.84 213.708 2721.63 208.575 2713.23 205.147C2704.84 201.719 2691.47 197.986 2673.15 193.931C2654.2 190.133 2638.71 186.206 2626.67 182.151C2614.61 178.096 2604.23 171.884 2595.53 163.532C2586.82 155.164 2582.48 143.899 2582.48 129.705C2582.48 118.055 2586.51 107.417 2594.62 97.7781C2602.7 88.1548 2614.32 80.5429 2629.42 74.9749C2644.53 69.4069 2662.31 66.6069 2682.77 66.6069C2713 66.6069 2737.1 72.883 2755.14 85.419C2773.15 97.9551 2783.08 114.868 2784.9 136.159H2723.53C2722.62 127.79 2718.41 121.144 2710.94 116.204C2703.46 111.263 2693.45 108.785 2680.95 108.785C2669.33 108.785 2660.41 110.555 2654.15 114.112C2647.88 117.668 2644.76 122.609 2644.76 128.933C2644.76 136.03 2649.03 141.421 2657.58 145.09C2666.13 148.759 2679.41 152.509 2697.43 156.306C2715.75 160.104 2730.86 164.031 2742.76 168.086C2754.67 172.141 2764.97 178.417 2773.67 186.898C2782.38 195.395 2786.88 206.611 2787.19 220.531C2787.19 232.697 2783.14 243.592 2775.05 253.215C2766.97 262.855 2755.35 270.386 2740.24 275.825C2725.14 281.264 2707.49 284 2687.34 284C2667.2 284 2647.96 280.894 2631.46 274.683L2631.5 274.699Z" fill="#183441"/>
        <path d="M2904 70.0186V280.589H2839.88V70.0186H2904Z" fill="#183441"/>
        <path d="M2966.07 117.91C2976.29 101.447 2990.2 88.7662 3007.75 79.8992C3025.3 71.0323 3044.92 66.5908 3066.6 66.5908C3085.52 66.5908 3102.1 69.761 3116.3 76.0853C3130.49 82.4258 3141.86 90.4076 3150.43 100.031V70.0024H3215V280.572H3150.43V249.788C3142.19 259.668 3130.8 267.843 3116.3 274.296C3101.79 280.766 3085.08 283.984 3066.15 283.984C3044.78 283.984 3025.32 279.43 3007.77 270.305C2990.2 261.181 2976.31 248.323 2966.09 231.732C2955.86 215.14 2950.76 196.071 2950.76 174.523C2950.76 152.975 2955.86 134.372 2966.09 117.894L2966.07 117.91ZM3141.26 142.048C3135.15 132.795 3126.91 125.698 3116.53 120.758C3106.14 115.818 3095.01 113.339 3083.1 113.339C3071.19 113.339 3060.2 115.753 3050.14 120.565C3040.05 125.377 3031.89 132.409 3025.63 141.662C3019.36 150.915 3016.24 161.874 3016.24 174.539C3016.24 187.204 3019.36 198.292 3025.63 207.802C3031.87 217.297 3040.13 224.587 3050.35 229.656C3060.57 234.725 3071.49 237.252 3083.1 237.252C3094.72 237.252 3106.16 234.773 3116.53 229.833C3126.91 224.893 3135.15 217.796 3141.26 208.542C3147.36 199.289 3150.41 188.202 3150.41 175.279C3150.41 162.357 3147.34 151.269 3141.26 142.016V142.048Z" fill="#183441"/>
        <path d="M1723.52 53.588V0L1475 0V53.588L1723.52 53.588Z" fill="#183441"/>
        <path d="M1723.52 167.088V113.5H1539.58H1475V167.088V227V280.588H1539.58H1723.52V227H1539.58V167.088H1723.52Z" fill="#183441"/>
        <path d="M2904.02 27.8721H2839.9V57.965H2904.02V27.8721Z" fill="#C93C56"/>
        <path d="M1156.49 0L599 680H1438.38L1342.44 564.677H831.622L1085.16 255.413L1154.18 171.228L1156.51 168.41L1474.17 555.889L1577.43 680H1714L1156.49 0Z" fill="#C93C56"/>
        <path d="M1021.28 3.17773L925.498 118.44H0.681885V3.17773H1021.28Z" fill="#183441"/>
        <path d="M787.636 284.293L691.85 399.555H-0.219727V284.293H787.636Z" fill="#183441"/>
        <path d="M554.855 564.376L459.07 679.638H-0.219727V564.376H554.855Z" fill="#183441"/>
    </g>
    <defs>
        <clipPath id="clip0_2002_46">
            <rect width="3215" height="692" fill="white"/>
        </clipPath>
    </defs>
</svg>
