<svg xmlns="http://www.w3.org/2000/svg" xmlns:xlink="http://www.w3.org/1999/xlink" viewBox="0 0 199.05 57.14">
    <defs>
        <style>
            .cls-1 {
            fill: url(#Gradiente_sem_nome_2-2);
            }

            .cls-1, .cls-2, .cls-3 {
            mix-blend-mode: overlay;
            }

            .cls-4 {
            fill: #fff;
            }

            .cls-5 {
            fill: #012041;
            }

            .cls-6 {
            isolation: isolate;
            }

            .cls-2 {
            fill: url(#Gradiente_sem_nome_2);
            }

            .cls-3 {
            fill: url(#Gradiente_sem_nome_2-3);
            }
        </style>
        <linearGradient id="Gradiente_sem_nome_2" data-name="Gradiente sem nome 2" x1="99.53" y1="-2.63" x2="99.53" y2="52.77" gradientUnits="userSpaceOnUse">
            <stop offset="0" stop-color="#fff"/>
            <stop offset="1" stop-color="#000"/>
        </linearGradient>
        <linearGradient id="Gradiente_sem_nome_2-2" data-name="Gradiente sem nome 2" x1="41.19" y1="-2.63" x2="41.19" y2="52.77" xlink:href="#Gradiente_sem_nome_2"/>
        <linearGradient id="Gradiente_sem_nome_2-3" data-name="Gradiente sem nome 2" x1="163.76" y1="-2.63" x2="163.76" y2="52.77" xlink:href="#Gradiente_sem_nome_2"/>
    </defs>
    <g class="cls-6">
        <g id="Layer_2" data-name="Layer 2">
            <g id="OBJECTS">
                <g>
                    <path class="cls-5" d="M198.56,34.56c.55-1.34,0-2.52,0-2.52,0,0,.71-4.86.42-7.84,0,0-2.06-4.32-4.32-6.92,0,0-.58-1.51.34-2.52,0,0,.92-.92,1.13-1.51l-.8-1.01s-1.56-.29-4.78.42c0,0-2.64-.29-5.58.5,0,0-17.24-5.03-34.43-9.14C133.34-.09,110.03-1.5,93.99,1.93c-11.2,2.39-29.7,12.92-29.7,12.92,0,0-17.87.17-34.31,3.27C13.55,21.22,1.72,29.19,1.72,29.19c0,0-.27.14-.21.8l.39.71c0,.07-.01.15-.02.23h-.62c-.14,0-.25.11-.25.25s.11.25.25.25h.58c-.02.26-.04.54-.06.85H.75c-.14,0-.25.11-.25.25s.11.25.25.25h1c-.01.27-.02.56-.03.85H.25c-.14,0-.25.11-.25.25s.11.25.25.25h1.47c0,.28,0,.56,0,.85h-.98c-.14,0-.25.11-.25.25s.11.25.25.25h1c.01.29.03.57.06.85h-.55c-.14,0-.25.11-.25.25s.11.25.25.25h.61c.02.14.04.28.07.41,0,0,0,0-.01,0,0,0-1.01.44-1.2.79l.72,2.8h1.92l.25,3.12-1.38.44-.69,4.37s-.32,1.13,3.24,1.76c0,0,8.35.8,19.76.38,0,0-3.15-10.44,2.2-18.62,5.83-8.93,22.9-11.13,28.75-.88,5.85,10.26,2.14,18.56,2.14,18.56l89.72-1.83s-1.89-9.94,1.83-16.04c3.71-6.11,12.71-12.52,23.46-6.23,10.76,6.29,7.3,20.05,7.3,20.05,0,0,6.67-.13,8.05-.63.34-.13,1.13-.76,2.12-1.66l2.69-.17,3.4-2.36h-3.45c.43-.43.87-.88,1.3-1.32h3.06l1.76-4.22h-.98c.35-.44.58-.78.66-.97Z"/>
                    <path class="cls-4" d="M4.15,29.99s10.36-5.45,23.07-8.56c0,0-3.44,4.57-7.76,6.12s-15.31,2.43-15.31,2.43Z"/>
                    <path class="cls-4" d="M70.17,25.21s.17.14.27,2.05-.59,2.24-.59,2.24l-6.82.4s-2.46-.59-4.55-3.19c0,0-.58-.82.44-.88s11.24-.62,11.24-.62Z"/>
                    <polygon class="cls-4" points="144.49 47.06 128.64 46.05 61.45 49.07 129.06 44.2 144.49 47.06"/>
                    <path class="cls-4" d="M194.11,17.42l-8.58,2.39s-.84.23,0,1.26c.84,1.03,1.28,1.34,1.93,1.76s2.26.82,4.24.76c1.97-.06,6.38-.19,6.38-.19l-1.34-2.35s-1.51-.02-2.71-.27c-1.2-.25-2.24-1.43-2.24-1.43l3.06-.86-.73-1.07Z"/>
                    <path class="cls-4" d="M131.4,3.71l-3.25,10.87c-2.95.33-5.84.59-8.49.75-8.31.49-22.9.94-33.23,1.22l.99-.75c2.3.19,5.51-.5,5.51-.5.53-.41,1.16-1.51.79-3.81-.38-2.3-3.15-2.61-4.09-2.36-.95.25-3.46,1.29-4.22,2.49-.75,1.2-.5,3.37-.5,3.37l-4.82,1.73c-3.4.09-5.53.13-5.53.13,5.91-4.91,20.57-13.34,39.64-14.14,5.71-.24,11.67.23,17.21,1.02Z"/>
                    <path class="cls-4" d="M155.02,9.04l-.82,1.64s-12.26,2.27-24.21,3.69l3.06-10.41c12.19,1.88,21.97,5.08,21.97,5.08Z"/>
                    <path class="cls-4" d="M64.58,15.04s5.17,1.07,11.46-1.83c6.29-2.9,18.08-8.48,22.44-10.07,0,0-2.31-.61-4.66-.78,0,0-9.3,1.57-29.24,12.68Z"/>
                    <circle class="cls-5" cx="41.19" cy="41.81" r="15.34"/>
                    <path class="cls-4" d="M42.66,41.85c0,.84-.68,1.53-1.53,1.53s-1.53-.68-1.53-1.53.68-1.53,1.53-1.53,1.53.68,1.53,1.53Z"/>
                    <polygon class="cls-4" points="41.13 40.33 40.76 38.16 37.59 30.17 38.35 29.97 41.13 37.77 41.13 40.33"/>
                    <polygon class="cls-4" points="41.13 40.33 41.5 38.16 44.67 30.17 43.91 29.97 41.13 37.77 41.13 40.33"/>
                    <polygon class="cls-4" points="42.81 41.31 44.71 40.21 51.1 34.47 51.56 35.1 45.21 40.42 42.81 41.31"/>
                    <polygon class="cls-4" points="42.81 41.31 44.97 40.91 53.56 41.1 53.49 40.32 45.21 40.42 42.81 41.31"/>
                    <polygon class="cls-4" points="42.26 43.02 43.84 44.53 51.13 49.08 50.65 49.7 43.77 45.07 42.26 43.02"/>
                    <polygon class="cls-4" points="42.26 43.02 43.24 44.98 45.44 53.29 46.17 53.01 43.77 45.07 42.26 43.02"/>
                    <polygon class="cls-4" points="40.32 43.22 39.45 45.23 37.71 53.65 36.96 53.41 38.92 45.36 40.32 43.22"/>
                    <polygon class="cls-4" points="40.32 43.22 38.82 44.83 31.79 49.77 32.31 50.36 38.92 45.36 40.32 43.22"/>
                    <polygon class="cls-4" points="39.56 41.43 37.38 41.21 28.83 42.13 28.83 41.35 37.09 40.74 39.56 41.43"/>
                    <polygon class="cls-4" points="39.56 41.43 37.58 40.49 30.72 35.31 30.32 35.98 37.09 40.74 39.56 41.43"/>
                    <path class="cls-4" d="M43.19,39.38c0,.23-.19.42-.42.42s-.42-.19-.42-.42.19-.42.42-.42.42.19.42.42Z"/>
                    <path class="cls-4" d="M44.43,42.55c0,.23-.19.42-.42.42s-.42-.19-.42-.42.19-.42.42-.42.42.19.42.42Z"/>
                    <circle class="cls-4" cx="41.38" cy="44.73" r=".42"/>
                    <path class="cls-4" d="M38.94,42.8c0,.23-.19.42-.42.42s-.42-.19-.42-.42.19-.42.42-.42.42.19.42.42Z"/>
                    <path class="cls-4" d="M39.79,39.38c0,.23-.19.42-.42.42s-.42-.19-.42-.42.19-.42.42-.42.42.19.42.42Z"/>
                    <circle class="cls-5" cx="163.76" cy="41.81" r="15.34"/>
                    <path class="cls-2" d="M198.56,34.56c.55-1.34,0-2.52,0-2.52,0,0,.71-4.86.42-7.84,0,0-2.06-4.32-4.32-6.92,0,0-.58-1.51.34-2.52,0,0,.92-.92,1.13-1.51l-.8-1.01s-1.56-.29-4.78.42c0,0-2.64-.29-5.58.5,0,0-17.24-5.03-34.43-9.14C133.34-.09,110.03-1.5,93.99,1.93c-11.2,2.39-29.7,12.92-29.7,12.92,0,0-17.87.17-34.31,3.27C13.55,21.22,1.72,29.19,1.72,29.19c0,0-.27.14-.21.8l.39.71c0,.07-.01.15-.02.23h-.62c-.14,0-.25.11-.25.25s.11.25.25.25h.58c-.02.26-.04.54-.06.85H.75c-.14,0-.25.11-.25.25s.11.25.25.25h1c-.01.27-.02.56-.03.85H.25c-.14,0-.25.11-.25.25s.11.25.25.25h1.47c0,.28,0,.56,0,.85h-.98c-.14,0-.25.11-.25.25s.11.25.25.25h1c.01.29.03.57.06.85h-.55c-.14,0-.25.11-.25.25s.11.25.25.25h.61c.02.14.04.28.07.41,0,0,0,0-.01,0,0,0-1.01.44-1.2.79l.72,2.8h1.92l.25,3.12-1.38.44-.69,4.37s-.32,1.13,3.24,1.76c0,0,8.35.8,19.76.38,0,0-3.15-10.44,2.2-18.62,5.83-8.93,22.9-11.13,28.75-.88,5.85,10.26,2.14,18.56,2.14,18.56l89.72-1.83s-1.89-9.94,1.83-16.04c3.71-6.11,12.71-12.52,23.46-6.23,10.76,6.29,7.3,20.05,7.3,20.05,0,0,6.67-.13,8.05-.63.34-.13,1.13-.76,2.12-1.66l2.69-.17,3.4-2.36h-3.45c.43-.43.87-.88,1.3-1.32h3.06l1.76-4.22h-.98c.35-.44.58-.78.66-.97Z"/>
                    <circle class="cls-1" cx="41.19" cy="41.81" r="15.34"/>
                    <circle class="cls-3" cx="163.76" cy="41.81" r="15.34"/>
                    <path class="cls-4" d="M165.22,41.85c0,.84-.68,1.53-1.53,1.53s-1.53-.68-1.53-1.53.68-1.53,1.53-1.53,1.53.68,1.53,1.53Z"/>
                    <polygon class="cls-4" points="163.7 40.33 163.33 38.16 160.16 30.17 160.91 29.97 163.7 37.77 163.7 40.33"/>
                    <polygon class="cls-4" points="163.7 40.33 164.07 38.16 167.24 30.17 166.48 29.97 163.7 37.77 163.7 40.33"/>
                    <polygon class="cls-4" points="165.38 41.31 167.28 40.21 173.67 34.47 174.13 35.1 167.78 40.42 165.38 41.31"/>
                    <polygon class="cls-4" points="165.38 41.31 167.53 40.91 176.13 41.1 176.06 40.32 167.78 40.42 165.38 41.31"/>
                    <polygon class="cls-4" points="164.82 43.02 166.41 44.53 173.7 49.08 173.22 49.7 166.34 45.07 164.82 43.02"/>
                    <polygon class="cls-4" points="164.82 43.02 165.81 44.98 168 53.29 168.74 53.01 166.34 45.07 164.82 43.02"/>
                    <polygon class="cls-4" points="162.89 43.22 162.01 45.23 160.28 53.65 159.53 53.41 161.48 45.36 162.89 43.22"/>
                    <polygon class="cls-4" points="162.89 43.22 161.39 44.83 154.36 49.77 154.88 50.36 161.48 45.36 162.89 43.22"/>
                    <polygon class="cls-4" points="162.12 41.43 159.94 41.21 151.4 42.13 151.4 41.35 159.66 40.74 162.12 41.43"/>
                    <polygon class="cls-4" points="162.12 41.43 160.14 40.49 153.29 35.31 152.88 35.98 159.66 40.74 162.12 41.43"/>
                    <path class="cls-4" d="M165.76,39.38c0,.23-.19.42-.42.42s-.42-.19-.42-.42.19-.42.42-.42.42.19.42.42Z"/>
                    <path class="cls-4" d="M167,42.55c0,.23-.19.42-.42.42s-.42-.19-.42-.42.19-.42.42-.42.42.19.42.42Z"/>
                    <circle class="cls-4" cx="163.95" cy="44.73" r=".42"/>
                    <path class="cls-4" d="M161.5,42.8c0,.23-.19.42-.42.42s-.42-.19-.42-.42.19-.42.42-.42.42.19.42.42Z"/>
                    <path class="cls-4" d="M162.35,39.38c0,.23-.19.42-.42.42s-.42-.19-.42-.42.19-.42.42-.42.42.19.42.42Z"/>
                    <path class="cls-4" d="M83.38,25.12l-26.89,1.72s.04.76,1.05,1.22l26.3-1.97s.76-1.04-.46-.96Z"/>
                    <polygon class="cls-4" points="3.88 40.93 5.58 40.93 4.93 44.41 4.13 44.41 3.88 40.93"/>
                </g>
            </g>
        </g>
    </g>
</svg>
