<svg xmlns="http://www.w3.org/2000/svg" id="Layer_1" version="1.1" viewBox="0 0 595.3 841.9">
  <!-- Generator: Adobe Illustrator 29.1.0, SVG Export Plug-In . SVG Version: 2.1.0 Build 142)  -->
  <defs>
    <style>
      .st0 {
      fill: #ffffff;
      }

      .st1 {
      fill: #ffffff;
      }

      .st2 {
      fill: #000;
      }

      .st3 {
      fill: #000;
      }

      .st4 {
      fill: #ffffff;
      }

      .st5 {
      fill: #000;
      }

      .st6 {
      fill: #fbcccd;
      }
    </style>
  </defs>
  <polygon class="st2" points="127.5 464.9 127.5 464.9 181.1 474.4 218.4 469.5 358.2 466.3 397.2 470.3 433.1 462.5 449.5 430.3 418.7 407.1 152.3 415.1 132.4 440.6 127.5 464.9"/>
  <path class="st1" d="M226.8,407l130.4-3.7s35.3,6.1,87.4-1.8l21.7-10.5,5.2,2.1c-1-3.6-3.4-6.9-3.4-6.9l-5.9-.6-9.3-27.2,5.2-1.8,3.2-.8-2.1-3.2s-43.4-3.2-99.7-2.1c-55.9,1.2-83,3.8-97.1,9.3-1,.4-2.2,1-3.4,1.6l3.7,1.4-2.8,1.6c-10.9,7.1-33.4,27.4-33.4,27.4h-6.4s-36.5,2.7-64.7,6.5c-27.4,3.7-29.9,8.3-31.8,12.6l21.2-3.5,5.1,3.4c19.5,2.1,38.6,1.5,76.9-3.6Z"/>
  <path class="st4" d="M444.6,401.5c-52.1,7.9-87.4,1.8-87.4,1.8l-130.4,3.7c-38.3,5.1-57.4,5.7-76.9,3.6,0,0-8.5,9.8-9.7,9.8s-3.2.1-6.7.2l-8.3,22.9h-6c-.1,1.6-.3,2.9-.3,3.8-.5,5.8,0,10,1.8,13.8,1.8,3.8,4.1,6.1,4.1,6.1l20.6,1.4s0-9.9,0-16.2c0-6.9,5.9-16.1,10.5-22.2,3.1-4,7.8-6.4,12.8-6.5l22.4-.6c5.4-.1,10.6,2.2,14,6.4,3.8,4.7,8.2,11.3,9.6,17.5,2.6,11.5,3.5,25.7,3.5,25.7l137.8-3.2s2-23.2,7-33.1c2.1-4.2,4-7.2,7.1-10.4,3.1-3.2,8.4-7,15.8-7.1,5.3,0,11.6,0,19.3-.3,6.5-.2,12.8,2.8,16.7,8,3.3,4.4,6.8,9.8,8,14,2.3,8.8,3.2,21.8,3.2,21.8l39.8-10.5c2.9-.8,4.8-3.3,4.8-6.3v-8.2c0-1.9-1.5-3.4-3.4-3.3h-1.1s-.5-15.7-.9-27.1h-25.4l-2.3-5.7Z"/>
  <circle class="st0" cx="179.1" cy="462.5" r="29.2" transform="translate(-201.7 144.8) rotate(-29)"/>
  <g>
    <circle class="st2" cx="179.1" cy="462.5" r="19" transform="translate(-293.7 312.4) rotate(-51.2)"/>
    <path class="st6" d="M179.1,482.5c-11,0-20-9-20-20s9-20,20-20,20,9,20,20-9,20-20,20ZM179.1,444.5c-9.9,0-18,8.1-18,18s8.1,18,18,18,18-8.1,18-18-8.1-18-18-18Z"/>
  </g>
  <polygon class="st6" points="179.1 463.6 176.3 443.7 177.9 443.4 179.1 452.2 180.3 443.4 181.9 443.7 179.1 463.6"/>
  <polygon class="st6" points="178.5 461.7 166 448.7 166.7 448 174.2 455.9 169.1 446.2 170 445.8 178.5 461.7"/>
  <polygon class="st6" points="180.1 462.9 160.3 459.3 160.5 457.8 169.3 459.3 161.3 455.5 162 454.1 180.1 462.9"/>
  <polygon class="st6" points="161.9 470.7 161.4 469.9 171.3 465.1 160.5 467 160.3 466 178.1 462.9 161.9 470.7"/>
  <polygon class="st6" points="170.2 479.4 168.9 478.7 173 470.9 166.9 477.3 165.7 476.2 179.7 461.7 170.2 479.4"/>
  <polygon class="st6" points="180.6 481.6 179.1 470.8 177.6 481.6 176.6 481.5 179.1 463.6 181.6 481.5 180.6 481.6"/>
  <polygon class="st6" points="187.9 479.4 178.5 461.7 192.4 476.2 191.3 477.3 185.2 470.9 189.3 478.7 187.9 479.4"/>
  <polygon class="st6" points="196.3 470.7 180.1 462.9 197.9 466 197.7 467 186.9 465.1 196.7 469.9 196.3 470.7"/>
  <polygon class="st6" points="178.1 462.9 196.2 454.1 196.9 455.5 188.9 459.3 197.6 457.8 197.9 459.3 178.1 462.9"/>
  <polygon class="st6" points="179.7 461.7 188.2 445.8 189.1 446.2 183.9 455.9 191.5 448 192.2 448.7 179.7 461.7"/>
  <path class="st6" d="M185.1,462.5c0-3.3-2.7-6-6-6s-6,2.7-6,6,2.7,6,6,6,6-2.7,6-6Z"/>
  <circle class="st0" cx="395.2" cy="462.5" r="29.2" transform="translate(-211.3 414.9) rotate(-45)"/>
  <g>
    <circle class="st2" cx="395.2" cy="462.5" r="19" transform="translate(-211.3 414.9) rotate(-45)"/>
    <path class="st6" d="M395.2,482.5c-11,0-20-9-20-20s9-20,20-20,20,9,20,20-9,20-20,20ZM395.2,444.5c-9.9,0-18,8.1-18,18s8.1,18,18,18,18-8.1,18-18-8.1-18-18-18Z"/>
  </g>
  <polygon class="st6" points="395.2 463.6 392.4 443.7 394 443.4 395.2 452.2 396.4 443.4 398 443.7 395.2 463.6"/>
  <polygon class="st6" points="394.6 461.7 382.1 448.7 382.8 448 390.3 455.9 385.2 446.2 386.1 445.8 394.6 461.7"/>
  <polygon class="st6" points="396.2 462.9 376.4 459.3 376.7 457.8 385.4 459.3 377.4 455.5 378.1 454.1 396.2 462.9"/>
  <polygon class="st6" points="378 470.7 377.5 469.9 387.4 465.1 376.6 467 376.4 466 394.2 462.9 378 470.7"/>
  <polygon class="st6" points="386.3 479.4 385 478.7 389.1 470.9 383 477.3 381.8 476.2 395.8 461.7 386.3 479.4"/>
  <polygon class="st6" points="396.7 481.6 395.2 470.8 393.7 481.6 392.7 481.5 395.2 463.6 397.7 481.5 396.7 481.6"/>
  <polygon class="st6" points="404 479.4 394.6 461.7 408.5 476.2 407.4 477.3 401.3 470.9 405.4 478.7 404 479.4"/>
  <polygon class="st6" points="412.4 470.7 396.2 462.9 414 466 413.8 467 403 465.1 412.8 469.9 412.4 470.7"/>
  <polygon class="st6" points="394.2 462.9 412.3 454.1 413 455.5 405 459.3 413.7 457.8 414 459.3 394.2 462.9"/>
  <polygon class="st6" points="395.8 461.7 404.3 445.8 405.2 446.2 400 455.9 407.6 448 408.3 448.7 395.8 461.7"/>
  <path class="st6" d="M401.2,462.5c0-3.3-2.7-6-6-6s-6,2.7-6,6,2.7,6,6,6,6-2.7,6-6Z"/>
  <path class="st1" d="M225.9,445.9l123.1-3s-3.7-3-14.6-2.8c-10.9.3-87,2.1-92.3,2.2-5.3.1-16.2,3.5-16.2,3.5Z"/>
  <path class="st6" d="M259.9,364.3l2.8-1.6-3.7-1.4c-14.8,7.8-38.9,30.4-38.9,30.4h6.4s22.5-20.3,33.4-27.4Z"/>
  <path class="st0" d="M306.4,359.2l-5.4,35.9,15.1-.5,1.9-36.1c-4.1.2-7.9.5-11.6.7Z"/>
  <path class="st3" d="M442,378.5l-3.8-15.7c-.5-2.3-2.5-3.9-4.9-4.1-8.2-.4-28.2-1.4-50.1-1.7l10.8,34.4,45-8.4c2.2-.4,3.5-2.5,3-4.7Z"/>
  <path class="st0" d="M442,378.5l-3.8-15.7c-.5-2.3-2.5-3.9-4.9-4.1-3.3-.2-4.5-.3-11-.5l9.1,1.9c.9.2,1.6.9,1.8,1.7l4.7,17.9c.3,1-.3,2-1.2,2.3l-8.3,3,10.6-2c2.2-.4,3.5-2.5,3-4.7Z"/>
  <path class="st0" d="M372.6,357l8.6,35.4,9.6-.3,3.2-.6-10.8-34.4c-3.5,0-7.1,0-10.6,0Z"/>
  <path class="st3" d="M363.1,357.1c-15.8.1-31.6.7-45.2,1.4l-1.9,36.1,65.2-2.1-8.6-35.4c-3.2,0-6.3,0-9.5,0Z"/>
  <polygon class="st6" points="462.2 385.5 468.1 386.2 458 356.5 452.9 358.3 462.2 385.5"/>
  <path class="st0" d="M144.8,407.2l-21.2,3.5c0,.1-.1.2-.2.3-.3.7-.6,1.8-.9,3.3l27.3-3.8-5.1-3.4Z"/>
  <path class="st6" d="M149.9,410.6l-27.3,3.8c-.4,1.8-.7,4.2-1.1,6.8,7.3-.3,17.8-.7,18.6-.7,1.3,0,9.7-9.8,9.7-9.8Z"/>
  <path class="st1" d="M133.4,420.7c-3.7.1-8.2.3-11.9.5-1,7.3-1.9,16.7-2.4,22.4h6l8.3-22.9Z"/>
  <path class="st6" d="M445.9,401.5h-1.3l2.3,5.7h25.4c0-2.4-.1-4.6-.2-6.4l-26.2.7Z"/>
  <path class="st0" d="M472.1,400.8c0-1.1,0-2,0-2.8,0-.8,0-1.4,0-1.8,0-1-.2-2.1-.5-3.1l-5.2-2.1-21.7,10.5h1.3l26.2-.7Z"/>
  <path class="st0" d="M229.7,397.4l12.8-.4v-12.1c-6.4,6.1-12.8,12.5-12.8,12.5Z"/>
  <path class="st3" d="M306.4,359.2c-11.9.8-21.2,1.8-26,2.7-11.1,2.1-21.2,8.6-27.6,13.8-2.4,2-6.3,5.5-10.2,9.3v12.1l58.5-1.9,5.4-35.9Z"/>
  <path class="st5" d="M239.9,392.2c0,3,2,2.3,1.8,3.3-.3,1.1-.6,1.7-.6,1.7l4.1-.5v-1.3s8.5.6,8.5-6.1-.3-9.6-4.4-9.6c-9,0-9.3,9-9.3,12.6Z"/>
  <path class="st1" d="M305.7,405.1c0,2-1.7,3.7-8.1,3.7s-8.1-1.7-8.1-3.7,1.5-3.7,8.1-3.7,8.1,1.7,8.1,3.7Z"/>
  <rect class="st4" x="290.5" y="403.9" width="14.2" height="2.4" rx=".7" ry=".7"/>
  <path class="st1" d="M384.3,403.8c0,2-1.7,3.7-8.1,3.7s-8.1-1.7-8.1-3.7,1.5-3.7,8.1-3.7,8.1,1.7,8.1,3.7Z"/>
  <rect class="st4" x="369.1" y="402.6" width="14.2" height="2.4" rx=".7" ry=".7"/>
  <polygon class="st1" points="225.2 467.2 351.8 464.1 340.5 462.7 236.5 465.3 225.2 467.2"/>
</svg>
