<?xml version="1.0" encoding="UTF-8"?>
<svg id="Layer_1" data-name="Layer 1" xmlns="http://www.w3.org/2000/svg" viewBox="0 0 400 168.38">
  <defs>
    <style>
      .cls-1 {
        stroke-width: 0px;
      }
    </style>
  </defs>
  <path class="cls-1" d="M18.81,99.99c-1.3,0-2.55-.19-3.73-.58-1.18-.39-2.17-1-2.97-1.85-.8-.84-1.38-1.92-1.74-3.22-.36-1.31-.4-2.85-.11-4.64l5.15-30.73c.24-1.4.71-2.69,1.41-3.88.7-1.18,1.58-2.21,2.65-3.08,1.06-.87,2.26-1.55,3.59-2.03,1.33-.48,2.74-.72,4.24-.72h42.84l-2.17,12.76H29.25l-1.02,5.94h35.95l-2.1,12.32H26.21l-1.16,6.96h38.71l-2.1,12.76H18.81Z"/>
  <path class="cls-1" d="M134.64,54.91l-5.94,35.88c-.48,2.71-1.76,4.92-3.84,6.63-2.08,1.72-4.54,2.57-7.39,2.57h-36.02c-2.9,0-5.1-.86-6.6-2.57-1.5-1.72-2.03-3.93-1.59-6.63l6.02-35.88h13.7l-5.36,32.4h27.91l5.44-32.4h13.7Z"/>
  <path class="cls-1" d="M184.58,54.91l-1.91,11.31h-25.85l-5.65,33.78h-13.7l5.87-35.37c.29-1.74.81-3.21,1.56-4.42.75-1.21,1.64-2.21,2.68-3.01,1.04-.8,2.17-1.38,3.41-1.74,1.23-.36,2.45-.54,3.66-.54h29.94Z"/>
  <path class="cls-1" d="M228.58,54.91c2.85,0,5.02.86,6.52,2.57,1.5,1.72,2.03,3.93,1.59,6.63l-4.35,26.16c-.29,1.69-.81,3.15-1.56,4.39s-1.64,2.25-2.68,3.04c-1.04.8-2.17,1.38-3.41,1.74-1.23.36-2.48.54-3.73.54h-28.63c-1.26,0-2.44-.18-3.55-.54-1.11-.36-2.05-.94-2.83-1.74-.77-.8-1.33-1.81-1.67-3.04s-.36-2.69-.07-4.39l1.52-9.2c.48-2.71,1.76-4.92,3.84-6.63,2.08-1.72,4.57-2.57,7.47-2.57h24.64l.94-5.65h-31.82l1.89-11.31h35.88ZM219.88,82.74h-21.09l-1.01,5.94h21.09l1.02-5.94Z"/>
  <path class="cls-1" d="M259.69,66.19l-.8,5.03h27.6c2.51,0,4.47.76,5.87,2.28,1.4,1.52,1.81,4,1.23,7.43-.24,1.31-.5,2.86-.76,4.67-.27,1.81-.52,3.37-.76,4.67-.58,3.43-1.84,5.91-3.77,7.43-1.93,1.52-4.16,2.28-6.67,2.28h-41.52l1.96-11.82h36.59c.15-.82.29-1.68.44-2.57.14-.89.29-1.78.43-2.64h-26.75c-2.9,0-5.1-.86-6.6-2.57-1.5-1.72-2.03-3.93-1.6-6.63l1.52-9.13c.29-1.74.81-3.21,1.56-4.42.75-1.21,1.63-2.21,2.65-3.01,1.02-.8,2.14-1.38,3.37-1.74s2.48-.54,3.73-.54h39.14l-1.96,11.28h-34.92Z"/>
  <polygon class="cls-1" points="307.8 54.91 321.5 54.91 313.96 99.99 300.26 99.99 307.8 54.91"/>
  <polygon class="cls-1" points="324.76 35.55 322.73 47.37 309.03 47.37 310.99 35.55 324.76 35.55"/>
  <path class="cls-1" d="M224.42,133.75l2.27-13.51-218.49-.05-2.27,13.51,218.49.05Z"/>
  <path class="cls-1" d="M369.41,54.91c2.85,0,5.02.86,6.52,2.57,1.5,1.72,2.03,3.93,1.59,6.63l-4.35,26.16c-.29,1.69-.81,3.15-1.56,4.39s-1.64,2.25-2.68,3.04c-1.04.8-2.17,1.38-3.41,1.74-1.23.36-2.48.54-3.73.54h-28.63c-1.26,0-2.44-.18-3.55-.54-1.11-.36-2.05-.94-2.83-1.74-.77-.8-1.33-1.81-1.67-3.04-.34-1.23-.36-2.69-.07-4.39l1.52-9.2c.48-2.71,1.76-4.92,3.84-6.63,2.08-1.72,4.57-2.57,7.47-2.57h24.64l.94-5.65h-31.82l1.89-11.31h35.88ZM360.71,82.74h-21.09l-1.01,5.94h21.09l1.02-5.94Z"/>
  <g>
    <path class="cls-1" d="M263.42,111c1.73,0,3.07.62,4.02,1.85.95,1.24,1.23,2.72.85,4.44l-3.71,16.34h-2.28l.18-2.63c-.18.18-.42.42-.71.71-.3.3-.88.69-1.74,1.18-.86.49-1.7.74-2.5.74h-17.19c-1.73,0-3.07-.61-4.02-1.83s-1.24-2.69-.85-4.42l.58-2.46c.39-1.73,1.32-3.21,2.81-4.44,1.49-1.23,3.1-1.85,4.82-1.85h17.24c.51,0,.97.09,1.41.27.43.18.79.4,1.07.67.28.27.52.53.71.78.19.25.33.47.42.65l.13.27.89-3.97c.21-.98.04-1.82-.49-2.52s-1.29-1.05-2.28-1.05h-22.19l.63-2.72h22.19ZM263.82,124.94c.24-.98.09-1.82-.45-2.52-.54-.7-1.29-1.05-2.28-1.05h-18c-.98,0-1.9.35-2.75,1.05-.85.7-1.39,1.54-1.63,2.52l-.54,2.46c-.21.98-.04,1.82.49,2.5.54.69,1.28,1.03,2.23,1.03h18.04c.98,0,1.9-.34,2.75-1.03.85-.68,1.38-1.52,1.58-2.5l.54-2.46Z"/>
    <path class="cls-1" d="M303.29,111h2.72l-5.09,22.64h-2.28l.18-2.63c-.18.18-.42.42-.71.71-.3.3-.88.69-1.74,1.18s-1.7.74-2.5.74h-17.19c-1.73,0-3.07-.61-4.02-1.83-.95-1.22-1.24-2.69-.85-4.42l3.71-16.39h2.68l-3.66,16.39c-.21.98-.04,1.82.49,2.5.54.69,1.28,1.03,2.23,1.03h18.04c.98,0,1.9-.34,2.75-1.03.85-.68,1.38-1.52,1.59-2.5l3.66-16.39Z"/>
    <path class="cls-1" d="M315.57,113.73l-3.35,14.91c-.15.63-.05,1.16.31,1.61.36.45.85.67,1.47.67h17.28l-.63,2.72h-17.64c-1.28,0-2.27-.45-2.97-1.36-.7-.91-.9-2-.6-3.28l3.44-15.27h-3.17l.63-2.72h3.17l1.07-4.78,2.86-.8-1.25,5.58h18.84l-.58,2.72h-18.89Z"/>
    <path class="cls-1" d="M363.57,111c1.73,0,3.07.62,4.02,1.85.95,1.24,1.24,2.72.85,4.44l-2.28,10.09c-.39,1.73-1.33,3.2-2.84,4.42s-3.12,1.83-4.84,1.83h-18c-1.73,0-3.07-.61-4.02-1.83-.95-1.22-1.24-2.69-.85-4.42l2.28-10.09c.39-1.73,1.33-3.21,2.84-4.44,1.5-1.23,3.12-1.85,4.85-1.85h17.99ZM365.71,117.3c.21-.98.05-1.82-.49-2.52s-1.3-1.05-2.28-1.05h-18c-.98,0-1.9.35-2.75,1.05-.85.7-1.38,1.54-1.59,2.52l-2.28,10.09c-.21.98-.04,1.82.49,2.5.54.69,1.28,1.03,2.23,1.03h18.04c.98,0,1.9-.34,2.75-1.03.85-.68,1.38-1.52,1.58-2.5l2.28-10.09Z"/>
  </g>
  <path class="cls-1" d="M392.05,54.96c.82,0,1.46.29,1.92.88.46.59.59,1.3.4,2.13l-1.17,5.17c-.18.83-.63,1.54-1.35,2.13-.72.59-1.5.88-2.33.88h-3.73c-.83,0-1.47-.29-1.92-.88-.45-.59-.59-1.3-.41-2.13l1.17-5.17c.19-.83.65-1.54,1.37-2.13.72-.59,1.49-.88,2.31-.88h3.75ZM393.28,57.96c.13-.54.04-.99-.25-1.36-.29-.37-.7-.55-1.23-.55h-3.73c-.54,0-1.03.18-1.49.55-.46.37-.75.82-.86,1.36l-1.17,5.17c-.12.52-.03.97.26,1.35s.7.56,1.24.56h3.73c.52,0,1.02-.19,1.48-.56.46-.38.75-.83.86-1.35l1.17-5.17ZM390.25,57.31c.52,0,.93.19,1.22.56.29.38.37.83.26,1.35l-.06.25h-1.24l.04-.25c.05-.18.03-.33-.08-.46-.1-.13-.24-.19-.42-.19h-1.21c-.18,0-.35.06-.51.19-.16.13-.26.28-.3.46l-.59,2.64c-.04.18,0,.33.09.46.1.13.23.19.41.19h1.23c.18,0,.34-.06.5-.19s.25-.28.29-.46l.06-.25h1.26l-.06.25c-.12.52-.4.97-.86,1.35-.46.38-.95.57-1.47.57h-1.21c-.54,0-.95-.19-1.24-.57-.29-.38-.37-.83-.26-1.35l.59-2.64c.13-.52.42-.97.87-1.35.45-.38.95-.56,1.48-.56h1.21Z"/>
</svg>