<svg id="Layer_1" height="512" viewBox="0 0 512 512" width="512" xmlns="http://www.w3.org/2000/svg" data-name="Layer 1"><path d="m304.835 72.015a26.736 26.736 0 0 0 -24.266-15.24h-253.597a26.938 26.938 0 0 0 -21.072 43.717l101.24 127.157v211.576a16 16 0 0 0 24 13.857l61.261-35.37a16 16 0 0 0 8-13.856v-176.207l101.24-127.149a26.736 26.736 0 0 0 3.194-28.485zm-34.767 16.76-16.813 21.116h-198.969l-16.813-21.116zm-98.184 123.316a16 16 0 0 0 -3.483 9.966v172.562l-29.261 16.893v-189.455a16 16 0 0 0 -3.483-9.966l-55.892-70.2h148.012zm130.606-65.868a16 16 0 0 0 16 16h37.6a45.94 45.94 0 0 0 86.13 0h53.78a16 16 0 0 0 0-32h-53.775a45.941 45.941 0 0 0 -86.132 0h-37.6a16 16 0 0 0 -16.003 16zm96.669-13.944a13.959 13.959 0 0 1 13.941 13.939v.01a13.944 13.944 0 1 1 -13.944-13.949zm96.841 113.377h-143.9a45.94 45.94 0 0 0 -86.131 0h-18.709a16 16 0 1 0 0 32h18.708a45.94 45.94 0 0 0 86.131 0h143.901a16 16 0 0 0 0-32zm-186.967 29.944a13.945 13.945 0 1 1 13.944-13.944 13.959 13.959 0 0 1 -13.944 13.944zm186.967 85.488h-17.533a45.94 45.94 0 0 0 -86.131 0h-145.076a16 16 0 1 0 0 32h145.076a45.94 45.94 0 0 0 86.131 0h17.533a16 16 0 0 0 0-32zm-60.6 29.945a13.945 13.945 0 1 1 13.944-13.95v.01a13.961 13.961 0 0 1 -13.944 13.94z"/></svg>