<svg id="Layer_3" height="512" viewBox="0 0 64 64" width="512" xmlns="http://www.w3.org/2000/svg" data-name="Layer 3"><path d="m43 9.193h2v4.807h-2z" fill="#596e79"/><path d="m51 9.193h2v4.807h-2z" fill="#596e79"/><path d="m39.8 48a5.8 5.8 0 0 1 -5.8-5.8c0-.133.005-.266.014-.4l1.642-22.8a5.357 5.357 0 0 1 5.344-4.988h14a5.357 5.357 0 0 1 5.344 4.988l1.642 22.8c.009.133.014.266.014.4a5.8 5.8 0 0 1 -5.8 5.8z" fill="#39474d"/><path d="m60.344 19a5.357 5.357 0 0 0 -5.344-4.988h-14a5.338 5.338 0 0 0 -1.953.372 5.3 5.3 0 0 0 -.391 1.616l-1.642 22.8c-.009.133-.014.266-.014.4a5.8 5.8 0 0 0 5.8 5.8h16.4a5.771 5.771 0 0 0 2.316-.484 5.771 5.771 0 0 0 .484-2.316c0-.133-.005-.266-.014-.4z" fill="#485a62"/><path d="m57 62a3.74 3.74 0 0 0 3.651-2.929l1.242-5.588a4.527 4.527 0 0 0 .107-.977 4.505 4.505 0 0 0 -4.506-4.506h-18.988a4.505 4.505 0 0 0 -4.506 4.506 4.527 4.527 0 0 0 .107.977l1.242 5.588a3.74 3.74 0 0 0 3.651 2.929z" fill="#283237"/><path d="m60.651 59.071 1.242-5.588a4.507 4.507 0 0 0 -4.399-5.483h-15.988a4.507 4.507 0 0 0 -4.4 5.483l1.242 5.588a3.74 3.74 0 0 0 3.652 2.929h15a3.74 3.74 0 0 0 3.651-2.929z" fill="#39474d"/><path d="m53.742 3.857a2.954 2.954 0 0 0 -2.742-1.857h-6a2.955 2.955 0 0 0 -2.744 1.858l-1.076 2.692a2.511 2.511 0 0 0 -.18.934 2.515 2.515 0 0 0 2.515 2.516h8.97a2.515 2.515 0 0 0 2.515-2.515 2.512 2.512 0 0 0 -.18-.935z" fill="#39474d"/><path d="m38.162 54h19.676a4.385 4.385 0 0 0 4.007-2.606 4.5 4.5 0 0 0 -4.351-3.394h-18.988a4.5 4.5 0 0 0 -4.351 3.394 4.385 4.385 0 0 0 4.007 2.606z" fill="#596e79"/><path d="m57 42.133a227.948 227.948 0 0 1 1.588-26.733 5.348 5.348 0 0 0 -1.9-1.093l-.031.291c-.418 3.448-.732 6.922-.993 10.4h-15.333c-.261-3.479-.575-6.952-.992-10.4l-.034-.3a5.361 5.361 0 0 0 -1.893 1.102 227.782 227.782 0 0 1 1.588 26.733v5.805a5.705 5.705 0 0 0 .8.062h1.2v-3.462a5.377 5.377 0 0 0 2.162.462h9.676a5.377 5.377 0 0 0 2.162-.462v3.462h1.2a5.705 5.705 0 0 0 .8-.062zm-2 0v.067a3.393 3.393 0 0 1 -2.162.8h-9.676a3.393 3.393 0 0 1 -2.162-.8v-.064c0-1.375-.038-2.755-.063-4.133h14.126c-.025 1.375-.063 2.755-.063 4.13zm.093-6.133h-14.186q-.121-4.5-.425-9h15.036q-.297 4.5-.425 9z" fill="#283237"/><path d="m37 52.505a4.529 4.529 0 0 0 .107.978l.089.4a4.359 4.359 0 0 0 .966.119h19.676a4.385 4.385 0 0 0 4.007-2.606 4.5 4.5 0 0 0 -4.351-3.396h-15.988a4.505 4.505 0 0 0 -4.506 4.505z" fill="#718b96"/><path d="m55 7.485a2.512 2.512 0 0 0 -.18-.935l-1.078-2.693a2.954 2.954 0 0 0 -2.742-1.857h-4a2.955 2.955 0 0 0 -2.744 1.858l-1.076 2.692a2.511 2.511 0 0 0 -.18.934 2.515 2.515 0 0 0 2.515 2.516h6.97a2.515 2.515 0 0 0 2.515-2.515z" fill="#485a62"/><path d="m11 9.193h2v4.807h-2z" fill="#596e79"/><path d="m19 9.193h2v4.807h-2z" fill="#596e79"/><path d="m7.8 48a5.8 5.8 0 0 1 -5.8-5.8c0-.133 0-.266.014-.4l1.642-22.8a5.357 5.357 0 0 1 5.344-4.988h14a5.357 5.357 0 0 1 5.344 4.988l1.642 22.8c.009.133.014.266.014.4a5.8 5.8 0 0 1 -5.8 5.8z" fill="#39474d"/><path d="m28.344 19a5.357 5.357 0 0 0 -5.344-4.988h-14a5.338 5.338 0 0 0 -1.953.372 5.3 5.3 0 0 0 -.391 1.616l-1.642 22.8c-.009.133-.014.266-.014.4a5.8 5.8 0 0 0 5.8 5.8h16.4a5.771 5.771 0 0 0 2.316-.484 5.771 5.771 0 0 0 .484-2.316c0-.133 0-.266-.014-.4z" fill="#485a62"/><path d="m25 62a3.74 3.74 0 0 0 3.651-2.929l1.242-5.588a4.527 4.527 0 0 0 .107-.977 4.505 4.505 0 0 0 -4.506-4.506h-18.988a4.505 4.505 0 0 0 -4.506 4.506 4.527 4.527 0 0 0 .107.977l1.242 5.588a3.74 3.74 0 0 0 3.651 2.929z" fill="#283237"/><path d="m28.651 59.071 1.242-5.588a4.507 4.507 0 0 0 -4.399-5.483h-15.988a4.507 4.507 0 0 0 -4.4 5.483l1.242 5.588a3.74 3.74 0 0 0 3.652 2.929h15a3.74 3.74 0 0 0 3.651-2.929z" fill="#39474d"/><path d="m21.742 3.857a2.954 2.954 0 0 0 -2.742-1.857h-6a2.955 2.955 0 0 0 -2.744 1.858l-1.076 2.692a2.511 2.511 0 0 0 -.18.934 2.515 2.515 0 0 0 2.515 2.516h8.97a2.515 2.515 0 0 0 2.515-2.515 2.512 2.512 0 0 0 -.18-.935z" fill="#39474d"/><path d="m6.162 54h19.676a4.385 4.385 0 0 0 4.007-2.606 4.5 4.5 0 0 0 -4.351-3.394h-18.988a4.5 4.5 0 0 0 -4.351 3.394 4.385 4.385 0 0 0 4.007 2.606z" fill="#596e79"/><path d="m25 42.133a227.948 227.948 0 0 1 1.588-26.733 5.348 5.348 0 0 0 -1.895-1.093l-.031.291c-.418 3.448-.732 6.922-.993 10.4h-15.338c-.261-3.479-.575-6.952-.992-10.4l-.034-.3a5.361 5.361 0 0 0 -1.893 1.102 227.782 227.782 0 0 1 1.588 26.733v5.805a5.705 5.705 0 0 0 .8.062h1.2v-3.462a5.377 5.377 0 0 0 2.162.462h9.676a5.377 5.377 0 0 0 2.162-.462v3.462h1.2a5.705 5.705 0 0 0 .8-.062zm-2 0v.067a3.393 3.393 0 0 1 -2.162.8h-9.676a3.393 3.393 0 0 1 -2.162-.8v-.064c0-1.375-.038-2.755-.063-4.133h14.126c-.025 1.375-.063 2.755-.063 4.13zm.093-6.133h-14.186q-.121-4.5-.425-9h15.036q-.297 4.5-.425 9z" fill="#283237"/><path d="m5 52.505a4.529 4.529 0 0 0 .107.978l.089.4a4.359 4.359 0 0 0 .966.117h19.676a4.385 4.385 0 0 0 4.007-2.606 4.5 4.5 0 0 0 -4.351-3.394h-15.988a4.505 4.505 0 0 0 -4.506 4.505z" fill="#718b96"/><path d="m23 7.485a2.512 2.512 0 0 0 -.18-.935l-1.078-2.693a2.954 2.954 0 0 0 -2.742-1.857h-4a2.955 2.955 0 0 0 -2.744 1.858l-1.076 2.692a2.511 2.511 0 0 0 -.18.934 2.515 2.515 0 0 0 2.515 2.516h6.97a2.515 2.515 0 0 0 2.515-2.515z" fill="#485a62"/></svg>