<svg id="aeaee4b7-e4dd-40bc-9eb0-cbb19295c7d4" height="512" viewBox="0 0 64 64" width="512" xmlns="http://www.w3.org/2000/svg" xmlns:xlink="http://www.w3.org/1999/xlink" data-name="line gradient flaticon"><linearGradient id="be9fee6c-a19c-47cf-8007-11271f949f9c" gradientUnits="userSpaceOnUse" x1="9.471" x2="54.543" y1="32.003" y2="32.003"><stop offset="0" stop-color="#ffde00"/><stop offset="1" stop-color="#fd5900"/></linearGradient><path d="m43.86816 51.76367a1.00247 1.00247 0 0 0 .6875-.78564c.0083-.04834.88233-4.86524 4.626-5.6084a2.07478 2.07478 0 0 1 1.96634.62937 6.30282 6.30282 0 0 1 1.36279 3.84961c-.04683.725.1336 1.5769 1.01911 1.58151.91313-.01094 1.10465-.93881.97785-1.69629-.39847-4.41407-2.59-7.34848-6.49788-6.09438v-20.84943a6.65715 6.65715 0 0 0 -6.64991-6.6499h-5.74424v-2.66063h1.45606a2.84511 2.84511 0 0 0 2.84179-2.84179v-3.791a2.8447 2.8447 0 0 0 -2.84179-2.84131h-10.14356a2.8447 2.8447 0 0 0 -2.84179 2.84131v3.791a2.84511 2.84511 0 0 0 2.84179 2.84179h1.45606v2.66065h-5.73438a6.66205 6.66205 0 0 0 -6.65967 6.64986v17.67045a1.0001 1.0001 0 0 0 2 0v-17.67045a4.66007 4.66007 0 0 1 4.65967-4.6499c5.5434.00532 13.14377 0 18.71 0a4.65518 4.65518 0 0 1 4.64987 4.6499v21.89549a9.49635 9.49635 0 0 0 -3.00342 4.39459c-5.41736-3.30475-16.56881-3.31675-22.01221-.00018-1.86209-6.3532-10.67113-9.07715-11.502.65556a11.95441 11.95441 0 0 0 .74027 4.89345l.71047 2.11084a4.79406 4.79406 0 0 0 4.54735 3.26025h33.01954a4.79474 4.79474 0 0 0 4.54785-3.26123l.66992-1.98975a1 1 0 0 0 -1.89551-.63769l-.66943 1.98877a2.7962 2.7962 0 0 1 -2.65283 1.8999h-33.01954a2.79552 2.79552 0 0 1 -2.65234-1.89893l-.71389-2.12158c-1.07717-2.31614-.72547-6.63178.73212-7.98485a2.06906 2.06906 0 0 1 1.96906-.62355c3.73681.7417 4.61084 5.5586 4.61865 5.605a1.00737 1.00737 0 0 0 1.69972.53463c2.95555-3.00972 10.75975-2.88716 10.87791-2.88082 2.18946-.05127 8.377.37793 10.835 2.88086a.99931.99931 0 0 0 1.0117.25291zm-10.25244-35.62353h-3.23144v-2.66065h3.23144zm-6.6875-4.66064a.84252.84252 0 0 1 -.84179-.8418v-3.791a.8424.8424 0 0 1 .84179-.84131h10.14356a.8424.8424 0 0 1 .84179.84131v3.791a.84251.84251 0 0 1 -.84179.84179c-.02656-.00516-8.51828-.0053-10.14356.00001zm15.36426 13.81835a21.94288 21.94288 0 0 0 -4.9087 16.62695 1.00016 1.00016 0 0 1 -1.98339.25977 23.56639 23.56639 0 0 1 5.43213-18.25342.99992.99992 0 0 1 1.46 1.3667zm-15.67627 16.62695a21.8371 21.8371 0 0 0 -4.90767-16.62544 1.00026 1.00026 0 0 1 1.45894-1.36821 23.56639 23.56639 0 0 1 5.43213 18.25342 1.00017 1.00017 0 1 1 -1.9834-.25977zm13.72559 10.96583a1.00056 1.00056 0 0 1 -.64014 1.26123 25.40152 25.40152 0 0 1 -7.90866 1.28076 20.4242 20.4242 0 0 1 -7.58248-1.31395 1.00018 1.00018 0 0 1 .79586-1.835 21.58437 21.58437 0 0 0 14.07422-.0332.99974.99974 0 0 1 1.2612.64016z" fill="url(#be9fee6c-a19c-47cf-8007-11271f949f9c)"/></svg>