<svg clip-rule="evenodd" fill-rule="evenodd" height="850" image-rendering="optimizeQuality" shape-rendering="geometricPrecision" text-rendering="geometricPrecision" viewBox="0 0 850 850" width="850" xmlns="http://www.w3.org/2000/svg"><g id="Layer_x0020_1"><circle cx="425" cy="425" fill="#373738" r="425"/><g id="_248368448"><g><g id="_200794104"><path d="m674 494h-35c-3 0-6-3-6-6 0-31-25-55-55-55s-55 24-55 55c0 3-3 6-6 6h-175c-4 0-6-3-6-6 0-31-25-55-55-55-31 0-55 24-55 55 0 3-3 6-6 6h-45c-3 0-6-3-6-6v-92c0-3 2-5 4-6l87-23 39-69c1-2 3-3 5-3h181c2 0 4 1 5 2l62 70c31 7 54 10 71 13 29 5 43 7 51 17 8 11 7 26 7 57 0 10-1 21-1 34 0 3-2 6-6 6zm-29-12h23c0-11 1-20 1-28 0-27 0-42-5-49s-18-9-42-13c-18-3-42-7-75-14-1 0-2-1-3-2l-61-69h-175l-39 68c-1 1-2 2-4 3l-84 22v82h33c3-34 32-61 67-61s63 27 67 61h163c3-34 32-61 67-61s64 27 67 61z" fill="#fff"/></g><g><g id="_200794896"><path d="m281 555c-37 0-67-30-67-67s30-67 67-67 67 30 67 67-30 67-67 67zm0-122c-31 0-55 24-55 55 0 30 24 55 55 55 30 0 55-25 55-55 0-31-25-55-55-55z" fill="#fff"/></g><g id="_200794848"><path d="m281 523c-20 0-36-16-36-35 0-20 16-36 36-36 19 0 35 16 35 36 0 19-16 35-35 35zm0-59c-13 0-24 11-24 24s11 23 24 23 23-10 23-23-10-24-23-24z" fill="#fff"/></g></g><g><g id="_200795064"><path d="m578 555c-37 0-67-30-67-67s30-67 67-67 67 30 67 67-30 67-67 67zm0-122c-30 0-55 24-55 55 0 30 25 55 55 55s55-25 55-55c0-31-25-55-55-55z" fill="#fff"/></g><g id="_200795280"><path d="m578 523c-20 0-36-16-36-35 0-20 16-36 36-36s35 16 35 36c0 19-15 35-35 35zm0-59c-13 0-24 11-24 24s11 23 24 23 23-10 23-23-10-24-23-24z" fill="#fff"/></g></g><g id="_200795256"><path d="m406 494c-3 0-6-3-6-6v-187c0-3 3-6 6-6 4 0 6 3 6 6v187c0 3-2 6-6 6z" fill="#fff"/></g><g id="_200794920"><path d="m549 378h-285c-4 0-6-3-6-6s2-6 6-6h285c3 0 6 3 6 6s-3 6-6 6z" fill="#fff"/></g></g></g></g></svg>