<svg clip-rule="evenodd" fill-rule="evenodd" height="2048" image-rendering="optimizeQuality" shape-rendering="geometricPrecision" text-rendering="geometricPrecision" viewBox="0 0 2048 2048" width="2048" xmlns="http://www.w3.org/2000/svg"><path d="m0 0h2048v2048h-2048z" /><g id="Layer_x0020_1"><path d="m0 0h2048v2048h-2048z" fill="none"/><path d="m256 255.999h1536v1536h-1536z" fill="none"/><path d="m1617.46 844.825c-2.14606-40.0406-11.7248-78.9284-27.9532-114.923-16.2319-36.0036-39.0709-69.0001-67.7315-97.2485-29.0599-28.6394-62.5536-50.8418-98.7308-65.8808-35.9481-14.9421-74.667-22.774-114.424-22.774-58.1871 0-108.359 22.8071-149.641 51.7382-43.1457 30.2374-77.504 67.7221-101.512 93.9213-11.8488 12.9402 8.72953-9.3319-4.39961 4.91693-.914174.992127-2.38583 2.58189-4.62756 4.9937l-24.0118 25.8343-23.3634-26.5843-2.31969-2.63977-.0625985.0543308-2.32559-2.63858v-.125197c-21.8729-24.9177-55.5697-63.3-99.6001-94.7729-42.3662-30.2823-95.1048-54.6981-157.358-54.6981-39.7583 0-78.4855 7.83426-114.438 22.7776-36.1772 15.039-69.6686 37.2402-98.7178 65.8772-28.663 28.2532-51.5091 61.2579-67.7445 97.2698-16.2236 35.987-25.7988 74.8678-27.9343 114.901-2.15433 40.337 1.84843 77.8571 12.6272 114.662 10.9028 37.2331 28.8295 74.1898 54.3993 112.994 20.3799 30.9189 56.2701 70.8083 97.9796 112.369 52.7599 52.5709 114.738 107.487 166.778 150.548 54.2941 44.9268 118.185 94.643 173.175 128.888 38.2465 23.8181 70.656 39.7146 89.0292 39.7146 22.3217 0 62.9752-21.6555 109.433-52.389 50.504-33.4134 105.413-76.4835 152.667-115.719 51.1937-42.4961 112.611-97.1871 165.636-150.293 41.6185-41.6811 77.5371-81.815 98.1426-113.147 17.2205-26.1827 35.5146-57.6 48.6945-95.2938 12.9933-37.1634 21.0945-80.8371 18.3366-132.333zm30.2965-141.174c19.4079 43.0441 30.8705 89.7131 33.4548 137.923 3.2504 60.6745-6.39095 112.404-21.8374 156.584-15.2622 43.6489-36.1158 79.5284-55.6937 109.295-23.3599 35.5205-62.0256 78.9615-106.143 123.147-54.117 54.1996-117.276 110.414-170.136 154.292-49.2237 40.8709-106.225 85.6064-158.166 119.971-55.9914 37.0406-108.337 63.1394-144.684 63.1394-31.5355 0-75.1418-19.7988-122.78-49.4658-58.0087-36.1252-124.224-87.5918-180.174-133.889-52.8225-43.7091-116.237-99.9532-171.027-154.547-44.3185-44.1603-83.0469-87.4453-106.231-122.619-29.1059-44.1697-49.663-86.7591-62.3977-130.245-12.861-43.9158-17.6575-88.3016-15.1288-135.662 2.57126-48.1996 14.0315-94.8615 33.4359-137.902 19.3996-43.03 46.7965-82.5638 81.2446-116.519 34.9925-34.4953 75.3532-61.2473 118.967-79.3772 43.8461-18.2244 90.8682-27.7784 138.939-27.7784 77.8158 0 142.695 29.7721 194.358 66.7004 38.3303 27.3992 68.8749 58.3949 91.7918 83.615 24.6484-26.3918 56.8878-58.7622 96.9308-86.8253 50.6599-35.5028 112.812-63.4902 186.142-63.4902 48.0709 0 95.0835 9.55276 138.925 27.7748 43.6111 18.1299 83.9729 44.8807 118.98 79.3808 34.4457 33.9496 61.8355 73.4753 81.2316 116.498z" fill="#fffffe" fill-rule="nonzero"/></g></svg>
