<svg id="Layer_1" enable-background="new 0 0 512 512" viewBox="0 0 512 512" xmlns="http://www.w3.org/2000/svg"><circle cx="256" cy="256" fill="#f2ca4b" r="256"/><g id="Layer_x0020_1"><g id="_271327536"><g clip-rule="evenodd" fill-rule="evenodd"><path id="_271327848" d="m190.4 169.4-12.6 5-11.9-5-3-19.8 12-7.8 12.5 7.8z" fill="#5d7198"/><g fill="#293e65"><path id="_271328208" d="m186.2 370.8h162.4v25.1c0 3.8-3.1 6.9-6.9 6.9h-148.5c-3.8 0-6.9-3.1-6.9-6.9v-25.1z"/><path id="_271327752" d="m220.8 328.1-22.5 11.5-30.2-11.5-11.3-144.8c-.6-8.2 6.8-15 15-15h11.3c14.5 0 25.1 11.9 26.3 26.3z"/><path id="_271328280" d="m161.1 149.6h27.2c1 0 1.9-.4 2.6-1.2s.9-1.7.8-2.7l-3.8-27c-.7-5.1-4.3-9.4-9.4-9.4h-15.1c-5.2 0-10.2 4.3-9.4 9.4l3.9 27.9c.2 1.6 1.5 3 3.2 3z"/></g><path id="_271328088" d="m186.2 373.1h162.4c5.2 0 9.5-4.3 9.5-9.5v-.5c0-19.2-15.7-35-35-35h-155v26.8c0 10.1 8.1 18.2 18.1 18.2z" fill="#5d7198"/></g><g fill="#17ace8"><path id="_271327632" d="m334 270.8 8.1 4.5 7-4.5c0-26.7-10.8-50.9-28.3-68.4s-41.7-28.3-68.4-28.3l-9.6 8 9.6 7.2c22.5 0 42.9 9.1 57.7 23.9 14.8 14.6 23.9 34.9 23.9 57.6z"/><path id="_271327128" clip-rule="evenodd" d="m223.6 182.8 14.3-8.9 14.5-9v16.7 16.6l-14.5-7.8z" fill-rule="evenodd"/><path id="_271326840" clip-rule="evenodd" d="m342.8 299.5-17.8-28.7h33.1z" fill-rule="evenodd"/></g></g></g></svg>