<svg clip-rule="evenodd" fill-rule="evenodd" height="512" image-rendering="optimizeQuality" shape-rendering="geometricPrecision" text-rendering="geometricPrecision" viewBox="0 0 1.70666 1.70666" width="512" xmlns="http://www.w3.org/2000/svg" xmlns:xlink="http://www.w3.org/1999/xlink"><linearGradient id="id0" gradientUnits="userSpaceOnUse" x1="-.09" x2="1.796" y1=".218" y2="1.489"><stop offset="0" stop-color="#d33230"/><stop offset="1" stop-color="#fd8f04"/></linearGradient><g id="Layer_x0020_1"><path d="m.853339.029937c-.454059 0-.823402.369343-.823402.823394.00000787.454012.369339.823394.823394.823394.45402 0 .823394-.369382.823394-.823394.00000394-.454051-.369378-.82339-.823386-.823394zm.493539 1.33191c-.0038189 0-.00764567-.00144488-.0105669-.00437008-.00584646-.00584646-.00584646-.0153189 0-.0211654.039189-.039185.0730197-.0822992.101142-.128449l-.0861654-.049752c-.00717323-.00412992-.0096378-.0132913-.00550394-.0204646.00413386-.00717323.0132913-.00962992.0204646-.00545669l.0862283.0497756c.0524409-.0952835.0813543-.202264.0837362-.313665h-.0992795c-.00826378 0-.0149331-.00670472-.0149331-.0149685.00000394-.00826378.00666535-.0149685.0149291-.0149685l.0992598-.00000394c-.00244882-.113378-.0326654-.220035-.0841024-.313441l-.0858346.0495551c-.00237795.00136614-.00495276.00199213-.00748031.00199213-.00518504 0-.0102205-.00268898-.0129882-.00748819-.00412598-.00713386-.00167717-.0162953.00549606-.0204252l.0858189-.0495472c-.0570079-.0935709-.13587-.172433-.229441-.229437l-.0495433.085815c-.00276378.00479528-.00783858.00748425-.0129843.00748425-.0025315 0-.0051063-.00066142-.00748425-.00202756-.00717323-.00413386-.00959055-.0132913-.00545669-.0204252l.0495551-.0858346c-.0934094-.051437-.200063-.0816535-.313445-.0841063v.0992205c0 .00826378-.00670472.0149724-.0149606.0149724-.00827165 0-.0149803-.00670472-.0149803-.0149724l.00000394-.0992205c-.113378.00245276-.220035.0326693-.313441.0841063l.0495591.0858307c.00413386.0071378.00166929.0162992-.00550394.0204291-.00233858.00136614-.00491339.00202756-.00744094.00202756-.00518504 0-.0102165-.00268898-.0129882-.00748425l-.0495394-.085815c-.0935709.0570079-.172437.135866-.229441.229441l.0858189.0495433c.00712992.00412992.00958661.0132953.00545276.0204252-.00276772.00479921-.00779921.00748819-.0129803.00748819-.00253543 0-.00511024-.00062598-.00744882-.00198819l-.0858307-.0495551c-.0514331.0934055-.0816535.200059-.0841063.313441l.0992244-.00000394c.00826378 0 .0149646.00670866.0149646.0149724.00000787.00826378-.00670472.0149685-.0149646.0149685h-.0992441c.00238189.111406.0312795.218386.0837244.313673l.0862362-.0497835c.0071378-.00417323.0162913-.00171654.0204252.00545669.00413386.00717323.00167323.0163346-.00545669.0204646l-.086185.0497559c.028126.0461496.0619567.0892598.101154.128445.00581496.00584646.00580709.0153189 0 .0211654-.00588583.00585039-.0153622.00585039-.0212087 0-.134646-.13465-.208803-.313705-.208803-.504146l.00000787-.00040158c.00007087-.128839.0344843-.249791.0945709-.354181.00025984-.00065748.00057087-.00130315.00093307-.00192913.00041732-.00071654.00088189-.00138583.0013937-.00200394.0621772-.106441.151138-.195386.257567-.257571.00062205-.00050787.00129134-.00097638.00200787-.00138976.00062205-.00035827.00126378-.00066929.00191732-.00092913.104382-.0600945.225346-.0945039.354189-.0945787l.00040551-.00000394.00040551.00000394c.128843.0000748.249803.0344961.354201.0945945.00063386.00025591.00125984.00056299.00187008.00091339.00070866.00040945.00137402.00087008.00199213.00137008.106488.0621969.195472.151201.257665.257685.00047638.00059449.00091339.00122835.00130315.00190945.00033071.0005748.00061811.00116142.00086614.00175591.0601575.104417.0946063.225445.0946811.354354l.00000394.00040158c.00000394.190441-.074189.369496-.208843.504146-.00291732.0029252-.00674409.00437008-.0105984.00437008zm-.493539-.59089c-.0454213 0-.0823819.0369173-.0823819.082374.00000787.0454173.0369567.082374.082374.082374s.082374-.0369567.082374-.082374c0-.00243701-.00011024-.00484646-.0003189-.00723228-.00003543-.00029921-.00006299-.00059843-.00007874-.00089764-.00409055-.0416457-.0392992-.0742441-.0819685-.0742441zm0 .194689c-.0112205 0-.0220551-.00166142-.0322835-.00473622l-.115634.0875394c-.00260236.00198819-.00580709.00303937-.00904331.00303937-.00097244 0-.00198819-.00011417-.00296457-.00031102-.00420079-.00085827-.00783465-.0034685-.00997638-.00717323l-.080185-.138902c-.00214961-.00370472-.00262205-.00814961-.00121654-.0122402.00136614-.00405512.00440551-.00733071.00834252-.00900787l.133654-.0564134c.0117165-.0495.0562598-.0864252.109299-.0864252.0210787 0 .0408189.00584252.0576929.0159882l.295043-.12448c.00693701-.00296457.0150039-.00023228.0187874.00627559.00377953.00654724.00210236.0148937-.00393701.0194528l-.255295.193256c.00000787.0006063.00002362.0012126.00002362.00182283 0 .0619055-.0504094.112315-.112307.112315zm-.0627677-.0192165c-.0278583-.0188425-.0468386-.0498504-.0492795-.0853189l-.103622.0437205.0631929.109508.0897087-.0679094zm.146453-.167909c.0101811.011378.0180827.0248346.0229764.0396496l.147362-.1115-.170339.0718504zm.106945.583327h-.381307c-.00826378 0-.0149724-.00666929-.0149724-.0149724 0-.00826378.00670079-.0149685.0149685-.0149685h.381311c.00826378 0 .0149646.00670472.0149646.0149685.00000787.00830315-.00670472.0149724-.0149646.0149724zm-.466917.0648307h.552528v-.159567h-.552528zm.5675.0299016h-.582472c-.00826378 0-.0149724-.00666535-.0149724-.0149331l.00000787-.189504c0-.00826378.00669685-.0149685.0149646-.0149685h.582472c.00826378 0 .0149646.00670472.0149646.0149685v.189504c0 .00826772-.00670866.0149331-.0149646.0149331zm-.291213.250087c-.227949 0-.442248-.0887717-.603413-.249933-.161193-.161201-.249929-.3755-.249929-.603402.00000394-.227941.0887283-.44224.249929-.603402.161169-.161205.375465-.249929.603406-.249929.227909 0 .442201.0887283.603402.249929.161165.161161.249933.375461.249933.603402 0 .227902-.0887717.442201-.249933.603402-.161197.161161-.375496.249933-.603394.249933z" fill="url(#id0)"/></g></svg>