<svg id="Capa_1" enable-background="new 0 0 604.5 604.5" height="512" viewBox="0 0 604.5 604.5" width="512" xmlns="http://www.w3.org/2000/svg"><g><g id="Layer_1_9_"><path clip-rule="evenodd" d="m302.25 0c166.237 0 302.25 136.012 302.25 302.25 0 166.237-136.012 302.25-302.25 302.25-166.238 0-302.25-136.013-302.25-302.25 0-166.238 136.012-302.25 302.25-302.25z" fill="#3949ab" fill-rule="evenodd"/><g><g clip-rule="evenodd" fill="#fffffe" fill-rule="evenodd"><path d="m415.552 314.574c-12.515 0-22.697 10.182-22.697 22.697s10.182 22.697 22.697 22.697 22.697-10.181 22.697-22.697c0-12.515-10.182-22.697-22.697-22.697zm0 35.116c-6.848 0-12.419-5.571-12.419-12.419s5.571-12.419 12.419-12.419 12.419 5.571 12.419 12.419-5.571 12.419-12.419 12.419z"/><path d="m420.635 337.271c0-2.799-2.284-5.083-5.083-5.083s-5.083 2.283-5.083 5.083c0 2.799 2.283 5.083 5.083 5.083 2.799 0 5.083-2.284 5.083-5.083z"/><path d="m467.536 315.659v-8.522c0-3.815-2.096-7.251-5.465-8.966-2.3-1.17-4.728-2.3-7.278-3.388-.366 1.393-.55 2.836-.55 4.314-.001 8.096 5.695 14.882 13.293 16.562z"/><path d="m199.511 337.271c0-2.799-2.284-5.083-5.083-5.083s-5.083 2.283-5.083 5.083c0 2.799 2.284 5.083 5.083 5.083 2.801 0 5.083-2.284 5.083-5.083z"/><path d="m194.428 314.574c-12.515 0-22.697 10.182-22.697 22.697s10.182 22.697 22.697 22.697 22.697-10.181 22.697-22.697c0-12.515-10.182-22.697-22.697-22.697zm0 35.116c-6.848 0-12.419-5.571-12.419-12.419s5.571-12.419 12.419-12.419 12.419 5.571 12.419 12.419-5.571 12.419-12.419 12.419z"/><path d="m446.906 299.098c0-2.417.346-4.769 1.032-7.031-59.767-22.624-152.178-14.798-212.05-16.107h-68.979c-.686 0-1.327-.189-1.876-.519-.43-.25-.794-.598-1.093-.994l-15.606-19.797-11.376 1.072 16.885 22.345c1.022 1.35.986 3.226-.087 4.537l-7.548 9.214c-1.472 1.798-2.283 4.067-2.283 6.392v25.306c0 5.561 4.526 10.087 10.087 10.087h10.606c5.19-34.989 54.467-34.924 59.621 0h161.502c1.816-14.838 14.494-26.364 29.811-26.364s27.995 11.527 29.811 26.364h12.086c5.708.012 10.3-4.785 10.087-10.482-11.664-1.774-20.63-11.874-20.63-24.023zm-183.514-5.112h-12.262c-4.862-.194-4.867-7.142 0-7.336h12.263c4.861.191 4.866 7.143-.001 7.336z"/><path d="m232.219 248.587c-14.457 3.134-28.288 7.891-41.177 14.165-3.746 1.825-7.452 3.799-11.028 5.869h52.205z"/><path d="m332.464 268.622c-19.32-18.551-47.52-26.81-80.069-23.302-4.293.464-8.599 1.075-12.838 1.825v21.477z"/></g></g></g></g></svg>