<svg clip-rule="evenodd" fill-rule="evenodd" height="512" image-rendering="optimizeQuality" shape-rendering="geometricPrecision" text-rendering="geometricPrecision" viewBox="0 0 1.70666 1.70666" width="512" xmlns="http://www.w3.org/2000/svg"><g id="Layer_x0020_1"><path d="m1.38565 1.50593h-.221315c-.0210984 0-.038189-.0170906-.038189-.0381929v-.221311c0-.0211024.0170906-.0381929.038189-.0381929h.221315c.0210984 0 .0381929.0170906.0381929.0381929v.221311c-.00001575.0211024-.0171063.0381929-.0381929.0381929zm.0536142.200346h-1.17187c-.101972 0-.184937-.0829606-.184937-.184925v-.896315-.242425c0-.101965.0829567-.184925.184937-.184925h.11228v-.0910551c0-.0585748.0476614-.106236.106248-.106236s.106244.0476614.106244.106236v.0910551h.154909v-.0910551c0-.0585748.0476575-.106236.106244-.106236.0585866 0 .106244.0476614.106244.106236v.0910551h.154906v-.0910551c0-.0585748.0476575-.106236.106244-.106236.0585866 0 .106244.0476614.106244.106236v.0910551h.112287c.101965 0 .184925.0829606.184925.184925v.241343l.00001575.00108268-.00001575.00108268v.895232c.00001575.101965-.0829449.184925-.184909.184925zm-.929012-1.31035c.00347638-.00488976.00551969-.0108268.00551969-.0172677l.00000394-.142783.00001575-.00103543v-.128213c0-.0164528-.0133976-.0298622-.0298661-.0298622s-.0298622.0133937-.0298622.0298543v.272024c0 .0164685.0134055.0298622.0298622.0298622.00642913 0 .0123898-.00204724.0172677-.00551969l.00056693-.00040945.00001575-.00001575.00055512-.00042126.00001575-.00001575.00054331-.00043307.00001575-.00001575.0005315-.00044882.00001575-.00001575.00051969-.00046063.00001575-.00001575.00050787-.00047244.00001575-.00001575.0005-.00048425.00001575-.00001575.00048425-.0005.00001575-.00001575.00047244-.00050787.00001575-.00001575.00046063-.00051969.00001575-.00001575.00044882-.0005315.00001575-.00001575.00043307-.00054331.00001575-.00001575.00042126-.00055512.00001575-.00001575.00040945-.00056693zm.367398 0c.00347638-.00488976.00551969-.0108268.00551969-.0172677l.00000394-.142783.00001181-.00098425v-.128264c0-.0164528-.0134055-.0298622-.0298622-.0298622-.0164685 0-.0298622.0133937-.0298622.0298543v.272024c0 .0164685.0133937.0298622.0298622.0298622.00642913 0 .0123937-.00204724.0172717-.00551969l.00056299-.00040945.00001575-.00001575.00055512-.00042126.00001575-.00001575.00054331-.00043307.00001575-.00001575.0005315-.00044882.00001575-.00001575.00051969-.00046063.00001575-.00001575.00051181-.00047244.00001575-.00001575.00049606-.00048425.00001575-.00001575.00048425-.0005.00001575-.00001575.00047244-.00050787.00001575-.00001575.00046063-.00051969.00001575-.00001575.00044882-.0005315.00001575-.00001575.00043307-.00054331.00001575-.00001575.00042126-.00055512.00001575-.00001575.00040945-.00056693zm.367398 0c.00347244-.00488583.00551969-.0108346.00551969-.0172677l.00000787-.142783.00000787-.00065748v-.128591c0-.0164528-.0134055-.0298622-.0298622-.0298622-.0164528 0-.0298622.0133937-.0298622.0298543v.272024c0 .0164685.0134094.0298622.0298622.0298622.00693307 0 .0133268-.00238189.0184055-.00636614l.00001575-.00001575.00054331-.00043307.00001575-.00001575.0005315-.00044882.00001575-.00001575.00052362-.00046063.00001181-.00001575.00051181-.00047244.00001575-.00001575.00049606-.00048425.00001575-.00001575.00048425-.0005.00001575-.00001575.00047244-.00050787.00001575-.00001575.00046063-.00051969.00001575-.00001575.00044882-.0005315.00001575-.00001575.00043307-.00054331.00001575-.00001575.0004252-.00055512.00001181-.00001575.00040945-.00056693zm-.97765-.121858c-.0598583 0-.108555.0486969-.108555.108555v.204217h1.38896v-.204232c0-.0598583-.0486969-.108555-.108555-.108555h-.112287v.104602c.00000787.0585906-.0476535.106248-.10624.106248-.0274606 0-.0525236-.0104724-.0713976-.0276339l-.00001181-.00001575-.00185433-.00172047-.00001181-.00001575-.00181496-.00176772-.00001181-.00001575-.00177165-.00180709-.00001181-.00001575c-.00058268-.00061024-.00115748-.00122441-.00172441-.00185039l-.00001181-.00001575-.0016811-.0018937-.00001181-.00001575-.0016378-.00193307-.00001181-.00001575-.00159055-.00197244-.00001181-.00001575-.00154331-.00201181-.00001181-.00001575-.00149606-.00204724-.00000787-.00001575-.00144882-.00208661-.00001181-.00001575-.00139764-.00212205-.00001181-.00001575-.00134646-.00215748-.00001181-.00001575c-.00044095-.00072441-.00086614-.00146063-.00129134-.00219291l-.00001181-.00001575-.00124409-.00222441-.00001181-.00001575-.00118898-.00225984-.00001181-.00001575c-.00038976-.00075984-.00076772-.00151575-.0011378-.0022874-.00673228-.0139409-.0105039-.0295748-.0105039-.0460394v-.104591h-.154898c0 .0341732.00477953.103-.00403543.133646v.00001181c-.0126654.0445079-.053689.0771929-.102209.0771929-.049437 0-.0910906-.033937-.102894-.0797362-.00848031-.0329843-.00335039-.0983268-.00335039-.131114h-.154906c0 .0385039.00696063.11337-.0104921.150614l-.00000394.00001181c-.0171732.0356024-.053622.0602244-.095752.0602244-.0585866 0-.106248-.0476575-.106248-.106244v-.104606h-.11228v.00001575zm-.108555.389154v.858142c0 .0598583.0486969.108555.108555.108555h1.17185c.0598583 0 .108555-.0486969.108555-.108555v-.858142h-1.38896zm.805142.421043h-.221311c-.0211024 0-.0381929-.0170906-.0381929-.038189v-.221303c0-.0211024.0170906-.0381929.0381929-.0381929h.221311c.0211024 0 .0381929.0170906.0381929.0381929v.221303c0 .0210945-.0170906.038189-.0381929.038189zm-.183122-.0763819h.144929v-.144921h-.144929zm.604787.0763819h-.221315c-.0210984 0-.038189-.0170906-.038189-.038189v-.221319c0-.0211024.0170906-.0381929.038189-.0381929h.221315c.0210984 0 .0381929.0170906.0381929.0381929v.221311c-.00001575.0211024-.0171063.0381969-.0381929.0381969zm-.183138-.0763819h.144945v-.144921h-.144945zm-.660185.498043h-.221315c-.0210984 0-.038189-.0170906-.038189-.0381929v-.221311c0-.0211024.0170906-.0381929.038189-.0381929h.221315c.0210984 0 .038189.0170906.038189.0381929v.221311c0 .0211024-.0170945.0381929-.038189.0381929zm-.183122-.0763858h.144929v-.144941h-.144929zm.60478.0763858h-.221311c-.0211024 0-.0381929-.0170906-.0381929-.0381929v-.221303c0-.0210984.0170906-.038189.0381929-.038189h.221311c.0211024 0 .0381929.0170906.0381929.038189v.221303c0 .0211024-.0170906.0381929-.0381929.0381929zm-.183122-.0763858h.144929v-.144925h-.144929zm.42165 0h.144945v-.144941h-.144945z" fill="#006ea7"/><g fill="#59aae7"><path d="m.780866 1.00788h.144929v-.144919h-.144929z"/><path d="m1.20252.862961v.144919h.14494v-.144919z"/><path d="m1.34746 1.2846h-.14494v.14494h.14494z"/><path d="m.925795 1.42954v-.14493h-.144929v.14493z"/><path d="m.504138 1.42954v-.14494h-.144929v.14494z"/><path d="m.321016 1.20823h.221315c.0210984 0 .038189.0170906.038189.0381929v.221311c0 .0211024-.0170945.0381929-.038189.0381929h-.221315c-.0210984 0-.038189-.0170906-.038189-.0381929v-.221311c0-.0211024.0170906-.0381929.038189-.0381929zm.421661.00001181h.221311c.0211024 0 .0381929.0170906.0381929.038189v.221303c0 .0211024-.0170906.0381929-.0381929.0381929h-.221311c-.0211024 0-.0381929-.0170906-.0381929-.0381929v-.221303c0-.0210984.0170906-.038189.0381929-.038189zm.383472.259492v-.221311c0-.0211024.0170906-.0381929.038189-.0381929h.221315c.0210984 0 .0381929.0170906.0381929.0381929v.221311c-.00001575.0211024-.0171063.0381929-.0381929.0381929h-.221315c-.0210984 0-.038189-.0170906-.038189-.0381929zm-.858748.162185h1.17185c.0598583 0 .108555-.0486969.108555-.108555v-.858142h-1.38896v.858142c0 .0598583.0486969.108555.108555.108555zm.475276-.545654c-.0211024 0-.0381929-.0170906-.0381929-.038189v-.221303c0-.0211024.0170906-.0381929.0381929-.0381929h.221311c.0211024 0 .0381929.0170906.0381929.0381929v.221303c0 .0210945-.0170906.038189-.0381929.038189zm.421661 0c-.0210984 0-.038189-.0170906-.038189-.038189v-.221319c0-.0211024.0170906-.0381929.038189-.0381929h.221315c.0210984 0 .0381929.0170906.0381929.0381929v.221311c-.00001575.0211024-.0171063.0381969-.0381929.0381969h-.221315z"/><path d="m.15884306.58683842h1.38896v-.204232c0-.0598583-.0486969-.108555-.108555-.108555h-.112287v.104602c.00000787.0585906-.0476535.106248-.10624.106248-.0274606 0-.0525236-.0104724-.0714094-.0276496l-.00186614-.00173622-.00182677-.00178346-.00178346-.00182283-.00173622-.00186614-.00169291-.00190945-.00164961-.00194882-.00160236-.00198819-.00155512-.00202756-.00150394-.00206299-.00146063-.00210236-.00140945-.0021378-.00135827-.00217323-.00130315-.00220866-.00125591-.00224016-.00120079-.00227559-.0011378-.0022874c-.00673228-.0139409-.0105039-.0295748-.0105039-.0460394v-.104591h-.154898v.104602l-.00003543.00274016-.00010236.00272047-.00017323.00270472-.00024016.00268504-.00030315.00266535-.00037008.00264567-.00043701.00262205-.0005.00260236-.00056299.00258268-.00062598.00255512-.00068504.0025315c-.0126654.0445079-.053689.0771929-.102209.0771929-.049437 0-.0910906-.033937-.102894-.0797362l-.00062598-.00255906-.00056299-.00257874-.0005-.00260236-.00043701-.00262598-.00037008-.00264567-.00030315-.00266535-.00024016-.00268504-.00017323-.00270079-.00010236-.00272441-.00003543-.00273622v-.104591h-.154906l-.00000394.104602-.00003543.00274016-.00010236.00272047-.00017323.00270472-.00023622.00268504-.00030709.00266535-.00037008.00264567-.00043701.00262205-.0005.00260236-.00056299.00258268-.00062598.00255512-.00068504.0025315-.00074803.00250787-.00080709.00248031-.00086614.00245276c-.00059449.00162205-.00123228.00322441-.00190551.00482283l-.00103543.00236614-.00109449.00233858c-.0171732.0356024-.053622.0602244-.095752.0602244-.0585866 0-.106248-.0476575-.106248-.106244v-.104606l-.11228.00001575c-.0598583 0-.108555.0486969-.108555.108555v.204217z"/><path d="m1.19086231.10661819v.272024c0 .0164685.0134094.0298622.0298622.0298622.00693307 0 .0133268-.00238189.0184213-.00638189l.00055906-.00044882.00054724-.00046457.00053543-.00047638.00052756-.00048819.00051181-.0005.0005-.00051575.00048819-.00052362.00047638-.00053543.00046457-.00054724.00044882-.00055906.00043701-.00057087.00040945-.00056693c.00347244-.00488583.00551969-.0108346.00551969-.0172677l.00000787-.142783.00000787-.00065748v-.128591c0-.0164528-.0134055-.0298622-.0298622-.0298622-.0164528 0-.0298622.0133937-.0298622.0298543z"/><path d="m.88317282.37865771.00000394-.142783.00001181-.00098425v-.128264c0-.0164528-.0134055-.0298622-.0298622-.0298622-.0164685 0-.0298622.0133937-.0298622.0298543v.272024c0 .0164685.0133937.0298622.0298622.0298622.00642913 0 .0123937-.00204724.0172717-.00551969l.00057874-.0004252.00057087-.00043701.00055906-.00044882.00054724-.00046457.00053543-.00047638.00052756-.00048819.00051181-.0005.0005-.00051575.00048819-.00052362.00047638-.00053543.00046457-.00054724.00044882-.00055906.00043701-.00057087.00040945-.00056693c.00347638-.00488976.00551969-.0108268.00551969-.0172677z"/><path d="m.51577582.37865771.00000394-.142783.00001575-.00103543v-.128213c0-.0164528-.0133976-.0298622-.0298661-.0298622s-.0298622.0133937-.0298622.0298543v.272024c0 .0164685.0134055.0298622.0298622.0298622.00642913 0 .0123898-.00204724.0172677-.00551969l.00058268-.0004252.00057087-.00043701.00055906-.00044882.00054724-.00046457.00053543-.00047638.00052362-.00048819.00051575-.0005.0005-.00051575.00048819-.00052362.00047638-.00053543.00046457-.00054724.00044882-.00055906.00043701-.00057087.00040945-.00056693c.00347638-.00488976.00551969-.0108268.00551969-.0172677z"/></g></g></svg>