<svg id="Layer_1" enable-background="new 0 0 180 180" height="180" viewBox="0 0 180 180" width="180" xmlns="http://www.w3.org/2000/svg"><path d="m155.013 1.003h-129.996c-13.241 0-24.014 10.772-24.014 24.014v129.996c0 13.225 10.772 23.984 24.014 23.984h129.996c13.225 0 23.984-10.76 23.984-23.984v-129.996c0-13.242-10.76-24.014-23.984-24.014z" fill="#2196f3"/><path d="m121.109 99.361c-2.058-2.059-4.805-3.191-7.733-3.191s-5.675 1.133-7.733 3.191l-6.744 6.744c-5.52-2.407-10.513-5.814-14.868-10.146-4.323-4.323-7.729-9.315-10.146-14.868l6.746-6.744c2.058-2.058 3.191-4.804 3.191-7.732s-1.134-5.675-3.191-7.731l-14.713-14.714c-.75-.75-1.768-1.172-2.829-1.172s-2.079.422-2.829 1.172l-16.1 16.101c-.751.752-1.173 1.771-1.171 2.835.032 19.732 7.737 38.271 21.694 52.2 13.958 13.958 32.497 21.663 52.202 21.695h.006c1.061 0 2.078-.422 2.829-1.172l16.101-16.102c1.562-1.562 1.562-4.095 0-5.656zm-5.852 29.618c-16.959-.44-32.855-7.268-44.92-19.332-12.061-12.037-18.887-27.93-19.326-44.914l12.078-12.078 11.885 11.885c.546.546.848 1.282.848 2.074s-.301 1.528-.848 2.075l-8.618 8.617c-1.109 1.108-1.468 2.764-.917 4.232 2.843 7.581 7.195 14.336 12.942 20.084 5.785 5.755 12.537 10.104 20.069 12.929 1.466.552 3.123.192 4.233-.917l8.617-8.617c1.094-1.094 3.058-1.094 4.151 0l11.883 11.883z" fill="#fff"/></svg>