<svg clip-rule="evenodd" fill-rule="evenodd" height="512" image-rendering="optimizeQuality" shape-rendering="geometricPrecision" text-rendering="geometricPrecision" viewBox="0 0 6.82666 6.82666" width="512" xmlns="http://www.w3.org/2000/svg"><g id="Layer_x0020_1"><path d="m6.74667 3.41333c0-.920484-.373098-1.75382-.976307-2.35703-.603205-.603209-1.43654-.976307-2.35703-.976307-.920484 0-1.75382.373098-2.35703.976307-.603209.603205-.976307 1.43654-.976307 2.35703 0 .920484.373098 1.75382.976307 2.35703.603205.603209 1.43654.976307 2.35703.976307.920484 0 1.75382-.373098 2.35703-.976307.603209-.603205.976307-1.43654.976307-2.35703z" fill="#9c6"/><g id="_494253568" fill="#fff"><path id="_494253832" d="m4.85142 4.70209c-.0267953 0-.0484567-.0216417-.0485354-.0484724.00002756-.0267913.0217165-.0485079.0485-.0485236.193535-.00006693.387138-.00011024.580661-.00011811.00025197-.0223268.00067717-.0445394.00109843-.0663268.00650394-.337961-.00555906-.547386-.320362-.59289-.00056299-.0000748-.00108661-.00016142-.00159449-.00024409-.594772-.105421-.97824-.251618-1.28638-.369094-.656264-.250244-.987839-.376602-2.4269.31663-.00038976.0279252-.00125984.0619567-.00218898.0996496-.00335039.13826-.00842126.34722.00631102.413118.0164449.0729685.0884331.195378.386382.195378.0625787.00029921.124803.00057087.187043.00083465.0267835.00011024.0484213.0219094.0483386.0487008-.00007087.0266772-.021815.0483307-.0485118.0483307-.00006693-.00000394-.00016142 0-.00016142 0-.0623189-.00025984-.124642-.00059055-.186878-.00084252-.379012-.00000394-.462504-.189634-.480866-.271154-.0160827-.0717283-.0133898-.240224-.00859055-.43674.00130315-.0522047.0023622-.0972835.0023622-.127839 0-.0185945.0106102-.035563.0273661-.0436535 1.4998-.726193 1.84439-.594811 2.53091-.333063.304102.115965.682563.260276 1.26793.364087.186402.0271102.304358.111484.360697.257906.0352126.091437.0430512.196315.0435394.308236v.0230748c-.00012992.0332913-.00077559.0671535-.00142913.101429-.00065748.0370866-.00143307.0754567-.00143307.112972.00001968.0268071-.0217323.0485354-.0485079.0485354-.209587-.00000787-.419224 0-.628748.00008268-.00005118-.00000394-.00008661 0-.00005118-.00000394zm-.896748.00024803c-.415992 0-.880134-.00024409-1.34323-.00125591-.0267717-.00009055-.0485079-.0218937-.0484213-.0486575.00008268-.026752.021811-.0483937.0485079-.0483937h.00008268c.56224.00127165 1.12612.00135039 1.60345.00125591.0267913-.00000394.0485906.0217126.0485906.0485079.0000315.0268189-.0217283.0484646-.0485079.0485512-.0842913-.00000787-.171295 0-.260469-.00000787z"/><path id="_494254024" d="m2.99058 3.59874c-.012626 0-.0252677.00023228-.0380709.00069685-.0882402.00317717-.182661.0176929-.288437.0443543-.205906.0519094-.418799.138634-.596996.220181l1.79566-.00207087c-.0364961-.0150433-.0727087-.0302598-.108587-.0453346-.171437-.0719724-.348732-.146398-.517831-.187799-.0821772-.0201378-.162961-.0300236-.245736-.0300276zm-1.13849.362492c-.0225551 0-.0421181-.0155157-.0472559-.0374685-.00511811-.0219646.00555118-.0445669.0257717-.0545472.205508-.101335.513035-.244701.809803-.3195.112445-.0283504.213406-.0438031.30865-.0472362.105185-.0037874.206748.00668504.310331.0320512.176516.0432244.357409.119157.532236.192583.114728.0481299.233193.0978976.347724.13711.0224252.00767323.0359606.0304409.0320866.0538307-.00386614.0233858-.0240866.0405394-.047752.040563l-2.27152.00261417c-.00007087 0-.00007874 0-.00007087 0z"/><path id="_494254552" d="m2.9473 3.95996c-.0267559 0-.0485197-.0217047-.0485197-.0484921l.00001181-.360516c0-.0267953.0217165-.0485.0484921-.0485.0268071 0 .0485118.0217087.0485118.0485l.00000787.360512c0 .0267913-.0217362.0485039-.0485039.0484961z"/><path id="_494254096" d="m5.30777 4.28381c-.0859094 0-.164413-.0208583-.234728-.0624961-.196457-.11648-.253319-.352819-.255591-.362823-.00605118-.0261063.0101024-.0521614.0362087-.0582244.0260276-.00605118.052126.0101457.0581929.036185l.00001181-.00000394c.00052756.00205906.0505157.206913.21128.301756.0910551.0537441.202374.0627992.330803.0269055.0257953-.00724016.0525512.00785827.0597874.0336614.00727559.0257992-.00783071.0525669-.033685.0597756-.0601772.0168425-.117815.0252638-.17228.0252638z"/><path id="_494254192" d="m4.53324 4.38407c-.148634 0-.269591.120969-.269591.269657.0000315.148665.120937.269689.269571.269689.148724 0 .269665-.121016.269665-.269689.00002756-.148693-.120941-.269654-.269646-.269657zm0 .636362c-.202102 0-.366606-.164555-.366606-.366705.0000315-.202185.164476-.366661.366587-.366661.202236-.00000394.366681.164476.366681.366661.00002756.202146-.16448.366705-.366661.366705z"/><path id="_494253952" d="m2.29339 4.58789c-.0363031 0-.0658071.0295433-.0658071.0658307.00001575.0363307.0294724.0658071.0657677.0658071.0363031-.00000394.0658583-.0294764.0658583-.0658071.00000394-.0362913-.029563-.0658228-.0658583-.0658228l.00003937-.00000787zm0 .22865c-.0897795 0-.162827-.0730118-.162827-.162819.00001968-.0897795.0730197-.162827.162787-.162827.0897795-.00000787.162874.0730472.162874.162827.00000394.0897992-.0730945.162823-.162835.162819z"/><path id="_494254216" d="m4.53324 4.58789c-.0363031 0-.0657913.0295433-.0657913.0658307 0 .0363307.0294803.0658071.0657717.0658071.0363268-.00000394.0658583-.0294764.0658583-.0658071.00002362-.0362913-.029563-.0658228-.0658386-.0658307zm0 .22865c-.0897756 0-.162807-.0730118-.162807-.162819 0-.0897795.0730197-.162827.162787-.162827.089874-.00000787.162874.0730472.162874.162827.00002362.0897992-.0730079.162823-.162854.162819z"/><path id="_494254432" d="m2.29339 4.38407c-.148673 0-.269685.120969-.269685.269657.00000787.148665.121012.269689.269646.269689.14874 0 .269661-.121016.269661-.269689.00001181-.148693-.120929-.269654-.269622-.269657zm0 .636362c-.202142 0-.366701-.164555-.366701-.366705.00000787-.202185.164547-.366661.366661-.366661.202217-.00000394.366677.164476.366677.366661.00001181.202146-.164472.366705-.366638.366705z"/><path id="_494253736" d="m1.61713 4.37939h-.271343c-.0267559 0-.0485157-.0217008-.0485157-.0484882.00000787-.0267913.0217323-.0485079.0485039-.0485079l.222846-.00000787v-.172374h-.222988c-.0267874 0-.0485354-.0217087-.0485354-.0485079.00002756-.0267913.0217323-.0485.0485079-.0485l.271524-.00000787c.0267874 0 .0484921.0217205.0484921.0485079l.00001575.26939c0 .0267913-.0217402.0485039-.0485079.0484961z"/><path id="_494253112" d="m2.88894 4.4277c-.0141417 0-.0281417-.00614567-.0377362-.0179843-.0168346-.0208228-.0136496-.0513622.00714961-.0682205l.197937-.160181c.040811-.033122.0915079-.0443858.14263-.0317047l.712319.176736c.0259921.00645276.0418228.0327638.0353386.0587638-.00638583.0260118-.0327598.0418543-.0587795.0353937l-.712177-.176732c-.0214843-.00532677-.041126-.0009685-.0583898.0129528l-.197787.160177c-.00901969.00726772-.0198189.0108031-.0305039.0107992z"/><path id="_494253184" d="m4.43512 3.78593c-.00386614 0-.00784646-.00047244-.0117992-.00146457-.0260197-.00649606-.0418583-.0328268-.0352874-.0588228l.164339-.657228-.0901969-.0225512c-.0497953-.0124291-.100335.0179134-.112799.0676535l-.137165.548539c-.00648031.0259764-.0327795.0418071-.0587992.0352953-.0260118-.00650394-.0418583-.0328346-.035374-.0588307l.137185-.548543c.0254685-.101638.12885-.163638.230413-.138228l.137299.0343228c.0259921.00649213.0417402.0328386.0352559.0588268l-.176079.704272c-.00545669.0220472-.0252756.0367598-.0469921.0367598z"/><path id="_494253160" d="m4.47851 2.60694c.0031063 0 .00628346.00030709.00948425.00094488.0180276.00360236.0324252.0170433.0372205.034748.00979528.0356299.0342756.0656772.0672047.0824213.0645118.0328583.143756.00704724.176602-.0575039.0292205-.0573622.0129685-.126732-.0386614-.164976-.0112835-.00838583-.0183543-.021248-.0194528-.0352756-.00107874-.0140394.00396063-.0278268.0138937-.0378228.00955118-.00964961.0175236-.0207244.0237598-.0329173.0328583-.0645669.00706693-.143799-.0575236-.17665-.0385433-.0196496-.0843819-.0189764-.122528.00176772-.0155709.00847638-.0345276.00778346-.0494409-.0018189-.0149016-.00960236-.0234094-.0265787-.0221457-.0442638.00387008-.052878-.0242559-.102555-.0714173-.126591-.059437-.0302362-.131961-.0112598-.16885.0441024-.00832677.0125827-.0221496.0205591-.0372205.0215354-.0149528.00093307-.029815-.00514567-.039752-.0165512-.0110157-.0126929-.0243386-.0230315-.0394094-.0307362-.0313268-.0159213-.0668701-.0187047-.100303-.00783465-.0333504.0108543-.0604685.0340591-.0763819.0653268-.00729528.0144409-.0119606.0298386-.0135551.0457874-.00150787.0138543-.00884646.0264213-.0202126.0344843-.0113425.00805906-.0256024.0108386-.0391614.00766535-.0590118-.0139134-.1195.0142087-.147122.0683504-.032815.0645472-.00699213.143787.0575197.176638.0226772.0115.0478268.0162205.0728465.013626.023689-.00242126.0453858.0124567.0517047.0352205.00988583.0353661.0342756.065189.0669488.0818228.0474134.0240984.104177.0174567.144681-.0169173.0120591-.0102008.0282165-.0139134.0434567-.00998031.0153346.00394094.0277047.0150394.0332638.0297677.0116299.0305709.0340236.0555748.0632441.0704252.055937.0284528.124469.0132795.163043-.0361142.00927559-.0119252.0234094-.0186772.0382638-.0186811zm.17315.229378c-.0349016 0-.070185-.0079685-.10328-.0247992-.0349291-.0177953-.0644252-.044189-.0859055-.0761654-.0670315.0440748-.154618.0508425-.229319.0128425-.0329961-.0168346-.0611339-.0411614-.0822756-.0707992-.0631614.0303386-.137776.0303504-.202276-.00249213-.0453661-.0230748-.0815236-.0607638-.103004-.106287-.0307362-.00201969-.0607953-.010248-.0885079-.0243819-.112236-.0571063-.157059-.194874-.0999646-.307106.0402953-.0791693.121106-.126496.206835-.12489.00365748-.0107362.008-.0212087.0131378-.0313937.0277323-.0543701.0748701-.0947008.13289-.113583.0580236-.0188819.119839-.0140472.174244.013626.00959843.00489764.0188622.0104173.0275315.0165315.068811-.0628898.171295-.0788661.257705-.0348819.0608031.0309291.103327.0862874.118571.150248.0493701-.00955906.101059-.0027126.147035.0206575.112209.0571063.157059.194882.0999685.307106-.00318504.00616142-.00657087.0121614-.010189.0179882.0599094.0689055.073685.168488.0306535.253016-.040252.0791378-.120681.124772-.203886.124772l.00003543-.00000787z"/><path id="_494253064" d="m3.7232 3.53452c-.0187244 0-.0365039-.0108307-.0445039-.0290236-.0107559-.0245236.00034252-.0531378.0249291-.0639094.0520512-.0228819.0895157-.0677087.102657-.122976.0202953-.0855984-.0235827-.172591-.104433-.206835-.0129488-.00548819-.0228976-.0163307-.0271969-.0297087-.0043622-.0133819-.00269291-.0279843.00454724-.0400276.00962598-.015878.0166693-.0331732.0210551-.0513976.0228307-.0963386-.0368898-.193358-.133224-.216256-.0576102-.0136969-.11824.0018937-.162283.0417323-.0131102.0118937-.031748.0156811-.0485157.00985039-.0166614-.00583071-.0289606-.0203307-.0318268-.0378268-.0119291-.0714803-.065189-.128488-.135673-.145248-.0885551-.0210591-.179039.0274724-.210201.112898-.00519685.0142008-.0166732.0251811-.0311535.0296772-.0144764.00448425-.0301496.00199606-.0424449-.00674409-.0187598-.0133268-.0397559-.0227992-.0624055-.0281614-.046622-.0111063-.0948228-.00335039-.135669.0218031-.0408268.0251457-.0694803.0647087-.0805906.11139-.00514173.0215354-.00623622.0434803-.00337795.0652283.00187402.0137953-.00227165.0277362-.0114488.038248-.00914961.0105079-.0224016.0165827-.0362992.0166575-.0829409.00050394-.15428.0572835-.17348.138094-.0213701.0900157.0305748.183169.118236.212071.0255472.00837402.0393268.0357992.0309055.061248-.0083189.0254488-.0357874.0392874-.0612165.0308898-.135138-.0445433-.215252-.188008-.182335-.326642.0257047-.107921.111673-.188004.217449-.207886.00084646-.0168819.00320079-.0337008.00724409-.0503504.0170236-.0718819.0610551-.132807.124047-.171555.0629449-.038748.137102-.0506575.20902-.0335866.0161969.00385039.0319134.00909843.0469921.0156732.0614843-.0994213.181224-.151343.29913-.123339.0846654.0201181.15311.0779213.187886.154591.0581063-.0298189.125476-.0385276.190406-.0230984.148406.0352677.240437.184701.205154.333094-.00267323.0113346-.00606299.0224685-.0101024.0332992.0955.0629252.143496.179614.116209.29465-.0202913.0851299-.0779016.154154-.158071.189366-.00630315.00279134-.0129646.00411024-.0194134.00411024z"/><path id="_494253640" d="m1.8057 2.25411c-.0381614 0-.0747283.0165512-.0998228.0457913-.0471417.0549528-.0408465.138051.0141457.185228.010374.00890945.0219803.0161181.0344449.0213898.0129921.00547638.0229094.0162953.0272835.0296772.00438976.0133819.00269685.0279921-.00454724.0400472-.0331614.0549921-.0218071.125343.0270354.167264.0550079.0471811.13811.0408543.185272-.0141063.0240118-.0280079.0351969-.0651102.0306535-.10178-.00224409-.0182126.00597638-.0361378.0212205-.0463189.0152638-.010189.0350394-.010874.0509488-.00179528.054437.0309882.123626.0189331.164476-.0287008.0213031-.0248386.0325906-.0565079.0316654-.089189-.0003937-.015752.00681496-.0307323.0193622-.0401811.0126496-.00945276.0290591-.0121772.0440512-.00733465.0505315.0163386.105602.00085433.140134-.039437.0239331-.0278228.0351181-.0647047.0308228-.101165-.00283071-.0234764.0117047-.0455472.0343583-.0522559.0241969-.00715354.0456417-.0211063.0621496-.0403543.0472441-.0549606.0409291-.138047-.0140669-.185224-.0460512-.0395748-.112764-.0425276-.162028-.00718504-.0112795.00811024-.0255984.0109764-.0391575.00783858-.0135394-.00312992-.0251811-.0119409-.031752-.0242008-.0076378-.0140984-.0177677-.0266024-.030063-.0371535-.0266142-.0228543-.0604685-.0339291-.0955-.0313031-.0349488.00266142-.0668622.0187874-.0896929.0454173-.0110866.0128819-.0194528.0274961-.0248386.043437-.00477559.0143268-.0160827.0255866-.0304016.030437-.0143189.00482677-.030063.00271654-.0426142-.00572835-.0551575-.0371575-.129437-.0270472-.172894.0235039-.0345276.0402126-.0415157.0968386-.0178504.14428.00791732.0158543.00648031.0347953-.00362205.0493465-.0100984.014563-.0273661.022437-.0450512.0205236-.00468898-.00051575-.00944094-.00076378-.014122-.00076772zm.0839409.617996c-.0526417 0-.105531-.0180669-.148567-.0549843-.0719961-.0617835-.0970945-.159114-.0680472-.24563-.00553543-.00399606-.0109409-.00824409-.016252-.0127402-.0954724-.0820315-.106531-.226488-.0245-.322047.0335433-.0390906.0788189-.0651299.128-.0750866-.0101693-.0649606.00808661-.132335.0524724-.184087.0631732-.0735866.164047-.0978465.251551-.0658622.00572835-.00898819.012126-.0176024.0191929-.0257953.0397795-.0462795.0950827-.0743189.155882-.0789488.0609882-.00466929.119839.0146929.166161.0544252.00866929.00745276.0166772.0154724.0240866.0240079.0788346-.0339803.171457-.0211614.238827.0366929.095622.0820118.106618.226488.0245906.322039-.020378.0236417-.0449685.0427047-.0725906.056248-.00251181.0502717-.0216417.0988976-.0548189.137524-.0470591.0549173-.11622.0832717-.186031.0793346-.00825591.0354528-.0250157.0686614-.049185.0968071-.0545709.0635512-.138201.0906417-.216858.0754409-.0077126.0377559-.0249252.0733937-.0504409.103146-.0451181.0525236-.109142.0795157-.173472.0795157z"/><path id="_494253088" d="m5.12037 3.7427c-.0132992 0-.0266102-.00548031-.0362126-.0162283-.017752-.0199961-.0160906-.0506535.00395276-.0684843.0589803-.0525827.0459882-.0943504.0262795-.157598-.021874-.0706142-.051878-.167327.0705748-.253079.022-.0153661.0522126-.0100276.0675394.0119213.015437.0219409.0100197.0521969-.011874.0675551-.0645079.0451417-.0541535.0784567-.0335197.144827.0215669.0694843.051122.164646-.0544016.258776-.00925984.00824409-.0208031.012311-.0323386.012311z"/><path id="_494253616" d="m4.83311 3.6835c-.013378 0-.0266142-.00548031-.0362126-.0162244-.0178268-.0199961-.0160827-.0506575.00387795-.0684843.0589764-.0525827.0459764-.0943543.0263543-.157606-.0219488-.0706063-.0519567-.167319.0705748-.253075.0219252-.0153701.052126-.0100197.0675394.0119252.0153228.0219291.0100157.052189-.0119606.0675551-.0645039.0451378-.0541535.0784528-.0335157.144827.0215748.0694803.0511181.164654-.0544055.258772-.00924803.00824409-.0208031.012315-.032252.012311z"/></g></g></svg>