<svg id="Layer_1" enable-background="new 0 0 24 24" height="512" viewBox="0 0 24 24" width="512" xmlns="http://www.w3.org/2000/svg" xmlns:xlink="http://www.w3.org/1999/xlink"><linearGradient id="lg1"><stop offset="0" stop-color="#b2d235"/><stop offset="1" stop-color="#00aaad"/></linearGradient><linearGradient id="SVGID_1_" gradientUnits="userSpaceOnUse" x1="12" x2="12" xlink:href="#lg1" y1=".179" y2="24.492"/><linearGradient id="SVGID_2_" gradientUnits="userSpaceOnUse" x1="11.993" x2="11.993" xlink:href="#lg1" y1=".179" y2="24.492"/><g id="Check"><path d="m12 2c-5.5 0-10 4.5-10 10s4.5 10 10 10 10-4.5 10-10-4.5-10-10-10zm0 18c-4.4000001 0-8-3.6000004-8-8s3.5999999-8 8-8 8 3.5999999 8 8-3.6000004 8-8 8z" fill="url(#SVGID_1_)"/><path d="m15.1999998 7.9000001-4.3000002 5.9999995-2.1999998-2.1999998c-.9000001-1-2.4000001.3999996-1.4000001 1.3999996l2.9999995 2.999999c.3999996.3999996 1.1999998.3999996 1.5-.1000004l5-7c.8000012-.999998-.7999992-2.1999978-1.5999994-1.0999979z" fill="url(#SVGID_2_)"/></g></svg>