<svg clip-rule="evenodd" fill-rule="evenodd" height="512" image-rendering="optimizeQuality" shape-rendering="geometricPrecision" text-rendering="geometricPrecision" viewBox="0 0 43.3492 43.3492" width="512" xmlns="http://www.w3.org/2000/svg"><g id="Layer_x0020_1"><circle cx="21.675" cy="21.675" fill="#039be5" r="21.675"/><g id="_275987384" fill="#fffffe"><path id="_275995184" d="m21.6747 8.3989c-7.3201 0-13.2757 5.9555-13.2757 13.2757.0002 7.3202 5.9555 13.2757 13.2756 13.2757 7.3202 0 13.2756-5.9554 13.2756-13.2757.0002-7.3203-5.9555-13.2757-13.2755-13.2757zm0 27.034c-3.6751 0-7.1297-1.431-9.7288-4.0296-2.5983-2.5988-4.0296-6.0537-4.0296-9.7287.0001-3.6751 1.4312-7.13 4.0296-9.7286 2.5993-2.5987 6.0536-4.0298 9.7287-4.0298 3.6754-.0001 7.1303 1.4312 9.7287 4.0298 2.5984 2.5985 4.0296 6.0536 4.0296 9.7286s-1.4312 7.1301-4.0296 9.7287c-2.5983 2.5986-6.0536 4.0297-9.7286 4.0296z"/><path id="_275994872" d="m21.6747 10.2012c-6.3262 0-11.4737 5.147-11.4737 11.4734.0002 6.3264 5.1472 11.4734 11.4736 11.4734 6.3265-.0001 11.4736-5.1469 11.4736-11.4734.0002-6.3265-5.1472-11.4734-11.4735-11.4734zm0 23.4296c-6.5921 0-11.9564-5.3636-11.9564-11.9562.0001-6.5927 5.3641-11.9561 11.9563-11.9561 6.5929-.0001 11.9563 5.3635 11.9563 11.9561 0 6.5925-5.3635 11.9562-11.9562 11.9562z"/><path id="_275994200" d="m21.6747 12.3792c-.1333 0-.2415-.1081-.2415-.2414l.0002-2.1775c0-.1334.1079-.2414.2412-.2414s.2413.1081.2413.2414l.0003 2.1775c0 .1333-.1084.2414-.2415.2414z"/><path id="_275994080" d="m24.4069 11.7206c-.0206 0-.0421-.0026-.0628-.0082-.1286-.0345-.2049-.1668-.1704-.2956l.3-1.1202c.0345-.1287.1664-.2053.2953-.1706.129.0344.2055.1668.1709.2955l-.3002 1.1202c-.0285.1079-.1266.179-.2328.1789z"/><path id="_275994776" d="m26.952 12.775c-.0407 0-.0824-.0103-.1202-.0323-.1154-.0667-.1552-.2142-.0886-.3297l.5802-1.0043c.0667-.1155.2136-.155.3293-.0883.1159.0665.1553.2142.0887.3297l-.5801 1.0043c-.0447.0773-.1258.1207-.2093.1206z"/><path id="_275993384" d="m29.1382 14.4524c-.0617 0-.1234-.0235-.1705-.0707-.0943-.0943-.0943-.247 0-.3413l.8204-.82c.0937-.0942.2468-.0942.3411 0 .0945.0941.0943.2471 0 .3413l-.8202.82c-.047.0471-.1088.0708-.1708.0707z"/><path id="_275993480" d="m30.8163 16.6384c-.0834 0-.1648-.0432-.2094-.1207-.0664-.1154-.0276-.263.088-.3296l1.0044-.5799c.1151-.0668.2628-.0271.33.0883.0669.1155.0271.2631-.0886.3298l-1.0042.5797c-.0379.022-.0794.0325-.1202.0324z"/><path id="_275993312" d="m31.8699 19.1841c-.1064 0-.2039-.071-.2328-.1789-.0345-.1288.0415-.2611.1703-.2956l1.1203-.3001c.1293-.0347.2613.042.2959.1707.0348.1287-.0422.2611-.171.2956l-1.1199.3c-.0207.0057-.0423.0084-.063.0084z"/><path id="_275994032" d="m32.9905 24.9479c-.0206 0-.0416-.0026-.063-.0081l-1.1198-.3002c-.129-.0345-.2052-.1668-.1706-.2956.0348-.1287.1666-.2053.2954-.1706l1.1202.3c.1287.0346.2054.1669.1709.2957-.0288.1078-.1264.1789-.2331.1788z"/><path id="_275994008" d="m31.8201 27.7734c-.0413 0-.0831-.0104-.1208-.0324l-1.0044-.5799c-.1154-.0666-.1546-.2142-.088-.3296.0668-.1155.2137-.1551.3294-.0884l1.0046.5798c.1157.0667.155.2143.0884.3298-.0451.0773-.1263.1207-.2092.1207z"/><path id="_275993120" d="m29.9584 30.1995c-.0617 0-.124-.0235-.1705-.0706l-.82-.82c-.0945-.0944-.0945-.2471-.0002-.3414.0943-.0942.247-.0943.3413 0l.8202.8199c.0945.0944.0943.2472 0 .3415-.0469.047-.1093.0707-.1708.0706z"/><path id="_275991704" d="m27.5327 32.0613c-.0834 0-.1647-.0433-.2093-.1208l-.5801-1.0043c-.0665-.1155-.0271-.263.0885-.3297.1151-.0667.2628-.027.3294.0884l.5802 1.0043c.0668.1154.027.2631-.0887.3297-.0377.0219-.0792.0324-.12.0324z"/><path id="_275990216" d="m24.7068 33.2315c-.107 0-.2044-.071-.2333-.1789l-.2996-1.1202c-.0345-.1288.0413-.261.1702-.2955.1296-.0347.2614.0419.2954.1706l.3006 1.1201c.0345.1288-.0423.2612-.1711.2957-.0206.0055-.0415.0083-.0622.0082z"/><path id="_275990384" d="m18.6431 33.2315c-.0207 0-.0421-.0026-.0629-.0082-.1286-.0345-.2049-.1668-.1703-.2956l.2999-1.1202c.0346-.1288.1665-.2052.2953-.1706.129.0344.2056.1668.171.2955l-.3002 1.1202c-.0292.1078-.1266.179-.2328.1789z"/><path id="_275990744" d="m15.8172 32.0613c-.0408 0-.0824-.0105-.1207-.0324-.1149-.0667-.1547-.2143-.088-.3297l.5798-1.0044c.0664-.1154.214-.155.3297-.0883.1158.0667.1546.2143.088.3297l-.5795 1.0043c-.0444.0775-.1258.1208-.2093.1208z"/><path id="_275989496" d="m13.3912 30.1995c-.0617 0-.1234-.0235-.1706-.0706-.0942-.0944-.0943-.2471 0-.3414l.8203-.82c.0936-.0942.247-.0943.3413 0 .0943.0941.0943.2471 0 .3414l-.8202.8199c-.0472.0471-.1088.0708-.1708.0707z"/><path id="_275988680" d="m11.53 27.7734c-.0837 0-.1649-.0433-.2095-.1207-.0665-.1156-.027-.2631.0886-.3297l1.004-.58c.1157-.0666.2632-.027.3298.0885.0668.1153.027.2631-.0886.3297l-1.0038.5797c-.0381.0221-.0798.0325-.1205.0325z"/><path id="_275988920" d="m10.3591 24.9479c-.1064 0-.2039-.0709-.2329-.1788-.0344-.1289.0415-.2611.1704-.2956l1.1203-.3002c.1293-.0346.2613.042.2958.1707.0346.1287-.0421.2611-.1709.2956l-1.1199.3001c-.021.0055-.0423.0083-.0631.0083z"/><path id="_275988344" d="m11.4797 19.1841c-.0209 0-.0417-.0026-.063-.0082l-1.1199-.3001c-.1289-.0346-.2051-.1669-.1706-.2956.0349-.1287.166-.2053.2955-.1707l1.1202.3001c.1287.0345.2054.1669.1708.2956-.0288.1079-.1263.179-.2332.179z"/><path id="_275988104" d="m12.5336 16.6384c-.0407 0-.0824-.0103-.1207-.0322l-1.0036-.58c-.1157-.0666-.1554-.2142-.0888-.3296.0667-.1155.2143-.155.33-.0884l1.0039.5798c.1156.0667.1551.2143.0885.3298-.0444.0774-.1257.1208-.2093.1206z"/><path id="_275988296" d="m14.2114 14.4524c-.0616 0-.124-.0235-.1706-.0707l-.8202-.8201c-.0942-.0942-.0943-.2469 0-.3412.0945-.0942.247-.0942.3413 0l.8204.8199c.0942.0944.0942.2472-.0001.3414-.0472.0471-.1094.0708-.1708.0707z"/><path id="_275988488" d="m16.3973 12.775c-.0829 0-.1647-.0432-.2093-.1206l-.5793-1.0044c-.0667-.1154-.0273-.263.0878-.3296.1159-.0668.2633-.0271.3299.0883l.5796 1.0043c.0668.1154.0276.2631-.088.3297-.0381.022-.0798.0324-.1207.0323z"/><path id="_275987936" d="m18.9429 11.7206c-.1066 0-.2043-.071-.2332-.1789l-.2997-1.1203c-.0345-.1287.0414-.261.1702-.2954.1296-.0348.2609.0419.2955.1706l.3006 1.1202c.0345.1287-.0423.2611-.1712.2956-.0206.0056-.0414.0083-.0622.0082z"/><path id="_275988128" d="m33.389 21.9159h-2.1773c-.1332 0-.2415-.108-.2415-.2413.0002-.1333.1081-.2413.2414-.2413h2.1774c.1333 0 .2412.108.2412.2413.0001.1331-.1081.2414-.2412.2413z"/><path id="_275987360" d="m21.6747 33.6302c-.1333 0-.2415-.108-.2415-.2413l.0002-2.1776c0-.1332.1079-.2413.2412-.2413.1333-.0001.2413.1081.2413.2414l.0003 2.1774c0 .1334-.1084.2415-.2415.2414z"/><path id="_275987768" d="m12.1384 21.9159h-2.1779c-.1332 0-.2416-.108-.2416-.2413.0001-.1333.1082-.2413.2414-.2413h2.1781c.1333 0 .2412.108.2412.2413.0001.1331-.1081.2414-.2412.2413z"/><path id="_275987648" d="m20.8866 21.9182c-.0008 0-.0021 0-.0027 0l-.6642-.0075c-.1332-.0014-.2403-.1107-.2391-.2439.0015-.1324.1094-.2387.2414-.2387.0008-.0001.0019 0 .0025 0l.6647.0074c.1332.0014.2398.1109.2386.2441-.0013.1322-.1094.2386-.2412.2386zm6.8034.0765c-.0006 0-.0021 0-.0027 0l-5.5205-.0621c-.1332-.0015-.2402-.1107-.2389-.244.0019-.1325.1094-.2386.2413-.2386.0016-.0001.0019 0 .0026 0l5.5207.0619c.1338.0015.2406.1109.2386.2442-.001.1323-.1093.2386-.2411.2386z"/><path id="_275987600" d="m21.1398 21.488c-.0622 0-.1239-.0235-.1711-.0706l-3.2174-3.2176c-.0942-.0944-.0944-.2471-.0001-.3414.0943-.0942.247-.0942.3413 0l3.2176 3.2176c.0944.0942.0942.2471-.0001.3414-.0469.047-.1087.0707-.1702.0706zm1.0542 1.0543c-.0617 0-.1241-.0235-.1712-.0706l-.2005-.2011c-.0942-.0942-.0943-.247 0-.3412.0945-.0944.247-.0942.3413 0l.2012.2009c.0945.0944.0943.2472 0 .3415-.0469.047-.1094.0706-.1708.0705z"/><path id="_275987480" d="m21.5666 21.3112c-.2 0-.3622.1625-.3622.3622.0002.1995.1622.3621.3621.3621.1992-.0001.362-.1625.362-.3621.0002-.1997-.1628-.3621-.3619-.3622zm0 1.2069c-.4664 0-.8449-.3789-.8449-.8447 0-.4659.3784-.8448.8448-.8448.466-.0001.8447.379.8447.8448.0003.4657-.379.8448-.8446.8447z"/></g></g></svg>