<svg clip-rule="evenodd" fill-rule="evenodd" height="512" image-rendering="optimizeQuality" shape-rendering="geometricPrecision" text-rendering="geometricPrecision" viewBox="0 0 173.397 173.397" width="512" xmlns="http://www.w3.org/2000/svg"><g id="Layer_x0020_1"><circle cx="86.699" cy="86.699" fill="#4285f4" r="84.667"/><g id="_469188104" fill="#fefefe"><path id="_469187624" d="m41.8643 49.0002c-4.1075 0-7.4491 3.3421-7.4491 7.4502v60.499c0 4.1056 3.3416 7.4479 7.4491 7.4479h89.6686c4.1073 0 7.4489-3.3421 7.4489-7.4477v-60.4992c0-4.1082-3.3417-7.4502-7.4489-7.4502zm89.6686 77.7842h-89.6686c-5.4238 0-9.8362-4.4113-9.8362-9.8348v-60.4992c0-5.4236 4.4124-9.8375 9.8362-9.8375l89.6686-.0001c5.4238 0 9.8361 4.4141 9.8361 9.8376l.0001 60.499c0 5.4236-4.4125 9.8352-9.8362 9.835z"/><path id="_469187960" d="m86.6985 98.7789c-.2922 0-.5842-.1067-.8132-.3205l-50.8448-47.3273c-.4825-.4502-.5095-1.2059-.0604-1.6882.4493-.4827 1.2045-.5099 1.687-.0597l50.0314 46.5711 50.0384-46.5761c.4826-.4477 1.2376-.4228 1.6869.0597.4491.4821.422 1.2383-.0604 1.6884l-50.8516 47.3321c-.2292.2137-.5214.3208-.8133.3205z"/><path id="_469187912" d="m35.8616 124.328c-.3198 0-.6388-.1268-.874-.3804-.4491-.4826-.422-1.2383.0605-1.686l39.1427-36.4355c.4826-.45 1.2379-.4225 1.687.0599.4493.4823.4222 1.2383-.0604 1.6859l-39.1428 36.4352c-.2299.214-.5218.321-.813.3209zm101.677.0025c-.2911 0-.5832-.1044-.8132-.3182l-39.146-36.4405c-.4825-.4476-.5096-1.2034-.0604-1.6858.4493-.4825 1.2045-.5098 1.6869-.0597l39.1461 36.4377c.4827.4501.5097 1.2037.0606 1.6861-.2351.2534-.5542.3805-.874.3804z"/></g></g></svg>