<svg clip-rule="evenodd" fill-rule="evenodd" stroke-linejoin="round" stroke-miterlimit="2" viewBox="0 0 32 32" xmlns="http://www.w3.org/2000/svg" xmlns:xlink="http://www.w3.org/1999/xlink"><linearGradient id="_Linear1" gradientTransform="matrix(26 0 0 28 387 16)" gradientUnits="userSpaceOnUse" x1="0" x2="1" y1="0" y2="0"><stop offset="0" stop-color="#0058b4"/><stop offset="1" stop-color="#00a2ff"/></linearGradient><g transform="translate(-384)"><path d="m406 26.5c0-.276-.224-.5-.5-.5h-18c-.276 0-.5.224-.5.5v3c0 .276.224.5.5.5h18c.276 0 .5-.224.5-.5zm-1-4.5h2.5c.276 0 .5-.224.5-.5v-14c0-.828.672-1.5 1.5-1.5s1.5.672 1.5 1.5v5.5h-.5c-.276 0-.5.224-.5.5v5c0 .276.224.5.5.5h.278l-1.246 3.324c-.097.259.034.547.292.644.259.097.547-.034.644-.292l1.379-3.676h.653c.276 0 .5-.224.5-.5v-5c0-.276-.224-.5-.5-.5h-.5v-5.5c0-1.381-1.119-2.5-2.5-2.5s-2.5 1.119-2.5 2.5v13.5h-2v-17.5c0-.828-.672-1.5-1.5-1.5h-14c-.828 0-1.5.672-1.5 1.5v22h17zm-8.076-8.765c-.091-.146-.251-.235-.424-.235s-.333.089-.424.235c0 0-1.489 2.388-2.383 4.339-.415.908-.693 1.734-.693 2.226 0 1.751 1.555 3.2 3.5 3.2s3.5-1.449 3.5-3.2c0-.492-.278-1.318-.693-2.226-.894-1.951-2.383-4.339-2.383-4.339zm-.424 1.229c.496.835 1.323 2.273 1.897 3.526.341.743.603 1.408.603 1.81 0 1.23-1.134 2.2-2.5 2.2s-2.5-.97-2.5-2.2c0-.402.262-1.067.603-1.81.574-1.253 1.401-2.691 1.897-3.526zm5.5-7.964c0-.276-.224-.5-.5-.5h-10c-.276 0-.5.224-.5.5v4c0 .276.224.5.5.5h10c.276 0 .5-.224.5-.5zm-1 .5v3h-9v-3z" fill="url(#_Linear1)"/></g></svg>