<svg clip-rule="evenodd" fill-rule="evenodd" image-rendering="optimizeQuality" shape-rendering="geometricPrecision" text-rendering="geometricPrecision" viewBox="0 0 254000 254000" xmlns="http://www.w3.org/2000/svg"><g id="&#x56FE;&#x5C42;_x0020_1"><circle cx="127000" cy="127000" fill="#178feb" r="127001"/><g fill="#fff" fill-rule="nonzero"><path d="m127000 74567c7453 0 14202 3023 19088 7909s7909 11635 7909 19088-3023 14202-7909 19088-11635 7909-19088 7909-14202-3023-19088-7909-7909-11635-7909-19088 3023-14202 7909-19088 11635-7909 19088-7909zm13102 13895c-3353-3353-7986-5427-13102-5427s-9749 2074-13102 5427-5427 7986-5427 13102 2074 9749 5427 13102 7986 5427 13102 5427 9749-2074 13102-5427 5427-7986 5427-13102-2074-9749-5427-13102z"/><path d="m127000 46429c14830 0 28260 6015 37982 15737 9721 9721 15736 23151 15736 37981 0 29639-19947 59193-37753 85576-4753 7042-9354 13859-13141 19997-1223 1982-3823 2596-5805 1373-598-369-1070-863-1406-1427-3668-5941-7907-12304-12243-18811-17726-26604-37088-55663-37088-86708 0-14830 6015-28260 15736-37981 9722-9722 23152-15737 37982-15737zm31996 21723c-8189-8189-19502-13255-31996-13255s-23807 5066-31996 13255c-8188 8188-13254 19501-13254 31995 0 28519 18618 56462 35664 82044 3007 4514 5968 8956 8825 13408 3115-4829 6376-9660 9714-14606 17119-25365 36297-53781 36297-80846 0-12494-5066-23807-13254-31995z"/></g></g></svg>