<svg id="SVGRoot" height="512" viewBox="0 0 512 512" width="512" xmlns="http://www.w3.org/2000/svg" xmlns:xlink="http://www.w3.org/1999/xlink" xmlns:svg="http://www.w3.org/2000/svg"><linearGradient id="linearGradient2995" gradientUnits="userSpaceOnUse" x1="25.486" x2="535.486" y1="479.111" y2="29.111"><stop id="stop2989" offset="0" stop-color="#025"/><stop id="stop2991" offset="1" stop-color="#06f"/></linearGradient><linearGradient id="linearGradient6498" gradientUnits="userSpaceOnUse" x1="134.375" x2="428.598" y1="255.111" y2="255.111"><stop id="stop6492" offset="0" stop-color="#094bac"/><stop id="stop6494" offset="1" stop-color="#5a9cfe"/></linearGradient><g id="g1924" clip-rule="evenodd" fill="url(#linearGradient6498)" fill-rule="evenodd" stroke-linecap="round" stroke-miterlimit="10" transform="translate(-25.486 .889)"><path id="path6325" d="m360.22266 399.07031a11.0002 11.0002 0 0 0 -6.63868 5.17578 11.0002 11.0002 0 0 0 4.14454 14.9961c15.52218 8.80043 21.64171 18.5271 21.64648 26.43164-.003 9.08823-8.11303 19.80261-25.8125 28.65234-17.70316 8.85158-43.49361 14.78516-72.07617 14.78516s-54.37302-5.93358-72.07617-14.78516c-17.68201-8.841-25.78924-19.54253-25.8086-28.625.0695-7.86546 6.20825-17.55044 21.64258-26.30078a11.0002 11.0002 0 0 0 4.14453-14.99414 11.0002 11.0002 0 0 0 -14.99414-4.14453c-19.46695 11.03659-32.67692 26.80527-32.79687 45.33398v.0352.0371c0 20.97933 16.26586 37.48254 37.97265 48.33594 21.70679 10.85339 50.36099 17.10742 81.91602 17.10742s60.20922-6.25403 81.91601-17.10742c21.70679-10.8534 37.97266-27.35661 37.97266-48.33594v-.004-.004c-.0112-18.60606-13.24929-34.47398-32.79688-45.55664a11.0002 11.0002 0 0 0 -8.35546-1.03321z"/><g stroke-linejoin="round"><path id="path9620" d="m281.48633-.88867188c-81.02841.00058811-146.9856 65.85578388-147.11133 146.88281188a11.0013 11.0013 0 0 0 0 .0156c0 .0135-.00013.0891 0 .16406v.0547.10742a11.0013 11.0013 0 0 0 0 .0195c.17192 99.60094 66.22824 194.91127 115.88086 288.67578 7.25747 13.70542 18.00833 23.45889 31.29492 23.45703 13.28659-.002 24.03982-9.74274 31.33399-23.45117 50.24952-94.43836 115.72005-189.20999 115.71289-288.80659.00058-81.109081-65.98255-147.09696578-147.08985-147.10937625a11.0013 11.0013 0 0 0 -.0215-.009766zm-.0117 22.00195288a11.0013 11.0013 0 0 0 .0117.0059c69.22752.000502 125.11182 55.885077 125.11133 125.111329a11.0013 11.0013 0 0 0 0 .002c.006 89.71131-62.10256 182.55938-113.13477 278.46875-5.20625 9.78448-9.83643 11.78682-11.91602 11.78711-2.07958.00029-6.67576-1.98506-11.84765-11.75195-50.46562-95.29989-113.16135-188.75823-113.32422-278.40048v-.10742-.0547a11.0013 11.0013 0 0 0 0-.0547c.00008.0154-.00001-.0303 0-.0918v-.0176c.11682-69.136797 55.96013-124.889572 125.09961-124.896439z"/><path id="path2686" d="m281.51172 80.779297c-36.01363 0-65.44531 29.430043-65.44531 65.443363 0 36.01331 29.43168 65.44336 65.44531 65.44336 36.01362 0 65.44336-29.43005 65.44336-65.44336 0-36.01332-29.42974-65.443363-65.44336-65.443363zm0 22.000003c24.12394 0 43.44336 19.32013 43.44336 43.44336 0 24.12322-19.31942 43.44336-43.44336 43.44336s-43.44531-19.32014-43.44531-43.44336c0-24.12323 19.32137-43.44336 43.44531-43.44336z"/></g></g></svg>