<svg id="Layer_1" height="512" viewBox="0 0 512 512" width="512" xmlns="http://www.w3.org/2000/svg" data-name="Layer 1"><path d="m256 0c141.385 0 256 114.615 256 256s-114.615 256-256 256-256-114.615-256-256 114.615-256 256-256zm-50.55 163.835a50.563 50.563 0 1 0 50.563-50.57 50.616 50.616 0 0 0 -50.563 50.57zm115.9 0a65.337 65.337 0 1 0 -65.336 65.337 65.414 65.414 0 0 0 65.336-65.337zm-111.256 95.006c-15.848 6.406-34.859 11.463-56.686 15.068-22.7 8.859-33.409 23.606-32.77 45.067v79.759h44.815v-84.287a7.387 7.387 0 0 1 14.774 0v84.287h151.573v-84.287a7.387 7.387 0 0 1 14.774 0v84.287h44.815v-79.759c.639-21.461-10.072-36.208-32.77-45.067-21.856-3.605-40.867-8.662-56.686-15.068-4.035 29.139-17.416 60.257-39.852 92.688a7.375 7.375 0 0 1 -12.133 0c-22.436-32.431-35.817-63.549-39.852-92.688zm-61.272 1.008c-14.4 5.494-25.34 13.285-32.538 23.159-7.314 10.029-10.8 22.242-10.42 36.294v86.815a7.39 7.39 0 0 0 7.4 7.384h285.5a7.364 7.364 0 0 0 7.372-7.384v-86.817c.407-14.052-3.076-26.265-10.391-36.294-7.2-9.874-18.141-17.665-32.538-23.159a7.633 7.633 0 0 0 -1.451-.389c-25.339-4.131-46.527-10.229-62.956-18.124a7.378 7.378 0 0 0 -10.565 6.191c-1.655 26.736-12.51 55.79-32.218 86.5-19.709-30.706-30.564-59.76-32.219-86.5a7.411 7.411 0 0 0 -10.594-6.191c-16.4 7.895-37.588 13.993-62.927 18.124a7.1 7.1 0 0 0 -1.455.391z" fill="#1976d2" fill-rule="evenodd"/></svg>