<svg id="Layer_1" enable-background="new 0 0 512 512" height="512" viewBox="0 0 512 512" width="512" xmlns="http://www.w3.org/2000/svg"><circle clip-rule="evenodd" cx="256" cy="256" fill="#415eb3" fill-rule="evenodd" r="256"/><g id="Layer_x0020_1"><g id="_283984408" clip-rule="evenodd" fill="#fffffe" fill-rule="evenodd"><path id="_283986568" d="m353.1 275.6 43 11.5c2.2-10.2 3.4-20.6 3.4-31.1 0-79.1-64.4-143.5-143.5-143.5s-143.5 64.4-143.5 143.5c0 10.5 1.1 21 3.4 31.1l43-11.5c-1.3-6.4-1.9-13-1.9-19.6 0-54.6 44.4-99.1 99.1-99.1 54.6 0 99.1 44.4 99.1 99.1-.2 6.6-.7 13.1-2.1 19.6zm45.4 18.9c-.3 0-.6 0-.8-.1l-49.3-13.2c-1.7-.5-2.7-2.2-2.3-3.9 1.6-6.9 2.4-14 2.4-21.2 0-51-41.5-92.5-92.5-92.5s-92.5 41.5-92.5 92.5c0 7.2.8 14.3 2.4 21.2.4 1.7-.6 3.5-2.3 3.9l-49.4 13.2c-.9.2-1.8.1-2.5-.3-.8-.4-1.3-1.2-1.5-2-2.9-11.7-4.3-23.8-4.3-36 0-40.1 15.6-77.8 44-106.1 28.3-28.3 66-44 106.1-44s77.8 15.6 106.1 44c28.3 28.3 44 66 44 106.1 0 12.2-1.5 24.3-4.3 36-.2.9-.8 1.6-1.5 2-.5.1-1.2.4-1.8.4z"/><path id="_283985824" d="m256 145.6c-1.8 0-3.3-1.5-3.3-3.3v-33.1c0-1.8 1.5-3.3 3.3-3.3s3.3 1.5 3.3 3.3v33.2c-.1 1.7-1.4 3.2-3.3 3.2z"/><path id="_283985392" d="m289.4 134.9c-.3 0-.6 0-.9-.1-1.7-.5-2.8-2.3-2.3-4l4.7-17.4c.5-1.7 2.3-2.8 4-2.3s2.8 2.3 2.3 4l-4.7 17.4c-.4 1.4-1.7 2.4-3.1 2.4z"/><path id="_283985584" d="m347 168.2c-.8 0-1.7-.3-2.3-1-1.3-1.3-1.3-3.4 0-4.6l12.8-12.8c1.3-1.3 3.4-1.3 4.6 0 1.3 1.3 1.3 3.4 0 4.6l-12.8 12.8c-.5.7-1.4 1-2.3 1z"/><path id="_283985704" d="m380.4 225.9c-1.4 0-2.8-1-3.2-2.4-.5-1.7.6-3.5 2.3-4l17.4-4.7c1.7-.5 3.5.6 4 2.3s-.6 3.5-2.3 4l-17.4 4.7c-.2.1-.6.1-.8.1z"/><path id="_283985224" d="m222.6 134.9c-1.4 0-2.8-1-3.2-2.4l-4.7-17.4c-.5-1.7.6-3.5 2.3-4s3.5.6 4 2.3l4.7 17.4c.5 1.7-.6 3.5-2.3 4-.2 0-.5.1-.8.1z"/><path id="_283985680" d="m164.9 168.2c-.8 0-1.7-.3-2.3-1l-12.8-12.8c-1.3-1.3-1.3-3.4 0-4.6 1.3-1.3 3.4-1.3 4.6 0l12.8 12.8c1.3 1.3 1.3 3.4 0 4.6-.6.7-1.3 1-2.3 1z"/><path id="_283985296" d="m131.6 225.9c-.3 0-.6 0-.9-.1l-17.4-4.7c-1.7-.5-2.8-2.3-2.3-4s2.3-2.8 4-2.3l17.4 4.7c1.7.5 2.8 2.3 2.3 4-.3 1.4-1.6 2.4-3.1 2.4z"/><path id="_283985776" d="m312.9 160.9c-.6 0-1.1-.1-1.6-.4-1.6-.9-2.1-2.9-1.2-4.5l16.6-28.7c.9-1.6 2.9-2.1 4.5-1.2s2.1 2.9 1.2 4.5l-16.7 28.7c-.7.9-1.7 1.6-2.8 1.6z"/><path id="_283985656" d="m354.5 202.4c-1.1 0-2.2-.6-2.8-1.6-.9-1.6-.4-3.6 1.2-4.5l28.7-16.6c1.6-.9 3.6-.4 4.5 1.2s.4 3.6-1.2 4.5l-28.7 16.6c-.7.4-1.2.4-1.7.4z"/><path id="_283985416" d="m402.9 259.2h-33.2c-1.8 0-3.3-1.5-3.3-3.3s1.5-3.3 3.3-3.3h33.2c1.8 0 3.3 1.5 3.3 3.3-.2 2-1.6 3.3-3.3 3.3z"/><path id="_283984888" d="m199.1 160.9c-1.1 0-2.2-.6-2.8-1.6l-16.6-28.7c-.9-1.6-.4-3.6 1.2-4.5s3.6-.4 4.5 1.2l16.6 28.7c.9 1.6.4 3.6-1.2 4.5-.4.3-1 .4-1.7.4z"/><path id="_283984672" d="m157.6 202.4c-.6 0-1.1-.1-1.6-.4l-28.7-16.6c-1.6-.9-2.1-2.9-1.2-4.5s2.9-2.1 4.5-1.2l28.7 16.6c1.6.9 2.1 2.9 1.2 4.5-.6 1.1-1.7 1.6-2.9 1.6z"/><path id="_283984552" d="m142.4 259.2h-33.1c-1.8 0-3.3-1.5-3.3-3.3s1.5-3.3 3.3-3.3h33.2c1.8 0 3.3 1.5 3.3 3.3-.2 2-1.7 3.3-3.4 3.3z"/><path id="_283984528" d="m256 327.5c-11.7 0-21.2 9.5-21.2 21.2s9.6 21.3 21.2 21.3c11.7 0 21.2-9.5 21.2-21.2s-9.4-21.3-21.2-21.3zm0 49.1c-15.3 0-27.8-12.5-27.8-27.8s12.5-27.8 27.8-27.8 27.8 12.5 27.8 27.8-12.4 27.8-27.8 27.8z"/><path id="_283984960" d="m273.5 334.9c-.2 0-.3 0-.5 0-1.8-.3-3-2-2.7-3.8l14-87.3-31.6 82.6c-.6 1.7-2.5 2.5-4.2 1.9s-2.5-2.5-1.9-4.2l42.9-112.1c.6-1.6 2.3-2.4 3.9-2s2.7 2 2.4 3.7l-19 118.5c-.3 1.6-1.8 2.7-3.3 2.7zm-11.5 71.1c-.3 0-.6 0-.8-.1l-38.3-10.3c-.9-.2-1.6-.8-2.1-1.7-.4-.8-.5-1.8-.1-2.7l11.6-30.4c.6-1.7 2.5-2.5 4.2-1.9s2.5 2.5 1.9 4.2l-10.3 27.1 31.2 8.4 4.6-28.6c.3-1.8 2-3 3.8-2.7s3 2 2.7 3.8l-5.1 32.2c-.1.9-.7 1.7-1.5 2.2-.6.5-1.2.5-1.8.5z"/></g></g></svg>