<svg id="Layer_1" viewBox="0 0 512 512" xmlns="http://www.w3.org/2000/svg" data-name="Layer 1"><path d="m278.875 56.574h-32.749a6.388 6.388 0 0 1 -6.388-6.388c0-.135 0-.269.013-.4a21.829 21.829 0 0 0 -43.64.477 6.363 6.363 0 0 1 -6.363 6.288v.025h-32.748v40.1h121.875v-40.1zm-170.844 389.27v-29.509h-24.355zm5.092-291.128a6.388 6.388 0 0 1 0-12.776h209.627a6.388 6.388 0 0 1 0 12.776zm0 41.541a6.388 6.388 0 1 1 0-12.776h209.627a6.388 6.388 0 0 1 0 12.776zm258.921 51.043a6.375 6.375 0 1 1 11.578-5.34l11.416 24.77a6.374 6.374 0 0 1 -3.118 8.459l-24.771 11.411a6.375 6.375 0 0 1 -5.34-11.578l11.251-5.185a46.365 46.365 0 0 0 -16.145-.719 46.123 46.123 0 0 0 -33.873 68.805 6.373 6.373 0 0 1 -11.029 6.388 58.875 58.875 0 0 1 64.794-86.684zm-20.374 135.445-5.264-11.422a58.875 58.875 0 0 0 67.519-85.957 6.372 6.372 0 0 0 -11.029 6.387 46.121 46.121 0 0 1 -50.97 67.863l9.979-4.6a6.375 6.375 0 0 0 -5.34-11.578l-24.765 11.418a6.375 6.375 0 0 0 -3.119 8.459l11.417 24.77a6.375 6.375 0 1 0 11.577-5.34zm80.965-137.92a98.522 98.522 0 0 0 -168.188 69.666 98.522 98.522 0 1 0 168.188-69.667zm-73.3 180.9v26.689a4.808 4.808 0 0 1 -4.775 4.776h-233.753v-47.243a6.388 6.388 0 0 0 -6.388-6.388h-37.879v-302.728a4.806 4.806 0 0 1 4.775-4.774h62.908v7.007a6.388 6.388 0 0 0 6.388 6.388h134.652a6.388 6.388 0 0 0 6.388-6.388v-7.007h62.907a4.8 4.8 0 0 1 4.775 4.774v102.423a110.752 110.752 0 0 0 -62.572 21.768h-183.638a6.388 6.388 0 0 0 0 12.776h169.191a111.544 111.544 0 0 0 -19.821 28.765h-149.37a6.388 6.388 0 1 0 0 12.776h144.216a110.889 110.889 0 0 0 -5.486 28.765h-138.73a6.388 6.388 0 0 0 0 12.776h138.73a110.938 110.938 0 0 0 5.486 28.765h-144.216a6.388 6.388 0 1 0 0 12.776h149.37a111.551 111.551 0 0 0 19.823 28.765h-132.05a6.388 6.388 0 0 0 0 12.776h146.5a110.76 110.76 0 0 0 62.571 21.767zm26.032-2.194v28.884a30.913 30.913 0 0 1 -30.805 30.805h-273.248a30.913 30.913 0 0 1 -30.8-30.805v-351.584a30.913 30.913 0 0 1 30.8-30.805h62.909v13.255h-62.908a17.585 17.585 0 0 0 -17.551 17.55v309.116.159.017.148l.01.157v.006c.008.1.018.208.031.311v.01.01c.012.1.027.2.044.293v.014.009l.026.132v.016.012l.027.125v.018.016l.029.118.005.02v.008l.038.138.005.017.034.116.007.024.007.022.033.1.04.037v.012l.038.109.01.027.017.045.027.072v.007l.021.053.041.1.012.027.041.1.014.033.018.037.032.07.032.065.034.069v.006l.025.047.007.015.036.067.031.058v.006l.037.067v.008l.034.058.038.065.04.066.04.064.038.059.041.064.008.01.035.052.043.063.044.062.044.061.005.007.04.054.046.06.047.06.047.059c.061.075.123.149.188.221l.012.014.045.05.052.055.1.111 43.569 52.789a6.382 6.382 0 0 0 5.259 2.762h240.17a17.587 17.587 0 0 0 17.551-17.552v-27a111.54 111.54 0 0 0 13.256-1.882zm12.773-214.663a111.348 111.348 0 0 1 0 211.247v32.3a43.69 43.69 0 0 1 -43.58 43.585h-273.246a43.692 43.692 0 0 1 -43.581-43.581v-351.588a43.692 43.692 0 0 1 43.581-43.581h62.909v-7.064a6.389 6.389 0 0 1 6.388-6.388h33.438a34.559 34.559 0 0 1 67.776 0h33.438a6.389 6.389 0 0 1 6.388 6.388v7.064h62.909a43.69 43.69 0 0 1 43.58 43.581zm-26.031-5.3a111.073 111.073 0 0 1 13.256 1.882v-104.619a30.913 30.913 0 0 0 -30.805-30.805h-62.909v13.255h62.907a17.583 17.583 0 0 1 17.551 17.55z" fill="#21a85a" fill-rule="evenodd"/></svg>