<svg clip-rule="evenodd" fill-rule="evenodd" height="512" image-rendering="optimizeQuality" shape-rendering="geometricPrecision" text-rendering="geometricPrecision" viewBox="0 0 2667 2667" width="512" xmlns="http://www.w3.org/2000/svg"><g id="Layer_x0020_1"><circle cx="1333" cy="1333" fill="#1d81ce" r="1333"/><path d="m1966 2072c-9 0-18-5-21-14l-34-78h-41v69c0 13-10 23-23 23s-23-10-23-23v-93s0-1 0-2v-117c0-13 10-23 23-23h79c46 0 83 37 83 83 0 34-21 63-50 76l28 67c6 12 0 25-12 30-3 2-6 2-9 2zm-73-700h-536v329c123 12 220 116 220 242 0 134-109 244-244 244-134 0-243-110-243-244 0-126 97-230 220-242v-329h-536v329c123 12 220 116 220 242 0 134-110 244-244 244s-243-110-243-244c0-126 97-230 220-242v-353-382c-123-12-220-116-220-243 0-134 109-243 243-243 135 0 244 109 244 243 0 127-97 231-220 243v359h536v-359c-123-12-220-116-220-243 0-134 109-243 243-243 135 0 244 109 244 243 0 127-97 231-220 243v359h536v-359c-123-12-220-116-220-243 0-134 109-243 243-243 135 0 244 109 244 243 0 127-97 231-220 243v382 353c123 12 220 116 220 242 0 134-109 244-244 244-134 0-243-110-243-244 0-126 97-230 220-242zm-1143-845c-108 0-197 88-197 196 0 109 89 197 197 197 109 0 197-88 197-197 0-108-88-196-197-196zm0 1219c-108 0-197 89-197 197 0 109 89 197 197 197 109 0 197-88 197-197 0-108-88-197-197-197zm583-1219c-108 0-196 88-196 196 0 109 88 197 196 197 109 0 197-88 197-197 0-108-88-196-197-196zm0 1219c-108 0-196 89-196 197 0 109 88 197 196 197 109 0 197-88 197-197 0-108-88-197-197-197zm583-1219c-108 0-196 88-196 196 0 109 88 197 196 197 109 0 197-88 197-197 0-108-88-196-197-196zm0 1219c-108 0-196 89-196 197 0 109 88 197 196 197 109 0 197-88 197-197 0-108-88-197-197-197zm8 187h4c19-1 34-17 34-36 0-20-16-36-36-36h-56v72z" fill="#fff"/></g></svg>