<svg id="Layer_1" height="512" viewBox="0 0 512 512" width="512" xmlns="http://www.w3.org/2000/svg" data-name="Layer 1"><path d="m256.085 114.3c78.54 0 142.457 63.9 142.457 142.449s-63.917 142.451-142.457 142.451-142.456-63.9-142.456-142.452 63.916-142.448 142.456-142.448zm-65.332 232.03-.943 5.27 4.717 2.97a115.362 115.362 0 0 0 123.163-.041l4.434-2.789-.613-5.18c-.047-.31-.094-.621-.141-.94a65.366 65.366 0 0 0 -130.57.459.5.5 0 0 0 -.047.251zm65.332-112.89a15.826 15.826 0 1 0 -15.8-15.821 15.926 15.926 0 0 0 15.8 15.821zm29.105 15.319-9.765 9.16 12.595 4.621a92.449 92.449 0 0 1 53.3 51.179l6.368 15.41 8.4-14.419a115.617 115.617 0 1 0 -199.958.08l8.443 14.391 6.321-15.41a92.464 92.464 0 0 1 53.3-51.211l12.594-4.63-9.764-9.151a42.677 42.677 0 1 1 58.162-.02zm215.81-47.949-50.426-8.882-1.651-4.509c-2.217-6.121-4.67-12.13-7.453-18.021l-2.028-4.33 29.387-41.949a13.459 13.459 0 0 0 -1.509-17.18l-60.426-60.41a13.4 13.4 0 0 0 -17.17-1.51l-41.938 29.381-4.34-2.029c-5.9-2.76-11.887-5.27-18.019-7.461l-4.527-1.621-8.868-50.45a13.459 13.459 0 0 0 -13.257-11.09h-85.375a13.459 13.459 0 0 0 -13.255 11.09l-8.868 50.45-4.528 1.619c-6.132 2.191-12.123 4.7-18.02 7.461l-4.344 2.031-41.936-29.381a13.4 13.4 0 0 0 -17.17 1.51l-60.426 60.41a13.4 13.4 0 0 0 -1.509 17.18l29.387 41.949-2.031 4.332c-2.783 5.891-5.236 11.9-7.453 18.021l-1.647 4.507-50.427 8.882a13.409 13.409 0 0 0 -11.085 13.218v85.441a13.411 13.411 0 0 0 11.085 13.219l50.427 8.881 1.651 4.51c2.217 6.12 4.67 12.129 7.453 18.02l2.028 4.33-29.387 41.95a13.4 13.4 0 0 0 1.509 17.18l60.426 60.41a13.4 13.4 0 0 0 17.17 1.509l41.983-29.389 4.292 2.05c5.9 2.77 11.935 5.27 18.02 7.47l4.528 1.62 8.868 50.429a13.458 13.458 0 0 0 13.259 11.091h85.38a13.458 13.458 0 0 0 13.255-11.091l8.868-50.449 4.529-1.62c6.132-2.18 12.122-4.68 18.019-7.45l4.292-2.05 41.983 29.389a13.4 13.4 0 0 0 17.17-1.509l60.426-60.41a13.4 13.4 0 0 0 1.509-17.18l-29.387-41.95 2.028-4.33c2.783-5.891 5.236-11.9 7.453-18.02l1.651-4.51 50.424-8.881a13.413 13.413 0 0 0 11.086-13.219v-85.441a13.411 13.411 0 0 0 -11.086-13.218z" fill="#449adc" fill-rule="evenodd"/></svg>