<svg id="&#x421;&#x43B;&#x43E;&#x439;_1" enable-background="new 0 0 160 160" viewBox="0 0 160 160" xmlns="http://www.w3.org/2000/svg" xmlns:xlink="http://www.w3.org/1999/xlink"><linearGradient id="SVGID_1_" gradientUnits="userSpaceOnUse" x1="34.798" x2="127.202" y1="41.906" y2="134.309"><stop offset="0" stop-color="#0fd100"/><stop offset="1" stop-color="#6bff00"/></linearGradient><path d="m120.738 81.459c.739-1.782 2.22-3.583 3.789-5.489 2.565-3.117 5.473-6.652 5.473-10.97s-2.908-7.853-5.474-10.971c-1.568-1.906-3.05-3.707-3.789-5.488-.79-1.905-1.039-4.309-1.302-6.854-.428-4.139-.871-8.419-3.788-11.335-2.916-2.917-7.196-3.359-11.335-3.788-2.545-.263-4.949-.512-6.854-1.302-1.781-.739-3.582-2.22-5.488-3.789-3.117-2.565-6.652-5.473-10.97-5.473s-7.853 2.908-10.971 5.474c-1.906 1.568-3.707 3.05-5.489 3.789-1.904.79-4.308 1.039-6.854 1.302-4.139.428-8.419.872-11.335 3.788-2.917 2.917-3.36 7.197-3.788 11.336-.263 2.545-.512 4.949-1.302 6.853-.739 1.782-2.22 3.583-3.789 5.489-2.564 3.116-5.472 6.651-5.472 10.969s2.908 7.852 5.473 10.971c1.569 1.906 3.05 3.707 3.789 5.489.79 1.904 1.039 4.309 1.302 6.854.418 4.043.857 8.217 3.596 11.126l-9.518 35.295c-.194.721.029 1.491.58 1.995.551.505 1.336.661 2.039.404l18.208-6.663 12.414 14.813c.384.459.948.715 1.533.715.143 0 .288-.015.431-.047.728-.161 1.306-.713 1.5-1.433l7.653-28.381 7.654 28.382c.194.72.772 1.272 1.5 1.433.143.032.288.047.431.047.584 0 1.148-.256 1.533-.715l12.414-14.813 18.208 6.663c.703.257 1.488.101 2.039-.404.551-.504.774-1.274.58-1.995l-9.519-35.296c2.739-2.91 3.177-7.084 3.596-11.128.263-2.544.512-4.948 1.302-6.853zm-7.918 15.361c-1.912 1.912-5.315 2.264-8.919 2.637-2.719.281-5.53.572-7.974 1.586-2.331.967-4.449 2.709-6.497 4.395-2.852 2.346-5.546 4.562-8.43 4.562s-5.578-2.216-8.429-4.563c-2.048-1.686-4.167-3.428-6.498-4.395-2.444-1.014-5.255-1.305-7.974-1.586-3.603-.373-7.006-.725-8.919-2.637-1.912-1.912-2.264-5.315-2.637-8.918-.282-2.719-.572-5.53-1.586-7.974-.967-2.332-2.709-4.45-4.395-6.498-2.346-2.852-4.562-5.545-4.562-8.429s2.216-5.578 4.563-8.43c1.686-2.048 3.428-4.166 4.395-6.498 1.013-2.444 1.304-5.255 1.585-7.974.373-3.604.725-7.007 2.637-8.919s5.315-2.265 8.918-2.637c2.719-.281 5.53-.572 7.974-1.586 2.332-.967 4.45-2.709 6.498-4.395 2.852-2.345 5.546-4.561 8.43-4.561s5.578 2.216 8.43 4.563c2.048 1.686 4.166 3.428 6.497 4.395 2.444 1.014 5.255 1.305 7.974 1.586 3.603.373 7.006.725 8.919 2.637 1.912 1.912 2.264 5.316 2.637 8.919.281 2.719.572 5.53 1.585 7.974.967 2.331 2.709 4.449 4.395 6.497 2.347 2.851 4.563 5.545 4.563 8.429s-2.216 5.578-4.563 8.429c-1.686 2.048-3.428 4.167-4.395 6.498-1.013 2.444-1.304 5.255-1.585 7.974-.373 3.603-.725 7.007-2.637 8.919zm-42.337 42.954-10.851-12.948c-.541-.646-1.429-.884-2.22-.594l-15.904 5.82 8.151-30.229c2.441 1.03 5.264 1.327 8.027 1.612 2.545.264 4.949.512 6.854 1.302 1.782.739 3.583 2.22 5.489 3.789 2.257 1.857 4.734 3.888 7.567 4.871zm34.104-13.542c-.792-.29-1.68-.052-2.22.594l-10.851 12.948-7.113-26.376c2.833-.983 5.31-3.014 7.567-4.871 1.906-1.568 3.707-3.05 5.488-3.789 1.904-.79 4.309-1.039 6.854-1.302 2.763-.286 5.586-.582 8.027-1.612l8.151 30.229zm.93-77.225c-1.999 0-3.878.778-5.291 2.192l-21.73 21.73-12.723-12.723c-2.918-2.918-7.665-2.917-10.582 0-1.413 1.412-2.191 3.292-2.191 5.291s.778 3.878 2.192 5.291l18.014 18.014c1.413 1.413 3.292 2.191 5.291 2.191s3.877-.778 5.291-2.191l27.021-27.021c1.414-1.413 2.192-3.292 2.192-5.291s-.778-3.877-2.192-5.291-3.293-2.192-5.292-2.192zm2.463 9.945-27.021 27.021c-1.315 1.315-3.61 1.315-4.925 0l-18.014-18.015c-.658-.657-1.02-1.531-1.02-2.461s.362-1.805 1.02-2.463c.679-.679 1.571-1.018 2.462-1.018.892 0 1.784.339 2.463 1.018l15.551 15.552 24.559-24.559c1.314-1.315 3.609-1.315 4.925 0 .658.657 1.02 1.532 1.02 2.462 0 .931-.362 1.805-1.02 2.463z" fill="url(#SVGID_1_)"/></svg>